%TF.GenerationSoftware,KiCad,Pcbnew,9.0.1*%
%TF.CreationDate,2025-07-15T16:08:35-03:00*%
%TF.ProjectId,USV_PCB_buque_v1.0,5553565f-5043-4425-9f62-757175655f76,rev?*%
%TF.SameCoordinates,Original*%
%TF.FileFunction,Copper,L1,Top*%
%TF.FilePolarity,Positive*%
%FSLAX46Y46*%
G04 Gerber Fmt 4.6, Leading zero omitted, Abs format (unit mm)*
G04 Created by KiCad (PCBNEW 9.0.1) date 2025-07-15 16:08:35*
%MOMM*%
%LPD*%
G01*
G04 APERTURE LIST*
%TA.AperFunction,ComponentPad*%
%ADD10C,2.000000*%
%TD*%
%TA.AperFunction,ComponentPad*%
%ADD11R,2.000000X2.000000*%
%TD*%
%TA.AperFunction,ComponentPad*%
%ADD12C,3.000000*%
%TD*%
%TA.AperFunction,ComponentPad*%
%ADD13C,1.800000*%
%TD*%
%TA.AperFunction,ViaPad*%
%ADD14C,0.600000*%
%TD*%
%TA.AperFunction,Conductor*%
%ADD15C,0.800000*%
%TD*%
%TA.AperFunction,Conductor*%
%ADD16C,1.200000*%
%TD*%
%TA.AperFunction,Conductor*%
%ADD17C,1.500000*%
%TD*%
G04 APERTURE END LIST*
D10*
%TO.P,U2,1,PB12*%
%TO.N,Net-(LAN1-Brown)*%
X211880946Y-46275000D03*
%TO.P,U2,2,PB13*%
%TO.N,Net-(LAN1-Green)*%
X211880946Y-48815000D03*
%TO.P,U2,3,PB14*%
%TO.N,Net-(LAN1-Blue)*%
X211880946Y-51355000D03*
%TO.P,U2,4,PB15*%
%TO.N,Net-(LAN1-Orange)*%
X211880946Y-53895000D03*
%TO.P,U2,5,PA8*%
%TO.N,Net-(LAN5-Orange)*%
X211880946Y-56435000D03*
%TO.P,U2,6,PA9*%
%TO.N,Net-(LAN5-Blue)*%
X211880946Y-58975000D03*
%TO.P,U2,7,PA10*%
%TO.N,Net-(LAN2-Orange)*%
X211880946Y-61515000D03*
%TO.P,U2,8,PA11*%
%TO.N,Net-(LAN2-Brown)*%
X211880946Y-64055000D03*
%TO.P,U2,9,PA12*%
%TO.N,Net-(LAN2-Brown-w)*%
X211880946Y-66595000D03*
%TO.P,U2,10,PA15*%
%TO.N,Net-(LAN2-Green)*%
X211880946Y-69135000D03*
%TO.P,U2,11,PB3*%
%TO.N,Net-(LAN2-Green-w)*%
X211880946Y-71675000D03*
%TO.P,U2,12,PB4*%
%TO.N,Net-(LAN2-Blue)*%
X211880946Y-74215000D03*
%TO.P,U2,13,PB5*%
%TO.N,Net-(U1-CE)*%
X211880946Y-76755000D03*
%TO.P,U2,14,PB6*%
%TO.N,Net-(GPS1-RX)*%
X211880946Y-79295000D03*
%TO.P,U2,15,PB7*%
%TO.N,Net-(GPS1-TX)*%
X211880946Y-81835000D03*
%TO.P,U2,16,PB8*%
%TO.N,Net-(LAN4-Brown)*%
X211880946Y-84375000D03*
%TO.P,U2,17,PB9*%
%TO.N,Net-(LAN4-Green)*%
X211880946Y-86915000D03*
%TO.P,U2,18,5V*%
%TO.N,+5V*%
X211880946Y-89455000D03*
%TO.P,U2,19,GND*%
%TO.N,GND*%
X211880946Y-91995000D03*
%TO.P,U2,20,3V3*%
%TO.N,+3.3V*%
X211880946Y-94535000D03*
%TO.P,U2,21,VBat*%
%TO.N,unconnected-(U2-VBat-Pad21)*%
X227120946Y-94535000D03*
%TO.P,U2,22,PC13*%
%TO.N,unconnected-(U2-PC13-Pad22)*%
X227120946Y-91995000D03*
%TO.P,U2,23,PC14*%
%TO.N,unconnected-(U2-PC14-Pad23)*%
X227120946Y-89455000D03*
%TO.P,U2,24,PC15*%
%TO.N,Net-(U1-IRQ)*%
X227120946Y-86915000D03*
%TO.P,U2,25,PA0*%
%TO.N,/Vbat_test*%
X227120946Y-84375000D03*
%TO.P,U2,26,PA1*%
%TO.N,Net-(LAN3-Brown)*%
X227120946Y-81835000D03*
%TO.P,U2,27,PA2*%
%TO.N,Net-(LAN4-Blue)*%
X227120946Y-79295000D03*
%TO.P,U2,28,PA3*%
%TO.N,Net-(LAN4-Orange)*%
X227120946Y-76755000D03*
%TO.P,U2,29,PA4*%
%TO.N,Net-(LAN5-Green)*%
X227120946Y-74215000D03*
%TO.P,U2,30,PA5*%
%TO.N,Net-(U1-SCK)*%
X227120946Y-71675000D03*
%TO.P,U2,31,PA6*%
%TO.N,Net-(U1-MISO)*%
X227120946Y-69135000D03*
%TO.P,U2,32,PA7*%
%TO.N,Net-(U1-MOSI)*%
X227120946Y-66595000D03*
%TO.P,U2,33,PB0*%
%TO.N,Net-(LAN3-Green)*%
X227120946Y-64055000D03*
%TO.P,U2,34,PB1*%
%TO.N,Net-(LAN3-Blue)*%
X227120946Y-61515000D03*
%TO.P,U2,35,PB10*%
%TO.N,Net-(IMU1-SCL)*%
X227120946Y-58975000D03*
%TO.P,U2,36,PB11*%
%TO.N,Net-(IMU1-SDA)*%
X227120946Y-56435000D03*
%TO.P,U2,37,RST*%
%TO.N,unconnected-(U2-RST-Pad37)*%
X227120946Y-53895000D03*
%TO.P,U2,38,3V3*%
%TO.N,+3.3V*%
X227120946Y-51355000D03*
%TO.P,U2,39,GND*%
%TO.N,GND*%
X227120946Y-48815000D03*
%TO.P,U2,40,GND*%
X227120946Y-46275000D03*
%TD*%
D11*
%TO.P,C1,1*%
%TO.N,+3.3V*%
X235168000Y-50546000D03*
D10*
%TO.P,C1,2*%
%TO.N,GND*%
X235168000Y-65786000D03*
%TD*%
%TO.P,IMU1,1,Vin*%
%TO.N,+3.3V*%
X208780000Y-105216000D03*
%TO.P,IMU1,2,GND*%
%TO.N,GND*%
X211320000Y-105216000D03*
%TO.P,IMU1,3,SCL*%
%TO.N,Net-(IMU1-SCL)*%
X213860000Y-105216000D03*
%TO.P,IMU1,4,SDA*%
%TO.N,Net-(IMU1-SDA)*%
X216400000Y-105216000D03*
%TO.P,IMU1,5,EDA*%
%TO.N,unconnected-(IMU1-EDA-Pad5)*%
X218940000Y-105216000D03*
%TO.P,IMU1,6,ECL*%
%TO.N,unconnected-(IMU1-ECL-Pad6)*%
X221480000Y-105216000D03*
%TO.P,IMU1,7,ADO*%
%TO.N,unconnected-(IMU1-ADO-Pad7)*%
X224020000Y-105216000D03*
%TO.P,IMU1,8,INT*%
%TO.N,unconnected-(IMU1-INT-Pad8)*%
X226560000Y-105216000D03*
%TO.P,IMU1,9,NCS*%
%TO.N,unconnected-(IMU1-NCS-Pad9)*%
X229100000Y-105216000D03*
%TO.P,IMU1,10,FSYNC*%
%TO.N,unconnected-(IMU1-FSYNC-Pad10)*%
X231640000Y-105216000D03*
%TD*%
%TO.P,R1,1*%
%TO.N,+BATT*%
X183134000Y-89154000D03*
%TO.P,R1,2*%
%TO.N,/Vbat_test*%
X183134000Y-96774000D03*
%TD*%
D12*
%TO.P,J1,1,Pin_1*%
%TO.N,+5V*%
X176530000Y-92710000D03*
%TD*%
D10*
%TO.P,U1,1,GND*%
%TO.N,GND*%
X239231000Y-66891500D03*
%TO.P,U1,2,VCC*%
%TO.N,+3.3V*%
X239231000Y-64351500D03*
%TO.P,U1,3,CE*%
%TO.N,Net-(U1-CE)*%
X241771000Y-66891500D03*
%TO.P,U1,4,~{CSN}*%
%TO.N,GND*%
X241771000Y-64351500D03*
%TO.P,U1,5,SCK*%
%TO.N,Net-(U1-SCK)*%
X244311000Y-66891500D03*
%TO.P,U1,6,MOSI*%
%TO.N,Net-(U1-MOSI)*%
X244311000Y-64351500D03*
%TO.P,U1,7,MISO*%
%TO.N,Net-(U1-MISO)*%
X246851000Y-66891500D03*
%TO.P,U1,8,IRQ*%
%TO.N,Net-(U1-IRQ)*%
X246851000Y-64351500D03*
%TD*%
%TO.P,GPS1,1,GND*%
%TO.N,GND*%
X197358000Y-45847000D03*
%TO.P,GPS1,2,TX*%
%TO.N,Net-(GPS1-TX)*%
X194818000Y-45847000D03*
%TO.P,GPS1,3,RX*%
%TO.N,Net-(GPS1-RX)*%
X192278000Y-45847000D03*
%TO.P,GPS1,4,Vcc*%
%TO.N,+3.3V*%
X189738000Y-45847000D03*
%TD*%
%TO.P,R2,1*%
%TO.N,/Vbat_test*%
X206248000Y-101600000D03*
%TO.P,R2,2*%
%TO.N,GND*%
X206248000Y-93980000D03*
%TD*%
D13*
%TO.P,LAN1,1,Brown*%
%TO.N,Net-(LAN1-Brown)*%
X189992000Y-53086000D03*
%TO.P,LAN1,2,Brown-w*%
%TO.N,GND*%
X187452000Y-54356000D03*
%TO.P,LAN1,3,Green*%
%TO.N,Net-(LAN1-Green)*%
X189992000Y-55626000D03*
%TO.P,LAN1,4,Blue-w*%
%TO.N,GND*%
X187452000Y-56896000D03*
%TO.P,LAN1,5,Blue*%
%TO.N,Net-(LAN1-Blue)*%
X189992000Y-58166000D03*
%TO.P,LAN1,6,Green-w*%
%TO.N,GND*%
X187452000Y-59436000D03*
%TO.P,LAN1,7,Orange*%
%TO.N,Net-(LAN1-Orange)*%
X189992000Y-60706000D03*
%TO.P,LAN1,8,Orange-w*%
%TO.N,GND*%
X187452000Y-61976000D03*
%TD*%
%TO.P,LAN4,1,Brown*%
%TO.N,Net-(LAN4-Brown)*%
X240411000Y-97182000D03*
%TO.P,LAN4,2,Brown-w*%
%TO.N,GND*%
X241681000Y-99722000D03*
%TO.P,LAN4,3,Green*%
%TO.N,Net-(LAN4-Green)*%
X242951000Y-97182000D03*
%TO.P,LAN4,4,Blue-w*%
%TO.N,GND*%
X244221000Y-99722000D03*
%TO.P,LAN4,5,Blue*%
%TO.N,Net-(LAN4-Blue)*%
X245491000Y-97182000D03*
%TO.P,LAN4,6,Green-w*%
%TO.N,GND*%
X246761000Y-99722000D03*
%TO.P,LAN4,7,Orange*%
%TO.N,Net-(LAN4-Orange)*%
X248031000Y-97182000D03*
%TO.P,LAN4,8,Orange-w*%
%TO.N,GND*%
X249301000Y-99722000D03*
%TD*%
%TO.P,LAN5,1,Brown*%
%TO.N,+BATT*%
X189992000Y-70612000D03*
%TO.P,LAN5,2,Brown-w*%
%TO.N,GND*%
X187452000Y-71882000D03*
%TO.P,LAN5,3,Green*%
%TO.N,Net-(LAN5-Green)*%
X189992000Y-73152000D03*
%TO.P,LAN5,4,Blue-w*%
%TO.N,GND*%
X187452000Y-74422000D03*
%TO.P,LAN5,5,Blue*%
%TO.N,Net-(LAN5-Blue)*%
X189992000Y-75692000D03*
%TO.P,LAN5,6,Green-w*%
%TO.N,GND*%
X187452000Y-76962000D03*
%TO.P,LAN5,7,Orange*%
%TO.N,Net-(LAN5-Orange)*%
X189992000Y-78232000D03*
%TO.P,LAN5,8,Orange-w*%
%TO.N,GND*%
X187452000Y-79502000D03*
%TD*%
%TO.P,LAN3,1,Brown*%
%TO.N,Net-(LAN3-Brown)*%
X238760000Y-56642000D03*
%TO.P,LAN3,2,Brown-w*%
%TO.N,GND*%
X241300000Y-55372000D03*
%TO.P,LAN3,3,Green*%
%TO.N,Net-(LAN3-Green)*%
X238760000Y-54102000D03*
%TO.P,LAN3,4,Blue-w*%
%TO.N,GND*%
X241300000Y-52832000D03*
%TO.P,LAN3,5,Blue*%
%TO.N,Net-(LAN3-Blue)*%
X238760000Y-51562000D03*
%TO.P,LAN3,6,Green-w*%
%TO.N,GND*%
X241300000Y-50292000D03*
%TO.P,LAN3,7,Orange*%
X238760000Y-49022000D03*
%TO.P,LAN3,8,Orange-w*%
X241300000Y-47752000D03*
%TD*%
%TO.P,LAN2,1,Brown*%
%TO.N,Net-(LAN2-Brown)*%
X188341000Y-97182000D03*
%TO.P,LAN2,2,Brown-w*%
%TO.N,Net-(LAN2-Brown-w)*%
X189611000Y-99722000D03*
%TO.P,LAN2,3,Green*%
%TO.N,Net-(LAN2-Green)*%
X190881000Y-97182000D03*
%TO.P,LAN2,4,Blue-w*%
%TO.N,GND*%
X192151000Y-99722000D03*
%TO.P,LAN2,5,Blue*%
%TO.N,Net-(LAN2-Blue)*%
X193421000Y-97182000D03*
%TO.P,LAN2,6,Green-w*%
%TO.N,Net-(LAN2-Green-w)*%
X194691000Y-99722000D03*
%TO.P,LAN2,7,Orange*%
%TO.N,Net-(LAN2-Orange)*%
X195961000Y-97182000D03*
%TO.P,LAN2,8,Orange-w*%
%TO.N,GND*%
X197231000Y-99722000D03*
%TD*%
D14*
%TO.N,Net-(U1-MISO)*%
X230378000Y-69135000D03*
X246851000Y-70141000D03*
%TO.N,Net-(U1-MOSI)*%
X230585000Y-66595000D03*
X243175210Y-61311210D03*
%TO.N,Net-(IMU1-SDA)*%
X221234000Y-65711889D03*
X221234000Y-57912000D03*
%TO.N,Net-(GPS1-RX)*%
X191516000Y-84074000D03*
X184912000Y-85090000D03*
%TO.N,/Vbat_test*%
X219964000Y-101600000D03*
%TO.N,Net-(U1-IRQ)*%
X238760000Y-86915000D03*
%TO.N,Net-(U1-CE)*%
X219329000Y-48387000D03*
X230124000Y-54610000D03*
%TO.N,Net-(LAN3-Blue)*%
X230378000Y-61468000D03*
%TO.N,Net-(LAN3-Green)*%
X230378000Y-64008000D03*
%TO.N,Net-(LAN3-Brown)*%
X250698000Y-71120000D03*
%TO.N,Net-(LAN4-Green)*%
X215138000Y-86915000D03*
%TO.N,Net-(LAN4-Brown)*%
X206756000Y-84328000D03*
%TO.N,Net-(LAN4-Orange)*%
X231902000Y-76755000D03*
%TO.N,Net-(LAN4-Blue)*%
X231902000Y-79295000D03*
%TO.N,Net-(LAN5-Blue)*%
X195707000Y-70485000D03*
%TO.N,Net-(LAN5-Green)*%
X223012000Y-74168000D03*
%TO.N,Net-(LAN5-Orange)*%
X206803000Y-56435000D03*
%TO.N,Net-(LAN1-Orange)*%
X194818000Y-60706000D03*
%TO.N,Net-(LAN1-Green)*%
X195072000Y-55626000D03*
%TO.N,Net-(LAN1-Brown)*%
X195072000Y-53086000D03*
%TO.N,Net-(LAN1-Blue)*%
X195072000Y-58166000D03*
%TO.N,Net-(LAN2-Blue)*%
X196850000Y-81280000D03*
%TO.N,Net-(LAN2-Brown-w)*%
X207518000Y-66595000D03*
%TO.N,Net-(LAN2-Green)*%
X195072000Y-81280000D03*
%TO.N,Net-(LAN2-Orange)*%
X207010000Y-61468000D03*
%TO.N,Net-(LAN2-Brown)*%
X193294000Y-81280000D03*
%TO.N,Net-(LAN2-Green-w)*%
X203454000Y-71628000D03*
%TD*%
D15*
%TO.N,Net-(U1-MISO)*%
X246851000Y-66891500D02*
X246851000Y-67252053D01*
X230378000Y-69135000D02*
X227120946Y-69135000D01*
X246851000Y-70141000D02*
X246851000Y-66891500D01*
D16*
%TO.N,+3.3V*%
X234465000Y-53918000D02*
X234465000Y-59585500D01*
X225345000Y-51355000D02*
X227120946Y-51355000D01*
X234465000Y-53571000D02*
X235168000Y-52868000D01*
X189738000Y-45847000D02*
X189738000Y-43688000D01*
X227120946Y-51355000D02*
X231902000Y-51355000D01*
X216035000Y-42045000D02*
X225345000Y-51355000D01*
X235168000Y-52868000D02*
X235168000Y-50546000D01*
X191381000Y-42045000D02*
X216035000Y-42045000D01*
X234465000Y-59585500D02*
X239231000Y-64351500D01*
X211880946Y-94535000D02*
X208780000Y-97635946D01*
X208780000Y-97635946D02*
X208780000Y-105216000D01*
X231902000Y-51355000D02*
X234465000Y-53918000D01*
X189738000Y-43688000D02*
X191381000Y-42045000D01*
X234465000Y-53918000D02*
X234465000Y-53571000D01*
D15*
%TO.N,Net-(U1-MOSI)*%
X243175210Y-61311210D02*
X244311000Y-62447000D01*
X230585000Y-66595000D02*
X227120946Y-66595000D01*
X244311000Y-62447000D02*
X244311000Y-64351500D01*
%TO.N,Net-(U1-SCK)*%
X242449000Y-71675000D02*
X244311000Y-69813000D01*
X227120946Y-71675000D02*
X242449000Y-71675000D01*
X244311000Y-69813000D02*
X244311000Y-66891500D01*
X227459946Y-72014000D02*
X227120946Y-71675000D01*
%TO.N,Net-(IMU1-SCL)*%
X224489000Y-58975000D02*
X219633000Y-63831000D01*
X219633000Y-96343000D02*
X213860000Y-102116000D01*
X213860000Y-102116000D02*
X213860000Y-105216000D01*
X227120946Y-58975000D02*
X224489000Y-58975000D01*
X219633000Y-63831000D02*
X219633000Y-96343000D01*
X227354631Y-59314000D02*
X227693631Y-58975000D01*
%TO.N,Net-(IMU1-SDA)*%
X216400000Y-102116000D02*
X216400000Y-105216000D01*
X216400000Y-105216000D02*
X216408000Y-105208000D01*
X222711000Y-56435000D02*
X227120946Y-56435000D01*
X221234000Y-57912000D02*
X222711000Y-56435000D01*
X221234000Y-65711889D02*
X221234000Y-97282000D01*
X221234000Y-97282000D02*
X216400000Y-102116000D01*
%TO.N,Net-(GPS1-RX)*%
X200173844Y-84074000D02*
X204613844Y-79634000D01*
X204613844Y-79634000D02*
X211541946Y-79634000D01*
X184150000Y-85090000D02*
X181356000Y-82296000D01*
X211800946Y-79375000D02*
X211880946Y-79295000D01*
X186182000Y-48768000D02*
X191262000Y-48768000D01*
X192278000Y-47752000D02*
X192278000Y-45847000D01*
X181356000Y-82296000D02*
X181356000Y-53594000D01*
X181356000Y-53594000D02*
X186182000Y-48768000D01*
X184912000Y-85090000D02*
X184150000Y-85090000D01*
X191262000Y-48768000D02*
X192278000Y-47752000D01*
X191516000Y-84074000D02*
X200173844Y-84074000D01*
X211541946Y-79634000D02*
X211880946Y-79295000D01*
%TO.N,Net-(GPS1-TX)*%
X194818000Y-45847000D02*
X194818000Y-47752000D01*
X192024000Y-50546000D02*
X186944000Y-50546000D01*
X197358000Y-89154000D02*
X204677000Y-81835000D01*
X204677000Y-81835000D02*
X211880946Y-81835000D01*
X188058844Y-89154000D02*
X197358000Y-89154000D01*
X183134000Y-54356000D02*
X183134000Y-81026000D01*
X194818000Y-47752000D02*
X192024000Y-50546000D01*
X186944000Y-50546000D02*
X183134000Y-54356000D01*
X183134000Y-81026000D02*
X187121000Y-85013000D01*
X187121000Y-85013000D02*
X187121000Y-88216156D01*
X210678865Y-81835000D02*
X211880946Y-81835000D01*
X187121000Y-88216156D02*
X188058844Y-89154000D01*
D17*
%TO.N,+5V*%
X198120000Y-92710000D02*
X176530000Y-92710000D01*
X211880946Y-89455000D02*
X201375000Y-89455000D01*
X201375000Y-89455000D02*
X198120000Y-92710000D01*
D15*
%TO.N,/Vbat_test*%
X223012000Y-87069733D02*
X225706733Y-84375000D01*
X183134000Y-101092000D02*
X186436000Y-104394000D01*
X203454000Y-104394000D02*
X206248000Y-101600000D01*
X227459946Y-84036000D02*
X227120946Y-84375000D01*
X225706733Y-84375000D02*
X227120946Y-84375000D01*
X186436000Y-104394000D02*
X203454000Y-104394000D01*
X219964000Y-101600000D02*
X223012000Y-98552000D01*
X223012000Y-98552000D02*
X223012000Y-87069733D01*
X183134000Y-96774000D02*
X183134000Y-101092000D01*
%TO.N,Net-(U1-IRQ)*%
X238760000Y-86915000D02*
X227120946Y-86915000D01*
%TO.N,Net-(U1-CE)*%
X211927946Y-76708000D02*
X211880946Y-76755000D01*
X234412000Y-70074000D02*
X240314000Y-70074000D01*
X213868000Y-76708000D02*
X211927946Y-76708000D01*
X241771000Y-68617000D02*
X241771000Y-66891500D01*
X232664000Y-57150000D02*
X232664000Y-68326000D01*
X232664000Y-68326000D02*
X234412000Y-70074000D01*
X215646000Y-74930000D02*
X213868000Y-76708000D01*
X230124000Y-54610000D02*
X232664000Y-57150000D01*
X240314000Y-70074000D02*
X241771000Y-68617000D01*
X215646000Y-52070000D02*
X215646000Y-74930000D01*
X219329000Y-48387000D02*
X215646000Y-52070000D01*
%TO.N,Net-(LAN3-Blue)*%
X230331000Y-61515000D02*
X230378000Y-61468000D01*
X227120946Y-61515000D02*
X230331000Y-61515000D01*
%TO.N,Net-(LAN3-Green)*%
X227120946Y-64055000D02*
X230331000Y-64055000D01*
X230331000Y-64055000D02*
X230378000Y-64008000D01*
%TO.N,Net-(LAN3-Brown)*%
X233633000Y-81835000D02*
X227120946Y-81835000D01*
X249691897Y-73660000D02*
X241808000Y-73660000D01*
X250698000Y-71120000D02*
X250698000Y-72653897D01*
X250698000Y-72653897D02*
X249691897Y-73660000D01*
X241808000Y-73660000D02*
X233633000Y-81835000D01*
%TO.N,Net-(LAN4-Green)*%
X215138000Y-86915000D02*
X211880946Y-86915000D01*
%TO.N,Net-(LAN4-Brown)*%
X211833946Y-84328000D02*
X211880946Y-84375000D01*
X206756000Y-84328000D02*
X211833946Y-84328000D01*
%TO.N,Net-(LAN4-Orange)*%
X231902000Y-76755000D02*
X227120946Y-76755000D01*
%TO.N,Net-(LAN4-Blue)*%
X231902000Y-79295000D02*
X227120946Y-79295000D01*
%TO.N,Net-(LAN5-Blue)*%
X207217000Y-58975000D02*
X211880946Y-58975000D01*
X195707000Y-70485000D02*
X207217000Y-58975000D01*
%TO.N,Net-(LAN5-Green)*%
X227073946Y-74168000D02*
X227120946Y-74215000D01*
X223012000Y-74168000D02*
X227073946Y-74168000D01*
%TO.N,Net-(LAN5-Orange)*%
X206803000Y-56435000D02*
X211880946Y-56435000D01*
%TO.N,Net-(LAN1-Orange)*%
X211673946Y-54102000D02*
X211880946Y-53895000D01*
X202902312Y-54102000D02*
X211673946Y-54102000D01*
X196298312Y-60706000D02*
X202902312Y-54102000D01*
X194818000Y-60706000D02*
X196298312Y-60706000D01*
%TO.N,Net-(LAN1-Green)*%
X203708000Y-48768000D02*
X211833946Y-48768000D01*
X211833946Y-48768000D02*
X211880946Y-48815000D01*
X196850000Y-55626000D02*
X203708000Y-48768000D01*
X195072000Y-55626000D02*
X196850000Y-55626000D01*
%TO.N,Net-(LAN1-Brown)*%
X203407000Y-46275000D02*
X211880946Y-46275000D01*
X196596000Y-53086000D02*
X203407000Y-46275000D01*
X195072000Y-53086000D02*
X196596000Y-53086000D01*
%TO.N,Net-(LAN1-Blue)*%
X203432156Y-51308000D02*
X211833946Y-51308000D01*
X211833946Y-51308000D02*
X211880946Y-51355000D01*
X195072000Y-58166000D02*
X196574156Y-58166000D01*
X196574156Y-58166000D02*
X203432156Y-51308000D01*
%TO.N,Net-(LAN2-Blue)*%
X196850000Y-76708000D02*
X199343000Y-74215000D01*
X196850000Y-81280000D02*
X196850000Y-76708000D01*
X199343000Y-74215000D02*
X211880946Y-74215000D01*
%TO.N,Net-(LAN2-Brown-w)*%
X207518000Y-66595000D02*
X211880946Y-66595000D01*
%TO.N,Net-(LAN2-Green)*%
X202137000Y-69135000D02*
X211880946Y-69135000D01*
X195072000Y-81280000D02*
X195072000Y-76200000D01*
X195072000Y-76200000D02*
X202137000Y-69135000D01*
%TO.N,Net-(LAN2-Orange)*%
X207010000Y-61468000D02*
X211833946Y-61468000D01*
X211833946Y-61468000D02*
X211880946Y-61515000D01*
%TO.N,Net-(LAN2-Brown)*%
X193294000Y-81280000D02*
X193294000Y-75692000D01*
X193294000Y-75692000D02*
X204931000Y-64055000D01*
X204931000Y-64055000D02*
X211880946Y-64055000D01*
%TO.N,Net-(LAN2-Green-w)*%
X211833946Y-71628000D02*
X211880946Y-71675000D01*
X203454000Y-71628000D02*
X211833946Y-71628000D01*
%TD*%
%TA.AperFunction,Conductor*%
%TO.N,GND*%
G36*
X220653599Y-48653580D02*
G01*
X220686569Y-48677176D01*
X224432636Y-52423243D01*
X224432641Y-52423247D01*
X224580875Y-52530944D01*
X224610978Y-52552815D01*
X224726916Y-52611889D01*
X224807393Y-52652895D01*
X224807396Y-52652896D01*
X224883448Y-52677606D01*
X225017049Y-52721015D01*
X225234778Y-52755500D01*
X225455221Y-52755500D01*
X225485025Y-52755500D01*
X225552064Y-52775185D01*
X225597819Y-52827989D01*
X225607763Y-52897147D01*
X225592412Y-52941500D01*
X225502665Y-53096943D01*
X225502660Y-53096954D01*
X225412340Y-53315006D01*
X225351252Y-53542989D01*
X225320447Y-53776979D01*
X225320446Y-53776995D01*
X225320446Y-54013004D01*
X225320447Y-54013020D01*
X225351252Y-54247010D01*
X225412340Y-54474993D01*
X225502660Y-54693045D01*
X225502665Y-54693056D01*
X225546944Y-54769748D01*
X225620673Y-54897450D01*
X225620675Y-54897453D01*
X225620676Y-54897454D01*
X225726229Y-55035014D01*
X225751423Y-55100183D01*
X225737385Y-55168628D01*
X225688571Y-55218617D01*
X225627853Y-55234500D01*
X222616514Y-55234500D01*
X222429881Y-55264059D01*
X222250163Y-55322454D01*
X222081800Y-55408240D01*
X221928923Y-55519312D01*
X220318312Y-57129923D01*
X220207240Y-57282800D01*
X220121454Y-57451163D01*
X220063059Y-57630881D01*
X220033500Y-57817513D01*
X220033500Y-58006486D01*
X220063059Y-58193118D01*
X220121454Y-58372836D01*
X220159303Y-58447118D01*
X220207240Y-58541199D01*
X220318310Y-58694074D01*
X220451926Y-58827690D01*
X220604801Y-58938760D01*
X220684347Y-58979290D01*
X220773163Y-59024545D01*
X220773165Y-59024545D01*
X220773168Y-59024547D01*
X220869497Y-59055846D01*
X220952881Y-59082940D01*
X221139514Y-59112500D01*
X221139519Y-59112500D01*
X221328486Y-59112500D01*
X221515118Y-59082940D01*
X221575689Y-59063259D01*
X221694832Y-59024547D01*
X221863199Y-58938760D01*
X222016074Y-58827690D01*
X223171945Y-57671819D01*
X223233268Y-57638334D01*
X223259626Y-57635500D01*
X223957090Y-57635500D01*
X224024129Y-57655185D01*
X224069884Y-57707989D01*
X224079828Y-57777147D01*
X224050803Y-57840703D01*
X224013385Y-57869985D01*
X223859800Y-57948240D01*
X223706923Y-58059312D01*
X218717312Y-63048923D01*
X218606240Y-63201800D01*
X218520454Y-63370163D01*
X218462059Y-63549881D01*
X218432500Y-63736513D01*
X218432500Y-95794374D01*
X218412815Y-95861413D01*
X218396181Y-95882055D01*
X212944312Y-101333923D01*
X212944312Y-101333924D01*
X212944310Y-101333926D01*
X212901098Y-101393402D01*
X212836735Y-101481990D01*
X212833243Y-101486794D01*
X212747454Y-101655163D01*
X212689059Y-101834881D01*
X212659500Y-102021513D01*
X212659500Y-103818846D01*
X212639815Y-103885885D01*
X212623181Y-103906527D01*
X212503412Y-104026295D01*
X212503406Y-104026302D01*
X212359730Y-104213545D01*
X212241719Y-104417943D01*
X212241714Y-104417954D01*
X212151392Y-104636010D01*
X212151392Y-104636012D01*
X212122601Y-104743458D01*
X212090508Y-104799044D01*
X211720000Y-105169552D01*
X211720000Y-105163339D01*
X211692741Y-105061606D01*
X211640080Y-104970394D01*
X211565606Y-104895920D01*
X211474394Y-104843259D01*
X211372661Y-104816000D01*
X211366446Y-104816000D01*
X212189105Y-103993340D01*
X212189104Y-103993338D01*
X212106174Y-103933087D01*
X211895802Y-103825897D01*
X211671247Y-103752934D01*
X211671248Y-103752934D01*
X211438052Y-103716000D01*
X211201948Y-103716000D01*
X210968752Y-103752934D01*
X210744197Y-103825897D01*
X210533825Y-103933087D01*
X210377385Y-104046747D01*
X210311579Y-104070227D01*
X210243525Y-104054401D01*
X210194830Y-104004296D01*
X210180500Y-103946429D01*
X210180500Y-98267413D01*
X210200185Y-98200374D01*
X210216814Y-98179737D01*
X212040702Y-96355848D01*
X212102025Y-96322364D01*
X212112196Y-96320591D01*
X212232960Y-96304693D01*
X212460939Y-96243606D01*
X212678995Y-96153284D01*
X212883396Y-96035273D01*
X213070645Y-95891592D01*
X213237538Y-95724699D01*
X213381219Y-95537450D01*
X213499230Y-95333049D01*
X213589552Y-95114993D01*
X213650639Y-94887014D01*
X213681446Y-94653011D01*
X213681446Y-94416989D01*
X213650639Y-94182986D01*
X213589552Y-93955007D01*
X213499230Y-93736951D01*
X213499228Y-93736948D01*
X213499226Y-93736943D01*
X213408614Y-93580000D01*
X213381219Y-93532550D01*
X213318688Y-93451058D01*
X213237539Y-93345302D01*
X213237533Y-93345295D01*
X213070650Y-93178412D01*
X213070643Y-93178406D01*
X212883400Y-93034730D01*
X212883399Y-93034729D01*
X212883396Y-93034727D01*
X212801903Y-92987677D01*
X212679002Y-92916719D01*
X212678991Y-92916714D01*
X212460939Y-92826394D01*
X212353487Y-92797602D01*
X212297900Y-92765508D01*
X211927393Y-92395000D01*
X211933607Y-92395000D01*
X212035340Y-92367741D01*
X212126552Y-92315080D01*
X212201026Y-92240606D01*
X212253687Y-92149394D01*
X212280946Y-92047661D01*
X212280946Y-92041446D01*
X213103604Y-92864105D01*
X213103604Y-92864104D01*
X213163860Y-92781169D01*
X213163864Y-92781163D01*
X213271048Y-92570802D01*
X213344011Y-92346247D01*
X213380946Y-92113052D01*
X213380946Y-91876947D01*
X213344011Y-91643752D01*
X213271048Y-91419197D01*
X213163860Y-91208828D01*
X213103604Y-91125894D01*
X213103604Y-91125893D01*
X212280946Y-91948552D01*
X212280946Y-91942339D01*
X212253687Y-91840606D01*
X212201026Y-91749394D01*
X212126552Y-91674920D01*
X212035340Y-91622259D01*
X211933607Y-91595000D01*
X211927391Y-91595000D01*
X212297900Y-91224490D01*
X212353483Y-91192398D01*
X212460939Y-91163606D01*
X212678995Y-91073284D01*
X212883396Y-90955273D01*
X213070645Y-90811592D01*
X213237538Y-90644699D01*
X213381219Y-90457450D01*
X213499230Y-90253049D01*
X213589552Y-90034993D01*
X213650639Y-89807014D01*
X213681446Y-89573011D01*
X213681446Y-89336989D01*
X213650639Y-89102986D01*
X213589552Y-88875007D01*
X213499230Y-88656951D01*
X213499228Y-88656948D01*
X213499226Y-88656943D01*
X213407040Y-88497274D01*
X213381219Y-88452550D01*
X213351381Y-88413664D01*
X213275663Y-88314986D01*
X213250469Y-88249817D01*
X213264507Y-88181372D01*
X213313321Y-88131383D01*
X213374039Y-88115500D01*
X215232486Y-88115500D01*
X215419118Y-88085940D01*
X215598832Y-88027547D01*
X215767199Y-87941760D01*
X215920073Y-87830690D01*
X216053690Y-87697073D01*
X216164760Y-87544199D01*
X216250547Y-87375832D01*
X216308940Y-87196118D01*
X216338500Y-87009486D01*
X216338500Y-86820513D01*
X216308940Y-86633881D01*
X216250545Y-86454163D01*
X216205290Y-86365347D01*
X216164760Y-86285801D01*
X216053690Y-86132927D01*
X215920073Y-85999310D01*
X215767199Y-85888240D01*
X215598836Y-85802454D01*
X215419118Y-85744059D01*
X215232486Y-85714500D01*
X215232481Y-85714500D01*
X213374039Y-85714500D01*
X213307000Y-85694815D01*
X213261245Y-85642011D01*
X213251301Y-85572853D01*
X213275663Y-85515014D01*
X213332803Y-85440547D01*
X213381219Y-85377450D01*
X213499230Y-85173049D01*
X213589552Y-84954993D01*
X213650639Y-84727014D01*
X213681446Y-84493011D01*
X213681446Y-84256989D01*
X213650639Y-84022986D01*
X213589552Y-83795007D01*
X213499230Y-83576951D01*
X213499228Y-83576948D01*
X213499226Y-83576943D01*
X213422933Y-83444801D01*
X213381219Y-83372550D01*
X213302518Y-83269985D01*
X213235067Y-83182080D01*
X213236232Y-83181185D01*
X213209415Y-83123381D01*
X213218944Y-83054165D01*
X213235565Y-83028302D01*
X213235067Y-83027920D01*
X213313887Y-82925199D01*
X213381219Y-82837450D01*
X213499230Y-82633049D01*
X213589552Y-82414993D01*
X213650639Y-82187014D01*
X213681446Y-81953011D01*
X213681446Y-81716989D01*
X213650639Y-81482986D01*
X213589552Y-81255007D01*
X213499230Y-81036951D01*
X213499228Y-81036948D01*
X213499226Y-81036943D01*
X213457064Y-80963918D01*
X213381219Y-80832550D01*
X213348051Y-80789325D01*
X213235067Y-80642080D01*
X213236232Y-80641185D01*
X213209415Y-80583381D01*
X213218944Y-80514165D01*
X213235565Y-80488302D01*
X213235067Y-80487920D01*
X213362565Y-80321760D01*
X213381219Y-80297450D01*
X213499230Y-80093049D01*
X213589552Y-79874993D01*
X213650639Y-79647014D01*
X213681446Y-79413011D01*
X213681446Y-79176989D01*
X213650639Y-78942986D01*
X213589552Y-78715007D01*
X213499230Y-78496951D01*
X213499228Y-78496948D01*
X213499226Y-78496943D01*
X213454638Y-78419716D01*
X213381219Y-78292550D01*
X213353652Y-78256624D01*
X213239599Y-78107986D01*
X213214405Y-78042817D01*
X213228443Y-77974372D01*
X213277258Y-77924383D01*
X213337975Y-77908500D01*
X213962486Y-77908500D01*
X214149118Y-77878940D01*
X214328832Y-77820547D01*
X214497199Y-77734760D01*
X214650074Y-77623690D01*
X216561690Y-75712073D01*
X216672760Y-75559199D01*
X216758547Y-75390832D01*
X216816940Y-75211118D01*
X216818774Y-75199536D01*
X216846500Y-75024486D01*
X216846500Y-52618625D01*
X216866185Y-52551586D01*
X216882819Y-52530944D01*
X218546260Y-50867503D01*
X220244690Y-49169073D01*
X220355760Y-49016199D01*
X220441547Y-48847832D01*
X220480958Y-48726536D01*
X220520394Y-48668864D01*
X220584753Y-48641665D01*
X220653599Y-48653580D01*
G37*
%TD.AperFunction*%
%TA.AperFunction,Conductor*%
G36*
X215470571Y-43465185D02*
G01*
X215491213Y-43481819D01*
X219038823Y-47029430D01*
X219072308Y-47090753D01*
X219067324Y-47160445D01*
X219025452Y-47216378D01*
X218989461Y-47235042D01*
X218868163Y-47274454D01*
X218699800Y-47360240D01*
X218647215Y-47398446D01*
X218546927Y-47471310D01*
X218546925Y-47471312D01*
X218546924Y-47471312D01*
X214730312Y-51287923D01*
X214730307Y-51287929D01*
X214647081Y-51402481D01*
X214647080Y-51402482D01*
X214619242Y-51440796D01*
X214533454Y-51609163D01*
X214475059Y-51788881D01*
X214445500Y-51975513D01*
X214445500Y-74381374D01*
X214425815Y-74448413D01*
X214409181Y-74469055D01*
X213665328Y-75212907D01*
X213604005Y-75246392D01*
X213534313Y-75241408D01*
X213478380Y-75199536D01*
X213453963Y-75134072D01*
X213468815Y-75065799D01*
X213470261Y-75063225D01*
X213499224Y-75013060D01*
X213499225Y-75013056D01*
X213499230Y-75013049D01*
X213589552Y-74794993D01*
X213650639Y-74567014D01*
X213681446Y-74333011D01*
X213681446Y-74096989D01*
X213650639Y-73862986D01*
X213589552Y-73635007D01*
X213499230Y-73416951D01*
X213499228Y-73416948D01*
X213499226Y-73416943D01*
X213457064Y-73343918D01*
X213381219Y-73212550D01*
X213306288Y-73114898D01*
X213235067Y-73022080D01*
X213236232Y-73021185D01*
X213209415Y-72963381D01*
X213218944Y-72894165D01*
X213235565Y-72868302D01*
X213235067Y-72867920D01*
X213332803Y-72740547D01*
X213381219Y-72677450D01*
X213499230Y-72473049D01*
X213589552Y-72254993D01*
X213650639Y-72027014D01*
X213681446Y-71793011D01*
X213681446Y-71556989D01*
X213650639Y-71322986D01*
X213589552Y-71095007D01*
X213499230Y-70876951D01*
X213499228Y-70876948D01*
X213499226Y-70876943D01*
X213457064Y-70803918D01*
X213381219Y-70672550D01*
X213326501Y-70601240D01*
X213235067Y-70482080D01*
X213236232Y-70481185D01*
X213209415Y-70423381D01*
X213218944Y-70354165D01*
X213235565Y-70328302D01*
X213235067Y-70327920D01*
X213305997Y-70235481D01*
X213381219Y-70137450D01*
X213499230Y-69933049D01*
X213589552Y-69714993D01*
X213650639Y-69487014D01*
X213681446Y-69253011D01*
X213681446Y-69016989D01*
X213650639Y-68782986D01*
X213589552Y-68555007D01*
X213499230Y-68336951D01*
X213499228Y-68336948D01*
X213499226Y-68336943D01*
X213433657Y-68223375D01*
X213381219Y-68132550D01*
X213341814Y-68081196D01*
X213235067Y-67942080D01*
X213236232Y-67941185D01*
X213209415Y-67883381D01*
X213218944Y-67814165D01*
X213235565Y-67788302D01*
X213235067Y-67787920D01*
X213302518Y-67700015D01*
X213381219Y-67597450D01*
X213499230Y-67393049D01*
X213589552Y-67174993D01*
X213650639Y-66947014D01*
X213681446Y-66713011D01*
X213681446Y-66476989D01*
X213650639Y-66242986D01*
X213589552Y-66015007D01*
X213499230Y-65796951D01*
X213499228Y-65796948D01*
X213499226Y-65796943D01*
X213424749Y-65667947D01*
X213381219Y-65592550D01*
X213302518Y-65489985D01*
X213235067Y-65402080D01*
X213236232Y-65401185D01*
X213209415Y-65343381D01*
X213218944Y-65274165D01*
X213235565Y-65248302D01*
X213235067Y-65247920D01*
X213296739Y-65167546D01*
X213381219Y-65057450D01*
X213499230Y-64853049D01*
X213589552Y-64634993D01*
X213650639Y-64407014D01*
X213681446Y-64173011D01*
X213681446Y-63936989D01*
X213650639Y-63702986D01*
X213589552Y-63475007D01*
X213499230Y-63256951D01*
X213499228Y-63256948D01*
X213499226Y-63256943D01*
X213444296Y-63161803D01*
X213381219Y-63052550D01*
X213278837Y-62919123D01*
X213235067Y-62862080D01*
X213236232Y-62861185D01*
X213209415Y-62803381D01*
X213218944Y-62734165D01*
X213235565Y-62708302D01*
X213235067Y-62707920D01*
X213332803Y-62580547D01*
X213381219Y-62517450D01*
X213499230Y-62313049D01*
X213589552Y-62094993D01*
X213650639Y-61867014D01*
X213681446Y-61633011D01*
X213681446Y-61396989D01*
X213650639Y-61162986D01*
X213589552Y-60935007D01*
X213499230Y-60716951D01*
X213499228Y-60716948D01*
X213499226Y-60716943D01*
X213428561Y-60594549D01*
X213381219Y-60512550D01*
X213313948Y-60424881D01*
X213235067Y-60322080D01*
X213236232Y-60321185D01*
X213209415Y-60263381D01*
X213218944Y-60194165D01*
X213235565Y-60168302D01*
X213235067Y-60167920D01*
X213304985Y-60076800D01*
X213381219Y-59977450D01*
X213499230Y-59773049D01*
X213589552Y-59554993D01*
X213650639Y-59327014D01*
X213681446Y-59093011D01*
X213681446Y-58856989D01*
X213650639Y-58622986D01*
X213589552Y-58395007D01*
X213499230Y-58176951D01*
X213499228Y-58176948D01*
X213499226Y-58176943D01*
X213431100Y-58058947D01*
X213381219Y-57972550D01*
X213296739Y-57862453D01*
X213235067Y-57782080D01*
X213236232Y-57781185D01*
X213209415Y-57723381D01*
X213218944Y-57654165D01*
X213235565Y-57628302D01*
X213235067Y-57627920D01*
X213362565Y-57461760D01*
X213381219Y-57437450D01*
X213499230Y-57233049D01*
X213589552Y-57014993D01*
X213650639Y-56787014D01*
X213681446Y-56553011D01*
X213681446Y-56316989D01*
X213650639Y-56082986D01*
X213589552Y-55855007D01*
X213499230Y-55636951D01*
X213499228Y-55636948D01*
X213499226Y-55636943D01*
X213430771Y-55518377D01*
X213381219Y-55432550D01*
X213309297Y-55338819D01*
X213235067Y-55242080D01*
X213236232Y-55241185D01*
X213209415Y-55183381D01*
X213218944Y-55114165D01*
X213235565Y-55088302D01*
X213235067Y-55087920D01*
X213375713Y-54904625D01*
X213381219Y-54897450D01*
X213499230Y-54693049D01*
X213589552Y-54474993D01*
X213650639Y-54247014D01*
X213681446Y-54013011D01*
X213681446Y-53776989D01*
X213650639Y-53542986D01*
X213589552Y-53315007D01*
X213499230Y-53096951D01*
X213499228Y-53096948D01*
X213499226Y-53096943D01*
X213430771Y-52978377D01*
X213381219Y-52892550D01*
X213313948Y-52804881D01*
X213235067Y-52702080D01*
X213236232Y-52701185D01*
X213209415Y-52643381D01*
X213218944Y-52574165D01*
X213235565Y-52548302D01*
X213235067Y-52547920D01*
X213330735Y-52423242D01*
X213381219Y-52357450D01*
X213499230Y-52153049D01*
X213589552Y-51934993D01*
X213650639Y-51707014D01*
X213681446Y-51473011D01*
X213681446Y-51236989D01*
X213650639Y-51002986D01*
X213589552Y-50775007D01*
X213499230Y-50556951D01*
X213499228Y-50556948D01*
X213499226Y-50556943D01*
X213433231Y-50442638D01*
X213381219Y-50352550D01*
X213326126Y-50280751D01*
X213235067Y-50162080D01*
X213236232Y-50161185D01*
X213209415Y-50103381D01*
X213218944Y-50034165D01*
X213235565Y-50008302D01*
X213235067Y-50007920D01*
X213325092Y-49890596D01*
X213381219Y-49817450D01*
X213499230Y-49613049D01*
X213589552Y-49394993D01*
X213650639Y-49167014D01*
X213681446Y-48933011D01*
X213681446Y-48696989D01*
X213650639Y-48462986D01*
X213589552Y-48235007D01*
X213499230Y-48016951D01*
X213499228Y-48016948D01*
X213499226Y-48016943D01*
X213435400Y-47906394D01*
X213381219Y-47812550D01*
X213326501Y-47741240D01*
X213235067Y-47622080D01*
X213236232Y-47621185D01*
X213209415Y-47563381D01*
X213218944Y-47494165D01*
X213235565Y-47468302D01*
X213235067Y-47467920D01*
X213329291Y-47345124D01*
X213381219Y-47277450D01*
X213499230Y-47073049D01*
X213589552Y-46854993D01*
X213650639Y-46627014D01*
X213681446Y-46393011D01*
X213681446Y-46156989D01*
X213650639Y-45922986D01*
X213589552Y-45695007D01*
X213499230Y-45476951D01*
X213499228Y-45476948D01*
X213499226Y-45476943D01*
X213431310Y-45359310D01*
X213381219Y-45272550D01*
X213315789Y-45187280D01*
X213237539Y-45085302D01*
X213237533Y-45085295D01*
X213070650Y-44918412D01*
X213070643Y-44918406D01*
X212883400Y-44774730D01*
X212883399Y-44774729D01*
X212883396Y-44774727D01*
X212779120Y-44714523D01*
X212679002Y-44656719D01*
X212678991Y-44656714D01*
X212460939Y-44566394D01*
X212232956Y-44505306D01*
X211998966Y-44474501D01*
X211998963Y-44474500D01*
X211998957Y-44474500D01*
X211762935Y-44474500D01*
X211762929Y-44474500D01*
X211762925Y-44474501D01*
X211528935Y-44505306D01*
X211300952Y-44566394D01*
X211082900Y-44656714D01*
X211082889Y-44656719D01*
X210878491Y-44774730D01*
X210691249Y-44918405D01*
X210631762Y-44977893D01*
X210571472Y-45038182D01*
X210510152Y-45071666D01*
X210483793Y-45074500D01*
X203312514Y-45074500D01*
X203125881Y-45104059D01*
X202946163Y-45162454D01*
X202777800Y-45248240D01*
X202744348Y-45272545D01*
X202624927Y-45359310D01*
X202624925Y-45359312D01*
X202624924Y-45359312D01*
X196135055Y-51849181D01*
X196073732Y-51882666D01*
X196047374Y-51885500D01*
X194977514Y-51885500D01*
X194790881Y-51915059D01*
X194611163Y-51973454D01*
X194442800Y-52059240D01*
X194373235Y-52109783D01*
X194289927Y-52170310D01*
X194289925Y-52170312D01*
X194289924Y-52170312D01*
X194156312Y-52303924D01*
X194156312Y-52303925D01*
X194156310Y-52303927D01*
X194117423Y-52357450D01*
X194045240Y-52456800D01*
X193959454Y-52625163D01*
X193901059Y-52804881D01*
X193871500Y-52991513D01*
X193871500Y-53180486D01*
X193901059Y-53367118D01*
X193959454Y-53546836D01*
X194045240Y-53715199D01*
X194156310Y-53868073D01*
X194289927Y-54001690D01*
X194442801Y-54112760D01*
X194514256Y-54149168D01*
X194611163Y-54198545D01*
X194611165Y-54198545D01*
X194611168Y-54198547D01*
X194685063Y-54222557D01*
X194732803Y-54238069D01*
X194790478Y-54277507D01*
X194817676Y-54341866D01*
X194805761Y-54410712D01*
X194758516Y-54462188D01*
X194732803Y-54473931D01*
X194611163Y-54513454D01*
X194442800Y-54599240D01*
X194373225Y-54649790D01*
X194289927Y-54710310D01*
X194289925Y-54710312D01*
X194289924Y-54710312D01*
X194156312Y-54843924D01*
X194156312Y-54843925D01*
X194156310Y-54843927D01*
X194122024Y-54891118D01*
X194045240Y-54996800D01*
X193959454Y-55165163D01*
X193901059Y-55344881D01*
X193871500Y-55531513D01*
X193871500Y-55720486D01*
X193901059Y-55907118D01*
X193959454Y-56086836D01*
X194003760Y-56173790D01*
X194045240Y-56255199D01*
X194156310Y-56408073D01*
X194289927Y-56541690D01*
X194442801Y-56652760D01*
X194475520Y-56669431D01*
X194611163Y-56738545D01*
X194611165Y-56738545D01*
X194611168Y-56738547D01*
X194657084Y-56753466D01*
X194732803Y-56778069D01*
X194790478Y-56817507D01*
X194817676Y-56881866D01*
X194805761Y-56950712D01*
X194758516Y-57002188D01*
X194732803Y-57013931D01*
X194611163Y-57053454D01*
X194442800Y-57139240D01*
X194373225Y-57189790D01*
X194289927Y-57250310D01*
X194289925Y-57250312D01*
X194289924Y-57250312D01*
X194156312Y-57383924D01*
X194156312Y-57383925D01*
X194156310Y-57383927D01*
X194120358Y-57433410D01*
X194045240Y-57536800D01*
X193959454Y-57705163D01*
X193901059Y-57884881D01*
X193871500Y-58071513D01*
X193871500Y-58260486D01*
X193901059Y-58447118D01*
X193959454Y-58626836D01*
X194003760Y-58713790D01*
X194045240Y-58795199D01*
X194156310Y-58948073D01*
X194289927Y-59081690D01*
X194442801Y-59192760D01*
X194521512Y-59232865D01*
X194611163Y-59278545D01*
X194611165Y-59278545D01*
X194611168Y-59278547D01*
X194626356Y-59283482D01*
X194684030Y-59322919D01*
X194711228Y-59387278D01*
X194699313Y-59456124D01*
X194652069Y-59507600D01*
X194607435Y-59523885D01*
X194536880Y-59535060D01*
X194357163Y-59593454D01*
X194188800Y-59679240D01*
X194185544Y-59681606D01*
X194035927Y-59790310D01*
X194035925Y-59790312D01*
X194035924Y-59790312D01*
X193902312Y-59923924D01*
X193902312Y-59923925D01*
X193902310Y-59923927D01*
X193866358Y-59973410D01*
X193791240Y-60076800D01*
X193705454Y-60245163D01*
X193647059Y-60424881D01*
X193617500Y-60611513D01*
X193617500Y-60800486D01*
X193647059Y-60987118D01*
X193705454Y-61166836D01*
X193791240Y-61335199D01*
X193902310Y-61488073D01*
X194035927Y-61621690D01*
X194188801Y-61732760D01*
X194265897Y-61772042D01*
X194357163Y-61818545D01*
X194357165Y-61818545D01*
X194357168Y-61818547D01*
X194391275Y-61829629D01*
X194536881Y-61876940D01*
X194723514Y-61906500D01*
X194723519Y-61906500D01*
X196392798Y-61906500D01*
X196579430Y-61876940D01*
X196609991Y-61867010D01*
X196759144Y-61818547D01*
X196927511Y-61732760D01*
X197080386Y-61621690D01*
X203363257Y-55338819D01*
X203424580Y-55305334D01*
X203450938Y-55302500D01*
X205938663Y-55302500D01*
X206005702Y-55322185D01*
X206051457Y-55374989D01*
X206061401Y-55444147D01*
X206032376Y-55507703D01*
X206024263Y-55515756D01*
X206024372Y-55515865D01*
X205887312Y-55652924D01*
X205887312Y-55652925D01*
X205887310Y-55652927D01*
X205856578Y-55695226D01*
X205776240Y-55805800D01*
X205690454Y-55974163D01*
X205632059Y-56153881D01*
X205602500Y-56340513D01*
X205602500Y-56529486D01*
X205632059Y-56716118D01*
X205690454Y-56895836D01*
X205741012Y-56995060D01*
X205776240Y-57064199D01*
X205887310Y-57217073D01*
X206020927Y-57350690D01*
X206173801Y-57461760D01*
X206253347Y-57502290D01*
X206342163Y-57547545D01*
X206342165Y-57547545D01*
X206342168Y-57547547D01*
X206521882Y-57605940D01*
X206679362Y-57630882D01*
X206707729Y-57635375D01*
X206770863Y-57665304D01*
X206807795Y-57724615D01*
X206806797Y-57794478D01*
X206768187Y-57852711D01*
X206744626Y-57868333D01*
X206587800Y-57948240D01*
X206434923Y-58059312D01*
X194791312Y-69702923D01*
X194680240Y-69855800D01*
X194594454Y-70024163D01*
X194536059Y-70203881D01*
X194506500Y-70390513D01*
X194506500Y-70579486D01*
X194536059Y-70766118D01*
X194594454Y-70945836D01*
X194665100Y-71084485D01*
X194680240Y-71114199D01*
X194791310Y-71267074D01*
X194924926Y-71400690D01*
X195077801Y-71511760D01*
X195120494Y-71533513D01*
X195246163Y-71597545D01*
X195246165Y-71597545D01*
X195246168Y-71597547D01*
X195307706Y-71617542D01*
X195389229Y-71644031D01*
X195446904Y-71683469D01*
X195474102Y-71747828D01*
X195462187Y-71816674D01*
X195438591Y-71849643D01*
X192378308Y-74909927D01*
X192378304Y-74909931D01*
X192313231Y-74999499D01*
X192267242Y-75062797D01*
X192181454Y-75231163D01*
X192123059Y-75410881D01*
X192093500Y-75597513D01*
X192093500Y-81374486D01*
X192123059Y-81561118D01*
X192181454Y-81740836D01*
X192267240Y-81909199D01*
X192378310Y-82062073D01*
X192511927Y-82195690D01*
X192664801Y-82306760D01*
X192744347Y-82347290D01*
X192833163Y-82392545D01*
X192833165Y-82392545D01*
X192833168Y-82392547D01*
X192929497Y-82423846D01*
X193012881Y-82450940D01*
X193199514Y-82480500D01*
X193199519Y-82480500D01*
X193388486Y-82480500D01*
X193575118Y-82450940D01*
X193754832Y-82392547D01*
X193923199Y-82306760D01*
X194076073Y-82195690D01*
X194095319Y-82176444D01*
X194156642Y-82142959D01*
X194226334Y-82147943D01*
X194270681Y-82176444D01*
X194289927Y-82195690D01*
X194442801Y-82306760D01*
X194522347Y-82347290D01*
X194611163Y-82392545D01*
X194611165Y-82392545D01*
X194611168Y-82392547D01*
X194707497Y-82423846D01*
X194790881Y-82450940D01*
X194977514Y-82480500D01*
X194977519Y-82480500D01*
X195166486Y-82480500D01*
X195353118Y-82450940D01*
X195532832Y-82392547D01*
X195701199Y-82306760D01*
X195854073Y-82195690D01*
X195873319Y-82176444D01*
X195934642Y-82142959D01*
X196004334Y-82147943D01*
X196048681Y-82176444D01*
X196067927Y-82195690D01*
X196220801Y-82306760D01*
X196300347Y-82347290D01*
X196389163Y-82392545D01*
X196389165Y-82392545D01*
X196389168Y-82392547D01*
X196485497Y-82423846D01*
X196568881Y-82450940D01*
X196755514Y-82480500D01*
X196755519Y-82480500D01*
X196944486Y-82480500D01*
X197131118Y-82450940D01*
X197310832Y-82392547D01*
X197479199Y-82306760D01*
X197632073Y-82195690D01*
X197765690Y-82062073D01*
X197876760Y-81909199D01*
X197962547Y-81740832D01*
X198020940Y-81561118D01*
X198020945Y-81561089D01*
X198050500Y-81374486D01*
X198050500Y-77256626D01*
X198070185Y-77189587D01*
X198086819Y-77168945D01*
X199803945Y-75451819D01*
X199865268Y-75418334D01*
X199891626Y-75415500D01*
X210387853Y-75415500D01*
X210454892Y-75435185D01*
X210500647Y-75487989D01*
X210510591Y-75557147D01*
X210486229Y-75614986D01*
X210380676Y-75752545D01*
X210262665Y-75956943D01*
X210262660Y-75956954D01*
X210172340Y-76175006D01*
X210111252Y-76402989D01*
X210080447Y-76636979D01*
X210080446Y-76636995D01*
X210080446Y-76873004D01*
X210080447Y-76873020D01*
X210099094Y-77014661D01*
X210111253Y-77107014D01*
X210112701Y-77112418D01*
X210172340Y-77334993D01*
X210262660Y-77553045D01*
X210262665Y-77553056D01*
X210330580Y-77670687D01*
X210380673Y-77757450D01*
X210380675Y-77757453D01*
X210380676Y-77757454D01*
X210526825Y-77947920D01*
X210525666Y-77948808D01*
X210552483Y-78006662D01*
X210542929Y-78075876D01*
X210526331Y-78101701D01*
X210526825Y-78102080D01*
X210380679Y-78292541D01*
X210380668Y-78292557D01*
X210335091Y-78371500D01*
X210284524Y-78419716D01*
X210227704Y-78433500D01*
X204519357Y-78433500D01*
X204332729Y-78463059D01*
X204332726Y-78463060D01*
X204167456Y-78516760D01*
X204153009Y-78521454D01*
X203984644Y-78607240D01*
X203831767Y-78718312D01*
X199712899Y-82837181D01*
X199651576Y-82870666D01*
X199625218Y-82873500D01*
X191421514Y-82873500D01*
X191234881Y-82903059D01*
X191055163Y-82961454D01*
X190886800Y-83047240D01*
X190803188Y-83107989D01*
X190733927Y-83158310D01*
X190733925Y-83158312D01*
X190733924Y-83158312D01*
X190600312Y-83291924D01*
X190600312Y-83291925D01*
X190600310Y-83291927D01*
X190593544Y-83301240D01*
X190489240Y-83444800D01*
X190403454Y-83613163D01*
X190345059Y-83792881D01*
X190315500Y-83979513D01*
X190315500Y-84168486D01*
X190345059Y-84355118D01*
X190403454Y-84534836D01*
X190441303Y-84609118D01*
X190489240Y-84703199D01*
X190600310Y-84856073D01*
X190733927Y-84989690D01*
X190886801Y-85100760D01*
X190966347Y-85141290D01*
X191055163Y-85186545D01*
X191055165Y-85186545D01*
X191055168Y-85186547D01*
X191151497Y-85217846D01*
X191234881Y-85244940D01*
X191421514Y-85274500D01*
X191421519Y-85274500D01*
X199240374Y-85274500D01*
X199307413Y-85294185D01*
X199353168Y-85346989D01*
X199363112Y-85416147D01*
X199334087Y-85479703D01*
X199328055Y-85486181D01*
X196897055Y-87917181D01*
X196835732Y-87950666D01*
X196809374Y-87953500D01*
X188607469Y-87953500D01*
X188578028Y-87944855D01*
X188548042Y-87938332D01*
X188543026Y-87934577D01*
X188540430Y-87933815D01*
X188519792Y-87917185D01*
X188357816Y-87755209D01*
X188324334Y-87693888D01*
X188321500Y-87667530D01*
X188321500Y-84918513D01*
X188291940Y-84731881D01*
X188252051Y-84609118D01*
X188233547Y-84552168D01*
X188224714Y-84534832D01*
X188203402Y-84493004D01*
X188147761Y-84383801D01*
X188126921Y-84355118D01*
X188036690Y-84230926D01*
X184370819Y-80565055D01*
X184337334Y-80503732D01*
X184334500Y-80477374D01*
X184334500Y-71771818D01*
X186052000Y-71771818D01*
X186052000Y-71992181D01*
X186086473Y-72209835D01*
X186154567Y-72419410D01*
X186254611Y-72615756D01*
X186300932Y-72679513D01*
X187052000Y-71928445D01*
X187052000Y-71934661D01*
X187079259Y-72036394D01*
X187131920Y-72127606D01*
X187206394Y-72202080D01*
X187297606Y-72254741D01*
X187399339Y-72282000D01*
X187405552Y-72282000D01*
X186654485Y-73033065D01*
X186654485Y-73033067D01*
X186680105Y-73051681D01*
X186722771Y-73107010D01*
X186728750Y-73176624D01*
X186696145Y-73238419D01*
X186680105Y-73252317D01*
X186654485Y-73270930D01*
X186654485Y-73270932D01*
X187405553Y-74022000D01*
X187399339Y-74022000D01*
X187297606Y-74049259D01*
X187206394Y-74101920D01*
X187131920Y-74176394D01*
X187079259Y-74267606D01*
X187052000Y-74369339D01*
X187052000Y-74375553D01*
X186300932Y-73624485D01*
X186300931Y-73624485D01*
X186254616Y-73688233D01*
X186154567Y-73884589D01*
X186086473Y-74094164D01*
X186052000Y-74311818D01*
X186052000Y-74532181D01*
X186086473Y-74749835D01*
X186154567Y-74959410D01*
X186254611Y-75155756D01*
X186300932Y-75219513D01*
X187052000Y-74468445D01*
X187052000Y-74474661D01*
X187079259Y-74576394D01*
X187131920Y-74667606D01*
X187206394Y-74742080D01*
X187297606Y-74794741D01*
X187399339Y-74822000D01*
X187405552Y-74822000D01*
X186654485Y-75573065D01*
X186654485Y-75573067D01*
X186680105Y-75591681D01*
X186722771Y-75647010D01*
X186728750Y-75716624D01*
X186696145Y-75778419D01*
X186680105Y-75792317D01*
X186654485Y-75810930D01*
X186654485Y-75810932D01*
X187405553Y-76562000D01*
X187399339Y-76562000D01*
X187297606Y-76589259D01*
X187206394Y-76641920D01*
X187131920Y-76716394D01*
X187079259Y-76807606D01*
X187052000Y-76909339D01*
X187052000Y-76915553D01*
X186300932Y-76164485D01*
X186300931Y-76164485D01*
X186254616Y-76228233D01*
X186154567Y-76424589D01*
X186086473Y-76634164D01*
X186052000Y-76851818D01*
X186052000Y-77072181D01*
X186086473Y-77289835D01*
X186154567Y-77499410D01*
X186254611Y-77695756D01*
X186300932Y-77759513D01*
X187052000Y-77008445D01*
X187052000Y-77014661D01*
X187079259Y-77116394D01*
X187131920Y-77207606D01*
X187206394Y-77282080D01*
X187297606Y-77334741D01*
X187399339Y-77362000D01*
X187405552Y-77362000D01*
X186654485Y-78113065D01*
X186654485Y-78113067D01*
X186680105Y-78131681D01*
X186722771Y-78187010D01*
X186728750Y-78256624D01*
X186696145Y-78318419D01*
X186680105Y-78332317D01*
X186654485Y-78350930D01*
X186654485Y-78350932D01*
X187405554Y-79102000D01*
X187399339Y-79102000D01*
X187297606Y-79129259D01*
X187206394Y-79181920D01*
X187131920Y-79256394D01*
X187079259Y-79347606D01*
X187052000Y-79449339D01*
X187052000Y-79455553D01*
X186300932Y-78704485D01*
X186300931Y-78704485D01*
X186254616Y-78768233D01*
X186154567Y-78964589D01*
X186086473Y-79174164D01*
X186052000Y-79391818D01*
X186052000Y-79612181D01*
X186086473Y-79829835D01*
X186154567Y-80039410D01*
X186254611Y-80235756D01*
X186300932Y-80299513D01*
X187052000Y-79548445D01*
X187052000Y-79554661D01*
X187079259Y-79656394D01*
X187131920Y-79747606D01*
X187206394Y-79822080D01*
X187297606Y-79874741D01*
X187399339Y-79902000D01*
X187405553Y-79902000D01*
X186654485Y-80653065D01*
X186654485Y-80653066D01*
X186718243Y-80699388D01*
X186914589Y-80799432D01*
X187124164Y-80867526D01*
X187341819Y-80902000D01*
X187562181Y-80902000D01*
X187779835Y-80867526D01*
X187989410Y-80799432D01*
X188185760Y-80699386D01*
X188249513Y-80653066D01*
X188249514Y-80653066D01*
X187498447Y-79902000D01*
X187504661Y-79902000D01*
X187606394Y-79874741D01*
X187697606Y-79822080D01*
X187772080Y-79747606D01*
X187824741Y-79656394D01*
X187852000Y-79554661D01*
X187852000Y-79548446D01*
X188603066Y-80299514D01*
X188603066Y-80299513D01*
X188649386Y-80235760D01*
X188749432Y-80039410D01*
X188817527Y-79829834D01*
X188835141Y-79718623D01*
X188865070Y-79655488D01*
X188924381Y-79618556D01*
X188994244Y-79619554D01*
X189033099Y-79639643D01*
X189045217Y-79648941D01*
X189045226Y-79648948D01*
X189238274Y-79760405D01*
X189444219Y-79845710D01*
X189659537Y-79903404D01*
X189880543Y-79932500D01*
X189880550Y-79932500D01*
X190103450Y-79932500D01*
X190103457Y-79932500D01*
X190324463Y-79903404D01*
X190539781Y-79845710D01*
X190745726Y-79760405D01*
X190938774Y-79648948D01*
X191115624Y-79513247D01*
X191273247Y-79355624D01*
X191408948Y-79178774D01*
X191520405Y-78985726D01*
X191605710Y-78779781D01*
X191663404Y-78564463D01*
X191692500Y-78343457D01*
X191692500Y-78120543D01*
X191663404Y-77899537D01*
X191605710Y-77684219D01*
X191520405Y-77478274D01*
X191408948Y-77285226D01*
X191363853Y-77226457D01*
X191273249Y-77108378D01*
X191271881Y-77107010D01*
X191214550Y-77049679D01*
X191181067Y-76988359D01*
X191186051Y-76918667D01*
X191214550Y-76874320D01*
X191273247Y-76815624D01*
X191408948Y-76638774D01*
X191520405Y-76445726D01*
X191605710Y-76239781D01*
X191663404Y-76024463D01*
X191692500Y-75803457D01*
X191692500Y-75580543D01*
X191663404Y-75359537D01*
X191605710Y-75144219D01*
X191520405Y-74938274D01*
X191408948Y-74745226D01*
X191363853Y-74686457D01*
X191273249Y-74568378D01*
X191271881Y-74567010D01*
X191214550Y-74509679D01*
X191181067Y-74448359D01*
X191186051Y-74378667D01*
X191214550Y-74334320D01*
X191273247Y-74275624D01*
X191408948Y-74098774D01*
X191520405Y-73905726D01*
X191605710Y-73699781D01*
X191663404Y-73484463D01*
X191692500Y-73263457D01*
X191692500Y-73040543D01*
X191663404Y-72819537D01*
X191605710Y-72604219D01*
X191520405Y-72398274D01*
X191408948Y-72205226D01*
X191383691Y-72172310D01*
X191273249Y-72028378D01*
X191271881Y-72027010D01*
X191214550Y-71969679D01*
X191181067Y-71908359D01*
X191186051Y-71838667D01*
X191214550Y-71794320D01*
X191273247Y-71735624D01*
X191408948Y-71558774D01*
X191520405Y-71365726D01*
X191605710Y-71159781D01*
X191663404Y-70944463D01*
X191692500Y-70723457D01*
X191692500Y-70500543D01*
X191663404Y-70279537D01*
X191605710Y-70064219D01*
X191520405Y-69858274D01*
X191408948Y-69665226D01*
X191369867Y-69614294D01*
X191273248Y-69488377D01*
X191273242Y-69488370D01*
X191115629Y-69330757D01*
X191115622Y-69330751D01*
X190938782Y-69195058D01*
X190938780Y-69195057D01*
X190938774Y-69195052D01*
X190745726Y-69083595D01*
X190745722Y-69083593D01*
X190539790Y-68998293D01*
X190539783Y-68998291D01*
X190539781Y-68998290D01*
X190324463Y-68940596D01*
X190324457Y-68940595D01*
X190324452Y-68940594D01*
X190103466Y-68911501D01*
X190103463Y-68911500D01*
X190103457Y-68911500D01*
X189880543Y-68911500D01*
X189880537Y-68911500D01*
X189880533Y-68911501D01*
X189659547Y-68940594D01*
X189659540Y-68940595D01*
X189659537Y-68940596D01*
X189605038Y-68955199D01*
X189444219Y-68998290D01*
X189444209Y-68998293D01*
X189238277Y-69083593D01*
X189238273Y-69083595D01*
X189045226Y-69195052D01*
X189045217Y-69195058D01*
X188868377Y-69330751D01*
X188868370Y-69330757D01*
X188710757Y-69488370D01*
X188710751Y-69488377D01*
X188575058Y-69665217D01*
X188575052Y-69665226D01*
X188463595Y-69858273D01*
X188463593Y-69858277D01*
X188378293Y-70064209D01*
X188378290Y-70064219D01*
X188322123Y-70273840D01*
X188320597Y-70279534D01*
X188320594Y-70279547D01*
X188291501Y-70500533D01*
X188291500Y-70500549D01*
X188291500Y-70536140D01*
X188271815Y-70603179D01*
X188219011Y-70648934D01*
X188149853Y-70658878D01*
X188111205Y-70646625D01*
X187989410Y-70584567D01*
X187779835Y-70516473D01*
X187562181Y-70482000D01*
X187341819Y-70482000D01*
X187124164Y-70516473D01*
X186914589Y-70584567D01*
X186718233Y-70684616D01*
X186654485Y-70730931D01*
X186654485Y-70730932D01*
X187405553Y-71482000D01*
X187399339Y-71482000D01*
X187297606Y-71509259D01*
X187206394Y-71561920D01*
X187131920Y-71636394D01*
X187079259Y-71727606D01*
X187052000Y-71829339D01*
X187052000Y-71835553D01*
X186300932Y-71084485D01*
X186300931Y-71084485D01*
X186254616Y-71148233D01*
X186154567Y-71344589D01*
X186086473Y-71554164D01*
X186052000Y-71771818D01*
X184334500Y-71771818D01*
X184334500Y-54904625D01*
X184354185Y-54837586D01*
X184370819Y-54816944D01*
X187404944Y-51782819D01*
X187466267Y-51749334D01*
X187492625Y-51746500D01*
X188627266Y-51746500D01*
X188694305Y-51766185D01*
X188740060Y-51818989D01*
X188750004Y-51888147D01*
X188720979Y-51951703D01*
X188714947Y-51958181D01*
X188710757Y-51962370D01*
X188710751Y-51962377D01*
X188575058Y-52139217D01*
X188575052Y-52139226D01*
X188463595Y-52332273D01*
X188463593Y-52332277D01*
X188378293Y-52538209D01*
X188378290Y-52538219D01*
X188329311Y-52721014D01*
X188320597Y-52753534D01*
X188320594Y-52753547D01*
X188291501Y-52974533D01*
X188291500Y-52974549D01*
X188291500Y-53010140D01*
X188271815Y-53077179D01*
X188219011Y-53122934D01*
X188149853Y-53132878D01*
X188111205Y-53120625D01*
X187989410Y-53058567D01*
X187779835Y-52990473D01*
X187562181Y-52956000D01*
X187341819Y-52956000D01*
X187124164Y-52990473D01*
X186914589Y-53058567D01*
X186718233Y-53158616D01*
X186654485Y-53204931D01*
X186654485Y-53204932D01*
X187405553Y-53956000D01*
X187399339Y-53956000D01*
X187297606Y-53983259D01*
X187206394Y-54035920D01*
X187131920Y-54110394D01*
X187079259Y-54201606D01*
X187052000Y-54303339D01*
X187052000Y-54309553D01*
X186300932Y-53558485D01*
X186300931Y-53558485D01*
X186254616Y-53622233D01*
X186154567Y-53818589D01*
X186086473Y-54028164D01*
X186052000Y-54245818D01*
X186052000Y-54466181D01*
X186086473Y-54683835D01*
X186154567Y-54893410D01*
X186254611Y-55089756D01*
X186300932Y-55153513D01*
X187052000Y-54402445D01*
X187052000Y-54408661D01*
X187079259Y-54510394D01*
X187131920Y-54601606D01*
X187206394Y-54676080D01*
X187297606Y-54728741D01*
X187399339Y-54756000D01*
X187405552Y-54756000D01*
X186654485Y-55507065D01*
X186654485Y-55507067D01*
X186680105Y-55525681D01*
X186722771Y-55581010D01*
X186728750Y-55650624D01*
X186696145Y-55712419D01*
X186680105Y-55726317D01*
X186654485Y-55744930D01*
X186654485Y-55744932D01*
X187405553Y-56496000D01*
X187399339Y-56496000D01*
X187297606Y-56523259D01*
X187206394Y-56575920D01*
X187131920Y-56650394D01*
X187079259Y-56741606D01*
X187052000Y-56843339D01*
X187052000Y-56849553D01*
X186300932Y-56098485D01*
X186300931Y-56098485D01*
X186254616Y-56162233D01*
X186154567Y-56358589D01*
X186086473Y-56568164D01*
X186052000Y-56785818D01*
X186052000Y-57006181D01*
X186086473Y-57223835D01*
X186154567Y-57433410D01*
X186254611Y-57629756D01*
X186300932Y-57693513D01*
X187052000Y-56942445D01*
X187052000Y-56948661D01*
X187079259Y-57050394D01*
X187131920Y-57141606D01*
X187206394Y-57216080D01*
X187297606Y-57268741D01*
X187399339Y-57296000D01*
X187405552Y-57296000D01*
X186654485Y-58047065D01*
X186654485Y-58047067D01*
X186680105Y-58065681D01*
X186722771Y-58121010D01*
X186728750Y-58190624D01*
X186696145Y-58252419D01*
X186680105Y-58266317D01*
X186654485Y-58284930D01*
X186654485Y-58284932D01*
X187405553Y-59036000D01*
X187399339Y-59036000D01*
X187297606Y-59063259D01*
X187206394Y-59115920D01*
X187131920Y-59190394D01*
X187079259Y-59281606D01*
X187052000Y-59383339D01*
X187052000Y-59389553D01*
X186300932Y-58638485D01*
X186300931Y-58638485D01*
X186254616Y-58702233D01*
X186154567Y-58898589D01*
X186086473Y-59108164D01*
X186052000Y-59325818D01*
X186052000Y-59546181D01*
X186086473Y-59763835D01*
X186154567Y-59973410D01*
X186254611Y-60169756D01*
X186300932Y-60233513D01*
X187052000Y-59482445D01*
X187052000Y-59488661D01*
X187079259Y-59590394D01*
X187131920Y-59681606D01*
X187206394Y-59756080D01*
X187297606Y-59808741D01*
X187399339Y-59836000D01*
X187405552Y-59836000D01*
X186654485Y-60587065D01*
X186654485Y-60587067D01*
X186680105Y-60605681D01*
X186722771Y-60661010D01*
X186728750Y-60730624D01*
X186696145Y-60792419D01*
X186680105Y-60806317D01*
X186654485Y-60824930D01*
X186654485Y-60824932D01*
X187405554Y-61576000D01*
X187399339Y-61576000D01*
X187297606Y-61603259D01*
X187206394Y-61655920D01*
X187131920Y-61730394D01*
X187079259Y-61821606D01*
X187052000Y-61923339D01*
X187052000Y-61929553D01*
X186300932Y-61178485D01*
X186300931Y-61178485D01*
X186254616Y-61242233D01*
X186154567Y-61438589D01*
X186086473Y-61648164D01*
X186052000Y-61865818D01*
X186052000Y-62086181D01*
X186086473Y-62303835D01*
X186154567Y-62513410D01*
X186254611Y-62709756D01*
X186300932Y-62773513D01*
X187052000Y-62022445D01*
X187052000Y-62028661D01*
X187079259Y-62130394D01*
X187131920Y-62221606D01*
X187206394Y-62296080D01*
X187297606Y-62348741D01*
X187399339Y-62376000D01*
X187405553Y-62376000D01*
X186654485Y-63127065D01*
X186654485Y-63127066D01*
X186718243Y-63173388D01*
X186914589Y-63273432D01*
X187124164Y-63341526D01*
X187341819Y-63376000D01*
X187562181Y-63376000D01*
X187779835Y-63341526D01*
X187989410Y-63273432D01*
X188185760Y-63173386D01*
X188249513Y-63127066D01*
X188249514Y-63127066D01*
X187498447Y-62376000D01*
X187504661Y-62376000D01*
X187606394Y-62348741D01*
X187697606Y-62296080D01*
X187772080Y-62221606D01*
X187824741Y-62130394D01*
X187852000Y-62028661D01*
X187852000Y-62022446D01*
X188603066Y-62773514D01*
X188603066Y-62773513D01*
X188649386Y-62709760D01*
X188749432Y-62513410D01*
X188817527Y-62303834D01*
X188835141Y-62192623D01*
X188865070Y-62129488D01*
X188924381Y-62092556D01*
X188994244Y-62093554D01*
X189033100Y-62113643D01*
X189045226Y-62122948D01*
X189238274Y-62234405D01*
X189444219Y-62319710D01*
X189659537Y-62377404D01*
X189880543Y-62406500D01*
X189880550Y-62406500D01*
X190103450Y-62406500D01*
X190103457Y-62406500D01*
X190324463Y-62377404D01*
X190539781Y-62319710D01*
X190745726Y-62234405D01*
X190938774Y-62122948D01*
X191115624Y-61987247D01*
X191273247Y-61829624D01*
X191408948Y-61652774D01*
X191520405Y-61459726D01*
X191605710Y-61253781D01*
X191663404Y-61038463D01*
X191692500Y-60817457D01*
X191692500Y-60594543D01*
X191663404Y-60373537D01*
X191605710Y-60158219D01*
X191520405Y-59952274D01*
X191408948Y-59759226D01*
X191363853Y-59700457D01*
X191273249Y-59582378D01*
X191245864Y-59554993D01*
X191214550Y-59523679D01*
X191181067Y-59462359D01*
X191186051Y-59392667D01*
X191214550Y-59348320D01*
X191273247Y-59289624D01*
X191408948Y-59112774D01*
X191520405Y-58919726D01*
X191605710Y-58713781D01*
X191663404Y-58498463D01*
X191692500Y-58277457D01*
X191692500Y-58054543D01*
X191663404Y-57833537D01*
X191605710Y-57618219D01*
X191600623Y-57605939D01*
X191520406Y-57412277D01*
X191520405Y-57412274D01*
X191408948Y-57219226D01*
X191363853Y-57160457D01*
X191273249Y-57042378D01*
X191244802Y-57013931D01*
X191214550Y-56983679D01*
X191181067Y-56922359D01*
X191186051Y-56852667D01*
X191214550Y-56808320D01*
X191273247Y-56749624D01*
X191408948Y-56572774D01*
X191520405Y-56379726D01*
X191605710Y-56173781D01*
X191663404Y-55958463D01*
X191692500Y-55737457D01*
X191692500Y-55514543D01*
X191663404Y-55293537D01*
X191605710Y-55078219D01*
X191520405Y-54872274D01*
X191408948Y-54679226D01*
X191363853Y-54620457D01*
X191273249Y-54502378D01*
X191244802Y-54473931D01*
X191214550Y-54443679D01*
X191181067Y-54382359D01*
X191186051Y-54312667D01*
X191214550Y-54268320D01*
X191273247Y-54209624D01*
X191408948Y-54032774D01*
X191520405Y-53839726D01*
X191605710Y-53633781D01*
X191663404Y-53418463D01*
X191692500Y-53197457D01*
X191692500Y-52974543D01*
X191663404Y-52753537D01*
X191605710Y-52538219D01*
X191520405Y-52332274D01*
X191408948Y-52139226D01*
X191283332Y-51975519D01*
X191273248Y-51962377D01*
X191273242Y-51962370D01*
X191269053Y-51958181D01*
X191235568Y-51896858D01*
X191240552Y-51827166D01*
X191282424Y-51771233D01*
X191347888Y-51746816D01*
X191356734Y-51746500D01*
X192118486Y-51746500D01*
X192305118Y-51716940D01*
X192335679Y-51707010D01*
X192484832Y-51658547D01*
X192653199Y-51572760D01*
X192806074Y-51461690D01*
X195733690Y-48534073D01*
X195844760Y-48381199D01*
X195930547Y-48212832D01*
X195988940Y-48033118D01*
X195990406Y-48023861D01*
X196018500Y-47846486D01*
X196018500Y-47244153D01*
X196038185Y-47177114D01*
X196054814Y-47156476D01*
X196174592Y-47036699D01*
X196318273Y-46849450D01*
X196436284Y-46645049D01*
X196526606Y-46426993D01*
X196555398Y-46319537D01*
X196587490Y-46263953D01*
X196958000Y-45893443D01*
X196958000Y-45899661D01*
X196985259Y-46001394D01*
X197037920Y-46092606D01*
X197112394Y-46167080D01*
X197203606Y-46219741D01*
X197305339Y-46247000D01*
X197311554Y-46247000D01*
X196488893Y-47069658D01*
X196571828Y-47129914D01*
X196782197Y-47237102D01*
X197006752Y-47310065D01*
X197006751Y-47310065D01*
X197239948Y-47347000D01*
X197476052Y-47347000D01*
X197709247Y-47310065D01*
X197933802Y-47237102D01*
X198144163Y-47129918D01*
X198144169Y-47129914D01*
X198227104Y-47069658D01*
X198227105Y-47069658D01*
X197404446Y-46247000D01*
X197410661Y-46247000D01*
X197512394Y-46219741D01*
X197603606Y-46167080D01*
X197678080Y-46092606D01*
X197730741Y-46001394D01*
X197758000Y-45899661D01*
X197758000Y-45893447D01*
X198580658Y-46716105D01*
X198580658Y-46716104D01*
X198640914Y-46633169D01*
X198640918Y-46633163D01*
X198748102Y-46422802D01*
X198821065Y-46198247D01*
X198858000Y-45965052D01*
X198858000Y-45728947D01*
X198821065Y-45495752D01*
X198748102Y-45271197D01*
X198640914Y-45060828D01*
X198580658Y-44977894D01*
X198580658Y-44977893D01*
X197758000Y-45800552D01*
X197758000Y-45794339D01*
X197730741Y-45692606D01*
X197678080Y-45601394D01*
X197603606Y-45526920D01*
X197512394Y-45474259D01*
X197410661Y-45447000D01*
X197404447Y-45447000D01*
X198227105Y-44624340D01*
X198227104Y-44624338D01*
X198144174Y-44564087D01*
X197933802Y-44456897D01*
X197709247Y-44383934D01*
X197709248Y-44383934D01*
X197476052Y-44347000D01*
X197239948Y-44347000D01*
X197006752Y-44383934D01*
X196782197Y-44456897D01*
X196571830Y-44564084D01*
X196488894Y-44624340D01*
X197311554Y-45447000D01*
X197305339Y-45447000D01*
X197203606Y-45474259D01*
X197112394Y-45526920D01*
X197037920Y-45601394D01*
X196985259Y-45692606D01*
X196958000Y-45794339D01*
X196958000Y-45800554D01*
X196587490Y-45430044D01*
X196555397Y-45374459D01*
X196526606Y-45267007D01*
X196518832Y-45248240D01*
X196459111Y-45104060D01*
X196436284Y-45048951D01*
X196436282Y-45048948D01*
X196436280Y-45048943D01*
X196360917Y-44918412D01*
X196318273Y-44844550D01*
X196293246Y-44811934D01*
X196243486Y-44747085D01*
X196174593Y-44657302D01*
X196174587Y-44657295D01*
X196007704Y-44490412D01*
X196007697Y-44490406D01*
X195820454Y-44346730D01*
X195820453Y-44346729D01*
X195820450Y-44346727D01*
X195738957Y-44299677D01*
X195616056Y-44228719D01*
X195616045Y-44228714D01*
X195397993Y-44138394D01*
X195170010Y-44077306D01*
X194936020Y-44046501D01*
X194936017Y-44046500D01*
X194936011Y-44046500D01*
X194699989Y-44046500D01*
X194699983Y-44046500D01*
X194699979Y-44046501D01*
X194465989Y-44077306D01*
X194238006Y-44138394D01*
X194019954Y-44228714D01*
X194019943Y-44228719D01*
X193815545Y-44346730D01*
X193625080Y-44492879D01*
X193624191Y-44491720D01*
X193566338Y-44518537D01*
X193497124Y-44508983D01*
X193471298Y-44492385D01*
X193470920Y-44492879D01*
X193280454Y-44346730D01*
X193280453Y-44346729D01*
X193280450Y-44346727D01*
X193198957Y-44299677D01*
X193076056Y-44228719D01*
X193076045Y-44228714D01*
X192857993Y-44138394D01*
X192630010Y-44077306D01*
X192396020Y-44046501D01*
X192396017Y-44046500D01*
X192396011Y-44046500D01*
X192159989Y-44046500D01*
X192159983Y-44046500D01*
X192159979Y-44046501D01*
X191925989Y-44077306D01*
X191698003Y-44138395D01*
X191540236Y-44203744D01*
X191470767Y-44211213D01*
X191408288Y-44179938D01*
X191372636Y-44119849D01*
X191375130Y-44050023D01*
X191405101Y-44001504D01*
X191924787Y-43481819D01*
X191986110Y-43448334D01*
X192012468Y-43445500D01*
X215403532Y-43445500D01*
X215470571Y-43465185D01*
G37*
%TD.AperFunction*%
%TA.AperFunction,Conductor*%
G36*
X234069703Y-61171255D02*
G01*
X234076181Y-61177287D01*
X237410150Y-64511256D01*
X237443635Y-64572579D01*
X237445408Y-64582751D01*
X237458886Y-64685129D01*
X237461307Y-64703514D01*
X237486748Y-64798460D01*
X237522394Y-64931493D01*
X237612714Y-65149545D01*
X237612719Y-65149556D01*
X237669731Y-65248302D01*
X237730727Y-65353950D01*
X237730729Y-65353953D01*
X237730730Y-65353954D01*
X237874406Y-65541197D01*
X237874412Y-65541204D01*
X238041295Y-65708087D01*
X238041302Y-65708093D01*
X238129458Y-65775737D01*
X238228550Y-65851773D01*
X238319100Y-65904052D01*
X238432943Y-65969780D01*
X238432948Y-65969782D01*
X238432951Y-65969784D01*
X238651007Y-66060106D01*
X238758459Y-66088897D01*
X238814044Y-66120990D01*
X239184554Y-66491500D01*
X239178339Y-66491500D01*
X239076606Y-66518759D01*
X238985394Y-66571420D01*
X238910920Y-66645894D01*
X238858259Y-66737106D01*
X238831000Y-66838839D01*
X238831000Y-66845054D01*
X238008340Y-66022394D01*
X237948084Y-66105330D01*
X237840897Y-66315697D01*
X237767934Y-66540252D01*
X237731000Y-66773447D01*
X237731000Y-67009552D01*
X237767934Y-67242747D01*
X237840897Y-67467302D01*
X237948087Y-67677674D01*
X238008338Y-67760604D01*
X238008340Y-67760605D01*
X238831000Y-66937945D01*
X238831000Y-66944161D01*
X238858259Y-67045894D01*
X238910920Y-67137106D01*
X238985394Y-67211580D01*
X239076606Y-67264241D01*
X239178339Y-67291500D01*
X239184554Y-67291500D01*
X238361893Y-68114158D01*
X238444828Y-68174414D01*
X238655197Y-68281602D01*
X238879752Y-68354565D01*
X238879751Y-68354565D01*
X239112948Y-68391500D01*
X239349052Y-68391500D01*
X239582247Y-68354565D01*
X239806802Y-68281602D01*
X240017163Y-68174418D01*
X240017169Y-68174414D01*
X240100104Y-68114158D01*
X240100105Y-68114158D01*
X239277446Y-67291500D01*
X239283661Y-67291500D01*
X239385394Y-67264241D01*
X239476606Y-67211580D01*
X239551080Y-67137106D01*
X239603741Y-67045894D01*
X239631000Y-66944161D01*
X239631000Y-66937946D01*
X240001508Y-67308454D01*
X240033602Y-67364041D01*
X240062394Y-67471493D01*
X240152714Y-67689545D01*
X240152719Y-67689556D01*
X240213887Y-67795500D01*
X240270727Y-67893950D01*
X240270729Y-67893953D01*
X240270730Y-67893954D01*
X240414406Y-68081197D01*
X240414412Y-68081204D01*
X240424040Y-68090832D01*
X240457525Y-68152155D01*
X240452541Y-68221847D01*
X240424040Y-68266194D01*
X239853055Y-68837181D01*
X239791732Y-68870666D01*
X239765374Y-68873500D01*
X234960626Y-68873500D01*
X234893587Y-68853815D01*
X234872945Y-68837181D01*
X233900819Y-67865055D01*
X233867334Y-67803732D01*
X233864500Y-67777374D01*
X233864500Y-66782885D01*
X233884185Y-66715846D01*
X233906179Y-66696787D01*
X233904919Y-66695527D01*
X234768000Y-65832446D01*
X234768000Y-65838661D01*
X234795259Y-65940394D01*
X234847920Y-66031606D01*
X234922394Y-66106080D01*
X235013606Y-66158741D01*
X235115339Y-66186000D01*
X235121554Y-66186000D01*
X234298893Y-67008658D01*
X234381828Y-67068914D01*
X234592197Y-67176102D01*
X234816752Y-67249065D01*
X234816751Y-67249065D01*
X235049948Y-67286000D01*
X235286052Y-67286000D01*
X235519247Y-67249065D01*
X235743802Y-67176102D01*
X235954163Y-67068918D01*
X235954169Y-67068914D01*
X236037104Y-67008658D01*
X236037105Y-67008658D01*
X235214446Y-66186000D01*
X235220661Y-66186000D01*
X235322394Y-66158741D01*
X235413606Y-66106080D01*
X235488080Y-66031606D01*
X235540741Y-65940394D01*
X235568000Y-65838661D01*
X235568000Y-65832447D01*
X236390658Y-66655105D01*
X236450914Y-66572169D01*
X236450918Y-66572163D01*
X236558102Y-66361802D01*
X236631065Y-66137247D01*
X236668000Y-65904052D01*
X236668000Y-65667947D01*
X236631065Y-65434752D01*
X236558102Y-65210197D01*
X236450914Y-64999828D01*
X236390658Y-64916894D01*
X236390658Y-64916893D01*
X235568000Y-65739552D01*
X235568000Y-65733339D01*
X235540741Y-65631606D01*
X235488080Y-65540394D01*
X235413606Y-65465920D01*
X235322394Y-65413259D01*
X235220661Y-65386000D01*
X235214447Y-65386000D01*
X236037105Y-64563340D01*
X236037104Y-64563338D01*
X235954174Y-64503087D01*
X235743802Y-64395897D01*
X235519247Y-64322934D01*
X235519248Y-64322934D01*
X235286052Y-64286000D01*
X235049948Y-64286000D01*
X234816752Y-64322934D01*
X234592197Y-64395897D01*
X234381830Y-64503084D01*
X234298894Y-64563340D01*
X235121554Y-65386000D01*
X235115339Y-65386000D01*
X235013606Y-65413259D01*
X234922394Y-65465920D01*
X234847920Y-65540394D01*
X234795259Y-65631606D01*
X234768000Y-65733339D01*
X234768000Y-65739554D01*
X233914613Y-64886167D01*
X233907297Y-64882826D01*
X233895553Y-64864551D01*
X233880086Y-64849300D01*
X233876262Y-64834534D01*
X233869523Y-64824048D01*
X233864500Y-64789113D01*
X233864500Y-61264968D01*
X233884185Y-61197929D01*
X233936989Y-61152174D01*
X234006147Y-61142230D01*
X234069703Y-61171255D01*
G37*
%TD.AperFunction*%
%TA.AperFunction,Conductor*%
G36*
X240900000Y-47804661D02*
G01*
X240927259Y-47906394D01*
X240979920Y-47997606D01*
X241054394Y-48072080D01*
X241145606Y-48124741D01*
X241247339Y-48152000D01*
X241253553Y-48152000D01*
X240502485Y-48903065D01*
X240502485Y-48903067D01*
X240528105Y-48921681D01*
X240570771Y-48977010D01*
X240576750Y-49046624D01*
X240544145Y-49108419D01*
X240528105Y-49122317D01*
X240502485Y-49140930D01*
X240502485Y-49140932D01*
X241253553Y-49892000D01*
X241247339Y-49892000D01*
X241145606Y-49919259D01*
X241054394Y-49971920D01*
X240979920Y-50046394D01*
X240927259Y-50137606D01*
X240900000Y-50239339D01*
X240900000Y-50245553D01*
X240129031Y-49474584D01*
X240095546Y-49413261D01*
X240100530Y-49343569D01*
X240129033Y-49299219D01*
X240134392Y-49293859D01*
X240160000Y-49132181D01*
X240160000Y-48911818D01*
X240154201Y-48875205D01*
X240134392Y-48750138D01*
X240129031Y-48744777D01*
X240095546Y-48683454D01*
X240100530Y-48613762D01*
X240129031Y-48569415D01*
X240900000Y-47798446D01*
X240900000Y-47804661D01*
G37*
%TD.AperFunction*%
%TA.AperFunction,Conductor*%
G36*
X255424539Y-39940185D02*
G01*
X255470294Y-39992989D01*
X255481500Y-40044500D01*
X255481500Y-113879500D01*
X255461815Y-113946539D01*
X255409011Y-113992294D01*
X255357500Y-114003500D01*
X173394500Y-114003500D01*
X173327461Y-113983815D01*
X173281706Y-113931011D01*
X173270500Y-113879500D01*
X173270500Y-104874038D01*
X178399500Y-104874038D01*
X178399500Y-105125962D01*
X178428599Y-105309687D01*
X178438910Y-105374785D01*
X178516760Y-105614383D01*
X178595413Y-105768747D01*
X178609300Y-105796002D01*
X178631132Y-105838848D01*
X178779201Y-106042649D01*
X178779205Y-106042654D01*
X178957345Y-106220794D01*
X178957350Y-106220798D01*
X179088264Y-106315912D01*
X179161155Y-106368870D01*
X179298122Y-106438658D01*
X179385616Y-106483239D01*
X179385618Y-106483239D01*
X179385621Y-106483241D01*
X179625215Y-106561090D01*
X179874038Y-106600500D01*
X179874039Y-106600500D01*
X180125961Y-106600500D01*
X180125962Y-106600500D01*
X180374785Y-106561090D01*
X180614379Y-106483241D01*
X180838845Y-106368870D01*
X181042656Y-106220793D01*
X181220793Y-106042656D01*
X181368870Y-105838845D01*
X181483241Y-105614379D01*
X181561090Y-105374785D01*
X181600500Y-105125962D01*
X181600500Y-104874038D01*
X181561090Y-104625215D01*
X181483241Y-104385621D01*
X181483239Y-104385618D01*
X181483239Y-104385616D01*
X181441747Y-104304184D01*
X181368870Y-104161155D01*
X181336729Y-104116916D01*
X181220798Y-103957350D01*
X181220794Y-103957345D01*
X181042654Y-103779205D01*
X181042649Y-103779201D01*
X180838848Y-103631132D01*
X180838847Y-103631131D01*
X180838845Y-103631130D01*
X180768747Y-103595413D01*
X180614383Y-103516760D01*
X180374785Y-103438910D01*
X180361583Y-103436819D01*
X180125962Y-103399500D01*
X179874038Y-103399500D01*
X179749626Y-103419205D01*
X179625214Y-103438910D01*
X179385616Y-103516760D01*
X179161151Y-103631132D01*
X178957350Y-103779201D01*
X178957345Y-103779205D01*
X178779205Y-103957345D01*
X178779201Y-103957350D01*
X178631132Y-104161151D01*
X178516760Y-104385616D01*
X178506254Y-104417951D01*
X178438910Y-104625215D01*
X178399500Y-104874038D01*
X173270500Y-104874038D01*
X173270500Y-92559223D01*
X174229500Y-92559223D01*
X174229500Y-92860776D01*
X174229501Y-92860793D01*
X174268861Y-93159766D01*
X174346913Y-93451060D01*
X174462314Y-93729661D01*
X174462318Y-93729671D01*
X174613099Y-93990831D01*
X174796679Y-94230078D01*
X174796685Y-94230085D01*
X175009914Y-94443314D01*
X175009921Y-94443320D01*
X175249168Y-94626900D01*
X175510328Y-94777681D01*
X175510329Y-94777681D01*
X175510332Y-94777683D01*
X175682758Y-94849104D01*
X175788939Y-94893086D01*
X175788940Y-94893086D01*
X175788942Y-94893087D01*
X176080232Y-94971138D01*
X176379217Y-95010500D01*
X176379224Y-95010500D01*
X176680776Y-95010500D01*
X176680783Y-95010500D01*
X176979768Y-94971138D01*
X177271058Y-94893087D01*
X177549668Y-94777683D01*
X177810832Y-94626900D01*
X178050080Y-94443319D01*
X178196581Y-94296817D01*
X178257902Y-94263334D01*
X178284261Y-94260500D01*
X198242026Y-94260500D01*
X198242027Y-94260500D01*
X198483076Y-94222321D01*
X198715185Y-94146904D01*
X198932639Y-94036106D01*
X199130083Y-93892655D01*
X199160791Y-93861947D01*
X204748000Y-93861947D01*
X204748000Y-94098052D01*
X204784934Y-94331247D01*
X204857897Y-94555802D01*
X204965087Y-94766174D01*
X205025338Y-94849104D01*
X205025340Y-94849105D01*
X205848000Y-94026445D01*
X205848000Y-94032661D01*
X205875259Y-94134394D01*
X205927920Y-94225606D01*
X206002394Y-94300080D01*
X206093606Y-94352741D01*
X206195339Y-94380000D01*
X206201554Y-94380000D01*
X205378893Y-95202658D01*
X205461828Y-95262914D01*
X205672197Y-95370102D01*
X205896752Y-95443065D01*
X205896751Y-95443065D01*
X206129948Y-95480000D01*
X206366052Y-95480000D01*
X206599247Y-95443065D01*
X206823802Y-95370102D01*
X207034163Y-95262918D01*
X207034169Y-95262914D01*
X207117104Y-95202658D01*
X207117105Y-95202658D01*
X206294446Y-94380000D01*
X206300661Y-94380000D01*
X206402394Y-94352741D01*
X206493606Y-94300080D01*
X206568080Y-94225606D01*
X206620741Y-94134394D01*
X206648000Y-94032661D01*
X206648000Y-94026446D01*
X207470658Y-94849105D01*
X207470658Y-94849104D01*
X207530914Y-94766169D01*
X207530918Y-94766163D01*
X207638102Y-94555802D01*
X207711065Y-94331247D01*
X207748000Y-94098052D01*
X207748000Y-93861947D01*
X207711065Y-93628752D01*
X207638102Y-93404197D01*
X207530914Y-93193828D01*
X207470658Y-93110894D01*
X207470658Y-93110893D01*
X206648000Y-93933552D01*
X206648000Y-93927339D01*
X206620741Y-93825606D01*
X206568080Y-93734394D01*
X206493606Y-93659920D01*
X206402394Y-93607259D01*
X206300661Y-93580000D01*
X206294447Y-93580000D01*
X207117105Y-92757340D01*
X207117104Y-92757338D01*
X207034174Y-92697087D01*
X206823802Y-92589897D01*
X206599247Y-92516934D01*
X206599248Y-92516934D01*
X206366052Y-92480000D01*
X206129948Y-92480000D01*
X205896752Y-92516934D01*
X205672197Y-92589897D01*
X205461830Y-92697084D01*
X205378894Y-92757340D01*
X206201554Y-93580000D01*
X206195339Y-93580000D01*
X206093606Y-93607259D01*
X206002394Y-93659920D01*
X205927920Y-93734394D01*
X205875259Y-93825606D01*
X205848000Y-93927339D01*
X205848000Y-93933553D01*
X205025340Y-93110894D01*
X204965084Y-93193830D01*
X204857897Y-93404197D01*
X204784934Y-93628752D01*
X204748000Y-93861947D01*
X199160791Y-93861947D01*
X201980919Y-91041819D01*
X202042242Y-91008334D01*
X202068600Y-91005500D01*
X210502394Y-91005500D01*
X210569433Y-91025185D01*
X210615188Y-91077989D01*
X210625132Y-91147147D01*
X210602713Y-91202384D01*
X210598032Y-91208826D01*
X210490843Y-91419197D01*
X210417880Y-91643752D01*
X210380946Y-91876947D01*
X210380946Y-92113052D01*
X210417880Y-92346247D01*
X210490843Y-92570802D01*
X210598033Y-92781174D01*
X210658284Y-92864104D01*
X210658286Y-92864105D01*
X211480946Y-92041445D01*
X211480946Y-92047661D01*
X211508205Y-92149394D01*
X211560866Y-92240606D01*
X211635340Y-92315080D01*
X211726552Y-92367741D01*
X211828285Y-92395000D01*
X211834500Y-92395000D01*
X211463990Y-92765508D01*
X211408404Y-92797601D01*
X211300958Y-92826392D01*
X211300956Y-92826392D01*
X211082900Y-92916714D01*
X211082889Y-92916719D01*
X210878491Y-93034730D01*
X210691248Y-93178406D01*
X210691241Y-93178412D01*
X210524358Y-93345295D01*
X210524352Y-93345302D01*
X210380676Y-93532545D01*
X210262665Y-93736943D01*
X210262660Y-93736954D01*
X210172340Y-93955006D01*
X210111252Y-94182989D01*
X210095354Y-94303747D01*
X210067087Y-94367643D01*
X210060096Y-94375242D01*
X207867638Y-96567701D01*
X207711758Y-96723580D01*
X207673249Y-96776583D01*
X207620246Y-96849537D01*
X207620239Y-96849547D01*
X207582185Y-96901923D01*
X207482104Y-97098339D01*
X207482103Y-97098342D01*
X207413985Y-97307993D01*
X207413985Y-97307995D01*
X207381285Y-97514452D01*
X207379499Y-97525725D01*
X207379499Y-97751278D01*
X207379500Y-97751303D01*
X207379500Y-99959459D01*
X207359815Y-100026498D01*
X207307011Y-100072253D01*
X207237853Y-100082197D01*
X207193500Y-100066846D01*
X207046056Y-99981719D01*
X207046045Y-99981714D01*
X206827993Y-99891394D01*
X206772012Y-99876394D01*
X206600014Y-99830307D01*
X206600013Y-99830306D01*
X206600010Y-99830306D01*
X206366020Y-99799501D01*
X206366017Y-99799500D01*
X206366011Y-99799500D01*
X206129989Y-99799500D01*
X206129983Y-99799500D01*
X206129979Y-99799501D01*
X205895989Y-99830306D01*
X205668006Y-99891394D01*
X205449954Y-99981714D01*
X205449943Y-99981719D01*
X205245545Y-100099730D01*
X205058302Y-100243406D01*
X205058295Y-100243412D01*
X204891412Y-100410295D01*
X204891406Y-100410302D01*
X204747730Y-100597545D01*
X204629719Y-100801943D01*
X204629714Y-100801954D01*
X204539394Y-101020006D01*
X204478306Y-101247989D01*
X204447501Y-101481979D01*
X204447500Y-101481990D01*
X204447500Y-101651374D01*
X204427815Y-101718413D01*
X204411181Y-101739055D01*
X202993055Y-103157181D01*
X202931732Y-103190666D01*
X202905374Y-103193500D01*
X186984626Y-103193500D01*
X186917587Y-103173815D01*
X186896945Y-103157181D01*
X184370819Y-100631055D01*
X184337334Y-100569732D01*
X184334500Y-100543374D01*
X184334500Y-98171153D01*
X184354185Y-98104114D01*
X184370814Y-98083476D01*
X184490592Y-97963699D01*
X184634273Y-97776450D01*
X184752284Y-97572049D01*
X184842606Y-97353993D01*
X184903693Y-97126014D01*
X184910995Y-97070549D01*
X186640500Y-97070549D01*
X186640500Y-97293450D01*
X186640501Y-97293466D01*
X186669594Y-97514452D01*
X186669595Y-97514457D01*
X186669596Y-97514463D01*
X186672614Y-97525725D01*
X186727290Y-97729780D01*
X186727293Y-97729790D01*
X186812593Y-97935722D01*
X186812595Y-97935726D01*
X186924052Y-98128774D01*
X186924054Y-98128776D01*
X186924058Y-98128782D01*
X187059751Y-98305622D01*
X187059757Y-98305629D01*
X187217370Y-98463242D01*
X187217377Y-98463248D01*
X187343294Y-98559867D01*
X187394226Y-98598948D01*
X187587274Y-98710405D01*
X187793219Y-98795710D01*
X187981447Y-98846145D01*
X188041107Y-98882510D01*
X188071636Y-98945357D01*
X188063914Y-99013373D01*
X187997293Y-99174209D01*
X187997290Y-99174219D01*
X187950389Y-99349259D01*
X187939597Y-99389534D01*
X187939594Y-99389547D01*
X187910501Y-99610533D01*
X187910500Y-99610549D01*
X187910500Y-99833450D01*
X187910501Y-99833466D01*
X187939594Y-100054452D01*
X187939595Y-100054457D01*
X187939596Y-100054463D01*
X187994511Y-100259410D01*
X187997290Y-100269780D01*
X187997293Y-100269790D01*
X188082593Y-100475722D01*
X188082595Y-100475726D01*
X188194052Y-100668774D01*
X188194057Y-100668780D01*
X188194058Y-100668782D01*
X188329751Y-100845622D01*
X188329757Y-100845629D01*
X188487370Y-101003242D01*
X188487376Y-101003247D01*
X188664226Y-101138948D01*
X188857274Y-101250405D01*
X188987140Y-101304197D01*
X189058904Y-101333923D01*
X189063219Y-101335710D01*
X189278537Y-101393404D01*
X189499543Y-101422500D01*
X189499550Y-101422500D01*
X189722450Y-101422500D01*
X189722457Y-101422500D01*
X189943463Y-101393404D01*
X190158781Y-101335710D01*
X190364726Y-101250405D01*
X190557774Y-101138948D01*
X190734624Y-101003247D01*
X190892247Y-100845624D01*
X190925758Y-100801951D01*
X190965376Y-100750321D01*
X191027941Y-100668783D01*
X191027942Y-100668782D01*
X191027948Y-100668774D01*
X191139405Y-100475726D01*
X191197628Y-100335161D01*
X191224504Y-100294940D01*
X191751000Y-99768444D01*
X191751000Y-99774661D01*
X191778259Y-99876394D01*
X191830920Y-99967606D01*
X191905394Y-100042080D01*
X191996606Y-100094741D01*
X192098339Y-100122000D01*
X192104553Y-100122000D01*
X191353485Y-100873065D01*
X191353485Y-100873066D01*
X191417243Y-100919388D01*
X191613589Y-101019432D01*
X191823164Y-101087526D01*
X192040819Y-101122000D01*
X192261181Y-101122000D01*
X192478835Y-101087526D01*
X192688410Y-101019432D01*
X192884760Y-100919386D01*
X192948513Y-100873066D01*
X192948514Y-100873066D01*
X192197447Y-100122000D01*
X192203661Y-100122000D01*
X192305394Y-100094741D01*
X192396606Y-100042080D01*
X192471080Y-99967606D01*
X192523741Y-99876394D01*
X192551000Y-99774661D01*
X192551000Y-99768446D01*
X193077494Y-100294940D01*
X193104374Y-100335168D01*
X193149970Y-100445248D01*
X193162595Y-100475726D01*
X193274052Y-100668774D01*
X193274057Y-100668780D01*
X193274058Y-100668782D01*
X193409751Y-100845622D01*
X193409757Y-100845629D01*
X193567370Y-101003242D01*
X193567376Y-101003247D01*
X193744226Y-101138948D01*
X193937274Y-101250405D01*
X194067140Y-101304197D01*
X194138904Y-101333923D01*
X194143219Y-101335710D01*
X194358537Y-101393404D01*
X194579543Y-101422500D01*
X194579550Y-101422500D01*
X194802450Y-101422500D01*
X194802457Y-101422500D01*
X195023463Y-101393404D01*
X195238781Y-101335710D01*
X195444726Y-101250405D01*
X195637774Y-101138948D01*
X195814624Y-101003247D01*
X195972247Y-100845624D01*
X196005758Y-100801951D01*
X196045376Y-100750321D01*
X196107941Y-100668783D01*
X196107942Y-100668782D01*
X196107948Y-100668774D01*
X196219405Y-100475726D01*
X196277628Y-100335161D01*
X196304504Y-100294940D01*
X196831000Y-99768445D01*
X196831000Y-99774661D01*
X196858259Y-99876394D01*
X196910920Y-99967606D01*
X196985394Y-100042080D01*
X197076606Y-100094741D01*
X197178339Y-100122000D01*
X197184553Y-100122000D01*
X196433485Y-100873065D01*
X196433485Y-100873066D01*
X196497243Y-100919388D01*
X196693589Y-101019432D01*
X196903164Y-101087526D01*
X197120819Y-101122000D01*
X197341181Y-101122000D01*
X197558835Y-101087526D01*
X197768410Y-101019432D01*
X197964760Y-100919386D01*
X198028513Y-100873066D01*
X198028514Y-100873066D01*
X197277447Y-100122000D01*
X197283661Y-100122000D01*
X197385394Y-100094741D01*
X197476606Y-100042080D01*
X197551080Y-99967606D01*
X197603741Y-99876394D01*
X197631000Y-99774661D01*
X197631000Y-99768448D01*
X198382066Y-100519514D01*
X198382066Y-100519513D01*
X198428386Y-100455760D01*
X198528432Y-100259410D01*
X198596526Y-100049835D01*
X198631000Y-99832181D01*
X198631000Y-99611818D01*
X198596526Y-99394164D01*
X198528432Y-99184589D01*
X198428388Y-98988243D01*
X198382066Y-98924485D01*
X198382065Y-98924485D01*
X197631000Y-99675551D01*
X197631000Y-99669339D01*
X197603741Y-99567606D01*
X197551080Y-99476394D01*
X197476606Y-99401920D01*
X197385394Y-99349259D01*
X197283661Y-99322000D01*
X197277446Y-99322000D01*
X198028513Y-98570932D01*
X197964756Y-98524611D01*
X197768410Y-98424567D01*
X197558834Y-98356472D01*
X197447622Y-98338858D01*
X197384487Y-98308928D01*
X197347556Y-98249617D01*
X197348554Y-98179754D01*
X197368643Y-98140899D01*
X197377948Y-98128774D01*
X197489405Y-97935726D01*
X197574710Y-97729781D01*
X197632404Y-97514463D01*
X197661500Y-97293457D01*
X197661500Y-97070543D01*
X197632404Y-96849537D01*
X197574710Y-96634219D01*
X197489405Y-96428274D01*
X197377948Y-96235226D01*
X197242247Y-96058376D01*
X197242242Y-96058370D01*
X197084629Y-95900757D01*
X197084622Y-95900751D01*
X196907782Y-95765058D01*
X196907780Y-95765057D01*
X196907774Y-95765052D01*
X196714726Y-95653595D01*
X196714722Y-95653593D01*
X196508790Y-95568293D01*
X196508783Y-95568291D01*
X196508781Y-95568290D01*
X196293463Y-95510596D01*
X196293457Y-95510595D01*
X196293452Y-95510594D01*
X196072466Y-95481501D01*
X196072463Y-95481500D01*
X196072457Y-95481500D01*
X195849543Y-95481500D01*
X195849537Y-95481500D01*
X195849533Y-95481501D01*
X195628547Y-95510594D01*
X195628540Y-95510595D01*
X195628537Y-95510596D01*
X195528316Y-95537450D01*
X195413219Y-95568290D01*
X195413209Y-95568293D01*
X195207277Y-95653593D01*
X195207273Y-95653595D01*
X195014226Y-95765052D01*
X195014217Y-95765058D01*
X194837377Y-95900751D01*
X194837370Y-95900757D01*
X194778681Y-95959447D01*
X194717358Y-95992932D01*
X194647666Y-95987948D01*
X194603319Y-95959447D01*
X194544629Y-95900757D01*
X194544622Y-95900751D01*
X194367782Y-95765058D01*
X194367780Y-95765057D01*
X194367774Y-95765052D01*
X194174726Y-95653595D01*
X194174722Y-95653593D01*
X193968790Y-95568293D01*
X193968783Y-95568291D01*
X193968781Y-95568290D01*
X193753463Y-95510596D01*
X193753457Y-95510595D01*
X193753452Y-95510594D01*
X193532466Y-95481501D01*
X193532463Y-95481500D01*
X193532457Y-95481500D01*
X193309543Y-95481500D01*
X193309537Y-95481500D01*
X193309533Y-95481501D01*
X193088547Y-95510594D01*
X193088540Y-95510595D01*
X193088537Y-95510596D01*
X192988316Y-95537450D01*
X192873219Y-95568290D01*
X192873209Y-95568293D01*
X192667277Y-95653593D01*
X192667273Y-95653595D01*
X192474226Y-95765052D01*
X192474217Y-95765058D01*
X192297377Y-95900751D01*
X192297370Y-95900757D01*
X192238681Y-95959447D01*
X192177358Y-95992932D01*
X192107666Y-95987948D01*
X192063319Y-95959447D01*
X192004629Y-95900757D01*
X192004622Y-95900751D01*
X191827782Y-95765058D01*
X191827780Y-95765057D01*
X191827774Y-95765052D01*
X191634726Y-95653595D01*
X191634722Y-95653593D01*
X191428790Y-95568293D01*
X191428783Y-95568291D01*
X191428781Y-95568290D01*
X191213463Y-95510596D01*
X191213457Y-95510595D01*
X191213452Y-95510594D01*
X190992466Y-95481501D01*
X190992463Y-95481500D01*
X190992457Y-95481500D01*
X190769543Y-95481500D01*
X190769537Y-95481500D01*
X190769533Y-95481501D01*
X190548547Y-95510594D01*
X190548540Y-95510595D01*
X190548537Y-95510596D01*
X190448316Y-95537450D01*
X190333219Y-95568290D01*
X190333209Y-95568293D01*
X190127277Y-95653593D01*
X190127273Y-95653595D01*
X189934226Y-95765052D01*
X189934217Y-95765058D01*
X189757377Y-95900751D01*
X189757370Y-95900757D01*
X189698681Y-95959447D01*
X189637358Y-95992932D01*
X189567666Y-95987948D01*
X189523319Y-95959447D01*
X189464629Y-95900757D01*
X189464622Y-95900751D01*
X189287782Y-95765058D01*
X189287780Y-95765057D01*
X189287774Y-95765052D01*
X189094726Y-95653595D01*
X189094722Y-95653593D01*
X188888790Y-95568293D01*
X188888783Y-95568291D01*
X188888781Y-95568290D01*
X188673463Y-95510596D01*
X188673457Y-95510595D01*
X188673452Y-95510594D01*
X188452466Y-95481501D01*
X188452463Y-95481500D01*
X188452457Y-95481500D01*
X188229543Y-95481500D01*
X188229537Y-95481500D01*
X188229533Y-95481501D01*
X188008547Y-95510594D01*
X188008540Y-95510595D01*
X188008537Y-95510596D01*
X187908316Y-95537450D01*
X187793219Y-95568290D01*
X187793209Y-95568293D01*
X187587277Y-95653593D01*
X187587273Y-95653595D01*
X187394226Y-95765052D01*
X187394217Y-95765058D01*
X187217377Y-95900751D01*
X187217370Y-95900757D01*
X187059757Y-96058370D01*
X187059751Y-96058377D01*
X186924058Y-96235217D01*
X186924052Y-96235226D01*
X186812595Y-96428273D01*
X186812593Y-96428277D01*
X186727293Y-96634209D01*
X186727290Y-96634219D01*
X186669597Y-96849534D01*
X186669594Y-96849547D01*
X186640501Y-97070533D01*
X186640500Y-97070549D01*
X184910995Y-97070549D01*
X184934500Y-96892011D01*
X184934500Y-96655989D01*
X184903693Y-96421986D01*
X184842606Y-96194007D01*
X184752284Y-95975951D01*
X184752282Y-95975948D01*
X184752280Y-95975943D01*
X184647450Y-95794374D01*
X184634273Y-95771550D01*
X184490592Y-95584301D01*
X184490587Y-95584295D01*
X184323704Y-95417412D01*
X184323697Y-95417406D01*
X184136457Y-95273732D01*
X184136455Y-95273730D01*
X184136450Y-95273727D01*
X184101314Y-95253441D01*
X183932056Y-95155719D01*
X183932045Y-95155714D01*
X183713993Y-95065394D01*
X183486014Y-95004307D01*
X183486013Y-95004306D01*
X183486010Y-95004306D01*
X183252020Y-94973501D01*
X183252017Y-94973500D01*
X183252011Y-94973500D01*
X183015989Y-94973500D01*
X183015983Y-94973500D01*
X183015979Y-94973501D01*
X182781989Y-95004306D01*
X182554006Y-95065394D01*
X182335954Y-95155714D01*
X182335943Y-95155719D01*
X182131545Y-95273730D01*
X181944302Y-95417406D01*
X181944295Y-95417412D01*
X181777412Y-95584295D01*
X181777406Y-95584302D01*
X181633730Y-95771545D01*
X181515719Y-95975943D01*
X181515714Y-95975954D01*
X181425394Y-96194006D01*
X181364306Y-96421989D01*
X181333501Y-96655979D01*
X181333500Y-96655995D01*
X181333500Y-96892004D01*
X181333501Y-96892020D01*
X181360663Y-97098342D01*
X181364307Y-97126014D01*
X181409173Y-97293457D01*
X181425394Y-97353993D01*
X181515714Y-97572045D01*
X181515719Y-97572056D01*
X181586677Y-97694957D01*
X181633727Y-97776450D01*
X181633729Y-97776453D01*
X181633730Y-97776454D01*
X181777405Y-97963696D01*
X181777407Y-97963698D01*
X181777408Y-97963699D01*
X181897182Y-98083473D01*
X181930666Y-98144794D01*
X181933500Y-98171153D01*
X181933500Y-101186486D01*
X181963059Y-101373118D01*
X182021454Y-101552836D01*
X182097833Y-101702736D01*
X182107240Y-101721199D01*
X182218310Y-101874074D01*
X185653926Y-105309690D01*
X185806801Y-105420760D01*
X185975168Y-105506547D01*
X186154882Y-105564940D01*
X186224870Y-105576025D01*
X186341513Y-105594500D01*
X186341518Y-105594500D01*
X203548486Y-105594500D01*
X203735118Y-105564940D01*
X203914832Y-105506547D01*
X204083199Y-105420760D01*
X204236074Y-105309690D01*
X206108944Y-103436818D01*
X206170267Y-103403334D01*
X206196625Y-103400500D01*
X206366004Y-103400500D01*
X206366011Y-103400500D01*
X206600014Y-103369693D01*
X206827993Y-103308606D01*
X207046049Y-103218284D01*
X207193500Y-103133152D01*
X207261400Y-103116680D01*
X207327427Y-103139532D01*
X207370617Y-103194453D01*
X207379500Y-103240540D01*
X207379500Y-104041430D01*
X207359815Y-104108469D01*
X207353876Y-104116916D01*
X207279730Y-104213545D01*
X207161719Y-104417943D01*
X207161714Y-104417954D01*
X207071394Y-104636006D01*
X207010306Y-104863989D01*
X206979501Y-105097979D01*
X206979500Y-105097995D01*
X206979500Y-105334004D01*
X206979501Y-105334020D01*
X207006102Y-105536080D01*
X207010307Y-105568014D01*
X207071394Y-105795992D01*
X207071394Y-105795993D01*
X207161714Y-106014045D01*
X207161719Y-106014056D01*
X207232677Y-106136957D01*
X207279727Y-106218450D01*
X207279729Y-106218453D01*
X207279730Y-106218454D01*
X207423406Y-106405697D01*
X207423412Y-106405704D01*
X207590295Y-106572587D01*
X207590301Y-106572592D01*
X207777550Y-106716273D01*
X207908918Y-106792118D01*
X207981943Y-106834280D01*
X207981948Y-106834282D01*
X207981951Y-106834284D01*
X208200007Y-106924606D01*
X208427986Y-106985693D01*
X208661989Y-107016500D01*
X208661996Y-107016500D01*
X208898004Y-107016500D01*
X208898011Y-107016500D01*
X209132014Y-106985693D01*
X209359993Y-106924606D01*
X209578049Y-106834284D01*
X209782450Y-106716273D01*
X209969699Y-106572592D01*
X210136592Y-106405699D01*
X210280273Y-106218450D01*
X210398284Y-106014049D01*
X210488606Y-105795993D01*
X210517398Y-105688537D01*
X210549490Y-105632954D01*
X210920000Y-105262445D01*
X210920000Y-105268661D01*
X210947259Y-105370394D01*
X210999920Y-105461606D01*
X211074394Y-105536080D01*
X211165606Y-105588741D01*
X211267339Y-105616000D01*
X211273554Y-105616000D01*
X210450893Y-106438658D01*
X210533828Y-106498914D01*
X210744197Y-106606102D01*
X210968752Y-106679065D01*
X210968751Y-106679065D01*
X211201948Y-106716000D01*
X211438052Y-106716000D01*
X211671247Y-106679065D01*
X211895802Y-106606102D01*
X212106163Y-106498918D01*
X212106169Y-106498914D01*
X212189104Y-106438658D01*
X212189105Y-106438658D01*
X211366446Y-105616000D01*
X211372661Y-105616000D01*
X211474394Y-105588741D01*
X211565606Y-105536080D01*
X211640080Y-105461606D01*
X211692741Y-105370394D01*
X211720000Y-105268661D01*
X211720000Y-105262446D01*
X212090508Y-105632954D01*
X212122602Y-105688541D01*
X212151394Y-105795993D01*
X212241714Y-106014045D01*
X212241719Y-106014056D01*
X212312677Y-106136957D01*
X212359727Y-106218450D01*
X212359729Y-106218453D01*
X212359730Y-106218454D01*
X212503406Y-106405697D01*
X212503412Y-106405704D01*
X212670295Y-106572587D01*
X212670301Y-106572592D01*
X212857550Y-106716273D01*
X212988918Y-106792118D01*
X213061943Y-106834280D01*
X213061948Y-106834282D01*
X213061951Y-106834284D01*
X213280007Y-106924606D01*
X213507986Y-106985693D01*
X213741989Y-107016500D01*
X213741996Y-107016500D01*
X213978004Y-107016500D01*
X213978011Y-107016500D01*
X214212014Y-106985693D01*
X214439993Y-106924606D01*
X214658049Y-106834284D01*
X214862450Y-106716273D01*
X215049698Y-106572593D01*
X215052920Y-106570121D01*
X215053814Y-106571286D01*
X215111619Y-106544469D01*
X215180835Y-106553998D01*
X215206697Y-106570619D01*
X215207080Y-106570121D01*
X215354325Y-106683105D01*
X215397550Y-106716273D01*
X215528918Y-106792118D01*
X215601943Y-106834280D01*
X215601948Y-106834282D01*
X215601951Y-106834284D01*
X215820007Y-106924606D01*
X216047986Y-106985693D01*
X216281989Y-107016500D01*
X216281996Y-107016500D01*
X216518004Y-107016500D01*
X216518011Y-107016500D01*
X216752014Y-106985693D01*
X216979993Y-106924606D01*
X217198049Y-106834284D01*
X217402450Y-106716273D01*
X217589698Y-106572593D01*
X217592920Y-106570121D01*
X217593814Y-106571286D01*
X217651619Y-106544469D01*
X217720835Y-106553998D01*
X217746697Y-106570619D01*
X217747080Y-106570121D01*
X217894325Y-106683105D01*
X217937550Y-106716273D01*
X218068918Y-106792118D01*
X218141943Y-106834280D01*
X218141948Y-106834282D01*
X218141951Y-106834284D01*
X218360007Y-106924606D01*
X218587986Y-106985693D01*
X218821989Y-107016500D01*
X218821996Y-107016500D01*
X219058004Y-107016500D01*
X219058011Y-107016500D01*
X219292014Y-106985693D01*
X219519993Y-106924606D01*
X219738049Y-106834284D01*
X219942450Y-106716273D01*
X220129698Y-106572593D01*
X220132920Y-106570121D01*
X220133814Y-106571286D01*
X220191619Y-106544469D01*
X220260835Y-106553998D01*
X220286697Y-106570619D01*
X220287080Y-106570121D01*
X220434325Y-106683105D01*
X220477550Y-106716273D01*
X220608918Y-106792118D01*
X220681943Y-106834280D01*
X220681948Y-106834282D01*
X220681951Y-106834284D01*
X220900007Y-106924606D01*
X221127986Y-106985693D01*
X221361989Y-107016500D01*
X221361996Y-107016500D01*
X221598004Y-107016500D01*
X221598011Y-107016500D01*
X221832014Y-106985693D01*
X222059993Y-106924606D01*
X222278049Y-106834284D01*
X222482450Y-106716273D01*
X222669698Y-106572593D01*
X222672920Y-106570121D01*
X222673814Y-106571286D01*
X222731619Y-106544469D01*
X222800835Y-106553998D01*
X222826697Y-106570619D01*
X222827080Y-106570121D01*
X222974325Y-106683105D01*
X223017550Y-106716273D01*
X223148918Y-106792118D01*
X223221943Y-106834280D01*
X223221948Y-106834282D01*
X223221951Y-106834284D01*
X223440007Y-106924606D01*
X223667986Y-106985693D01*
X223901989Y-107016500D01*
X223901996Y-107016500D01*
X224138004Y-107016500D01*
X224138011Y-107016500D01*
X224372014Y-106985693D01*
X224599993Y-106924606D01*
X224818049Y-106834284D01*
X225022450Y-106716273D01*
X225209698Y-106572593D01*
X225212920Y-106570121D01*
X225213814Y-106571286D01*
X225271619Y-106544469D01*
X225340835Y-106553998D01*
X225366697Y-106570619D01*
X225367080Y-106570121D01*
X225514325Y-106683105D01*
X225557550Y-106716273D01*
X225688918Y-106792118D01*
X225761943Y-106834280D01*
X225761948Y-106834282D01*
X225761951Y-106834284D01*
X225980007Y-106924606D01*
X226207986Y-106985693D01*
X226441989Y-107016500D01*
X226441996Y-107016500D01*
X226678004Y-107016500D01*
X226678011Y-107016500D01*
X226912014Y-106985693D01*
X227139993Y-106924606D01*
X227358049Y-106834284D01*
X227562450Y-106716273D01*
X227749698Y-106572593D01*
X227752920Y-106570121D01*
X227753814Y-106571286D01*
X227811619Y-106544469D01*
X227880835Y-106553998D01*
X227906697Y-106570619D01*
X227907080Y-106570121D01*
X228054325Y-106683105D01*
X228097550Y-106716273D01*
X228228918Y-106792118D01*
X228301943Y-106834280D01*
X228301948Y-106834282D01*
X228301951Y-106834284D01*
X228520007Y-106924606D01*
X228747986Y-106985693D01*
X228981989Y-107016500D01*
X228981996Y-107016500D01*
X229218004Y-107016500D01*
X229218011Y-107016500D01*
X229452014Y-106985693D01*
X229679993Y-106924606D01*
X229898049Y-106834284D01*
X230102450Y-106716273D01*
X230289698Y-106572593D01*
X230292920Y-106570121D01*
X230293814Y-106571286D01*
X230351619Y-106544469D01*
X230420835Y-106553998D01*
X230446697Y-106570619D01*
X230447080Y-106570121D01*
X230594325Y-106683105D01*
X230637550Y-106716273D01*
X230768918Y-106792118D01*
X230841943Y-106834280D01*
X230841948Y-106834282D01*
X230841951Y-106834284D01*
X231060007Y-106924606D01*
X231287986Y-106985693D01*
X231521989Y-107016500D01*
X231521996Y-107016500D01*
X231758004Y-107016500D01*
X231758011Y-107016500D01*
X231992014Y-106985693D01*
X232219993Y-106924606D01*
X232438049Y-106834284D01*
X232642450Y-106716273D01*
X232829699Y-106572592D01*
X232996592Y-106405699D01*
X233140273Y-106218450D01*
X233258284Y-106014049D01*
X233348606Y-105795993D01*
X233409693Y-105568014D01*
X233440500Y-105334011D01*
X233440500Y-105097989D01*
X233409693Y-104863986D01*
X233348606Y-104636007D01*
X233258284Y-104417951D01*
X233258282Y-104417948D01*
X233258280Y-104417943D01*
X233216118Y-104344918D01*
X233140273Y-104213550D01*
X232996592Y-104026301D01*
X232996587Y-104026295D01*
X232829704Y-103859412D01*
X232829697Y-103859406D01*
X232642454Y-103715730D01*
X232642453Y-103715729D01*
X232642450Y-103715727D01*
X232560957Y-103668677D01*
X232438056Y-103597719D01*
X232438045Y-103597714D01*
X232219993Y-103507394D01*
X231992010Y-103446306D01*
X231758020Y-103415501D01*
X231758017Y-103415500D01*
X231758011Y-103415500D01*
X231521989Y-103415500D01*
X231521983Y-103415500D01*
X231521979Y-103415501D01*
X231287989Y-103446306D01*
X231060006Y-103507394D01*
X230841954Y-103597714D01*
X230841943Y-103597719D01*
X230637545Y-103715730D01*
X230447080Y-103861879D01*
X230446191Y-103860720D01*
X230388338Y-103887537D01*
X230319124Y-103877983D01*
X230293298Y-103861385D01*
X230292920Y-103861879D01*
X230102454Y-103715730D01*
X230102453Y-103715729D01*
X230102450Y-103715727D01*
X230020957Y-103668677D01*
X229898056Y-103597719D01*
X229898045Y-103597714D01*
X229679993Y-103507394D01*
X229452010Y-103446306D01*
X229218020Y-103415501D01*
X229218017Y-103415500D01*
X229218011Y-103415500D01*
X228981989Y-103415500D01*
X228981983Y-103415500D01*
X228981979Y-103415501D01*
X228747989Y-103446306D01*
X228520006Y-103507394D01*
X228301954Y-103597714D01*
X228301943Y-103597719D01*
X228097545Y-103715730D01*
X227907080Y-103861879D01*
X227906191Y-103860720D01*
X227848338Y-103887537D01*
X227779124Y-103877983D01*
X227753298Y-103861385D01*
X227752920Y-103861879D01*
X227562454Y-103715730D01*
X227562453Y-103715729D01*
X227562450Y-103715727D01*
X227480957Y-103668677D01*
X227358056Y-103597719D01*
X227358045Y-103597714D01*
X227139993Y-103507394D01*
X226912010Y-103446306D01*
X226678020Y-103415501D01*
X226678017Y-103415500D01*
X226678011Y-103415500D01*
X226441989Y-103415500D01*
X226441983Y-103415500D01*
X226441979Y-103415501D01*
X226207989Y-103446306D01*
X225980006Y-103507394D01*
X225761954Y-103597714D01*
X225761943Y-103597719D01*
X225557545Y-103715730D01*
X225367080Y-103861879D01*
X225366191Y-103860720D01*
X225308338Y-103887537D01*
X225239124Y-103877983D01*
X225213298Y-103861385D01*
X225212920Y-103861879D01*
X225022454Y-103715730D01*
X225022453Y-103715729D01*
X225022450Y-103715727D01*
X224940957Y-103668677D01*
X224818056Y-103597719D01*
X224818045Y-103597714D01*
X224599993Y-103507394D01*
X224372010Y-103446306D01*
X224138020Y-103415501D01*
X224138017Y-103415500D01*
X224138011Y-103415500D01*
X223901989Y-103415500D01*
X223901983Y-103415500D01*
X223901979Y-103415501D01*
X223667989Y-103446306D01*
X223440006Y-103507394D01*
X223221954Y-103597714D01*
X223221943Y-103597719D01*
X223017545Y-103715730D01*
X222827080Y-103861879D01*
X222826191Y-103860720D01*
X222768338Y-103887537D01*
X222699124Y-103877983D01*
X222673298Y-103861385D01*
X222672920Y-103861879D01*
X222482454Y-103715730D01*
X222482453Y-103715729D01*
X222482450Y-103715727D01*
X222400957Y-103668677D01*
X222278056Y-103597719D01*
X222278045Y-103597714D01*
X222059993Y-103507394D01*
X221832010Y-103446306D01*
X221598020Y-103415501D01*
X221598017Y-103415500D01*
X221598011Y-103415500D01*
X221361989Y-103415500D01*
X221361983Y-103415500D01*
X221361979Y-103415501D01*
X221127989Y-103446306D01*
X220900006Y-103507394D01*
X220681954Y-103597714D01*
X220681943Y-103597719D01*
X220477545Y-103715730D01*
X220287080Y-103861879D01*
X220286191Y-103860720D01*
X220228338Y-103887537D01*
X220159124Y-103877983D01*
X220133298Y-103861385D01*
X220132920Y-103861879D01*
X219942454Y-103715730D01*
X219942453Y-103715729D01*
X219942450Y-103715727D01*
X219860957Y-103668677D01*
X219738056Y-103597719D01*
X219738045Y-103597714D01*
X219519993Y-103507394D01*
X219292010Y-103446306D01*
X219058020Y-103415501D01*
X219058017Y-103415500D01*
X219058011Y-103415500D01*
X218821989Y-103415500D01*
X218821983Y-103415500D01*
X218821979Y-103415501D01*
X218587989Y-103446306D01*
X218360006Y-103507394D01*
X218141954Y-103597714D01*
X218141943Y-103597719D01*
X217937545Y-103715730D01*
X217799986Y-103821282D01*
X217734816Y-103846476D01*
X217666372Y-103832437D01*
X217616382Y-103783623D01*
X217600500Y-103722906D01*
X217600500Y-102664625D01*
X217620185Y-102597586D01*
X217636814Y-102576948D01*
X218558024Y-101655738D01*
X218619347Y-101622254D01*
X218689039Y-101627238D01*
X218744972Y-101669110D01*
X218768178Y-101724022D01*
X218793059Y-101881118D01*
X218851454Y-102060836D01*
X218937240Y-102229199D01*
X219048310Y-102382074D01*
X219181926Y-102515690D01*
X219334801Y-102626760D01*
X219414347Y-102667290D01*
X219503163Y-102712545D01*
X219503165Y-102712545D01*
X219503168Y-102712547D01*
X219599497Y-102743846D01*
X219682881Y-102770940D01*
X219869514Y-102800500D01*
X219869519Y-102800500D01*
X220058486Y-102800500D01*
X220245118Y-102770940D01*
X220424832Y-102712547D01*
X220593199Y-102626760D01*
X220746074Y-102515690D01*
X223927690Y-99334073D01*
X224038760Y-99181199D01*
X224124547Y-99012832D01*
X224182940Y-98833118D01*
X224188865Y-98795708D01*
X224212500Y-98646486D01*
X224212500Y-97070549D01*
X238710500Y-97070549D01*
X238710500Y-97293450D01*
X238710501Y-97293466D01*
X238739594Y-97514452D01*
X238739595Y-97514457D01*
X238739596Y-97514463D01*
X238742614Y-97525725D01*
X238797290Y-97729780D01*
X238797293Y-97729790D01*
X238882593Y-97935722D01*
X238882595Y-97935726D01*
X238994052Y-98128774D01*
X238994054Y-98128776D01*
X238994058Y-98128782D01*
X239129751Y-98305622D01*
X239129757Y-98305629D01*
X239287370Y-98463242D01*
X239287377Y-98463248D01*
X239413294Y-98559867D01*
X239464226Y-98598948D01*
X239657274Y-98710405D01*
X239863219Y-98795710D01*
X240078537Y-98853404D01*
X240299543Y-98882500D01*
X240299550Y-98882500D01*
X240335140Y-98882500D01*
X240402179Y-98902185D01*
X240447934Y-98954989D01*
X240457878Y-99024147D01*
X240445625Y-99062795D01*
X240383567Y-99184589D01*
X240315473Y-99394164D01*
X240281000Y-99611818D01*
X240281000Y-99832181D01*
X240315473Y-100049835D01*
X240383567Y-100259410D01*
X240483611Y-100455756D01*
X240529932Y-100519513D01*
X241281000Y-99768445D01*
X241281000Y-99774661D01*
X241308259Y-99876394D01*
X241360920Y-99967606D01*
X241435394Y-100042080D01*
X241526606Y-100094741D01*
X241628339Y-100122000D01*
X241634553Y-100122000D01*
X240883485Y-100873065D01*
X240883485Y-100873066D01*
X240947243Y-100919388D01*
X241143589Y-101019432D01*
X241353164Y-101087526D01*
X241570819Y-101122000D01*
X241791181Y-101122000D01*
X242008835Y-101087526D01*
X242218410Y-101019432D01*
X242414760Y-100919386D01*
X242478513Y-100873066D01*
X242478514Y-100873066D01*
X241727447Y-100122000D01*
X241733661Y-100122000D01*
X241835394Y-100094741D01*
X241926606Y-100042080D01*
X242001080Y-99967606D01*
X242053741Y-99876394D01*
X242081000Y-99774661D01*
X242081000Y-99768447D01*
X242832065Y-100519513D01*
X242850680Y-100493893D01*
X242906010Y-100451227D01*
X242975623Y-100445248D01*
X243037419Y-100477853D01*
X243051317Y-100493893D01*
X243069931Y-100519513D01*
X243069932Y-100519513D01*
X243821000Y-99768445D01*
X243821000Y-99774661D01*
X243848259Y-99876394D01*
X243900920Y-99967606D01*
X243975394Y-100042080D01*
X244066606Y-100094741D01*
X244168339Y-100122000D01*
X244174553Y-100122000D01*
X243423485Y-100873065D01*
X243423485Y-100873066D01*
X243487243Y-100919388D01*
X243683589Y-101019432D01*
X243893164Y-101087526D01*
X244110819Y-101122000D01*
X244331181Y-101122000D01*
X244548835Y-101087526D01*
X244758410Y-101019432D01*
X244954760Y-100919386D01*
X245018513Y-100873066D01*
X245018514Y-100873066D01*
X244267447Y-100122000D01*
X244273661Y-100122000D01*
X244375394Y-100094741D01*
X244466606Y-100042080D01*
X244541080Y-99967606D01*
X244593741Y-99876394D01*
X244621000Y-99774661D01*
X244621000Y-99768447D01*
X245372065Y-100519513D01*
X245390680Y-100493893D01*
X245446010Y-100451227D01*
X245515623Y-100445248D01*
X245577419Y-100477853D01*
X245591317Y-100493893D01*
X245609931Y-100519513D01*
X245609932Y-100519513D01*
X246361000Y-99768445D01*
X246361000Y-99774661D01*
X246388259Y-99876394D01*
X246440920Y-99967606D01*
X246515394Y-100042080D01*
X246606606Y-100094741D01*
X246708339Y-100122000D01*
X246714553Y-100122000D01*
X245963485Y-100873065D01*
X245963485Y-100873066D01*
X246027243Y-100919388D01*
X246223589Y-101019432D01*
X246433164Y-101087526D01*
X246650819Y-101122000D01*
X246871181Y-101122000D01*
X247088835Y-101087526D01*
X247298410Y-101019432D01*
X247494760Y-100919386D01*
X247558513Y-100873066D01*
X247558514Y-100873066D01*
X246807447Y-100122000D01*
X246813661Y-100122000D01*
X246915394Y-100094741D01*
X247006606Y-100042080D01*
X247081080Y-99967606D01*
X247133741Y-99876394D01*
X247161000Y-99774661D01*
X247161000Y-99768447D01*
X247912065Y-100519513D01*
X247930680Y-100493893D01*
X247986010Y-100451227D01*
X248055623Y-100445248D01*
X248117419Y-100477853D01*
X248131317Y-100493893D01*
X248149931Y-100519513D01*
X248149932Y-100519513D01*
X248901000Y-99768445D01*
X248901000Y-99774661D01*
X248928259Y-99876394D01*
X248980920Y-99967606D01*
X249055394Y-100042080D01*
X249146606Y-100094741D01*
X249248339Y-100122000D01*
X249254553Y-100122000D01*
X248503485Y-100873065D01*
X248503485Y-100873066D01*
X248567243Y-100919388D01*
X248763589Y-101019432D01*
X248973164Y-101087526D01*
X249190819Y-101122000D01*
X249411181Y-101122000D01*
X249628835Y-101087526D01*
X249838410Y-101019432D01*
X250034760Y-100919386D01*
X250098513Y-100873066D01*
X250098514Y-100873066D01*
X249347447Y-100122000D01*
X249353661Y-100122000D01*
X249455394Y-100094741D01*
X249546606Y-100042080D01*
X249621080Y-99967606D01*
X249673741Y-99876394D01*
X249701000Y-99774661D01*
X249701000Y-99768447D01*
X250452066Y-100519514D01*
X250452066Y-100519513D01*
X250498386Y-100455760D01*
X250598432Y-100259410D01*
X250666526Y-100049835D01*
X250701000Y-99832181D01*
X250701000Y-99611818D01*
X250666526Y-99394164D01*
X250598432Y-99184589D01*
X250498388Y-98988243D01*
X250452066Y-98924485D01*
X250452065Y-98924485D01*
X249701000Y-99675551D01*
X249701000Y-99669339D01*
X249673741Y-99567606D01*
X249621080Y-99476394D01*
X249546606Y-99401920D01*
X249455394Y-99349259D01*
X249353661Y-99322000D01*
X249347446Y-99322000D01*
X250098513Y-98570932D01*
X250034756Y-98524611D01*
X249838410Y-98424567D01*
X249628834Y-98356472D01*
X249517622Y-98338858D01*
X249454487Y-98308928D01*
X249417556Y-98249617D01*
X249418554Y-98179754D01*
X249438643Y-98140899D01*
X249447948Y-98128774D01*
X249559405Y-97935726D01*
X249644710Y-97729781D01*
X249702404Y-97514463D01*
X249731500Y-97293457D01*
X249731500Y-97070543D01*
X249702404Y-96849537D01*
X249644710Y-96634219D01*
X249559405Y-96428274D01*
X249447948Y-96235226D01*
X249312247Y-96058376D01*
X249312242Y-96058370D01*
X249154629Y-95900757D01*
X249154622Y-95900751D01*
X248977782Y-95765058D01*
X248977780Y-95765057D01*
X248977774Y-95765052D01*
X248784726Y-95653595D01*
X248784722Y-95653593D01*
X248578790Y-95568293D01*
X248578783Y-95568291D01*
X248578781Y-95568290D01*
X248363463Y-95510596D01*
X248363457Y-95510595D01*
X248363452Y-95510594D01*
X248142466Y-95481501D01*
X248142463Y-95481500D01*
X248142457Y-95481500D01*
X247919543Y-95481500D01*
X247919537Y-95481500D01*
X247919533Y-95481501D01*
X247698547Y-95510594D01*
X247698540Y-95510595D01*
X247698537Y-95510596D01*
X247598316Y-95537450D01*
X247483219Y-95568290D01*
X247483209Y-95568293D01*
X247277277Y-95653593D01*
X247277273Y-95653595D01*
X247084226Y-95765052D01*
X247084217Y-95765058D01*
X246907377Y-95900751D01*
X246907370Y-95900757D01*
X246848681Y-95959447D01*
X246787358Y-95992932D01*
X246717666Y-95987948D01*
X246673319Y-95959447D01*
X246614629Y-95900757D01*
X246614622Y-95900751D01*
X246437782Y-95765058D01*
X246437780Y-95765057D01*
X246437774Y-95765052D01*
X246244726Y-95653595D01*
X246244722Y-95653593D01*
X246038790Y-95568293D01*
X246038783Y-95568291D01*
X246038781Y-95568290D01*
X245823463Y-95510596D01*
X245823457Y-95510595D01*
X245823452Y-95510594D01*
X245602466Y-95481501D01*
X245602463Y-95481500D01*
X245602457Y-95481500D01*
X245379543Y-95481500D01*
X245379537Y-95481500D01*
X245379533Y-95481501D01*
X245158547Y-95510594D01*
X245158540Y-95510595D01*
X245158537Y-95510596D01*
X245058316Y-95537450D01*
X244943219Y-95568290D01*
X244943209Y-95568293D01*
X244737277Y-95653593D01*
X244737273Y-95653595D01*
X244544226Y-95765052D01*
X244544217Y-95765058D01*
X244367377Y-95900751D01*
X244367370Y-95900757D01*
X244308681Y-95959447D01*
X244247358Y-95992932D01*
X244177666Y-95987948D01*
X244133319Y-95959447D01*
X244074629Y-95900757D01*
X244074622Y-95900751D01*
X243897782Y-95765058D01*
X243897780Y-95765057D01*
X243897774Y-95765052D01*
X243704726Y-95653595D01*
X243704722Y-95653593D01*
X243498790Y-95568293D01*
X243498783Y-95568291D01*
X243498781Y-95568290D01*
X243283463Y-95510596D01*
X243283457Y-95510595D01*
X243283452Y-95510594D01*
X243062466Y-95481501D01*
X243062463Y-95481500D01*
X243062457Y-95481500D01*
X242839543Y-95481500D01*
X242839537Y-95481500D01*
X242839533Y-95481501D01*
X242618547Y-95510594D01*
X242618540Y-95510595D01*
X242618537Y-95510596D01*
X242518316Y-95537450D01*
X242403219Y-95568290D01*
X242403209Y-95568293D01*
X242197277Y-95653593D01*
X242197273Y-95653595D01*
X242004226Y-95765052D01*
X242004217Y-95765058D01*
X241827377Y-95900751D01*
X241827370Y-95900757D01*
X241768681Y-95959447D01*
X241707358Y-95992932D01*
X241637666Y-95987948D01*
X241593319Y-95959447D01*
X241534629Y-95900757D01*
X241534622Y-95900751D01*
X241357782Y-95765058D01*
X241357780Y-95765057D01*
X241357774Y-95765052D01*
X241164726Y-95653595D01*
X241164722Y-95653593D01*
X240958790Y-95568293D01*
X240958783Y-95568291D01*
X240958781Y-95568290D01*
X240743463Y-95510596D01*
X240743457Y-95510595D01*
X240743452Y-95510594D01*
X240522466Y-95481501D01*
X240522463Y-95481500D01*
X240522457Y-95481500D01*
X240299543Y-95481500D01*
X240299537Y-95481500D01*
X240299533Y-95481501D01*
X240078547Y-95510594D01*
X240078540Y-95510595D01*
X240078537Y-95510596D01*
X239978316Y-95537450D01*
X239863219Y-95568290D01*
X239863209Y-95568293D01*
X239657277Y-95653593D01*
X239657273Y-95653595D01*
X239464226Y-95765052D01*
X239464217Y-95765058D01*
X239287377Y-95900751D01*
X239287370Y-95900757D01*
X239129757Y-96058370D01*
X239129751Y-96058377D01*
X238994058Y-96235217D01*
X238994052Y-96235226D01*
X238882595Y-96428273D01*
X238882593Y-96428277D01*
X238797293Y-96634209D01*
X238797290Y-96634219D01*
X238739597Y-96849534D01*
X238739594Y-96849547D01*
X238710501Y-97070533D01*
X238710500Y-97070549D01*
X224212500Y-97070549D01*
X224212500Y-87618358D01*
X224232185Y-87551319D01*
X224248814Y-87530681D01*
X225113383Y-86666112D01*
X225174704Y-86632629D01*
X225244395Y-86637613D01*
X225300329Y-86679485D01*
X225324746Y-86744949D01*
X225324001Y-86769978D01*
X225320447Y-86796973D01*
X225320446Y-86796995D01*
X225320446Y-87033004D01*
X225320447Y-87033020D01*
X225351252Y-87267010D01*
X225412340Y-87494993D01*
X225502660Y-87713045D01*
X225502665Y-87713056D01*
X225551369Y-87797412D01*
X225620673Y-87917450D01*
X225620675Y-87917453D01*
X225620676Y-87917454D01*
X225766825Y-88107920D01*
X225765666Y-88108808D01*
X225792483Y-88166662D01*
X225782929Y-88235876D01*
X225766331Y-88261701D01*
X225766825Y-88262080D01*
X225620676Y-88452545D01*
X225502665Y-88656943D01*
X225502660Y-88656954D01*
X225412340Y-88875006D01*
X225351252Y-89102989D01*
X225320447Y-89336979D01*
X225320446Y-89336995D01*
X225320446Y-89573004D01*
X225320447Y-89573020D01*
X225351252Y-89807010D01*
X225412340Y-90034993D01*
X225502660Y-90253045D01*
X225502665Y-90253056D01*
X225561235Y-90354500D01*
X225620673Y-90457450D01*
X225620675Y-90457453D01*
X225620676Y-90457454D01*
X225766825Y-90647920D01*
X225765666Y-90648808D01*
X225792483Y-90706662D01*
X225782929Y-90775876D01*
X225766331Y-90801701D01*
X225766825Y-90802080D01*
X225620676Y-90992545D01*
X225502665Y-91196943D01*
X225502660Y-91196954D01*
X225412340Y-91415006D01*
X225351252Y-91642989D01*
X225320447Y-91876979D01*
X225320446Y-91876995D01*
X225320446Y-92113004D01*
X225320447Y-92113020D01*
X225351252Y-92347010D01*
X225412340Y-92574993D01*
X225502660Y-92793045D01*
X225502665Y-92793056D01*
X225543686Y-92864105D01*
X225620673Y-92997450D01*
X225620675Y-92997453D01*
X225620676Y-92997454D01*
X225766825Y-93187920D01*
X225765666Y-93188808D01*
X225792483Y-93246662D01*
X225782929Y-93315876D01*
X225766331Y-93341701D01*
X225766825Y-93342080D01*
X225620676Y-93532545D01*
X225502665Y-93736943D01*
X225502660Y-93736954D01*
X225412340Y-93955006D01*
X225351252Y-94182989D01*
X225320447Y-94416979D01*
X225320446Y-94416995D01*
X225320446Y-94653004D01*
X225320447Y-94653020D01*
X225351252Y-94887010D01*
X225412340Y-95114993D01*
X225502660Y-95333045D01*
X225502665Y-95333056D01*
X225551369Y-95417412D01*
X225620673Y-95537450D01*
X225620675Y-95537453D01*
X225620676Y-95537454D01*
X225764352Y-95724697D01*
X225764358Y-95724704D01*
X225931241Y-95891587D01*
X225931247Y-95891592D01*
X226118496Y-96035273D01*
X226249864Y-96111118D01*
X226322889Y-96153280D01*
X226322894Y-96153282D01*
X226322897Y-96153284D01*
X226540953Y-96243606D01*
X226768932Y-96304693D01*
X227002935Y-96335500D01*
X227002942Y-96335500D01*
X227238950Y-96335500D01*
X227238957Y-96335500D01*
X227472960Y-96304693D01*
X227700939Y-96243606D01*
X227918995Y-96153284D01*
X228123396Y-96035273D01*
X228310645Y-95891592D01*
X228477538Y-95724699D01*
X228621219Y-95537450D01*
X228739230Y-95333049D01*
X228829552Y-95114993D01*
X228890639Y-94887014D01*
X228921446Y-94653011D01*
X228921446Y-94416989D01*
X228890639Y-94182986D01*
X228829552Y-93955007D01*
X228739230Y-93736951D01*
X228739228Y-93736948D01*
X228739226Y-93736943D01*
X228648614Y-93580000D01*
X228621219Y-93532550D01*
X228558688Y-93451058D01*
X228475067Y-93342080D01*
X228476232Y-93341185D01*
X228449415Y-93283381D01*
X228458944Y-93214165D01*
X228475565Y-93188302D01*
X228475067Y-93187920D01*
X228534171Y-93110893D01*
X228621219Y-92997450D01*
X228739230Y-92793049D01*
X228829552Y-92574993D01*
X228890639Y-92347014D01*
X228921446Y-92113011D01*
X228921446Y-91876989D01*
X228890639Y-91642986D01*
X228829552Y-91415007D01*
X228739230Y-91196951D01*
X228739228Y-91196948D01*
X228739226Y-91196943D01*
X228667831Y-91073285D01*
X228621219Y-90992550D01*
X228521509Y-90862605D01*
X228475067Y-90802080D01*
X228476232Y-90801185D01*
X228449415Y-90743381D01*
X228458944Y-90674165D01*
X228475565Y-90648302D01*
X228475067Y-90647920D01*
X228567918Y-90526913D01*
X228621219Y-90457450D01*
X228739230Y-90253049D01*
X228829552Y-90034993D01*
X228890639Y-89807014D01*
X228921446Y-89573011D01*
X228921446Y-89336989D01*
X228890639Y-89102986D01*
X228829552Y-88875007D01*
X228739230Y-88656951D01*
X228739228Y-88656948D01*
X228739226Y-88656943D01*
X228647040Y-88497274D01*
X228621219Y-88452550D01*
X228591381Y-88413664D01*
X228515663Y-88314986D01*
X228490469Y-88249817D01*
X228504507Y-88181372D01*
X228553321Y-88131383D01*
X228614039Y-88115500D01*
X238854486Y-88115500D01*
X239041118Y-88085940D01*
X239220832Y-88027547D01*
X239389199Y-87941760D01*
X239542073Y-87830690D01*
X239675690Y-87697073D01*
X239786760Y-87544199D01*
X239872547Y-87375832D01*
X239930940Y-87196118D01*
X239960500Y-87009486D01*
X239960500Y-86820513D01*
X239930940Y-86633881D01*
X239872545Y-86454163D01*
X239827290Y-86365347D01*
X239786760Y-86285801D01*
X239675690Y-86132927D01*
X239542073Y-85999310D01*
X239389199Y-85888240D01*
X239220836Y-85802454D01*
X239041118Y-85744059D01*
X238854486Y-85714500D01*
X238854481Y-85714500D01*
X228614039Y-85714500D01*
X228547000Y-85694815D01*
X228501245Y-85642011D01*
X228491301Y-85572853D01*
X228515663Y-85515014D01*
X228572803Y-85440547D01*
X228621219Y-85377450D01*
X228739230Y-85173049D01*
X228829552Y-84954993D01*
X228890639Y-84727014D01*
X228921446Y-84493011D01*
X228921446Y-84256989D01*
X228890639Y-84022986D01*
X228829552Y-83795007D01*
X228739230Y-83576951D01*
X228739228Y-83576948D01*
X228739226Y-83576943D01*
X228662933Y-83444801D01*
X228621219Y-83372550D01*
X228559355Y-83291927D01*
X228515663Y-83234986D01*
X228490469Y-83169817D01*
X228504507Y-83101372D01*
X228553321Y-83051383D01*
X228614039Y-83035500D01*
X233727486Y-83035500D01*
X233914118Y-83005940D01*
X234093832Y-82947547D01*
X234262199Y-82861760D01*
X234415074Y-82750690D01*
X237291726Y-79874038D01*
X248399500Y-79874038D01*
X248399500Y-80125962D01*
X248426661Y-80297450D01*
X248438910Y-80374785D01*
X248516760Y-80614383D01*
X248631132Y-80838848D01*
X248779201Y-81042649D01*
X248779205Y-81042654D01*
X248957345Y-81220794D01*
X248957350Y-81220798D01*
X249135117Y-81349952D01*
X249161155Y-81368870D01*
X249304184Y-81441747D01*
X249385616Y-81483239D01*
X249385618Y-81483239D01*
X249385621Y-81483241D01*
X249625215Y-81561090D01*
X249874038Y-81600500D01*
X249874039Y-81600500D01*
X250125961Y-81600500D01*
X250125962Y-81600500D01*
X250374785Y-81561090D01*
X250614379Y-81483241D01*
X250614880Y-81482986D01*
X250620048Y-81480352D01*
X250838845Y-81368870D01*
X251042656Y-81220793D01*
X251220793Y-81042656D01*
X251368870Y-80838845D01*
X251483241Y-80614379D01*
X251561090Y-80374785D01*
X251600500Y-80125962D01*
X251600500Y-79874038D01*
X251561090Y-79625215D01*
X251483241Y-79385621D01*
X251483239Y-79385618D01*
X251483239Y-79385616D01*
X251441747Y-79304184D01*
X251368870Y-79161155D01*
X251345696Y-79129259D01*
X251220798Y-78957350D01*
X251220794Y-78957345D01*
X251042654Y-78779205D01*
X251042649Y-78779201D01*
X250838848Y-78631132D01*
X250838847Y-78631131D01*
X250838845Y-78631130D01*
X250768747Y-78595413D01*
X250614383Y-78516760D01*
X250374785Y-78438910D01*
X250340628Y-78433500D01*
X250125962Y-78399500D01*
X249874038Y-78399500D01*
X249749626Y-78419205D01*
X249625214Y-78438910D01*
X249385616Y-78516760D01*
X249161151Y-78631132D01*
X248957350Y-78779201D01*
X248957345Y-78779205D01*
X248779205Y-78957345D01*
X248779201Y-78957350D01*
X248631132Y-79161151D01*
X248516760Y-79385616D01*
X248438910Y-79625214D01*
X248417498Y-79760404D01*
X248399500Y-79874038D01*
X237291726Y-79874038D01*
X238385974Y-78779790D01*
X242268944Y-74896819D01*
X242330267Y-74863334D01*
X242356625Y-74860500D01*
X249786383Y-74860500D01*
X249973015Y-74830940D01*
X250000529Y-74822000D01*
X250152729Y-74772547D01*
X250321096Y-74686760D01*
X250473971Y-74575690D01*
X251613690Y-73435970D01*
X251724760Y-73283096D01*
X251810547Y-73114729D01*
X251868940Y-72935015D01*
X251874228Y-72901628D01*
X251898500Y-72748383D01*
X251898500Y-71025513D01*
X251868940Y-70838881D01*
X251831436Y-70723457D01*
X251810547Y-70659168D01*
X251810545Y-70659165D01*
X251810545Y-70659163D01*
X251737840Y-70516473D01*
X251724760Y-70490801D01*
X251613690Y-70337927D01*
X251480073Y-70204310D01*
X251327199Y-70093240D01*
X251158836Y-70007454D01*
X250979118Y-69949059D01*
X250792486Y-69919500D01*
X250792481Y-69919500D01*
X250603519Y-69919500D01*
X250603514Y-69919500D01*
X250416881Y-69949059D01*
X250237163Y-70007454D01*
X250068800Y-70093240D01*
X250007951Y-70137450D01*
X249915927Y-70204310D01*
X249915925Y-70204312D01*
X249915924Y-70204312D01*
X249782312Y-70337924D01*
X249782312Y-70337925D01*
X249782310Y-70337927D01*
X249741691Y-70393834D01*
X249671240Y-70490800D01*
X249585454Y-70659163D01*
X249527059Y-70838881D01*
X249497500Y-71025513D01*
X249497500Y-72105271D01*
X249477815Y-72172310D01*
X249461181Y-72192952D01*
X249230952Y-72423181D01*
X249169629Y-72456666D01*
X249143271Y-72459500D01*
X243661626Y-72459500D01*
X243594587Y-72439815D01*
X243548832Y-72387011D01*
X243538888Y-72317853D01*
X243567913Y-72254297D01*
X243573945Y-72247819D01*
X243983097Y-71838667D01*
X245226690Y-70595073D01*
X245337760Y-70442199D01*
X245423547Y-70273832D01*
X245423549Y-70273824D01*
X245423854Y-70273089D01*
X245424049Y-70272846D01*
X245425759Y-70269491D01*
X245426463Y-70269849D01*
X245467686Y-70218678D01*
X245533977Y-70196603D01*
X245601679Y-70213871D01*
X245649298Y-70265000D01*
X245660896Y-70301125D01*
X245680059Y-70422118D01*
X245738454Y-70601836D01*
X245822161Y-70766118D01*
X245824240Y-70770199D01*
X245935310Y-70923073D01*
X246068927Y-71056690D01*
X246221801Y-71167760D01*
X246301347Y-71208290D01*
X246390163Y-71253545D01*
X246390165Y-71253545D01*
X246390168Y-71253547D01*
X246431800Y-71267074D01*
X246569881Y-71311940D01*
X246756514Y-71341500D01*
X246756519Y-71341500D01*
X246945486Y-71341500D01*
X247132118Y-71311940D01*
X247311832Y-71253547D01*
X247480199Y-71167760D01*
X247633073Y-71056690D01*
X247766690Y-70923073D01*
X247877760Y-70770199D01*
X247963547Y-70601832D01*
X248021940Y-70422118D01*
X248027556Y-70386662D01*
X248051500Y-70235486D01*
X248051500Y-68288653D01*
X248071185Y-68221614D01*
X248087814Y-68200976D01*
X248207592Y-68081199D01*
X248351273Y-67893950D01*
X248469284Y-67689549D01*
X248559606Y-67471493D01*
X248620693Y-67243514D01*
X248651500Y-67009511D01*
X248651500Y-66773489D01*
X248620693Y-66539486D01*
X248559606Y-66311507D01*
X248469284Y-66093451D01*
X248469282Y-66093448D01*
X248469280Y-66093443D01*
X248397885Y-65969785D01*
X248351273Y-65889050D01*
X248292860Y-65812924D01*
X248205121Y-65698580D01*
X248206286Y-65697685D01*
X248179469Y-65639881D01*
X248188998Y-65570665D01*
X248205619Y-65544802D01*
X248205121Y-65544420D01*
X248259814Y-65473141D01*
X248351273Y-65353950D01*
X248469284Y-65149549D01*
X248559606Y-64931493D01*
X248620693Y-64703514D01*
X248651500Y-64469511D01*
X248651500Y-64233489D01*
X248620693Y-63999486D01*
X248559606Y-63771507D01*
X248469284Y-63553451D01*
X248469282Y-63553448D01*
X248469280Y-63553443D01*
X248423994Y-63475006D01*
X248351273Y-63349050D01*
X248216483Y-63173388D01*
X248207593Y-63161802D01*
X248207587Y-63161795D01*
X248040704Y-62994912D01*
X248040697Y-62994906D01*
X247853454Y-62851230D01*
X247853453Y-62851229D01*
X247853450Y-62851227D01*
X247739109Y-62785212D01*
X247649056Y-62733219D01*
X247649045Y-62733214D01*
X247430993Y-62642894D01*
X247203010Y-62581806D01*
X246969020Y-62551001D01*
X246969017Y-62551000D01*
X246969011Y-62551000D01*
X246732989Y-62551000D01*
X246732983Y-62551000D01*
X246732979Y-62551001D01*
X246498989Y-62581806D01*
X246271006Y-62642894D01*
X246052954Y-62733214D01*
X246052943Y-62733219D01*
X245848545Y-62851230D01*
X245710986Y-62956782D01*
X245645816Y-62981976D01*
X245577372Y-62967937D01*
X245527382Y-62919123D01*
X245511500Y-62858406D01*
X245511500Y-62352513D01*
X245481940Y-62165881D01*
X245423898Y-61987248D01*
X245423547Y-61986168D01*
X245423545Y-61986165D01*
X245423545Y-61986163D01*
X245362226Y-61865818D01*
X245337760Y-61817801D01*
X245226690Y-61664927D01*
X245093073Y-61531310D01*
X243957284Y-60395520D01*
X243804409Y-60284450D01*
X243763059Y-60263381D01*
X243636046Y-60198664D01*
X243456328Y-60140269D01*
X243269696Y-60110710D01*
X243269691Y-60110710D01*
X243080729Y-60110710D01*
X243080724Y-60110710D01*
X242894091Y-60140269D01*
X242714373Y-60198664D01*
X242546010Y-60284450D01*
X242393133Y-60395522D01*
X242259522Y-60529133D01*
X242148450Y-60682010D01*
X242062664Y-60850373D01*
X242004269Y-61030091D01*
X241974710Y-61216723D01*
X241974710Y-61405696D01*
X242004269Y-61592328D01*
X242062664Y-61772046D01*
X242139752Y-61923339D01*
X242148450Y-61940409D01*
X242259520Y-62093284D01*
X242683690Y-62517454D01*
X243053541Y-62887304D01*
X243087026Y-62948627D01*
X243082042Y-63018318D01*
X243053542Y-63062666D01*
X242954405Y-63161803D01*
X242810730Y-63349045D01*
X242692719Y-63553443D01*
X242692714Y-63553454D01*
X242602392Y-63771510D01*
X242602392Y-63771512D01*
X242573601Y-63878958D01*
X242541508Y-63934544D01*
X242171000Y-64305052D01*
X242171000Y-64298839D01*
X242143741Y-64197106D01*
X242091080Y-64105894D01*
X242016606Y-64031420D01*
X241925394Y-63978759D01*
X241823661Y-63951500D01*
X241817447Y-63951500D01*
X242640105Y-63128840D01*
X242640104Y-63128838D01*
X242557174Y-63068587D01*
X242346802Y-62961397D01*
X242122247Y-62888434D01*
X242122248Y-62888434D01*
X241889052Y-62851500D01*
X241652948Y-62851500D01*
X241419752Y-62888434D01*
X241195197Y-62961397D01*
X240984830Y-63068584D01*
X240901894Y-63128840D01*
X241724554Y-63951500D01*
X241718339Y-63951500D01*
X241616606Y-63978759D01*
X241525394Y-64031420D01*
X241450920Y-64105894D01*
X241398259Y-64197106D01*
X241371000Y-64298839D01*
X241371000Y-64305054D01*
X241000490Y-63934544D01*
X240968397Y-63878959D01*
X240939606Y-63771507D01*
X240925113Y-63736519D01*
X240849285Y-63553454D01*
X240849280Y-63553443D01*
X240803994Y-63475006D01*
X240731273Y-63349050D01*
X240710144Y-63321514D01*
X240656486Y-63251585D01*
X240587593Y-63161802D01*
X240587587Y-63161795D01*
X240420704Y-62994912D01*
X240420697Y-62994906D01*
X240233454Y-62851230D01*
X240233453Y-62851229D01*
X240233450Y-62851227D01*
X240119109Y-62785212D01*
X240029056Y-62733219D01*
X240029045Y-62733214D01*
X239810993Y-62642894D01*
X239583010Y-62581806D01*
X239462251Y-62565908D01*
X239398355Y-62537641D01*
X239390756Y-62530650D01*
X235901819Y-59041713D01*
X235868334Y-58980390D01*
X235865500Y-58954032D01*
X235865500Y-54202467D01*
X235874144Y-54173026D01*
X235880668Y-54143040D01*
X235884422Y-54138024D01*
X235885185Y-54135428D01*
X235901815Y-54114790D01*
X236073296Y-53943308D01*
X236073303Y-53943303D01*
X236080363Y-53936243D01*
X236080365Y-53936242D01*
X236236242Y-53780365D01*
X236365815Y-53602022D01*
X236465895Y-53405606D01*
X236534015Y-53195951D01*
X236543959Y-53133168D01*
X236568501Y-52978222D01*
X236568501Y-52757778D01*
X236568501Y-52753377D01*
X236568500Y-52753362D01*
X236568500Y-52308289D01*
X236588185Y-52241250D01*
X236626529Y-52203295D01*
X236670262Y-52175816D01*
X236797816Y-52048262D01*
X236879348Y-51918503D01*
X236931681Y-51872214D01*
X237000735Y-51861565D01*
X237064583Y-51889940D01*
X237102956Y-51948330D01*
X237104108Y-51952357D01*
X237143198Y-52098243D01*
X237146291Y-52109783D01*
X237146293Y-52109790D01*
X237231593Y-52315722D01*
X237231595Y-52315726D01*
X237343052Y-52508774D01*
X237343057Y-52508780D01*
X237343058Y-52508782D01*
X237478751Y-52685622D01*
X237478757Y-52685629D01*
X237537447Y-52744319D01*
X237570932Y-52805642D01*
X237565948Y-52875334D01*
X237537447Y-52919681D01*
X237478757Y-52978370D01*
X237478751Y-52978377D01*
X237343058Y-53155217D01*
X237343052Y-53155226D01*
X237231595Y-53348273D01*
X237231593Y-53348277D01*
X237146293Y-53554209D01*
X237146290Y-53554219D01*
X237108753Y-53694312D01*
X237088597Y-53769534D01*
X237088594Y-53769547D01*
X237059501Y-53990533D01*
X237059500Y-53990549D01*
X237059500Y-54213450D01*
X237059501Y-54213466D01*
X237088594Y-54434452D01*
X237088595Y-54434457D01*
X237088596Y-54434463D01*
X237146290Y-54649780D01*
X237146293Y-54649790D01*
X237231593Y-54855722D01*
X237231595Y-54855726D01*
X237343052Y-55048774D01*
X237343057Y-55048780D01*
X237343058Y-55048782D01*
X237478751Y-55225622D01*
X237478757Y-55225629D01*
X237537447Y-55284319D01*
X237570932Y-55345642D01*
X237565948Y-55415334D01*
X237537447Y-55459681D01*
X237478757Y-55518370D01*
X237478751Y-55518377D01*
X237343058Y-55695217D01*
X237343052Y-55695226D01*
X237231595Y-55888273D01*
X237231593Y-55888277D01*
X237146293Y-56094209D01*
X237146290Y-56094219D01*
X237088597Y-56309534D01*
X237088594Y-56309547D01*
X237059501Y-56530533D01*
X237059500Y-56530549D01*
X237059500Y-56753450D01*
X237059501Y-56753466D01*
X237088594Y-56974452D01*
X237088595Y-56974457D01*
X237088596Y-56974463D01*
X237112641Y-57064199D01*
X237146290Y-57189780D01*
X237146293Y-57189790D01*
X237231593Y-57395722D01*
X237231595Y-57395726D01*
X237343052Y-57588774D01*
X237343057Y-57588780D01*
X237343058Y-57588782D01*
X237478751Y-57765622D01*
X237478757Y-57765629D01*
X237636370Y-57923242D01*
X237636377Y-57923248D01*
X237700623Y-57972545D01*
X237813226Y-58058948D01*
X238006274Y-58170405D01*
X238136140Y-58224197D01*
X238204273Y-58252419D01*
X238212219Y-58255710D01*
X238427537Y-58313404D01*
X238648543Y-58342500D01*
X238648550Y-58342500D01*
X238871450Y-58342500D01*
X238871457Y-58342500D01*
X239092463Y-58313404D01*
X239307781Y-58255710D01*
X239513726Y-58170405D01*
X239706774Y-58058948D01*
X239883624Y-57923247D01*
X240041247Y-57765624D01*
X240176948Y-57588774D01*
X240288405Y-57395726D01*
X240373710Y-57189781D01*
X240431404Y-56974463D01*
X240460500Y-56753457D01*
X240460500Y-56717859D01*
X240480185Y-56650820D01*
X240532989Y-56605065D01*
X240602147Y-56595121D01*
X240640796Y-56607375D01*
X240762587Y-56669431D01*
X240762586Y-56669431D01*
X240972164Y-56737526D01*
X241189819Y-56772000D01*
X241410181Y-56772000D01*
X241627835Y-56737526D01*
X241837410Y-56669432D01*
X242033760Y-56569386D01*
X242097513Y-56523066D01*
X242097514Y-56523066D01*
X241346447Y-55772000D01*
X241352661Y-55772000D01*
X241454394Y-55744741D01*
X241545606Y-55692080D01*
X241620080Y-55617606D01*
X241672741Y-55526394D01*
X241700000Y-55424661D01*
X241700000Y-55418448D01*
X242451066Y-56169514D01*
X242451066Y-56169513D01*
X242497386Y-56105760D01*
X242597432Y-55909410D01*
X242665526Y-55699835D01*
X242700000Y-55482181D01*
X242700000Y-55261818D01*
X242665526Y-55044164D01*
X242597432Y-54834589D01*
X242497388Y-54638243D01*
X242451066Y-54574485D01*
X242451065Y-54574485D01*
X241700000Y-55325551D01*
X241700000Y-55319339D01*
X241672741Y-55217606D01*
X241620080Y-55126394D01*
X241545606Y-55051920D01*
X241454394Y-54999259D01*
X241352661Y-54972000D01*
X241346446Y-54972000D01*
X242097513Y-54220932D01*
X242097513Y-54220931D01*
X242071893Y-54202317D01*
X242029227Y-54146987D01*
X242023248Y-54077374D01*
X242055854Y-54015579D01*
X242071893Y-54001680D01*
X242097513Y-53983065D01*
X241346447Y-53232000D01*
X241352661Y-53232000D01*
X241454394Y-53204741D01*
X241545606Y-53152080D01*
X241620080Y-53077606D01*
X241672741Y-52986394D01*
X241700000Y-52884661D01*
X241700000Y-52878448D01*
X242451066Y-53629514D01*
X242451066Y-53629513D01*
X242497386Y-53565760D01*
X242597432Y-53369410D01*
X242665526Y-53159835D01*
X242700000Y-52942181D01*
X242700000Y-52721818D01*
X242665526Y-52504164D01*
X242597432Y-52294589D01*
X242497388Y-52098243D01*
X242451066Y-52034485D01*
X242451065Y-52034485D01*
X241700000Y-52785551D01*
X241700000Y-52779339D01*
X241672741Y-52677606D01*
X241620080Y-52586394D01*
X241545606Y-52511920D01*
X241454394Y-52459259D01*
X241352661Y-52432000D01*
X241346446Y-52432000D01*
X242097513Y-51680932D01*
X242097513Y-51680931D01*
X242071893Y-51662317D01*
X242029227Y-51606987D01*
X242023248Y-51537374D01*
X242055854Y-51475579D01*
X242071893Y-51461680D01*
X242097513Y-51443065D01*
X241346446Y-50692000D01*
X241352661Y-50692000D01*
X241454394Y-50664741D01*
X241545606Y-50612080D01*
X241620080Y-50537606D01*
X241672741Y-50446394D01*
X241700000Y-50344661D01*
X241700000Y-50338448D01*
X242451066Y-51089514D01*
X242451066Y-51089513D01*
X242497386Y-51025760D01*
X242597432Y-50829410D01*
X242665526Y-50619835D01*
X242700000Y-50402181D01*
X242700000Y-50181818D01*
X242665526Y-49964164D01*
X242597432Y-49754589D01*
X242497388Y-49558243D01*
X242451066Y-49494485D01*
X242451065Y-49494485D01*
X241700000Y-50245551D01*
X241700000Y-50239339D01*
X241672741Y-50137606D01*
X241620080Y-50046394D01*
X241545606Y-49971920D01*
X241454394Y-49919259D01*
X241352661Y-49892000D01*
X241346445Y-49892000D01*
X242097513Y-49140932D01*
X242097513Y-49140931D01*
X242071893Y-49122317D01*
X242029227Y-49066987D01*
X242023248Y-48997374D01*
X242055854Y-48935579D01*
X242071893Y-48921680D01*
X242097513Y-48903065D01*
X241346447Y-48152000D01*
X241352661Y-48152000D01*
X241454394Y-48124741D01*
X241545606Y-48072080D01*
X241620080Y-47997606D01*
X241672741Y-47906394D01*
X241700000Y-47804661D01*
X241700000Y-47798448D01*
X242451066Y-48549514D01*
X242451066Y-48549513D01*
X242497386Y-48485760D01*
X242597432Y-48289410D01*
X242665526Y-48079835D01*
X242700000Y-47862181D01*
X242700000Y-47641818D01*
X242665526Y-47424164D01*
X242597432Y-47214589D01*
X242497388Y-47018243D01*
X242451066Y-46954485D01*
X242451065Y-46954485D01*
X241700000Y-47705551D01*
X241700000Y-47699339D01*
X241672741Y-47597606D01*
X241620080Y-47506394D01*
X241545606Y-47431920D01*
X241454394Y-47379259D01*
X241352661Y-47352000D01*
X241346445Y-47352000D01*
X242097513Y-46600932D01*
X242033756Y-46554611D01*
X241837410Y-46454567D01*
X241627835Y-46386473D01*
X241410181Y-46352000D01*
X241189819Y-46352000D01*
X240972164Y-46386473D01*
X240762589Y-46454567D01*
X240566233Y-46554616D01*
X240502485Y-46600931D01*
X240502485Y-46600932D01*
X241253553Y-47352000D01*
X241247339Y-47352000D01*
X241145606Y-47379259D01*
X241054394Y-47431920D01*
X240979920Y-47506394D01*
X240927259Y-47597606D01*
X240900000Y-47699339D01*
X240900000Y-47705553D01*
X240148932Y-46954485D01*
X240148931Y-46954485D01*
X240102616Y-47018233D01*
X240002567Y-47214589D01*
X239934473Y-47424164D01*
X239900000Y-47641818D01*
X239900000Y-47862187D01*
X239925606Y-48023859D01*
X239925607Y-48023861D01*
X239930967Y-48029221D01*
X239964452Y-48090544D01*
X239959468Y-48160236D01*
X239930967Y-48204583D01*
X239160000Y-48975553D01*
X239160000Y-48969339D01*
X239132741Y-48867606D01*
X239080080Y-48776394D01*
X239005606Y-48701920D01*
X238914394Y-48649259D01*
X238812661Y-48622000D01*
X238806445Y-48622000D01*
X239557513Y-47870932D01*
X239493756Y-47824611D01*
X239297410Y-47724567D01*
X239087835Y-47656473D01*
X238870181Y-47622000D01*
X238649819Y-47622000D01*
X238432164Y-47656473D01*
X238222589Y-47724567D01*
X238026233Y-47824616D01*
X237962485Y-47870931D01*
X237962485Y-47870932D01*
X238713553Y-48622000D01*
X238707339Y-48622000D01*
X238605606Y-48649259D01*
X238514394Y-48701920D01*
X238439920Y-48776394D01*
X238387259Y-48867606D01*
X238360000Y-48969339D01*
X238360000Y-48975553D01*
X237608932Y-48224485D01*
X237608931Y-48224485D01*
X237562616Y-48288233D01*
X237462567Y-48484589D01*
X237394473Y-48694164D01*
X237360000Y-48911818D01*
X237360000Y-49132181D01*
X237394473Y-49349835D01*
X237462567Y-49559410D01*
X237562611Y-49755756D01*
X237608932Y-49819513D01*
X238360000Y-49068445D01*
X238360000Y-49074661D01*
X238387259Y-49176394D01*
X238439920Y-49267606D01*
X238514394Y-49342080D01*
X238605606Y-49394741D01*
X238707339Y-49422000D01*
X238713553Y-49422000D01*
X238187058Y-49948494D01*
X238146830Y-49975374D01*
X238006278Y-50033593D01*
X238006273Y-50033595D01*
X237813226Y-50145052D01*
X237813217Y-50145058D01*
X237636377Y-50280751D01*
X237636370Y-50280757D01*
X237478757Y-50438370D01*
X237478751Y-50438377D01*
X237343058Y-50615217D01*
X237343052Y-50615226D01*
X237231595Y-50808273D01*
X237231592Y-50808278D01*
X237207061Y-50867503D01*
X237163220Y-50921906D01*
X237096925Y-50943971D01*
X237029226Y-50926692D01*
X236981616Y-50875554D01*
X236968500Y-50820050D01*
X236968500Y-49501043D01*
X236968499Y-49501039D01*
X236953369Y-49366750D01*
X236953368Y-49366745D01*
X236893788Y-49196476D01*
X236853388Y-49132181D01*
X236797816Y-49043738D01*
X236670262Y-48916184D01*
X236651024Y-48904096D01*
X236517523Y-48820211D01*
X236347254Y-48760631D01*
X236347249Y-48760630D01*
X236212960Y-48745500D01*
X236212954Y-48745500D01*
X234123046Y-48745500D01*
X234123039Y-48745500D01*
X233988750Y-48760630D01*
X233988745Y-48760631D01*
X233818476Y-48820211D01*
X233665737Y-48916184D01*
X233538184Y-49043737D01*
X233442211Y-49196476D01*
X233382631Y-49366745D01*
X233382630Y-49366750D01*
X233367500Y-49501039D01*
X233367500Y-50540531D01*
X233347815Y-50607570D01*
X233295011Y-50653325D01*
X233225853Y-50663269D01*
X233162297Y-50634244D01*
X233155819Y-50628212D01*
X232974582Y-50446976D01*
X232974573Y-50446966D01*
X232929788Y-50402181D01*
X232814365Y-50286758D01*
X232814361Y-50286755D01*
X232814357Y-50286751D01*
X232636025Y-50157187D01*
X232636024Y-50157186D01*
X232636022Y-50157185D01*
X232530427Y-50103381D01*
X232439606Y-50057104D01*
X232439603Y-50057103D01*
X232229951Y-49988984D01*
X232210727Y-49985940D01*
X232073242Y-49964164D01*
X232012222Y-49954499D01*
X231791778Y-49954499D01*
X231786667Y-49954499D01*
X231786643Y-49954500D01*
X228390516Y-49954500D01*
X228323477Y-49934815D01*
X228277722Y-49882011D01*
X228267778Y-49812853D01*
X228290198Y-49757614D01*
X228403860Y-49601171D01*
X228511048Y-49390802D01*
X228584011Y-49166247D01*
X228620946Y-48933052D01*
X228620946Y-48696947D01*
X228584011Y-48463752D01*
X228511048Y-48239197D01*
X228403858Y-48028824D01*
X228376435Y-47991080D01*
X228376432Y-47991077D01*
X228343604Y-47945894D01*
X228343604Y-47945893D01*
X227520946Y-48768551D01*
X227520946Y-48762339D01*
X227493687Y-48660606D01*
X227441026Y-48569394D01*
X227366552Y-48494920D01*
X227275340Y-48442259D01*
X227173607Y-48415000D01*
X227167393Y-48415000D01*
X227990050Y-47592340D01*
X227987090Y-47554735D01*
X227987090Y-47535275D01*
X227990050Y-47497657D01*
X227167392Y-46675000D01*
X227173607Y-46675000D01*
X227275340Y-46647741D01*
X227366552Y-46595080D01*
X227441026Y-46520606D01*
X227493687Y-46429394D01*
X227520946Y-46327661D01*
X227520946Y-46321447D01*
X228343604Y-47144105D01*
X228343604Y-47144104D01*
X228403860Y-47061169D01*
X228403864Y-47061163D01*
X228511048Y-46850802D01*
X228584011Y-46626247D01*
X228584012Y-46626242D01*
X228620946Y-46393052D01*
X228620946Y-46156947D01*
X228584011Y-45923752D01*
X228511048Y-45699197D01*
X228403860Y-45488828D01*
X228343604Y-45405894D01*
X228343604Y-45405893D01*
X227520946Y-46228552D01*
X227520946Y-46222339D01*
X227493687Y-46120606D01*
X227441026Y-46029394D01*
X227366552Y-45954920D01*
X227275340Y-45902259D01*
X227173607Y-45875000D01*
X227167393Y-45875000D01*
X227990051Y-45052340D01*
X227990050Y-45052338D01*
X227907120Y-44992087D01*
X227696748Y-44884897D01*
X227472193Y-44811934D01*
X227472194Y-44811934D01*
X227238998Y-44775000D01*
X227002894Y-44775000D01*
X226769698Y-44811934D01*
X226545143Y-44884897D01*
X226334776Y-44992084D01*
X226251840Y-45052340D01*
X227074500Y-45875000D01*
X227068285Y-45875000D01*
X226966552Y-45902259D01*
X226875340Y-45954920D01*
X226800866Y-46029394D01*
X226748205Y-46120606D01*
X226720946Y-46222339D01*
X226720946Y-46228553D01*
X225898286Y-45405894D01*
X225838030Y-45488830D01*
X225730843Y-45699197D01*
X225657880Y-45923752D01*
X225620946Y-46156947D01*
X225620946Y-46393052D01*
X225657880Y-46626247D01*
X225730843Y-46850802D01*
X225838033Y-47061174D01*
X225898284Y-47144104D01*
X225898286Y-47144105D01*
X226720946Y-46321445D01*
X226720946Y-46327661D01*
X226748205Y-46429394D01*
X226800866Y-46520606D01*
X226875340Y-46595080D01*
X226966552Y-46647741D01*
X227068285Y-46675000D01*
X227074500Y-46675000D01*
X226251839Y-47497658D01*
X226254800Y-47535276D01*
X226254800Y-47554733D01*
X226251840Y-47592340D01*
X227074500Y-48415000D01*
X227068285Y-48415000D01*
X226966552Y-48442259D01*
X226875340Y-48494920D01*
X226800866Y-48569394D01*
X226748205Y-48660606D01*
X226720946Y-48762339D01*
X226720946Y-48768554D01*
X225898286Y-47945894D01*
X225838030Y-48028830D01*
X225730843Y-48239197D01*
X225657880Y-48463752D01*
X225620946Y-48696947D01*
X225620946Y-48933052D01*
X225657880Y-49166247D01*
X225730844Y-49390805D01*
X225759194Y-49446446D01*
X225772090Y-49515115D01*
X225745813Y-49579855D01*
X225688707Y-49620112D01*
X225618901Y-49623104D01*
X225561028Y-49590421D01*
X221157887Y-45187280D01*
X217107582Y-41136976D01*
X217107573Y-41136966D01*
X217103242Y-41132635D01*
X216947365Y-40976758D01*
X216947361Y-40976755D01*
X216947357Y-40976751D01*
X216769025Y-40847187D01*
X216769024Y-40847186D01*
X216769022Y-40847185D01*
X216706096Y-40815122D01*
X216572606Y-40747104D01*
X216572603Y-40747103D01*
X216362952Y-40678985D01*
X216254086Y-40661742D01*
X216145222Y-40644499D01*
X215924778Y-40644499D01*
X215919667Y-40644499D01*
X215919643Y-40644500D01*
X191496357Y-40644500D01*
X191496333Y-40644499D01*
X191491222Y-40644499D01*
X191270778Y-40644499D01*
X191198201Y-40655994D01*
X191053047Y-40678985D01*
X190843396Y-40747103D01*
X190843393Y-40747104D01*
X190646974Y-40847187D01*
X190468641Y-40976752D01*
X190468636Y-40976756D01*
X188669756Y-42775636D01*
X188669752Y-42775641D01*
X188540187Y-42953974D01*
X188440104Y-43150393D01*
X188440103Y-43150396D01*
X188371985Y-43360047D01*
X188337499Y-43577779D01*
X188337499Y-43803332D01*
X188337500Y-43803357D01*
X188337500Y-44672430D01*
X188317815Y-44739469D01*
X188311876Y-44747916D01*
X188237730Y-44844545D01*
X188119719Y-45048943D01*
X188119714Y-45048954D01*
X188029394Y-45267006D01*
X187968306Y-45494989D01*
X187937501Y-45728979D01*
X187937500Y-45728995D01*
X187937500Y-45965004D01*
X187937501Y-45965020D01*
X187964102Y-46167080D01*
X187968307Y-46199014D01*
X188002778Y-46327661D01*
X188029394Y-46426993D01*
X188119714Y-46645045D01*
X188119719Y-46645056D01*
X188160740Y-46716105D01*
X188237727Y-46849450D01*
X188237729Y-46849453D01*
X188237730Y-46849454D01*
X188381406Y-47036697D01*
X188381412Y-47036704D01*
X188548295Y-47203587D01*
X188548302Y-47203593D01*
X188732749Y-47345124D01*
X188773952Y-47401552D01*
X188778107Y-47471298D01*
X188743895Y-47532218D01*
X188682178Y-47564971D01*
X188657263Y-47567500D01*
X186087514Y-47567500D01*
X185900881Y-47597059D01*
X185721163Y-47655454D01*
X185552800Y-47741240D01*
X185465579Y-47804610D01*
X185399927Y-47852310D01*
X185399925Y-47852312D01*
X185399924Y-47852312D01*
X180440308Y-52811927D01*
X180440304Y-52811931D01*
X180375231Y-52901499D01*
X180329242Y-52964797D01*
X180243454Y-53133163D01*
X180185059Y-53312881D01*
X180155500Y-53499513D01*
X180155500Y-82390486D01*
X180185059Y-82577118D01*
X180243454Y-82756836D01*
X180296916Y-82861760D01*
X180329240Y-82925199D01*
X180440310Y-83078074D01*
X183234310Y-85872073D01*
X183367927Y-86005690D01*
X183520801Y-86116760D01*
X183552525Y-86132924D01*
X183689163Y-86202545D01*
X183689165Y-86202545D01*
X183689168Y-86202547D01*
X183785497Y-86233846D01*
X183868881Y-86260940D01*
X184055514Y-86290500D01*
X184055519Y-86290500D01*
X185006486Y-86290500D01*
X185193118Y-86260940D01*
X185372832Y-86202547D01*
X185541199Y-86116760D01*
X185694073Y-86005690D01*
X185708819Y-85990944D01*
X185770142Y-85957459D01*
X185839834Y-85962443D01*
X185895767Y-86004315D01*
X185920184Y-86069779D01*
X185920500Y-86078625D01*
X185920500Y-88310642D01*
X185950059Y-88497274D01*
X186008454Y-88676992D01*
X186072142Y-88801986D01*
X186094240Y-88845355D01*
X186205310Y-88998230D01*
X187276771Y-90069690D01*
X187429645Y-90180760D01*
X187509191Y-90221290D01*
X187598007Y-90266545D01*
X187598009Y-90266545D01*
X187598012Y-90266547D01*
X187694341Y-90297846D01*
X187777725Y-90324940D01*
X187964358Y-90354500D01*
X187964363Y-90354500D01*
X197452486Y-90354500D01*
X197639118Y-90324940D01*
X197818832Y-90266547D01*
X197987199Y-90180760D01*
X198140074Y-90069690D01*
X205137945Y-83071819D01*
X205199268Y-83038334D01*
X205225626Y-83035500D01*
X206131848Y-83035500D01*
X206198887Y-83055185D01*
X206244642Y-83107989D01*
X206254586Y-83177147D01*
X206225561Y-83240703D01*
X206188143Y-83269985D01*
X206126800Y-83301240D01*
X206062111Y-83348240D01*
X205973927Y-83412310D01*
X205973925Y-83412312D01*
X205973924Y-83412312D01*
X205840312Y-83545924D01*
X205840312Y-83545925D01*
X205840310Y-83545927D01*
X205792610Y-83611579D01*
X205729240Y-83698800D01*
X205643454Y-83867163D01*
X205585059Y-84046881D01*
X205555500Y-84233513D01*
X205555500Y-84422486D01*
X205585059Y-84609118D01*
X205643454Y-84788836D01*
X205728116Y-84954993D01*
X205729240Y-84957199D01*
X205840310Y-85110073D01*
X205973927Y-85243690D01*
X206126801Y-85354760D01*
X206171333Y-85377450D01*
X206295163Y-85440545D01*
X206295165Y-85440545D01*
X206295168Y-85440547D01*
X206391497Y-85471846D01*
X206474881Y-85498940D01*
X206661514Y-85528500D01*
X206661519Y-85528500D01*
X210423917Y-85528500D01*
X210490956Y-85548185D01*
X210536711Y-85600989D01*
X210546655Y-85670147D01*
X210522293Y-85727986D01*
X210380676Y-85912545D01*
X210262665Y-86116943D01*
X210262660Y-86116954D01*
X210172340Y-86335006D01*
X210111252Y-86562989D01*
X210080447Y-86796979D01*
X210080446Y-86796995D01*
X210080446Y-87033004D01*
X210080447Y-87033020D01*
X210111252Y-87267010D01*
X210172340Y-87494993D01*
X210262659Y-87713042D01*
X210262661Y-87713047D01*
X210265810Y-87718501D01*
X210282282Y-87786401D01*
X210259429Y-87852428D01*
X210204507Y-87895618D01*
X210158422Y-87904500D01*
X201497027Y-87904500D01*
X201252973Y-87904500D01*
X201197093Y-87913350D01*
X201011927Y-87942678D01*
X200779812Y-88018097D01*
X200562357Y-88128896D01*
X200364923Y-88272339D01*
X200364918Y-88272343D01*
X197514081Y-91123181D01*
X197452758Y-91156666D01*
X197426400Y-91159500D01*
X183547843Y-91159500D01*
X183480804Y-91139815D01*
X183435049Y-91087011D01*
X183425105Y-91017853D01*
X183454130Y-90954297D01*
X183512908Y-90916523D01*
X183515710Y-90915735D01*
X183713993Y-90862606D01*
X183932049Y-90772284D01*
X184136450Y-90654273D01*
X184323699Y-90510592D01*
X184490592Y-90343699D01*
X184634273Y-90156450D01*
X184752284Y-89952049D01*
X184842606Y-89733993D01*
X184903693Y-89506014D01*
X184934500Y-89272011D01*
X184934500Y-89035989D01*
X184903693Y-88801986D01*
X184842606Y-88574007D01*
X184752284Y-88355951D01*
X184752282Y-88355948D01*
X184752280Y-88355943D01*
X184704013Y-88272343D01*
X184634273Y-88151550D01*
X184490592Y-87964301D01*
X184490587Y-87964295D01*
X184323704Y-87797412D01*
X184323697Y-87797406D01*
X184136454Y-87653730D01*
X184136453Y-87653729D01*
X184136450Y-87653727D01*
X184054957Y-87606677D01*
X183932056Y-87535719D01*
X183932045Y-87535714D01*
X183713993Y-87445394D01*
X183486010Y-87384306D01*
X183252020Y-87353501D01*
X183252017Y-87353500D01*
X183252011Y-87353500D01*
X183015989Y-87353500D01*
X183015983Y-87353500D01*
X183015979Y-87353501D01*
X182781989Y-87384306D01*
X182554006Y-87445394D01*
X182335954Y-87535714D01*
X182335943Y-87535719D01*
X182131545Y-87653730D01*
X181944302Y-87797406D01*
X181944295Y-87797412D01*
X181777412Y-87964295D01*
X181777406Y-87964302D01*
X181633730Y-88151545D01*
X181515719Y-88355943D01*
X181515714Y-88355954D01*
X181425394Y-88574006D01*
X181364306Y-88801989D01*
X181333501Y-89035979D01*
X181333500Y-89035995D01*
X181333500Y-89272004D01*
X181333501Y-89272020D01*
X181364306Y-89506010D01*
X181425394Y-89733993D01*
X181515714Y-89952045D01*
X181515719Y-89952056D01*
X181583634Y-90069687D01*
X181633727Y-90156450D01*
X181633729Y-90156453D01*
X181633730Y-90156454D01*
X181777406Y-90343697D01*
X181777412Y-90343704D01*
X181944295Y-90510587D01*
X181944301Y-90510592D01*
X182131550Y-90654273D01*
X182254053Y-90725000D01*
X182335943Y-90772280D01*
X182335948Y-90772282D01*
X182335951Y-90772284D01*
X182554007Y-90862606D01*
X182752252Y-90915725D01*
X182811911Y-90952090D01*
X182842440Y-91014937D01*
X182834145Y-91084313D01*
X182789660Y-91138191D01*
X182723108Y-91159465D01*
X182720157Y-91159500D01*
X178284261Y-91159500D01*
X178217222Y-91139815D01*
X178196584Y-91123185D01*
X178050080Y-90976681D01*
X178050079Y-90976680D01*
X178050077Y-90976678D01*
X177810831Y-90793099D01*
X177549671Y-90642318D01*
X177549661Y-90642314D01*
X177271060Y-90526913D01*
X176979766Y-90448861D01*
X176680793Y-90409501D01*
X176680788Y-90409500D01*
X176680783Y-90409500D01*
X176379217Y-90409500D01*
X176379211Y-90409500D01*
X176379206Y-90409501D01*
X176080233Y-90448861D01*
X175788939Y-90526913D01*
X175510338Y-90642314D01*
X175510328Y-90642318D01*
X175249168Y-90793099D01*
X175009921Y-90976679D01*
X175009914Y-90976685D01*
X174796685Y-91189914D01*
X174796679Y-91189921D01*
X174613099Y-91429168D01*
X174462318Y-91690328D01*
X174462314Y-91690338D01*
X174346913Y-91968939D01*
X174268861Y-92260233D01*
X174229501Y-92559206D01*
X174229500Y-92559223D01*
X173270500Y-92559223D01*
X173270500Y-45125959D01*
X178399499Y-45125959D01*
X178438910Y-45374785D01*
X178516760Y-45614383D01*
X178631132Y-45838848D01*
X178779201Y-46042649D01*
X178779205Y-46042654D01*
X178957345Y-46220794D01*
X178957350Y-46220798D01*
X179135117Y-46349952D01*
X179161155Y-46368870D01*
X179304184Y-46441747D01*
X179385616Y-46483239D01*
X179385618Y-46483239D01*
X179385621Y-46483241D01*
X179625215Y-46561090D01*
X179874038Y-46600500D01*
X179874039Y-46600500D01*
X180125961Y-46600500D01*
X180125962Y-46600500D01*
X180374785Y-46561090D01*
X180614379Y-46483241D01*
X180838845Y-46368870D01*
X181042656Y-46220793D01*
X181220793Y-46042656D01*
X181368870Y-45838845D01*
X181483241Y-45614379D01*
X181561090Y-45374785D01*
X181600500Y-45125962D01*
X181600500Y-44874038D01*
X181561090Y-44625215D01*
X181483241Y-44385621D01*
X181483239Y-44385618D01*
X181483239Y-44385616D01*
X181423364Y-44268106D01*
X181368870Y-44161155D01*
X181288128Y-44050023D01*
X181220798Y-43957350D01*
X181220794Y-43957345D01*
X181042654Y-43779205D01*
X181042649Y-43779201D01*
X180838848Y-43631132D01*
X180838847Y-43631131D01*
X180838845Y-43631130D01*
X180734136Y-43577778D01*
X180614383Y-43516760D01*
X180374785Y-43438910D01*
X180125962Y-43399500D01*
X179874038Y-43399500D01*
X179749626Y-43419205D01*
X179625214Y-43438910D01*
X179385616Y-43516760D01*
X179161151Y-43631132D01*
X178957350Y-43779201D01*
X178957345Y-43779205D01*
X178779205Y-43957345D01*
X178779201Y-43957350D01*
X178631132Y-44161151D01*
X178516760Y-44385616D01*
X178438910Y-44625214D01*
X178399500Y-44874038D01*
X178399500Y-45125957D01*
X178399499Y-45125959D01*
X173270500Y-45125959D01*
X173270500Y-40044500D01*
X173290185Y-39977461D01*
X173342989Y-39931706D01*
X173394500Y-39920500D01*
X255357500Y-39920500D01*
X255424539Y-39940185D01*
G37*
%TD.AperFunction*%
%TD*%
M02*
