%TF.GenerationSoftware,KiCad,Pcbnew,9.0.1*%
%TF.CreationDate,2025-07-15T16:08:35-03:00*%
%TF.ProjectId,USV_PCB_buque_v1.0,5553565f-5043-4425-9f62-757175655f76,rev?*%
%TF.SameCoordinates,Original*%
%TF.FileFunction,Copper,L2,Bot*%
%TF.FilePolarity,Positive*%
%FSLAX46Y46*%
G04 Gerber Fmt 4.6, Leading zero omitted, Abs format (unit mm)*
G04 Created by KiCad (PCBNEW 9.0.1) date 2025-07-15 16:08:35*
%MOMM*%
%LPD*%
G01*
G04 APERTURE LIST*
%TA.AperFunction,ComponentPad*%
%ADD10C,2.000000*%
%TD*%
%TA.AperFunction,ComponentPad*%
%ADD11R,2.000000X2.000000*%
%TD*%
%TA.AperFunction,ComponentPad*%
%ADD12C,3.000000*%
%TD*%
%TA.AperFunction,ComponentPad*%
%ADD13C,1.800000*%
%TD*%
%TA.AperFunction,ViaPad*%
%ADD14C,0.600000*%
%TD*%
%TA.AperFunction,Conductor*%
%ADD15C,0.800000*%
%TD*%
G04 APERTURE END LIST*
D10*
%TO.P,U2,1,PB12*%
%TO.N,Net-(LAN1-Brown)*%
X211880946Y-46275000D03*
%TO.P,U2,2,PB13*%
%TO.N,Net-(LAN1-Green)*%
X211880946Y-48815000D03*
%TO.P,U2,3,PB14*%
%TO.N,Net-(LAN1-Blue)*%
X211880946Y-51355000D03*
%TO.P,U2,4,PB15*%
%TO.N,Net-(LAN1-Orange)*%
X211880946Y-53895000D03*
%TO.P,U2,5,PA8*%
%TO.N,Net-(LAN5-Orange)*%
X211880946Y-56435000D03*
%TO.P,U2,6,PA9*%
%TO.N,Net-(LAN5-Blue)*%
X211880946Y-58975000D03*
%TO.P,U2,7,PA10*%
%TO.N,Net-(LAN2-Orange)*%
X211880946Y-61515000D03*
%TO.P,U2,8,PA11*%
%TO.N,Net-(LAN2-Brown)*%
X211880946Y-64055000D03*
%TO.P,U2,9,PA12*%
%TO.N,Net-(LAN2-Brown-w)*%
X211880946Y-66595000D03*
%TO.P,U2,10,PA15*%
%TO.N,Net-(LAN2-Green)*%
X211880946Y-69135000D03*
%TO.P,U2,11,PB3*%
%TO.N,Net-(LAN2-Green-w)*%
X211880946Y-71675000D03*
%TO.P,U2,12,PB4*%
%TO.N,Net-(LAN2-Blue)*%
X211880946Y-74215000D03*
%TO.P,U2,13,PB5*%
%TO.N,Net-(U1-CE)*%
X211880946Y-76755000D03*
%TO.P,U2,14,PB6*%
%TO.N,Net-(GPS1-RX)*%
X211880946Y-79295000D03*
%TO.P,U2,15,PB7*%
%TO.N,Net-(GPS1-TX)*%
X211880946Y-81835000D03*
%TO.P,U2,16,PB8*%
%TO.N,Net-(LAN4-Brown)*%
X211880946Y-84375000D03*
%TO.P,U2,17,PB9*%
%TO.N,Net-(LAN4-Green)*%
X211880946Y-86915000D03*
%TO.P,U2,18,5V*%
%TO.N,+5V*%
X211880946Y-89455000D03*
%TO.P,U2,19,GND*%
%TO.N,GND*%
X211880946Y-91995000D03*
%TO.P,U2,20,3V3*%
%TO.N,+3.3V*%
X211880946Y-94535000D03*
%TO.P,U2,21,VBat*%
%TO.N,unconnected-(U2-VBat-Pad21)*%
X227120946Y-94535000D03*
%TO.P,U2,22,PC13*%
%TO.N,unconnected-(U2-PC13-Pad22)*%
X227120946Y-91995000D03*
%TO.P,U2,23,PC14*%
%TO.N,unconnected-(U2-PC14-Pad23)*%
X227120946Y-89455000D03*
%TO.P,U2,24,PC15*%
%TO.N,Net-(U1-IRQ)*%
X227120946Y-86915000D03*
%TO.P,U2,25,PA0*%
%TO.N,/Vbat_test*%
X227120946Y-84375000D03*
%TO.P,U2,26,PA1*%
%TO.N,Net-(LAN3-Brown)*%
X227120946Y-81835000D03*
%TO.P,U2,27,PA2*%
%TO.N,Net-(LAN4-Blue)*%
X227120946Y-79295000D03*
%TO.P,U2,28,PA3*%
%TO.N,Net-(LAN4-Orange)*%
X227120946Y-76755000D03*
%TO.P,U2,29,PA4*%
%TO.N,Net-(LAN5-Green)*%
X227120946Y-74215000D03*
%TO.P,U2,30,PA5*%
%TO.N,Net-(U1-SCK)*%
X227120946Y-71675000D03*
%TO.P,U2,31,PA6*%
%TO.N,Net-(U1-MISO)*%
X227120946Y-69135000D03*
%TO.P,U2,32,PA7*%
%TO.N,Net-(U1-MOSI)*%
X227120946Y-66595000D03*
%TO.P,U2,33,PB0*%
%TO.N,Net-(LAN3-Green)*%
X227120946Y-64055000D03*
%TO.P,U2,34,PB1*%
%TO.N,Net-(LAN3-Blue)*%
X227120946Y-61515000D03*
%TO.P,U2,35,PB10*%
%TO.N,Net-(IMU1-SCL)*%
X227120946Y-58975000D03*
%TO.P,U2,36,PB11*%
%TO.N,Net-(IMU1-SDA)*%
X227120946Y-56435000D03*
%TO.P,U2,37,RST*%
%TO.N,unconnected-(U2-RST-Pad37)*%
X227120946Y-53895000D03*
%TO.P,U2,38,3V3*%
%TO.N,+3.3V*%
X227120946Y-51355000D03*
%TO.P,U2,39,GND*%
%TO.N,GND*%
X227120946Y-48815000D03*
%TO.P,U2,40,GND*%
X227120946Y-46275000D03*
%TD*%
D11*
%TO.P,C1,1*%
%TO.N,+3.3V*%
X235168000Y-50546000D03*
D10*
%TO.P,C1,2*%
%TO.N,GND*%
X235168000Y-65786000D03*
%TD*%
%TO.P,IMU1,1,Vin*%
%TO.N,+3.3V*%
X208780000Y-105216000D03*
%TO.P,IMU1,2,GND*%
%TO.N,GND*%
X211320000Y-105216000D03*
%TO.P,IMU1,3,SCL*%
%TO.N,Net-(IMU1-SCL)*%
X213860000Y-105216000D03*
%TO.P,IMU1,4,SDA*%
%TO.N,Net-(IMU1-SDA)*%
X216400000Y-105216000D03*
%TO.P,IMU1,5,EDA*%
%TO.N,unconnected-(IMU1-EDA-Pad5)*%
X218940000Y-105216000D03*
%TO.P,IMU1,6,ECL*%
%TO.N,unconnected-(IMU1-ECL-Pad6)*%
X221480000Y-105216000D03*
%TO.P,IMU1,7,ADO*%
%TO.N,unconnected-(IMU1-ADO-Pad7)*%
X224020000Y-105216000D03*
%TO.P,IMU1,8,INT*%
%TO.N,unconnected-(IMU1-INT-Pad8)*%
X226560000Y-105216000D03*
%TO.P,IMU1,9,NCS*%
%TO.N,unconnected-(IMU1-NCS-Pad9)*%
X229100000Y-105216000D03*
%TO.P,IMU1,10,FSYNC*%
%TO.N,unconnected-(IMU1-FSYNC-Pad10)*%
X231640000Y-105216000D03*
%TD*%
%TO.P,R1,1*%
%TO.N,+BATT*%
X183134000Y-89154000D03*
%TO.P,R1,2*%
%TO.N,/Vbat_test*%
X183134000Y-96774000D03*
%TD*%
D12*
%TO.P,J1,1,Pin_1*%
%TO.N,+5V*%
X176530000Y-92710000D03*
%TD*%
D10*
%TO.P,U1,1,GND*%
%TO.N,GND*%
X239231000Y-66891500D03*
%TO.P,U1,2,VCC*%
%TO.N,+3.3V*%
X239231000Y-64351500D03*
%TO.P,U1,3,CE*%
%TO.N,Net-(U1-CE)*%
X241771000Y-66891500D03*
%TO.P,U1,4,~{CSN}*%
%TO.N,GND*%
X241771000Y-64351500D03*
%TO.P,U1,5,SCK*%
%TO.N,Net-(U1-SCK)*%
X244311000Y-66891500D03*
%TO.P,U1,6,MOSI*%
%TO.N,Net-(U1-MOSI)*%
X244311000Y-64351500D03*
%TO.P,U1,7,MISO*%
%TO.N,Net-(U1-MISO)*%
X246851000Y-66891500D03*
%TO.P,U1,8,IRQ*%
%TO.N,Net-(U1-IRQ)*%
X246851000Y-64351500D03*
%TD*%
%TO.P,GPS1,1,GND*%
%TO.N,GND*%
X197358000Y-45847000D03*
%TO.P,GPS1,2,TX*%
%TO.N,Net-(GPS1-TX)*%
X194818000Y-45847000D03*
%TO.P,GPS1,3,RX*%
%TO.N,Net-(GPS1-RX)*%
X192278000Y-45847000D03*
%TO.P,GPS1,4,Vcc*%
%TO.N,+3.3V*%
X189738000Y-45847000D03*
%TD*%
%TO.P,R2,1*%
%TO.N,/Vbat_test*%
X206248000Y-101600000D03*
%TO.P,R2,2*%
%TO.N,GND*%
X206248000Y-93980000D03*
%TD*%
D13*
%TO.P,LAN1,1,Brown*%
%TO.N,Net-(LAN1-Brown)*%
X189992000Y-53086000D03*
%TO.P,LAN1,2,Brown-w*%
%TO.N,GND*%
X187452000Y-54356000D03*
%TO.P,LAN1,3,Green*%
%TO.N,Net-(LAN1-Green)*%
X189992000Y-55626000D03*
%TO.P,LAN1,4,Blue-w*%
%TO.N,GND*%
X187452000Y-56896000D03*
%TO.P,LAN1,5,Blue*%
%TO.N,Net-(LAN1-Blue)*%
X189992000Y-58166000D03*
%TO.P,LAN1,6,Green-w*%
%TO.N,GND*%
X187452000Y-59436000D03*
%TO.P,LAN1,7,Orange*%
%TO.N,Net-(LAN1-Orange)*%
X189992000Y-60706000D03*
%TO.P,LAN1,8,Orange-w*%
%TO.N,GND*%
X187452000Y-61976000D03*
%TD*%
%TO.P,LAN4,1,Brown*%
%TO.N,Net-(LAN4-Brown)*%
X240411000Y-97182000D03*
%TO.P,LAN4,2,Brown-w*%
%TO.N,GND*%
X241681000Y-99722000D03*
%TO.P,LAN4,3,Green*%
%TO.N,Net-(LAN4-Green)*%
X242951000Y-97182000D03*
%TO.P,LAN4,4,Blue-w*%
%TO.N,GND*%
X244221000Y-99722000D03*
%TO.P,LAN4,5,Blue*%
%TO.N,Net-(LAN4-Blue)*%
X245491000Y-97182000D03*
%TO.P,LAN4,6,Green-w*%
%TO.N,GND*%
X246761000Y-99722000D03*
%TO.P,LAN4,7,Orange*%
%TO.N,Net-(LAN4-Orange)*%
X248031000Y-97182000D03*
%TO.P,LAN4,8,Orange-w*%
%TO.N,GND*%
X249301000Y-99722000D03*
%TD*%
%TO.P,LAN5,1,Brown*%
%TO.N,+BATT*%
X189992000Y-70612000D03*
%TO.P,LAN5,2,Brown-w*%
%TO.N,GND*%
X187452000Y-71882000D03*
%TO.P,LAN5,3,Green*%
%TO.N,Net-(LAN5-Green)*%
X189992000Y-73152000D03*
%TO.P,LAN5,4,Blue-w*%
%TO.N,GND*%
X187452000Y-74422000D03*
%TO.P,LAN5,5,Blue*%
%TO.N,Net-(LAN5-Blue)*%
X189992000Y-75692000D03*
%TO.P,LAN5,6,Green-w*%
%TO.N,GND*%
X187452000Y-76962000D03*
%TO.P,LAN5,7,Orange*%
%TO.N,Net-(LAN5-Orange)*%
X189992000Y-78232000D03*
%TO.P,LAN5,8,Orange-w*%
%TO.N,GND*%
X187452000Y-79502000D03*
%TD*%
%TO.P,LAN3,1,Brown*%
%TO.N,Net-(LAN3-Brown)*%
X238760000Y-56642000D03*
%TO.P,LAN3,2,Brown-w*%
%TO.N,GND*%
X241300000Y-55372000D03*
%TO.P,LAN3,3,Green*%
%TO.N,Net-(LAN3-Green)*%
X238760000Y-54102000D03*
%TO.P,LAN3,4,Blue-w*%
%TO.N,GND*%
X241300000Y-52832000D03*
%TO.P,LAN3,5,Blue*%
%TO.N,Net-(LAN3-Blue)*%
X238760000Y-51562000D03*
%TO.P,LAN3,6,Green-w*%
%TO.N,GND*%
X241300000Y-50292000D03*
%TO.P,LAN3,7,Orange*%
X238760000Y-49022000D03*
%TO.P,LAN3,8,Orange-w*%
X241300000Y-47752000D03*
%TD*%
%TO.P,LAN2,1,Brown*%
%TO.N,Net-(LAN2-Brown)*%
X188341000Y-97182000D03*
%TO.P,LAN2,2,Brown-w*%
%TO.N,Net-(LAN2-Brown-w)*%
X189611000Y-99722000D03*
%TO.P,LAN2,3,Green*%
%TO.N,Net-(LAN2-Green)*%
X190881000Y-97182000D03*
%TO.P,LAN2,4,Blue-w*%
%TO.N,GND*%
X192151000Y-99722000D03*
%TO.P,LAN2,5,Blue*%
%TO.N,Net-(LAN2-Blue)*%
X193421000Y-97182000D03*
%TO.P,LAN2,6,Green-w*%
%TO.N,Net-(LAN2-Green-w)*%
X194691000Y-99722000D03*
%TO.P,LAN2,7,Orange*%
%TO.N,Net-(LAN2-Orange)*%
X195961000Y-97182000D03*
%TO.P,LAN2,8,Orange-w*%
%TO.N,GND*%
X197231000Y-99722000D03*
%TD*%
D14*
%TO.N,Net-(U1-MISO)*%
X230378000Y-69135000D03*
X246851000Y-70141000D03*
%TO.N,Net-(U1-MOSI)*%
X230585000Y-66595000D03*
X243175210Y-61311210D03*
%TO.N,Net-(IMU1-SDA)*%
X221234000Y-65711889D03*
X221234000Y-57912000D03*
%TO.N,Net-(GPS1-RX)*%
X191516000Y-84074000D03*
X184912000Y-85090000D03*
%TO.N,/Vbat_test*%
X219964000Y-101600000D03*
%TO.N,Net-(U1-IRQ)*%
X238760000Y-86915000D03*
%TO.N,Net-(U1-CE)*%
X219329000Y-48387000D03*
X230124000Y-54610000D03*
%TO.N,Net-(LAN3-Blue)*%
X230378000Y-61468000D03*
%TO.N,Net-(LAN3-Green)*%
X230378000Y-64008000D03*
%TO.N,Net-(LAN3-Brown)*%
X250698000Y-71120000D03*
%TO.N,Net-(LAN4-Green)*%
X215138000Y-86915000D03*
%TO.N,Net-(LAN4-Brown)*%
X206756000Y-84328000D03*
%TO.N,Net-(LAN4-Orange)*%
X231902000Y-76755000D03*
%TO.N,Net-(LAN4-Blue)*%
X231902000Y-79295000D03*
%TO.N,Net-(LAN5-Blue)*%
X195707000Y-70485000D03*
%TO.N,Net-(LAN5-Green)*%
X223012000Y-74168000D03*
%TO.N,Net-(LAN5-Orange)*%
X206803000Y-56435000D03*
%TO.N,Net-(LAN1-Orange)*%
X194818000Y-60706000D03*
%TO.N,Net-(LAN1-Green)*%
X195072000Y-55626000D03*
%TO.N,Net-(LAN1-Brown)*%
X195072000Y-53086000D03*
%TO.N,Net-(LAN1-Blue)*%
X195072000Y-58166000D03*
%TO.N,Net-(LAN2-Blue)*%
X196850000Y-81280000D03*
%TO.N,Net-(LAN2-Brown-w)*%
X207518000Y-66595000D03*
%TO.N,Net-(LAN2-Green)*%
X195072000Y-81280000D03*
%TO.N,Net-(LAN2-Orange)*%
X207010000Y-61468000D03*
%TO.N,Net-(LAN2-Brown)*%
X193294000Y-81280000D03*
%TO.N,Net-(LAN2-Green-w)*%
X203454000Y-71628000D03*
%TD*%
D15*
%TO.N,Net-(U1-MISO)*%
X246380000Y-70612000D02*
X232664000Y-70612000D01*
X232664000Y-70612000D02*
X231187000Y-69135000D01*
X246851000Y-70141000D02*
X246380000Y-70612000D01*
X231187000Y-69135000D02*
X230378000Y-69135000D01*
%TO.N,GND*%
X187452000Y-71882000D02*
X187452000Y-79502000D01*
X241300000Y-50292000D02*
X241300000Y-55372000D01*
X241300000Y-47752000D02*
X240030000Y-49022000D01*
X240030000Y-49022000D02*
X238760000Y-49022000D01*
X187452000Y-54356000D02*
X187452000Y-61976000D01*
X241681000Y-99722000D02*
X249301000Y-99722000D01*
X241300000Y-50292000D02*
X240030000Y-49022000D01*
%TO.N,Net-(U1-MOSI)*%
X243175210Y-61281420D02*
X243175210Y-61311210D01*
X243107790Y-61214000D02*
X243175210Y-61281420D01*
X235966000Y-61214000D02*
X243107790Y-61214000D01*
X230585000Y-66595000D02*
X235966000Y-61214000D01*
%TO.N,Net-(IMU1-SDA)*%
X221234000Y-65711889D02*
X221234000Y-57912000D01*
%TO.N,Net-(GPS1-RX)*%
X189484000Y-84074000D02*
X191516000Y-84074000D01*
X184912000Y-85090000D02*
X188468000Y-85090000D01*
X188468000Y-85090000D02*
X189484000Y-84074000D01*
%TO.N,/Vbat_test*%
X226913946Y-84582000D02*
X227120946Y-84375000D01*
X219964000Y-101600000D02*
X206248000Y-101600000D01*
%TO.N,+BATT*%
X180086000Y-86106000D02*
X183134000Y-89154000D01*
X180086000Y-74168000D02*
X180086000Y-86106000D01*
X184542000Y-69712000D02*
X180086000Y-74168000D01*
X189992000Y-70612000D02*
X189092000Y-69712000D01*
X189092000Y-69712000D02*
X184542000Y-69712000D01*
%TO.N,Net-(U1-IRQ)*%
X238760000Y-86915000D02*
X240030000Y-85645000D01*
X247423685Y-64351500D02*
X246851000Y-64351500D01*
X249052000Y-65979815D02*
X247423685Y-64351500D01*
X240030000Y-79756000D02*
X249052000Y-70734000D01*
X249052000Y-70734000D02*
X249052000Y-65979815D01*
X240030000Y-85645000D02*
X240030000Y-79756000D01*
%TO.N,Net-(U1-CE)*%
X230124000Y-54610000D02*
X230124000Y-45466000D01*
X228732000Y-44074000D02*
X223642000Y-44074000D01*
X230124000Y-45466000D02*
X228732000Y-44074000D01*
X223642000Y-44074000D02*
X219329000Y-48387000D01*
%TO.N,Net-(LAN3-Blue)*%
X234696000Y-54353208D02*
X237487208Y-51562000D01*
X234696000Y-57150000D02*
X234696000Y-54353208D01*
X237487208Y-51562000D02*
X238760000Y-51562000D01*
X230378000Y-61468000D02*
X234696000Y-57150000D01*
%TO.N,Net-(LAN3-Green)*%
X238760000Y-54102000D02*
X237487208Y-54102000D01*
X237487208Y-54102000D02*
X236474000Y-55115208D01*
X236474000Y-57912000D02*
X230378000Y-64008000D01*
X236474000Y-55115208D02*
X236474000Y-57912000D01*
%TO.N,Net-(LAN3-Brown)*%
X250698000Y-71120000D02*
X250698000Y-63246000D01*
X246126000Y-58674000D02*
X240792000Y-58674000D01*
X240792000Y-58674000D02*
X238760000Y-56642000D01*
X250698000Y-63246000D02*
X246126000Y-58674000D01*
%TO.N,Net-(LAN4-Green)*%
X217344000Y-89074000D02*
X218186000Y-89916000D01*
X241808000Y-94488000D02*
X242951000Y-95631000D01*
X234696000Y-94488000D02*
X241808000Y-94488000D01*
X242951000Y-95631000D02*
X242951000Y-97182000D01*
X231725000Y-97459000D02*
X234696000Y-94488000D01*
X215138000Y-86915000D02*
X217297000Y-89074000D01*
X220649000Y-97459000D02*
X231725000Y-97459000D01*
X217297000Y-89074000D02*
X217344000Y-89074000D01*
X218186000Y-89916000D02*
X218186000Y-94996000D01*
X218186000Y-94996000D02*
X220649000Y-97459000D01*
%TO.N,Net-(LAN4-Brown)*%
X203608000Y-89950468D02*
X206756000Y-86802468D01*
X206502000Y-99060000D02*
X203608000Y-96166000D01*
X232388156Y-99060000D02*
X206502000Y-99060000D01*
X206756000Y-86802468D02*
X206756000Y-84328000D01*
X203608000Y-96166000D02*
X203608000Y-89950468D01*
X234266156Y-97182000D02*
X232388156Y-99060000D01*
X240411000Y-97182000D02*
X234266156Y-97182000D01*
%TO.N,Net-(LAN4-Orange)*%
X248031000Y-95885000D02*
X242570000Y-90424000D01*
X235712000Y-79777844D02*
X232689156Y-76755000D01*
X231949000Y-76708000D02*
X231902000Y-76755000D01*
X248031000Y-97182000D02*
X248031000Y-95885000D01*
X235712000Y-88392000D02*
X235712000Y-79777844D01*
X237744000Y-90424000D02*
X235712000Y-88392000D01*
X242570000Y-90424000D02*
X237744000Y-90424000D01*
X232689156Y-76755000D02*
X231902000Y-76755000D01*
%TO.N,Net-(LAN4-Blue)*%
X233934000Y-89408000D02*
X236728000Y-92202000D01*
X232965000Y-79295000D02*
X233934000Y-80264000D01*
X231902000Y-79295000D02*
X232965000Y-79295000D01*
X236728000Y-92202000D02*
X241808000Y-92202000D01*
X233934000Y-80264000D02*
X233934000Y-89408000D01*
X245364000Y-97055000D02*
X245491000Y-97182000D01*
X241808000Y-92202000D02*
X245364000Y-95758000D01*
X245364000Y-95758000D02*
X245364000Y-97055000D01*
%TO.N,Net-(LAN5-Blue)*%
X195707000Y-70485000D02*
X195707000Y-73533000D01*
X193548000Y-75692000D02*
X189992000Y-75692000D01*
X195707000Y-73533000D02*
X193548000Y-75692000D01*
%TO.N,Net-(LAN5-Green)*%
X214122000Y-43688000D02*
X217170000Y-46736000D01*
X194056000Y-66548000D02*
X206248000Y-54356000D01*
X217170000Y-46736000D02*
X217170000Y-68326000D01*
X192532000Y-73152000D02*
X194056000Y-71628000D01*
X206248000Y-54356000D02*
X206248000Y-46990000D01*
X206248000Y-46990000D02*
X209550000Y-43688000D01*
X209550000Y-43688000D02*
X214122000Y-43688000D01*
X189992000Y-73152000D02*
X192532000Y-73152000D01*
X194056000Y-71628000D02*
X194056000Y-66548000D01*
X217170000Y-68326000D02*
X223012000Y-74168000D01*
%TO.N,Net-(LAN5-Orange)*%
X206502000Y-56388000D02*
X197612000Y-65278000D01*
X197612000Y-65278000D02*
X197612000Y-76210922D01*
X197612000Y-76210922D02*
X195590922Y-78232000D01*
X206756000Y-56388000D02*
X206502000Y-56388000D01*
X195590922Y-78232000D02*
X189992000Y-78232000D01*
X206803000Y-56435000D02*
X206756000Y-56388000D01*
%TO.N,Net-(LAN1-Orange)*%
X194818000Y-60706000D02*
X189992000Y-60706000D01*
%TO.N,Net-(LAN1-Green)*%
X195072000Y-55626000D02*
X189992000Y-55626000D01*
%TO.N,Net-(LAN1-Brown)*%
X195072000Y-53086000D02*
X189992000Y-53086000D01*
%TO.N,Net-(LAN1-Blue)*%
X195072000Y-58166000D02*
X189992000Y-58166000D01*
%TO.N,Net-(LAN2-Blue)*%
X193421000Y-90551000D02*
X193421000Y-97182000D01*
X196850000Y-87122000D02*
X193421000Y-90551000D01*
X196850000Y-81280000D02*
X196850000Y-87122000D01*
%TO.N,Net-(LAN2-Brown-w)*%
X202007000Y-89287312D02*
X202007000Y-102263156D01*
X207518000Y-66595000D02*
X205994000Y-68119000D01*
X202515000Y-74831156D02*
X202515000Y-88779312D01*
X189611000Y-102489000D02*
X189611000Y-99722000D01*
X202515000Y-88779312D02*
X202007000Y-89287312D01*
X205994000Y-71352156D02*
X202515000Y-74831156D01*
X191262000Y-104140000D02*
X189611000Y-102489000D01*
X200130156Y-104140000D02*
X191262000Y-104140000D01*
X205994000Y-68119000D02*
X205994000Y-71352156D01*
X202007000Y-102263156D02*
X200130156Y-104140000D01*
%TO.N,Net-(LAN2-Green)*%
X195072000Y-86360000D02*
X190881000Y-90551000D01*
X190881000Y-90551000D02*
X190881000Y-97182000D01*
X195072000Y-81280000D02*
X195072000Y-86360000D01*
%TO.N,Net-(LAN2-Orange)*%
X195961000Y-90805000D02*
X195961000Y-97182000D01*
X207010000Y-61468000D02*
X203962000Y-61468000D01*
X199313000Y-87453000D02*
X195961000Y-90805000D01*
X203962000Y-61468000D02*
X199313000Y-66117000D01*
X199313000Y-66117000D02*
X199313000Y-87453000D01*
%TO.N,Net-(LAN2-Brown)*%
X188341000Y-90297000D02*
X188341000Y-97182000D01*
X193294000Y-85344000D02*
X188341000Y-90297000D01*
X193294000Y-81280000D02*
X193294000Y-85344000D01*
%TO.N,Net-(LAN2-Green-w)*%
X200406000Y-101600000D02*
X199644000Y-102362000D01*
X194691000Y-101473000D02*
X194691000Y-99722000D01*
X199644000Y-102362000D02*
X195580000Y-102362000D01*
X203454000Y-71628000D02*
X202692000Y-71628000D01*
X200914000Y-88116156D02*
X200406000Y-88624156D01*
X195580000Y-102362000D02*
X194691000Y-101473000D01*
X202692000Y-71628000D02*
X200914000Y-73406000D01*
X200914000Y-73406000D02*
X200914000Y-88116156D01*
X200406000Y-88624156D02*
X200406000Y-101600000D01*
%TD*%
%TA.AperFunction,Conductor*%
%TO.N,GND*%
G36*
X191751000Y-99774661D02*
G01*
X191778259Y-99876394D01*
X191830920Y-99967606D01*
X191905394Y-100042080D01*
X191996606Y-100094741D01*
X192098339Y-100122000D01*
X192104553Y-100122000D01*
X191353485Y-100873065D01*
X191353485Y-100873066D01*
X191417243Y-100919388D01*
X191613589Y-101019432D01*
X191823164Y-101087526D01*
X192040819Y-101122000D01*
X192261181Y-101122000D01*
X192478835Y-101087526D01*
X192688410Y-101019432D01*
X192884760Y-100919386D01*
X192948513Y-100873066D01*
X192948514Y-100873066D01*
X192197447Y-100122000D01*
X192203661Y-100122000D01*
X192305394Y-100094741D01*
X192396606Y-100042080D01*
X192471080Y-99967606D01*
X192523741Y-99876394D01*
X192551000Y-99774661D01*
X192551000Y-99768446D01*
X193077494Y-100294940D01*
X193104374Y-100335168D01*
X193149970Y-100445248D01*
X193162595Y-100475726D01*
X193274052Y-100668774D01*
X193274057Y-100668780D01*
X193274058Y-100668782D01*
X193409751Y-100845622D01*
X193409756Y-100845628D01*
X193454180Y-100890051D01*
X193487666Y-100951374D01*
X193490500Y-100977733D01*
X193490500Y-101567486D01*
X193520059Y-101754118D01*
X193578454Y-101933836D01*
X193664240Y-102102199D01*
X193775310Y-102255074D01*
X194103722Y-102583486D01*
X194248056Y-102727819D01*
X194281541Y-102789142D01*
X194276557Y-102858833D01*
X194234686Y-102914767D01*
X194169221Y-102939184D01*
X194160375Y-102939500D01*
X191810625Y-102939500D01*
X191743586Y-102919815D01*
X191722944Y-102903181D01*
X190847819Y-102028055D01*
X190814334Y-101966732D01*
X190811500Y-101940374D01*
X190811500Y-100977733D01*
X190818727Y-100953118D01*
X190822051Y-100927680D01*
X190829309Y-100917080D01*
X190831185Y-100910694D01*
X190840748Y-100897746D01*
X190844122Y-100893748D01*
X190892247Y-100845624D01*
X191027948Y-100668774D01*
X191139405Y-100475726D01*
X191197628Y-100335161D01*
X191224504Y-100294940D01*
X191751000Y-99768444D01*
X191751000Y-99774661D01*
G37*
%TD.AperFunction*%
%TA.AperFunction,Conductor*%
G36*
X196831000Y-99774661D02*
G01*
X196858259Y-99876394D01*
X196910920Y-99967606D01*
X196985394Y-100042080D01*
X197076606Y-100094741D01*
X197178339Y-100122000D01*
X197184553Y-100122000D01*
X196433485Y-100873065D01*
X196433485Y-100873066D01*
X196497243Y-100919388D01*
X196512211Y-100927015D01*
X196563007Y-100974990D01*
X196579802Y-101042811D01*
X196557265Y-101108946D01*
X196502549Y-101152397D01*
X196455916Y-101161500D01*
X196128625Y-101161500D01*
X196099184Y-101152855D01*
X196069198Y-101146332D01*
X196064182Y-101142577D01*
X196061586Y-101141815D01*
X196040944Y-101125181D01*
X196003289Y-101087526D01*
X195954497Y-101038733D01*
X195921013Y-100977412D01*
X195925997Y-100907720D01*
X195954500Y-100863371D01*
X195972247Y-100845624D01*
X196107948Y-100668774D01*
X196219405Y-100475726D01*
X196277628Y-100335161D01*
X196304504Y-100294940D01*
X196831000Y-99768445D01*
X196831000Y-99774661D01*
G37*
%TD.AperFunction*%
%TA.AperFunction,Conductor*%
G36*
X199124834Y-89441443D02*
G01*
X199180767Y-89483315D01*
X199205184Y-89548779D01*
X199205500Y-89557625D01*
X199205500Y-101037500D01*
X199185815Y-101104539D01*
X199133011Y-101150294D01*
X199081500Y-101161500D01*
X198006084Y-101161500D01*
X197939045Y-101141815D01*
X197893290Y-101089011D01*
X197883346Y-101019853D01*
X197912371Y-100956297D01*
X197949789Y-100927015D01*
X197964760Y-100919386D01*
X198028513Y-100873066D01*
X198028514Y-100873066D01*
X197277447Y-100122000D01*
X197283661Y-100122000D01*
X197385394Y-100094741D01*
X197476606Y-100042080D01*
X197551080Y-99967606D01*
X197603741Y-99876394D01*
X197631000Y-99774661D01*
X197631000Y-99768448D01*
X198382066Y-100519514D01*
X198382066Y-100519513D01*
X198428386Y-100455760D01*
X198528432Y-100259410D01*
X198596526Y-100049835D01*
X198631000Y-99832181D01*
X198631000Y-99611818D01*
X198596526Y-99394164D01*
X198528432Y-99184589D01*
X198428388Y-98988243D01*
X198382066Y-98924485D01*
X198382065Y-98924485D01*
X197631000Y-99675551D01*
X197631000Y-99669339D01*
X197603741Y-99567606D01*
X197551080Y-99476394D01*
X197476606Y-99401920D01*
X197385394Y-99349259D01*
X197283661Y-99322000D01*
X197277446Y-99322000D01*
X198028513Y-98570932D01*
X197964756Y-98524611D01*
X197768410Y-98424567D01*
X197558834Y-98356472D01*
X197447622Y-98338858D01*
X197384487Y-98308928D01*
X197347556Y-98249617D01*
X197348554Y-98179754D01*
X197368643Y-98140899D01*
X197377948Y-98128774D01*
X197489405Y-97935726D01*
X197574710Y-97729781D01*
X197632404Y-97514463D01*
X197661500Y-97293457D01*
X197661500Y-97070543D01*
X197632404Y-96849537D01*
X197574710Y-96634219D01*
X197489405Y-96428274D01*
X197377948Y-96235226D01*
X197242247Y-96058376D01*
X197242242Y-96058370D01*
X197197819Y-96013947D01*
X197164334Y-95952624D01*
X197161500Y-95926266D01*
X197161500Y-91353625D01*
X197181185Y-91286586D01*
X197197819Y-91265944D01*
X198993819Y-89469944D01*
X199055142Y-89436459D01*
X199124834Y-89441443D01*
G37*
%TD.AperFunction*%
%TA.AperFunction,Conductor*%
G36*
X210490956Y-44908185D02*
G01*
X210536711Y-44960989D01*
X210546655Y-45030147D01*
X210522293Y-45087986D01*
X210380676Y-45272545D01*
X210262665Y-45476943D01*
X210262660Y-45476954D01*
X210172340Y-45695006D01*
X210111252Y-45922989D01*
X210080447Y-46156979D01*
X210080446Y-46156995D01*
X210080446Y-46393004D01*
X210080447Y-46393020D01*
X210107048Y-46595080D01*
X210111253Y-46627014D01*
X210116087Y-46645056D01*
X210172340Y-46854993D01*
X210262660Y-47073045D01*
X210262665Y-47073056D01*
X210303686Y-47144105D01*
X210380673Y-47277450D01*
X210380675Y-47277453D01*
X210380676Y-47277454D01*
X210526825Y-47467920D01*
X210525666Y-47468808D01*
X210552483Y-47526662D01*
X210542929Y-47595876D01*
X210526331Y-47621701D01*
X210526825Y-47622080D01*
X210380676Y-47812545D01*
X210262665Y-48016943D01*
X210262660Y-48016954D01*
X210172340Y-48235006D01*
X210111252Y-48462989D01*
X210080447Y-48696979D01*
X210080446Y-48696995D01*
X210080446Y-48933004D01*
X210080447Y-48933020D01*
X210111252Y-49167010D01*
X210172340Y-49394993D01*
X210262660Y-49613045D01*
X210262665Y-49613056D01*
X210303686Y-49684105D01*
X210380673Y-49817450D01*
X210380675Y-49817453D01*
X210380676Y-49817454D01*
X210526825Y-50007920D01*
X210525666Y-50008808D01*
X210552483Y-50066662D01*
X210542929Y-50135876D01*
X210526331Y-50161701D01*
X210526825Y-50162080D01*
X210380676Y-50352545D01*
X210262665Y-50556943D01*
X210262660Y-50556954D01*
X210172340Y-50775006D01*
X210111252Y-51002989D01*
X210080447Y-51236979D01*
X210080446Y-51236995D01*
X210080446Y-51473004D01*
X210080447Y-51473020D01*
X210111252Y-51707010D01*
X210172340Y-51934993D01*
X210262660Y-52153045D01*
X210262665Y-52153056D01*
X210281941Y-52186442D01*
X210380673Y-52357450D01*
X210380675Y-52357453D01*
X210380676Y-52357454D01*
X210526825Y-52547920D01*
X210525666Y-52548808D01*
X210552483Y-52606662D01*
X210542929Y-52675876D01*
X210526331Y-52701701D01*
X210526825Y-52702080D01*
X210380676Y-52892545D01*
X210262665Y-53096943D01*
X210262660Y-53096954D01*
X210172340Y-53315006D01*
X210111252Y-53542989D01*
X210080447Y-53776979D01*
X210080446Y-53776995D01*
X210080446Y-54013004D01*
X210080447Y-54013020D01*
X210111095Y-54245818D01*
X210111253Y-54247014D01*
X210115139Y-54261518D01*
X210172340Y-54474993D01*
X210262660Y-54693045D01*
X210262665Y-54693056D01*
X210306944Y-54769748D01*
X210380673Y-54897450D01*
X210380675Y-54897453D01*
X210380676Y-54897454D01*
X210526825Y-55087920D01*
X210525666Y-55088808D01*
X210552483Y-55146662D01*
X210542929Y-55215876D01*
X210526331Y-55241701D01*
X210526825Y-55242080D01*
X210380676Y-55432545D01*
X210262665Y-55636943D01*
X210262660Y-55636954D01*
X210172340Y-55855006D01*
X210111252Y-56082989D01*
X210080447Y-56316979D01*
X210080446Y-56316995D01*
X210080446Y-56553004D01*
X210080447Y-56553020D01*
X210111252Y-56787010D01*
X210172340Y-57014993D01*
X210262660Y-57233045D01*
X210262665Y-57233056D01*
X210330580Y-57350687D01*
X210380673Y-57437450D01*
X210380675Y-57437453D01*
X210380676Y-57437454D01*
X210526825Y-57627920D01*
X210525666Y-57628808D01*
X210552483Y-57686662D01*
X210542929Y-57755876D01*
X210526331Y-57781701D01*
X210526825Y-57782080D01*
X210380676Y-57972545D01*
X210262665Y-58176943D01*
X210262660Y-58176954D01*
X210172340Y-58395006D01*
X210111252Y-58622989D01*
X210080447Y-58856979D01*
X210080446Y-58856995D01*
X210080446Y-59093004D01*
X210080447Y-59093020D01*
X210111095Y-59325818D01*
X210111253Y-59327014D01*
X210121270Y-59364397D01*
X210172340Y-59554993D01*
X210262660Y-59773045D01*
X210262665Y-59773056D01*
X210321235Y-59874500D01*
X210380673Y-59977450D01*
X210380675Y-59977453D01*
X210380676Y-59977454D01*
X210526825Y-60167920D01*
X210525666Y-60168808D01*
X210552483Y-60226662D01*
X210542929Y-60295876D01*
X210526331Y-60321701D01*
X210526825Y-60322080D01*
X210380676Y-60512545D01*
X210262665Y-60716943D01*
X210262660Y-60716954D01*
X210172340Y-60935006D01*
X210111252Y-61162989D01*
X210080447Y-61396979D01*
X210080446Y-61396995D01*
X210080446Y-61633004D01*
X210080447Y-61633020D01*
X210111252Y-61867010D01*
X210172340Y-62094993D01*
X210262660Y-62313045D01*
X210262665Y-62313056D01*
X210313399Y-62400928D01*
X210380673Y-62517450D01*
X210380675Y-62517453D01*
X210380676Y-62517454D01*
X210526825Y-62707920D01*
X210525666Y-62708808D01*
X210552483Y-62766662D01*
X210542929Y-62835876D01*
X210526331Y-62861701D01*
X210526825Y-62862080D01*
X210380676Y-63052545D01*
X210262665Y-63256943D01*
X210262660Y-63256954D01*
X210172340Y-63475006D01*
X210111252Y-63702989D01*
X210080447Y-63936979D01*
X210080446Y-63936995D01*
X210080446Y-64173004D01*
X210080447Y-64173020D01*
X210100183Y-64322934D01*
X210111253Y-64407014D01*
X210129223Y-64474080D01*
X210172340Y-64634993D01*
X210262660Y-64853045D01*
X210262665Y-64853056D01*
X210333623Y-64975957D01*
X210380673Y-65057450D01*
X210380675Y-65057453D01*
X210380676Y-65057454D01*
X210526825Y-65247920D01*
X210525666Y-65248808D01*
X210552483Y-65306662D01*
X210542929Y-65375876D01*
X210526331Y-65401701D01*
X210526825Y-65402080D01*
X210380676Y-65592545D01*
X210262665Y-65796943D01*
X210262660Y-65796954D01*
X210172340Y-66015006D01*
X210111252Y-66242989D01*
X210080447Y-66476979D01*
X210080446Y-66476995D01*
X210080446Y-66713004D01*
X210080447Y-66713020D01*
X210111252Y-66947010D01*
X210172340Y-67174993D01*
X210262660Y-67393045D01*
X210262665Y-67393056D01*
X210318521Y-67489800D01*
X210380673Y-67597450D01*
X210380675Y-67597453D01*
X210380676Y-67597454D01*
X210526825Y-67787920D01*
X210525666Y-67788808D01*
X210552483Y-67846662D01*
X210542929Y-67915876D01*
X210526331Y-67941701D01*
X210526825Y-67942080D01*
X210380676Y-68132545D01*
X210262665Y-68336943D01*
X210262660Y-68336954D01*
X210172340Y-68555006D01*
X210111252Y-68782989D01*
X210080447Y-69016979D01*
X210080446Y-69016995D01*
X210080446Y-69253004D01*
X210080447Y-69253020D01*
X210111252Y-69487010D01*
X210172340Y-69714993D01*
X210262660Y-69933045D01*
X210262665Y-69933056D01*
X210330580Y-70050687D01*
X210380673Y-70137450D01*
X210380675Y-70137453D01*
X210380676Y-70137454D01*
X210526825Y-70327920D01*
X210525666Y-70328808D01*
X210552483Y-70386662D01*
X210542929Y-70455876D01*
X210526331Y-70481701D01*
X210526825Y-70482080D01*
X210380676Y-70672545D01*
X210262665Y-70876943D01*
X210262660Y-70876954D01*
X210172340Y-71095006D01*
X210111252Y-71322989D01*
X210080447Y-71556979D01*
X210080446Y-71556995D01*
X210080446Y-71793004D01*
X210080447Y-71793020D01*
X210111252Y-72027010D01*
X210172340Y-72254993D01*
X210262660Y-72473045D01*
X210262665Y-72473056D01*
X210333623Y-72595957D01*
X210380673Y-72677450D01*
X210380675Y-72677453D01*
X210380676Y-72677454D01*
X210526825Y-72867920D01*
X210525666Y-72868808D01*
X210552483Y-72926662D01*
X210542929Y-72995876D01*
X210526331Y-73021701D01*
X210526825Y-73022080D01*
X210380676Y-73212545D01*
X210262665Y-73416943D01*
X210262660Y-73416954D01*
X210172340Y-73635006D01*
X210111252Y-73862989D01*
X210080447Y-74096979D01*
X210080446Y-74096995D01*
X210080446Y-74333004D01*
X210080447Y-74333020D01*
X210111252Y-74567010D01*
X210172340Y-74794993D01*
X210262660Y-75013045D01*
X210262665Y-75013056D01*
X210333623Y-75135957D01*
X210380673Y-75217450D01*
X210380675Y-75217453D01*
X210380676Y-75217454D01*
X210526825Y-75407920D01*
X210525666Y-75408808D01*
X210552483Y-75466662D01*
X210542929Y-75535876D01*
X210526331Y-75561701D01*
X210526825Y-75562080D01*
X210380676Y-75752545D01*
X210262665Y-75956943D01*
X210262660Y-75956954D01*
X210172340Y-76175006D01*
X210111252Y-76402989D01*
X210080447Y-76636979D01*
X210080446Y-76636995D01*
X210080446Y-76873004D01*
X210080447Y-76873020D01*
X210111252Y-77107010D01*
X210172340Y-77334993D01*
X210262660Y-77553045D01*
X210262665Y-77553056D01*
X210330580Y-77670687D01*
X210380673Y-77757450D01*
X210399327Y-77781760D01*
X210526825Y-77947920D01*
X210525666Y-77948808D01*
X210552483Y-78006662D01*
X210542929Y-78075876D01*
X210526331Y-78101701D01*
X210526825Y-78102080D01*
X210380676Y-78292545D01*
X210262665Y-78496943D01*
X210262660Y-78496954D01*
X210172340Y-78715006D01*
X210111252Y-78942989D01*
X210080447Y-79176979D01*
X210080446Y-79176995D01*
X210080446Y-79413004D01*
X210080447Y-79413020D01*
X210111252Y-79647010D01*
X210172340Y-79874993D01*
X210262660Y-80093045D01*
X210262665Y-80093056D01*
X210330580Y-80210687D01*
X210380673Y-80297450D01*
X210380675Y-80297453D01*
X210380676Y-80297454D01*
X210526825Y-80487920D01*
X210525666Y-80488808D01*
X210552483Y-80546662D01*
X210542929Y-80615876D01*
X210526331Y-80641701D01*
X210526825Y-80642080D01*
X210380676Y-80832545D01*
X210262665Y-81036943D01*
X210262660Y-81036954D01*
X210172340Y-81255006D01*
X210111252Y-81482989D01*
X210080447Y-81716979D01*
X210080446Y-81716995D01*
X210080446Y-81953004D01*
X210080447Y-81953020D01*
X210111252Y-82187010D01*
X210172340Y-82414993D01*
X210262660Y-82633045D01*
X210262665Y-82633056D01*
X210333623Y-82755957D01*
X210380673Y-82837450D01*
X210380675Y-82837453D01*
X210380676Y-82837454D01*
X210526825Y-83027920D01*
X210525666Y-83028808D01*
X210552483Y-83086662D01*
X210542929Y-83155876D01*
X210526331Y-83181701D01*
X210526825Y-83182080D01*
X210380676Y-83372545D01*
X210262665Y-83576943D01*
X210262660Y-83576954D01*
X210172340Y-83795006D01*
X210111252Y-84022989D01*
X210080447Y-84256979D01*
X210080446Y-84256995D01*
X210080446Y-84493004D01*
X210080447Y-84493020D01*
X210111252Y-84727010D01*
X210172340Y-84954993D01*
X210262660Y-85173045D01*
X210262665Y-85173056D01*
X210315231Y-85264101D01*
X210380673Y-85377450D01*
X210380675Y-85377453D01*
X210380676Y-85377454D01*
X210526825Y-85567920D01*
X210525666Y-85568808D01*
X210552483Y-85626662D01*
X210542929Y-85695876D01*
X210526331Y-85721701D01*
X210526825Y-85722080D01*
X210380676Y-85912545D01*
X210262665Y-86116943D01*
X210262660Y-86116954D01*
X210172340Y-86335006D01*
X210111252Y-86562989D01*
X210080447Y-86796979D01*
X210080446Y-86796995D01*
X210080446Y-87033004D01*
X210080447Y-87033020D01*
X210111252Y-87267010D01*
X210172340Y-87494993D01*
X210262660Y-87713045D01*
X210262665Y-87713056D01*
X210311369Y-87797412D01*
X210380673Y-87917450D01*
X210380675Y-87917453D01*
X210380676Y-87917454D01*
X210526825Y-88107920D01*
X210525666Y-88108808D01*
X210552483Y-88166662D01*
X210542929Y-88235876D01*
X210526331Y-88261701D01*
X210526825Y-88262080D01*
X210380676Y-88452545D01*
X210262665Y-88656943D01*
X210262660Y-88656954D01*
X210172340Y-88875006D01*
X210111252Y-89102989D01*
X210080447Y-89336979D01*
X210080446Y-89336995D01*
X210080446Y-89573004D01*
X210080447Y-89573020D01*
X210101639Y-89733993D01*
X210111253Y-89807014D01*
X210119065Y-89836168D01*
X210172340Y-90034993D01*
X210262660Y-90253045D01*
X210262665Y-90253056D01*
X210333623Y-90375957D01*
X210380673Y-90457450D01*
X210380675Y-90457453D01*
X210380676Y-90457454D01*
X210524352Y-90644697D01*
X210524358Y-90644704D01*
X210691241Y-90811587D01*
X210691248Y-90811593D01*
X210757730Y-90862606D01*
X210878496Y-90955273D01*
X211009864Y-91031118D01*
X211082889Y-91073280D01*
X211082894Y-91073282D01*
X211082897Y-91073284D01*
X211300953Y-91163606D01*
X211408405Y-91192397D01*
X211463990Y-91224490D01*
X211834500Y-91595000D01*
X211828285Y-91595000D01*
X211726552Y-91622259D01*
X211635340Y-91674920D01*
X211560866Y-91749394D01*
X211508205Y-91840606D01*
X211480946Y-91942339D01*
X211480946Y-91948554D01*
X210658286Y-91125894D01*
X210598030Y-91208830D01*
X210490843Y-91419197D01*
X210417880Y-91643752D01*
X210380946Y-91876947D01*
X210380946Y-92113052D01*
X210417880Y-92346247D01*
X210490843Y-92570802D01*
X210598033Y-92781174D01*
X210658284Y-92864104D01*
X210658286Y-92864105D01*
X211480946Y-92041445D01*
X211480946Y-92047661D01*
X211508205Y-92149394D01*
X211560866Y-92240606D01*
X211635340Y-92315080D01*
X211726552Y-92367741D01*
X211828285Y-92395000D01*
X211834500Y-92395000D01*
X211463990Y-92765508D01*
X211408404Y-92797601D01*
X211300958Y-92826392D01*
X211300956Y-92826392D01*
X211082900Y-92916714D01*
X211082889Y-92916719D01*
X210878491Y-93034730D01*
X210691248Y-93178406D01*
X210691241Y-93178412D01*
X210524358Y-93345295D01*
X210524352Y-93345302D01*
X210380676Y-93532545D01*
X210262665Y-93736943D01*
X210262660Y-93736954D01*
X210172340Y-93955006D01*
X210111252Y-94182989D01*
X210080447Y-94416979D01*
X210080446Y-94416995D01*
X210080446Y-94653004D01*
X210080447Y-94653020D01*
X210111252Y-94887010D01*
X210172340Y-95114993D01*
X210262660Y-95333045D01*
X210262665Y-95333056D01*
X210326180Y-95443065D01*
X210380673Y-95537450D01*
X210380675Y-95537453D01*
X210380676Y-95537454D01*
X210524352Y-95724697D01*
X210524358Y-95724704D01*
X210691241Y-95891587D01*
X210691248Y-95891593D01*
X210786714Y-95964846D01*
X210878496Y-96035273D01*
X211009864Y-96111118D01*
X211082889Y-96153280D01*
X211082894Y-96153282D01*
X211082897Y-96153284D01*
X211300953Y-96243606D01*
X211528932Y-96304693D01*
X211762935Y-96335500D01*
X211762942Y-96335500D01*
X211998950Y-96335500D01*
X211998957Y-96335500D01*
X212232960Y-96304693D01*
X212460939Y-96243606D01*
X212678995Y-96153284D01*
X212883396Y-96035273D01*
X213070645Y-95891592D01*
X213237538Y-95724699D01*
X213381219Y-95537450D01*
X213499230Y-95333049D01*
X213589552Y-95114993D01*
X213650639Y-94887014D01*
X213681446Y-94653011D01*
X213681446Y-94416989D01*
X213650639Y-94182986D01*
X213589552Y-93955007D01*
X213499230Y-93736951D01*
X213499228Y-93736948D01*
X213499226Y-93736943D01*
X213408614Y-93580000D01*
X213381219Y-93532550D01*
X213318688Y-93451058D01*
X213237539Y-93345302D01*
X213237533Y-93345295D01*
X213070650Y-93178412D01*
X213070643Y-93178406D01*
X212883400Y-93034730D01*
X212883399Y-93034729D01*
X212883396Y-93034727D01*
X212795661Y-92984073D01*
X212679002Y-92916719D01*
X212678991Y-92916714D01*
X212460939Y-92826394D01*
X212353487Y-92797602D01*
X212297900Y-92765508D01*
X211927393Y-92395000D01*
X211933607Y-92395000D01*
X212035340Y-92367741D01*
X212126552Y-92315080D01*
X212201026Y-92240606D01*
X212253687Y-92149394D01*
X212280946Y-92047661D01*
X212280946Y-92041446D01*
X213103604Y-92864105D01*
X213103604Y-92864104D01*
X213163860Y-92781169D01*
X213163864Y-92781163D01*
X213271048Y-92570802D01*
X213344011Y-92346247D01*
X213380946Y-92113052D01*
X213380946Y-91876947D01*
X213344011Y-91643752D01*
X213271048Y-91419197D01*
X213163860Y-91208828D01*
X213103604Y-91125894D01*
X213103604Y-91125893D01*
X212280946Y-91948552D01*
X212280946Y-91942339D01*
X212253687Y-91840606D01*
X212201026Y-91749394D01*
X212126552Y-91674920D01*
X212035340Y-91622259D01*
X211933607Y-91595000D01*
X211927390Y-91595000D01*
X212297899Y-91224490D01*
X212353483Y-91192398D01*
X212460939Y-91163606D01*
X212678995Y-91073284D01*
X212883396Y-90955273D01*
X213070645Y-90811592D01*
X213237538Y-90644699D01*
X213381219Y-90457450D01*
X213499230Y-90253049D01*
X213589552Y-90034993D01*
X213650639Y-89807014D01*
X213681446Y-89573011D01*
X213681446Y-89336989D01*
X213650639Y-89102986D01*
X213589552Y-88875007D01*
X213499230Y-88656951D01*
X213499228Y-88656948D01*
X213499226Y-88656943D01*
X213451342Y-88574006D01*
X213381219Y-88452550D01*
X213348051Y-88409325D01*
X213235067Y-88262080D01*
X213236232Y-88261185D01*
X213209415Y-88203381D01*
X213218944Y-88134165D01*
X213235565Y-88108302D01*
X213235067Y-88107920D01*
X213296740Y-88027545D01*
X213381219Y-87917450D01*
X213499230Y-87713049D01*
X213589552Y-87494993D01*
X213650639Y-87267014D01*
X213681446Y-87033011D01*
X213681446Y-86796989D01*
X213650639Y-86562986D01*
X213589552Y-86335007D01*
X213499230Y-86116951D01*
X213499228Y-86116948D01*
X213499226Y-86116943D01*
X213434993Y-86005690D01*
X213381219Y-85912550D01*
X213348051Y-85869325D01*
X213235067Y-85722080D01*
X213236232Y-85721185D01*
X213209415Y-85663381D01*
X213218944Y-85594165D01*
X213235565Y-85568302D01*
X213235067Y-85567920D01*
X213297787Y-85486181D01*
X213381219Y-85377450D01*
X213499230Y-85173049D01*
X213589552Y-84954993D01*
X213650639Y-84727014D01*
X213681446Y-84493011D01*
X213681446Y-84256989D01*
X213650639Y-84022986D01*
X213589552Y-83795007D01*
X213499230Y-83576951D01*
X213499228Y-83576948D01*
X213499226Y-83576943D01*
X213457064Y-83503918D01*
X213381219Y-83372550D01*
X213326501Y-83301240D01*
X213235067Y-83182080D01*
X213236232Y-83181185D01*
X213209415Y-83123381D01*
X213218944Y-83054165D01*
X213235565Y-83028302D01*
X213235067Y-83027920D01*
X213289760Y-82956641D01*
X213381219Y-82837450D01*
X213499230Y-82633049D01*
X213589552Y-82414993D01*
X213650639Y-82187014D01*
X213681446Y-81953011D01*
X213681446Y-81716989D01*
X213650639Y-81482986D01*
X213589552Y-81255007D01*
X213499230Y-81036951D01*
X213499228Y-81036948D01*
X213499226Y-81036943D01*
X213457064Y-80963918D01*
X213381219Y-80832550D01*
X213294632Y-80719707D01*
X213235067Y-80642080D01*
X213236232Y-80641185D01*
X213209415Y-80583381D01*
X213218944Y-80514165D01*
X213235565Y-80488302D01*
X213235067Y-80487920D01*
X213296740Y-80407545D01*
X213381219Y-80297450D01*
X213499230Y-80093049D01*
X213589552Y-79874993D01*
X213650639Y-79647014D01*
X213681446Y-79413011D01*
X213681446Y-79176989D01*
X213650639Y-78942986D01*
X213589552Y-78715007D01*
X213499230Y-78496951D01*
X213499228Y-78496948D01*
X213499226Y-78496943D01*
X213457064Y-78423918D01*
X213381219Y-78292550D01*
X213348051Y-78249325D01*
X213235067Y-78102080D01*
X213236232Y-78101185D01*
X213209415Y-78043381D01*
X213218944Y-77974165D01*
X213235565Y-77948302D01*
X213235067Y-77947920D01*
X213362565Y-77781760D01*
X213381219Y-77757450D01*
X213499230Y-77553049D01*
X213589552Y-77334993D01*
X213650639Y-77107014D01*
X213681446Y-76873011D01*
X213681446Y-76636989D01*
X213650639Y-76402986D01*
X213589552Y-76175007D01*
X213499230Y-75956951D01*
X213499228Y-75956948D01*
X213499226Y-75956943D01*
X213431310Y-75839310D01*
X213381219Y-75752550D01*
X213311965Y-75662296D01*
X213235067Y-75562080D01*
X213236232Y-75561185D01*
X213209415Y-75503381D01*
X213218944Y-75434165D01*
X213235565Y-75408302D01*
X213235067Y-75407920D01*
X213332803Y-75280547D01*
X213381219Y-75217450D01*
X213499230Y-75013049D01*
X213589552Y-74794993D01*
X213650639Y-74567014D01*
X213681446Y-74333011D01*
X213681446Y-74096989D01*
X213650639Y-73862986D01*
X213589552Y-73635007D01*
X213499230Y-73416951D01*
X213499228Y-73416948D01*
X213499226Y-73416943D01*
X213457064Y-73343918D01*
X213381219Y-73212550D01*
X213348051Y-73169325D01*
X213235067Y-73022080D01*
X213236232Y-73021185D01*
X213209415Y-72963381D01*
X213218944Y-72894165D01*
X213235565Y-72868302D01*
X213235067Y-72867920D01*
X213289760Y-72796641D01*
X213381219Y-72677450D01*
X213499230Y-72473049D01*
X213589552Y-72254993D01*
X213650639Y-72027014D01*
X213681446Y-71793011D01*
X213681446Y-71556989D01*
X213650639Y-71322986D01*
X213589552Y-71095007D01*
X213499230Y-70876951D01*
X213499228Y-70876948D01*
X213499226Y-70876943D01*
X213410615Y-70723466D01*
X213381219Y-70672550D01*
X213326501Y-70601240D01*
X213235067Y-70482080D01*
X213236232Y-70481185D01*
X213209415Y-70423381D01*
X213218944Y-70354165D01*
X213235565Y-70328302D01*
X213235067Y-70327920D01*
X213362565Y-70161760D01*
X213381219Y-70137450D01*
X213499230Y-69933049D01*
X213589552Y-69714993D01*
X213650639Y-69487014D01*
X213681446Y-69253011D01*
X213681446Y-69016989D01*
X213650639Y-68782986D01*
X213589552Y-68555007D01*
X213499230Y-68336951D01*
X213499228Y-68336948D01*
X213499226Y-68336943D01*
X213446788Y-68246119D01*
X213381219Y-68132550D01*
X213298324Y-68024519D01*
X213235067Y-67942080D01*
X213236232Y-67941185D01*
X213209415Y-67883381D01*
X213218944Y-67814165D01*
X213235565Y-67788302D01*
X213235067Y-67787920D01*
X213302518Y-67700015D01*
X213381219Y-67597450D01*
X213499230Y-67393049D01*
X213589552Y-67174993D01*
X213650639Y-66947014D01*
X213681446Y-66713011D01*
X213681446Y-66476989D01*
X213650639Y-66242986D01*
X213589552Y-66015007D01*
X213499230Y-65796951D01*
X213499228Y-65796948D01*
X213499226Y-65796943D01*
X213424749Y-65667947D01*
X213381219Y-65592550D01*
X213310563Y-65500469D01*
X213235067Y-65402080D01*
X213236232Y-65401185D01*
X213209415Y-65343381D01*
X213218944Y-65274165D01*
X213235565Y-65248302D01*
X213235067Y-65247920D01*
X213297135Y-65167031D01*
X213381219Y-65057450D01*
X213499230Y-64853049D01*
X213589552Y-64634993D01*
X213650639Y-64407014D01*
X213681446Y-64173011D01*
X213681446Y-63936989D01*
X213650639Y-63702986D01*
X213589552Y-63475007D01*
X213499230Y-63256951D01*
X213499228Y-63256948D01*
X213499226Y-63256943D01*
X213450984Y-63173386D01*
X213381219Y-63052550D01*
X213255289Y-62888434D01*
X213235067Y-62862080D01*
X213236232Y-62861185D01*
X213209415Y-62803381D01*
X213218944Y-62734165D01*
X213235565Y-62708302D01*
X213235067Y-62707920D01*
X213292810Y-62632667D01*
X213381219Y-62517450D01*
X213499230Y-62313049D01*
X213589552Y-62094993D01*
X213650639Y-61867014D01*
X213681446Y-61633011D01*
X213681446Y-61396989D01*
X213650639Y-61162986D01*
X213589552Y-60935007D01*
X213499230Y-60716951D01*
X213499228Y-60716948D01*
X213499226Y-60716943D01*
X213434988Y-60605681D01*
X213381219Y-60512550D01*
X213274551Y-60373537D01*
X213235067Y-60322080D01*
X213236232Y-60321185D01*
X213209415Y-60263381D01*
X213218944Y-60194165D01*
X213235565Y-60168302D01*
X213235067Y-60167920D01*
X213304985Y-60076800D01*
X213381219Y-59977450D01*
X213499230Y-59773049D01*
X213589552Y-59554993D01*
X213650639Y-59327014D01*
X213681446Y-59093011D01*
X213681446Y-58856989D01*
X213650639Y-58622986D01*
X213589552Y-58395007D01*
X213499230Y-58176951D01*
X213499228Y-58176948D01*
X213499226Y-58176943D01*
X213432624Y-58061586D01*
X213381219Y-57972550D01*
X213262260Y-57817519D01*
X213235067Y-57782080D01*
X213236232Y-57781185D01*
X213209415Y-57723381D01*
X213218944Y-57654165D01*
X213235565Y-57628302D01*
X213235067Y-57627920D01*
X213304985Y-57536800D01*
X213381219Y-57437450D01*
X213499230Y-57233049D01*
X213589552Y-57014993D01*
X213650639Y-56787014D01*
X213681446Y-56553011D01*
X213681446Y-56316989D01*
X213650639Y-56082986D01*
X213589552Y-55855007D01*
X213499230Y-55636951D01*
X213499228Y-55636948D01*
X213499226Y-55636943D01*
X213434993Y-55525690D01*
X213381219Y-55432550D01*
X213313948Y-55344881D01*
X213235067Y-55242080D01*
X213236232Y-55241185D01*
X213209415Y-55183381D01*
X213218944Y-55114165D01*
X213235565Y-55088302D01*
X213235067Y-55087920D01*
X213324015Y-54972000D01*
X213381219Y-54897450D01*
X213499230Y-54693049D01*
X213589552Y-54474993D01*
X213650639Y-54247014D01*
X213681446Y-54013011D01*
X213681446Y-53776989D01*
X213650639Y-53542986D01*
X213589552Y-53315007D01*
X213499230Y-53096951D01*
X213499228Y-53096948D01*
X213499226Y-53096943D01*
X213435400Y-52986394D01*
X213381219Y-52892550D01*
X213313948Y-52804881D01*
X213235067Y-52702080D01*
X213236232Y-52701185D01*
X213209415Y-52643381D01*
X213218944Y-52574165D01*
X213235565Y-52548302D01*
X213235067Y-52547920D01*
X213324015Y-52432000D01*
X213381219Y-52357450D01*
X213499230Y-52153049D01*
X213589552Y-51934993D01*
X213650639Y-51707014D01*
X213681446Y-51473011D01*
X213681446Y-51236989D01*
X213650639Y-51002986D01*
X213589552Y-50775007D01*
X213499230Y-50556951D01*
X213499228Y-50556948D01*
X213499226Y-50556943D01*
X213435400Y-50446394D01*
X213381219Y-50352550D01*
X213326126Y-50280751D01*
X213235067Y-50162080D01*
X213236232Y-50161185D01*
X213209415Y-50103381D01*
X213218944Y-50034165D01*
X213235565Y-50008302D01*
X213235067Y-50007920D01*
X213347418Y-49861500D01*
X213381219Y-49817450D01*
X213499230Y-49613049D01*
X213589552Y-49394993D01*
X213650639Y-49167014D01*
X213681446Y-48933011D01*
X213681446Y-48696989D01*
X213650639Y-48462986D01*
X213589552Y-48235007D01*
X213499230Y-48016951D01*
X213499228Y-48016948D01*
X213499226Y-48016943D01*
X213435400Y-47906394D01*
X213381219Y-47812550D01*
X213334757Y-47751999D01*
X213235067Y-47622080D01*
X213236232Y-47621185D01*
X213209415Y-47563381D01*
X213218944Y-47494165D01*
X213235565Y-47468302D01*
X213235067Y-47467920D01*
X213327851Y-47347000D01*
X213381219Y-47277450D01*
X213499230Y-47073049D01*
X213589552Y-46854993D01*
X213650639Y-46627014D01*
X213681446Y-46393011D01*
X213681446Y-46156989D01*
X213650639Y-45922986D01*
X213589552Y-45695007D01*
X213499230Y-45476951D01*
X213499228Y-45476948D01*
X213499226Y-45476943D01*
X213424196Y-45346989D01*
X213381219Y-45272550D01*
X213313949Y-45184882D01*
X213239599Y-45087986D01*
X213234478Y-45074740D01*
X213225181Y-45064011D01*
X213222131Y-45042803D01*
X213214405Y-45022817D01*
X213217257Y-45008907D01*
X213215237Y-44994853D01*
X213224137Y-44975363D01*
X213228443Y-44954372D01*
X213238363Y-44944212D01*
X213244262Y-44931297D01*
X213262289Y-44919711D01*
X213277258Y-44904383D01*
X213292239Y-44900463D01*
X213303040Y-44893523D01*
X213337975Y-44888500D01*
X213573374Y-44888500D01*
X213640413Y-44908185D01*
X213661055Y-44924819D01*
X215933181Y-47196944D01*
X215966666Y-47258267D01*
X215969500Y-47284625D01*
X215969500Y-68420486D01*
X215999059Y-68607118D01*
X216057454Y-68786836D01*
X216135798Y-68940594D01*
X216143240Y-68955199D01*
X216254310Y-69108074D01*
X222229927Y-75083690D01*
X222382801Y-75194760D01*
X222427333Y-75217450D01*
X222551163Y-75280545D01*
X222551165Y-75280545D01*
X222551168Y-75280547D01*
X222647497Y-75311846D01*
X222730881Y-75338940D01*
X222917514Y-75368500D01*
X222917519Y-75368500D01*
X223106487Y-75368500D01*
X223210168Y-75352077D01*
X223293118Y-75338940D01*
X223472832Y-75280547D01*
X223641199Y-75194760D01*
X223794074Y-75083690D01*
X223927690Y-74950074D01*
X224038760Y-74797199D01*
X224124547Y-74628832D01*
X224182940Y-74449118D01*
X224201328Y-74333020D01*
X224212500Y-74262487D01*
X224212500Y-74073513D01*
X224182940Y-73886881D01*
X224124545Y-73707163D01*
X224038759Y-73538800D01*
X223927690Y-73385927D01*
X218406819Y-67865055D01*
X218373334Y-67803732D01*
X218370500Y-67777374D01*
X218370500Y-57817513D01*
X220033500Y-57817513D01*
X220033500Y-65806375D01*
X220063059Y-65993007D01*
X220121454Y-66172725D01*
X220169430Y-66266882D01*
X220207240Y-66341088D01*
X220318310Y-66493962D01*
X220451927Y-66627579D01*
X220604801Y-66738649D01*
X220673096Y-66773447D01*
X220773163Y-66824434D01*
X220773165Y-66824434D01*
X220773168Y-66824436D01*
X220817496Y-66838839D01*
X220952881Y-66882829D01*
X221139514Y-66912389D01*
X221139519Y-66912389D01*
X221328486Y-66912389D01*
X221515118Y-66882829D01*
X221535778Y-66876116D01*
X221694832Y-66824436D01*
X221863199Y-66738649D01*
X222016073Y-66627579D01*
X222149690Y-66493962D01*
X222260760Y-66341088D01*
X222346547Y-66172721D01*
X222404940Y-65993007D01*
X222421405Y-65889050D01*
X222434500Y-65806375D01*
X222434500Y-57817513D01*
X222404940Y-57630881D01*
X222363408Y-57503060D01*
X222346547Y-57451168D01*
X222346545Y-57451165D01*
X222346545Y-57451163D01*
X222295351Y-57350690D01*
X222260760Y-57282801D01*
X222149690Y-57129927D01*
X222016073Y-56996310D01*
X221863199Y-56885240D01*
X221694836Y-56799454D01*
X221515118Y-56741059D01*
X221328486Y-56711500D01*
X221328481Y-56711500D01*
X221139519Y-56711500D01*
X221139514Y-56711500D01*
X220952881Y-56741059D01*
X220773163Y-56799454D01*
X220604800Y-56885240D01*
X220517579Y-56948610D01*
X220451927Y-56996310D01*
X220451925Y-56996312D01*
X220451924Y-56996312D01*
X220318312Y-57129924D01*
X220318312Y-57129925D01*
X220318310Y-57129927D01*
X220311544Y-57139240D01*
X220207240Y-57282800D01*
X220121454Y-57451163D01*
X220063059Y-57630881D01*
X220033500Y-57817513D01*
X218370500Y-57817513D01*
X218370500Y-49417872D01*
X218390185Y-49350833D01*
X218442989Y-49305078D01*
X218512147Y-49295134D01*
X218567382Y-49317552D01*
X218699801Y-49413760D01*
X218779347Y-49454290D01*
X218868163Y-49499545D01*
X218868165Y-49499545D01*
X218868168Y-49499547D01*
X218964497Y-49530846D01*
X219047881Y-49557940D01*
X219234514Y-49587500D01*
X219234519Y-49587500D01*
X219423486Y-49587500D01*
X219610118Y-49557940D01*
X219620705Y-49554500D01*
X219789832Y-49499547D01*
X219958199Y-49413760D01*
X220111074Y-49302690D01*
X224102945Y-45310819D01*
X224164268Y-45277334D01*
X224190626Y-45274500D01*
X225750386Y-45274500D01*
X225817425Y-45294185D01*
X225863180Y-45346989D01*
X225873124Y-45416147D01*
X225850704Y-45471385D01*
X225838033Y-45488824D01*
X225730843Y-45699197D01*
X225657880Y-45923752D01*
X225620946Y-46156947D01*
X225620946Y-46393052D01*
X225657880Y-46626247D01*
X225730843Y-46850802D01*
X225838033Y-47061174D01*
X225898284Y-47144104D01*
X225898286Y-47144105D01*
X226720946Y-46321445D01*
X226720946Y-46327661D01*
X226748205Y-46429394D01*
X226800866Y-46520606D01*
X226875340Y-46595080D01*
X226966552Y-46647741D01*
X227068285Y-46675000D01*
X227074500Y-46675000D01*
X226251839Y-47497658D01*
X226254800Y-47535276D01*
X226254800Y-47554733D01*
X226251840Y-47592340D01*
X227074500Y-48415000D01*
X227068285Y-48415000D01*
X226966552Y-48442259D01*
X226875340Y-48494920D01*
X226800866Y-48569394D01*
X226748205Y-48660606D01*
X226720946Y-48762339D01*
X226720946Y-48768553D01*
X225898286Y-47945894D01*
X225838030Y-48028830D01*
X225730843Y-48239197D01*
X225657880Y-48463752D01*
X225620946Y-48696947D01*
X225620946Y-48933052D01*
X225657880Y-49166247D01*
X225730843Y-49390802D01*
X225838033Y-49601174D01*
X225898284Y-49684104D01*
X225898286Y-49684105D01*
X226720946Y-48861445D01*
X226720946Y-48867661D01*
X226748205Y-48969394D01*
X226800866Y-49060606D01*
X226875340Y-49135080D01*
X226966552Y-49187741D01*
X227068285Y-49215000D01*
X227074500Y-49215000D01*
X226703990Y-49585508D01*
X226648404Y-49617601D01*
X226540958Y-49646392D01*
X226540956Y-49646392D01*
X226322900Y-49736714D01*
X226322889Y-49736719D01*
X226118491Y-49854730D01*
X225931248Y-49998406D01*
X225931241Y-49998412D01*
X225764358Y-50165295D01*
X225764352Y-50165302D01*
X225620676Y-50352545D01*
X225502665Y-50556943D01*
X225502660Y-50556954D01*
X225412340Y-50775006D01*
X225351252Y-51002989D01*
X225320447Y-51236979D01*
X225320446Y-51236995D01*
X225320446Y-51473004D01*
X225320447Y-51473020D01*
X225351252Y-51707010D01*
X225412340Y-51934993D01*
X225502660Y-52153045D01*
X225502665Y-52153056D01*
X225521941Y-52186442D01*
X225620673Y-52357450D01*
X225620675Y-52357453D01*
X225620676Y-52357454D01*
X225766825Y-52547920D01*
X225765666Y-52548808D01*
X225792483Y-52606662D01*
X225782929Y-52675876D01*
X225766331Y-52701701D01*
X225766825Y-52702080D01*
X225620676Y-52892545D01*
X225502665Y-53096943D01*
X225502660Y-53096954D01*
X225412340Y-53315006D01*
X225351252Y-53542989D01*
X225320447Y-53776979D01*
X225320446Y-53776995D01*
X225320446Y-54013004D01*
X225320447Y-54013020D01*
X225351095Y-54245818D01*
X225351253Y-54247014D01*
X225355139Y-54261518D01*
X225412340Y-54474993D01*
X225502660Y-54693045D01*
X225502665Y-54693056D01*
X225546944Y-54769748D01*
X225620673Y-54897450D01*
X225620675Y-54897453D01*
X225620676Y-54897454D01*
X225766825Y-55087920D01*
X225765666Y-55088808D01*
X225792483Y-55146662D01*
X225782929Y-55215876D01*
X225766331Y-55241701D01*
X225766825Y-55242080D01*
X225620676Y-55432545D01*
X225502665Y-55636943D01*
X225502660Y-55636954D01*
X225412340Y-55855006D01*
X225351252Y-56082989D01*
X225320447Y-56316979D01*
X225320446Y-56316995D01*
X225320446Y-56553004D01*
X225320447Y-56553020D01*
X225351252Y-56787010D01*
X225412340Y-57014993D01*
X225502660Y-57233045D01*
X225502665Y-57233056D01*
X225570580Y-57350687D01*
X225620673Y-57437450D01*
X225620675Y-57437453D01*
X225620676Y-57437454D01*
X225766825Y-57627920D01*
X225765666Y-57628808D01*
X225792483Y-57686662D01*
X225782929Y-57755876D01*
X225766331Y-57781701D01*
X225766825Y-57782080D01*
X225620676Y-57972545D01*
X225502665Y-58176943D01*
X225502660Y-58176954D01*
X225412340Y-58395006D01*
X225351252Y-58622989D01*
X225320447Y-58856979D01*
X225320446Y-58856995D01*
X225320446Y-59093004D01*
X225320447Y-59093020D01*
X225351095Y-59325818D01*
X225351253Y-59327014D01*
X225361270Y-59364397D01*
X225412340Y-59554993D01*
X225502660Y-59773045D01*
X225502665Y-59773056D01*
X225561235Y-59874500D01*
X225620673Y-59977450D01*
X225620675Y-59977453D01*
X225620676Y-59977454D01*
X225766825Y-60167920D01*
X225765666Y-60168808D01*
X225792483Y-60226662D01*
X225782929Y-60295876D01*
X225766331Y-60321701D01*
X225766825Y-60322080D01*
X225620676Y-60512545D01*
X225502665Y-60716943D01*
X225502660Y-60716954D01*
X225412340Y-60935006D01*
X225351252Y-61162989D01*
X225320447Y-61396979D01*
X225320446Y-61396995D01*
X225320446Y-61633004D01*
X225320447Y-61633020D01*
X225351252Y-61867010D01*
X225412340Y-62094993D01*
X225502660Y-62313045D01*
X225502665Y-62313056D01*
X225553399Y-62400928D01*
X225620673Y-62517450D01*
X225620675Y-62517453D01*
X225620676Y-62517454D01*
X225766825Y-62707920D01*
X225765666Y-62708808D01*
X225792483Y-62766662D01*
X225782929Y-62835876D01*
X225766331Y-62861701D01*
X225766825Y-62862080D01*
X225620676Y-63052545D01*
X225502665Y-63256943D01*
X225502660Y-63256954D01*
X225412340Y-63475006D01*
X225351252Y-63702989D01*
X225320447Y-63936979D01*
X225320446Y-63936995D01*
X225320446Y-64173004D01*
X225320447Y-64173020D01*
X225340183Y-64322934D01*
X225351253Y-64407014D01*
X225369223Y-64474080D01*
X225412340Y-64634993D01*
X225502660Y-64853045D01*
X225502665Y-64853056D01*
X225573623Y-64975957D01*
X225620673Y-65057450D01*
X225620675Y-65057453D01*
X225620676Y-65057454D01*
X225766825Y-65247920D01*
X225765666Y-65248808D01*
X225792483Y-65306662D01*
X225782929Y-65375876D01*
X225766331Y-65401701D01*
X225766825Y-65402080D01*
X225620676Y-65592545D01*
X225502665Y-65796943D01*
X225502660Y-65796954D01*
X225412340Y-66015006D01*
X225351252Y-66242989D01*
X225320447Y-66476979D01*
X225320446Y-66476995D01*
X225320446Y-66713004D01*
X225320447Y-66713020D01*
X225351252Y-66947010D01*
X225412340Y-67174993D01*
X225502660Y-67393045D01*
X225502665Y-67393056D01*
X225558521Y-67489800D01*
X225620673Y-67597450D01*
X225620675Y-67597453D01*
X225620676Y-67597454D01*
X225766825Y-67787920D01*
X225765666Y-67788808D01*
X225792483Y-67846662D01*
X225782929Y-67915876D01*
X225766331Y-67941701D01*
X225766825Y-67942080D01*
X225620676Y-68132545D01*
X225502665Y-68336943D01*
X225502660Y-68336954D01*
X225412340Y-68555006D01*
X225351252Y-68782989D01*
X225320447Y-69016979D01*
X225320446Y-69016995D01*
X225320446Y-69253004D01*
X225320447Y-69253020D01*
X225351252Y-69487010D01*
X225412340Y-69714993D01*
X225502660Y-69933045D01*
X225502665Y-69933056D01*
X225570580Y-70050687D01*
X225620673Y-70137450D01*
X225620675Y-70137453D01*
X225620676Y-70137454D01*
X225766825Y-70327920D01*
X225765666Y-70328808D01*
X225792483Y-70386662D01*
X225782929Y-70455876D01*
X225766331Y-70481701D01*
X225766825Y-70482080D01*
X225620676Y-70672545D01*
X225502665Y-70876943D01*
X225502660Y-70876954D01*
X225412340Y-71095006D01*
X225351252Y-71322989D01*
X225320447Y-71556979D01*
X225320446Y-71556995D01*
X225320446Y-71793004D01*
X225320447Y-71793020D01*
X225351252Y-72027010D01*
X225412340Y-72254993D01*
X225502660Y-72473045D01*
X225502665Y-72473056D01*
X225573623Y-72595957D01*
X225620673Y-72677450D01*
X225620675Y-72677453D01*
X225620676Y-72677454D01*
X225766825Y-72867920D01*
X225765666Y-72868808D01*
X225792483Y-72926662D01*
X225782929Y-72995876D01*
X225766331Y-73021701D01*
X225766825Y-73022080D01*
X225620676Y-73212545D01*
X225502665Y-73416943D01*
X225502660Y-73416954D01*
X225412340Y-73635006D01*
X225351252Y-73862989D01*
X225320447Y-74096979D01*
X225320446Y-74096995D01*
X225320446Y-74333004D01*
X225320447Y-74333020D01*
X225351252Y-74567010D01*
X225412340Y-74794993D01*
X225502660Y-75013045D01*
X225502665Y-75013056D01*
X225573623Y-75135957D01*
X225620673Y-75217450D01*
X225620675Y-75217453D01*
X225620676Y-75217454D01*
X225766825Y-75407920D01*
X225765666Y-75408808D01*
X225792483Y-75466662D01*
X225782929Y-75535876D01*
X225766331Y-75561701D01*
X225766825Y-75562080D01*
X225620676Y-75752545D01*
X225502665Y-75956943D01*
X225502660Y-75956954D01*
X225412340Y-76175006D01*
X225351252Y-76402989D01*
X225320447Y-76636979D01*
X225320446Y-76636995D01*
X225320446Y-76873004D01*
X225320447Y-76873020D01*
X225351252Y-77107010D01*
X225412340Y-77334993D01*
X225502660Y-77553045D01*
X225502665Y-77553056D01*
X225570580Y-77670687D01*
X225620673Y-77757450D01*
X225639327Y-77781760D01*
X225766825Y-77947920D01*
X225765666Y-77948808D01*
X225792483Y-78006662D01*
X225782929Y-78075876D01*
X225766331Y-78101701D01*
X225766825Y-78102080D01*
X225620676Y-78292545D01*
X225502665Y-78496943D01*
X225502660Y-78496954D01*
X225412340Y-78715006D01*
X225351252Y-78942989D01*
X225320447Y-79176979D01*
X225320446Y-79176995D01*
X225320446Y-79413004D01*
X225320447Y-79413020D01*
X225351252Y-79647010D01*
X225412340Y-79874993D01*
X225502660Y-80093045D01*
X225502665Y-80093056D01*
X225570580Y-80210687D01*
X225620673Y-80297450D01*
X225620675Y-80297453D01*
X225620676Y-80297454D01*
X225766825Y-80487920D01*
X225765666Y-80488808D01*
X225792483Y-80546662D01*
X225782929Y-80615876D01*
X225766331Y-80641701D01*
X225766825Y-80642080D01*
X225620676Y-80832545D01*
X225502665Y-81036943D01*
X225502660Y-81036954D01*
X225412340Y-81255006D01*
X225351252Y-81482989D01*
X225320447Y-81716979D01*
X225320446Y-81716995D01*
X225320446Y-81953004D01*
X225320447Y-81953020D01*
X225351252Y-82187010D01*
X225412340Y-82414993D01*
X225502660Y-82633045D01*
X225502665Y-82633056D01*
X225573623Y-82755957D01*
X225620673Y-82837450D01*
X225620675Y-82837453D01*
X225620676Y-82837454D01*
X225766825Y-83027920D01*
X225765666Y-83028808D01*
X225792483Y-83086662D01*
X225782929Y-83155876D01*
X225766331Y-83181701D01*
X225766825Y-83182080D01*
X225620676Y-83372545D01*
X225502665Y-83576943D01*
X225502660Y-83576954D01*
X225412340Y-83795006D01*
X225351252Y-84022989D01*
X225320447Y-84256979D01*
X225320446Y-84256995D01*
X225320446Y-84493004D01*
X225320447Y-84493020D01*
X225351252Y-84727010D01*
X225412340Y-84954993D01*
X225502660Y-85173045D01*
X225502665Y-85173056D01*
X225555231Y-85264101D01*
X225620673Y-85377450D01*
X225620675Y-85377453D01*
X225620676Y-85377454D01*
X225766825Y-85567920D01*
X225765666Y-85568808D01*
X225792483Y-85626662D01*
X225782929Y-85695876D01*
X225766331Y-85721701D01*
X225766825Y-85722080D01*
X225620676Y-85912545D01*
X225502665Y-86116943D01*
X225502660Y-86116954D01*
X225412340Y-86335006D01*
X225351252Y-86562989D01*
X225320447Y-86796979D01*
X225320446Y-86796995D01*
X225320446Y-87033004D01*
X225320447Y-87033020D01*
X225351252Y-87267010D01*
X225412340Y-87494993D01*
X225502660Y-87713045D01*
X225502665Y-87713056D01*
X225551369Y-87797412D01*
X225620673Y-87917450D01*
X225620675Y-87917453D01*
X225620676Y-87917454D01*
X225766825Y-88107920D01*
X225765666Y-88108808D01*
X225792483Y-88166662D01*
X225782929Y-88235876D01*
X225766331Y-88261701D01*
X225766825Y-88262080D01*
X225620676Y-88452545D01*
X225502665Y-88656943D01*
X225502660Y-88656954D01*
X225412340Y-88875006D01*
X225351252Y-89102989D01*
X225320447Y-89336979D01*
X225320446Y-89336995D01*
X225320446Y-89573004D01*
X225320447Y-89573020D01*
X225341639Y-89733993D01*
X225351253Y-89807014D01*
X225359065Y-89836168D01*
X225412340Y-90034993D01*
X225502660Y-90253045D01*
X225502665Y-90253056D01*
X225573623Y-90375957D01*
X225620673Y-90457450D01*
X225620675Y-90457453D01*
X225620676Y-90457454D01*
X225766825Y-90647920D01*
X225765666Y-90648808D01*
X225792483Y-90706662D01*
X225782929Y-90775876D01*
X225766331Y-90801701D01*
X225766825Y-90802080D01*
X225620676Y-90992545D01*
X225502665Y-91196943D01*
X225502660Y-91196954D01*
X225412340Y-91415006D01*
X225351252Y-91642989D01*
X225320447Y-91876979D01*
X225320446Y-91876995D01*
X225320446Y-92113004D01*
X225320447Y-92113020D01*
X225351252Y-92347010D01*
X225412340Y-92574993D01*
X225502660Y-92793045D01*
X225502665Y-92793056D01*
X225543686Y-92864105D01*
X225620673Y-92997450D01*
X225620675Y-92997453D01*
X225620676Y-92997454D01*
X225766825Y-93187920D01*
X225765666Y-93188808D01*
X225792483Y-93246662D01*
X225782929Y-93315876D01*
X225766331Y-93341701D01*
X225766825Y-93342080D01*
X225620676Y-93532545D01*
X225502665Y-93736943D01*
X225502660Y-93736954D01*
X225412340Y-93955006D01*
X225351252Y-94182989D01*
X225320447Y-94416979D01*
X225320446Y-94416995D01*
X225320446Y-94653004D01*
X225320447Y-94653020D01*
X225351252Y-94887010D01*
X225412340Y-95114993D01*
X225502660Y-95333045D01*
X225502665Y-95333056D01*
X225566180Y-95443065D01*
X225620673Y-95537450D01*
X225620675Y-95537453D01*
X225620676Y-95537454D01*
X225764352Y-95724697D01*
X225764358Y-95724704D01*
X225931241Y-95891587D01*
X225931248Y-95891593D01*
X226119605Y-96036124D01*
X226160808Y-96092552D01*
X226164963Y-96162298D01*
X226130751Y-96223218D01*
X226069034Y-96255971D01*
X226044119Y-96258500D01*
X221197626Y-96258500D01*
X221130587Y-96238815D01*
X221109945Y-96222181D01*
X219422819Y-94535055D01*
X219389334Y-94473732D01*
X219386500Y-94447374D01*
X219386500Y-89821513D01*
X219356940Y-89634881D01*
X219317964Y-89514926D01*
X219298547Y-89455168D01*
X219298545Y-89455165D01*
X219298545Y-89455163D01*
X219225321Y-89311454D01*
X219212760Y-89286801D01*
X219101690Y-89133927D01*
X218968073Y-89000310D01*
X218126074Y-88158310D01*
X218026465Y-88085940D01*
X217973190Y-88047233D01*
X217972290Y-88046682D01*
X217970633Y-88045376D01*
X217969257Y-88044376D01*
X217969296Y-88044321D01*
X217949402Y-88028638D01*
X215920076Y-85999312D01*
X215920074Y-85999310D01*
X215767199Y-85888240D01*
X215598836Y-85802454D01*
X215419118Y-85744059D01*
X215232486Y-85714500D01*
X215232481Y-85714500D01*
X215043519Y-85714500D01*
X215043514Y-85714500D01*
X214856881Y-85744059D01*
X214677163Y-85802454D01*
X214508800Y-85888240D01*
X214355923Y-85999312D01*
X214222312Y-86132923D01*
X214111240Y-86285800D01*
X214025454Y-86454163D01*
X213967059Y-86633881D01*
X213937500Y-86820513D01*
X213937500Y-87009486D01*
X213967059Y-87196118D01*
X214025454Y-87375836D01*
X214053902Y-87431667D01*
X214111240Y-87544199D01*
X214222310Y-87697074D01*
X216514926Y-89989690D01*
X216580317Y-90037199D01*
X216667803Y-90100762D01*
X216668703Y-90101313D01*
X216670358Y-90102618D01*
X216671743Y-90103624D01*
X216671703Y-90103678D01*
X216691597Y-90119361D01*
X216825292Y-90253056D01*
X216949181Y-90376944D01*
X216982666Y-90438267D01*
X216985500Y-90464625D01*
X216985500Y-95090486D01*
X217015059Y-95277118D01*
X217073454Y-95456836D01*
X217138398Y-95584295D01*
X217159240Y-95625199D01*
X217270310Y-95778074D01*
X217270312Y-95778076D01*
X219140055Y-97647819D01*
X219173540Y-97709142D01*
X219168556Y-97778834D01*
X219126684Y-97834767D01*
X219061220Y-97859184D01*
X219052374Y-97859500D01*
X207050626Y-97859500D01*
X206983587Y-97839815D01*
X206962945Y-97823181D01*
X204844819Y-95705055D01*
X204811334Y-95643732D01*
X204808500Y-95617374D01*
X204808500Y-94932283D01*
X204828185Y-94865244D01*
X204880989Y-94819489D01*
X204950147Y-94809545D01*
X205013703Y-94838570D01*
X205023218Y-94848938D01*
X205025340Y-94849105D01*
X205848000Y-94026445D01*
X205848000Y-94032661D01*
X205875259Y-94134394D01*
X205927920Y-94225606D01*
X206002394Y-94300080D01*
X206093606Y-94352741D01*
X206195339Y-94380000D01*
X206201554Y-94380000D01*
X205378893Y-95202658D01*
X205461828Y-95262914D01*
X205672197Y-95370102D01*
X205896752Y-95443065D01*
X205896751Y-95443065D01*
X206129948Y-95480000D01*
X206366052Y-95480000D01*
X206599247Y-95443065D01*
X206823802Y-95370102D01*
X207034163Y-95262918D01*
X207034169Y-95262914D01*
X207117104Y-95202658D01*
X207117105Y-95202658D01*
X206294446Y-94380000D01*
X206300661Y-94380000D01*
X206402394Y-94352741D01*
X206493606Y-94300080D01*
X206568080Y-94225606D01*
X206620741Y-94134394D01*
X206648000Y-94032661D01*
X206648000Y-94026446D01*
X207470658Y-94849105D01*
X207470658Y-94849104D01*
X207530914Y-94766169D01*
X207530918Y-94766163D01*
X207638102Y-94555804D01*
X207696976Y-94374611D01*
X207696976Y-94374610D01*
X207711065Y-94331248D01*
X207748000Y-94098052D01*
X207748000Y-93861947D01*
X207711065Y-93628752D01*
X207638102Y-93404197D01*
X207530914Y-93193828D01*
X207470658Y-93110894D01*
X207470658Y-93110893D01*
X206648000Y-93933552D01*
X206648000Y-93927339D01*
X206620741Y-93825606D01*
X206568080Y-93734394D01*
X206493606Y-93659920D01*
X206402394Y-93607259D01*
X206300661Y-93580000D01*
X206294447Y-93580000D01*
X207117105Y-92757340D01*
X207117104Y-92757338D01*
X207034174Y-92697087D01*
X206823802Y-92589897D01*
X206599247Y-92516934D01*
X206599248Y-92516934D01*
X206366052Y-92480000D01*
X206129948Y-92480000D01*
X205896752Y-92516934D01*
X205672197Y-92589897D01*
X205461830Y-92697084D01*
X205378894Y-92757340D01*
X206201554Y-93580000D01*
X206195339Y-93580000D01*
X206093606Y-93607259D01*
X206002394Y-93659920D01*
X205927920Y-93734394D01*
X205875259Y-93825606D01*
X205848000Y-93927339D01*
X205848000Y-93933553D01*
X205025340Y-93110894D01*
X205018801Y-93111409D01*
X205007840Y-93119861D01*
X204984011Y-93140510D01*
X204980387Y-93141030D01*
X204977488Y-93143267D01*
X204946069Y-93145965D01*
X204914853Y-93150454D01*
X204911521Y-93148932D01*
X204907875Y-93149246D01*
X204879984Y-93134530D01*
X204851297Y-93121429D01*
X204849317Y-93118349D01*
X204846080Y-93116641D01*
X204830573Y-93089182D01*
X204813523Y-93062651D01*
X204812816Y-93057738D01*
X204811723Y-93055802D01*
X204808500Y-93027716D01*
X204808500Y-90499094D01*
X204828185Y-90432055D01*
X204844819Y-90411413D01*
X206255922Y-89000310D01*
X207671690Y-87584542D01*
X207782760Y-87431667D01*
X207868547Y-87263300D01*
X207926940Y-87083586D01*
X207940077Y-87000636D01*
X207956500Y-86896955D01*
X207956500Y-84233513D01*
X207926940Y-84046881D01*
X207885408Y-83919060D01*
X207868547Y-83867168D01*
X207868545Y-83867165D01*
X207868545Y-83867163D01*
X207782759Y-83698800D01*
X207671690Y-83545927D01*
X207538073Y-83412310D01*
X207385199Y-83301240D01*
X207216836Y-83215454D01*
X207037118Y-83157059D01*
X206850486Y-83127500D01*
X206850481Y-83127500D01*
X206661519Y-83127500D01*
X206661514Y-83127500D01*
X206474881Y-83157059D01*
X206295163Y-83215454D01*
X206126800Y-83301240D01*
X206039579Y-83364610D01*
X205973927Y-83412310D01*
X205973925Y-83412312D01*
X205973924Y-83412312D01*
X205840312Y-83545924D01*
X205840312Y-83545925D01*
X205840310Y-83545927D01*
X205792610Y-83611579D01*
X205729240Y-83698800D01*
X205643454Y-83867163D01*
X205585059Y-84046881D01*
X205555500Y-84233513D01*
X205555500Y-86253842D01*
X205535815Y-86320881D01*
X205519181Y-86341523D01*
X203927181Y-87933523D01*
X203865858Y-87967008D01*
X203796166Y-87962024D01*
X203740233Y-87920152D01*
X203715816Y-87854688D01*
X203715500Y-87845842D01*
X203715500Y-75379782D01*
X203735185Y-75312743D01*
X203751819Y-75292101D01*
X205180934Y-73862986D01*
X206909690Y-72134230D01*
X207020760Y-71981355D01*
X207106547Y-71812988D01*
X207164940Y-71633274D01*
X207173246Y-71580831D01*
X207194500Y-71446642D01*
X207194500Y-68667626D01*
X207214185Y-68600587D01*
X207230819Y-68579945D01*
X207788311Y-68022453D01*
X208433690Y-67377074D01*
X208544760Y-67224200D01*
X208630547Y-67055832D01*
X208688940Y-66876118D01*
X208710712Y-66738649D01*
X208718499Y-66689486D01*
X208718499Y-66500513D01*
X208688940Y-66313885D01*
X208688940Y-66313882D01*
X208630547Y-66134168D01*
X208630545Y-66134165D01*
X208630545Y-66134163D01*
X208573595Y-66022394D01*
X208544760Y-65965801D01*
X208433690Y-65812927D01*
X208300073Y-65679310D01*
X208147199Y-65568240D01*
X208094138Y-65541204D01*
X207978836Y-65482454D01*
X207799122Y-65424061D01*
X207799114Y-65424059D01*
X207612486Y-65394501D01*
X207612481Y-65394501D01*
X207423518Y-65394501D01*
X207423514Y-65394501D01*
X207236883Y-65424059D01*
X207236877Y-65424061D01*
X207057163Y-65482454D01*
X206888799Y-65568240D01*
X206855347Y-65592545D01*
X206735926Y-65679310D01*
X206735924Y-65679312D01*
X206735923Y-65679312D01*
X205078306Y-67336929D01*
X205049139Y-67377076D01*
X205013308Y-67426394D01*
X204990274Y-67458097D01*
X204967240Y-67489800D01*
X204881454Y-67658163D01*
X204823059Y-67837881D01*
X204793500Y-68024513D01*
X204793500Y-70803529D01*
X204784855Y-70832968D01*
X204778332Y-70862956D01*
X204774577Y-70867971D01*
X204773815Y-70870568D01*
X204757181Y-70891211D01*
X204654466Y-70993925D01*
X204593143Y-71027409D01*
X204523451Y-71022425D01*
X204467518Y-70980553D01*
X204466467Y-70979129D01*
X204369690Y-70845927D01*
X204236073Y-70712310D01*
X204083199Y-70601240D01*
X203914836Y-70515454D01*
X203735118Y-70457059D01*
X203548486Y-70427500D01*
X203548481Y-70427500D01*
X202786482Y-70427500D01*
X202597519Y-70427500D01*
X202597514Y-70427500D01*
X202410881Y-70457059D01*
X202231163Y-70515454D01*
X202062800Y-70601240D01*
X201975579Y-70664610D01*
X201909927Y-70712310D01*
X201909925Y-70712312D01*
X201909924Y-70712312D01*
X200725181Y-71897055D01*
X200663858Y-71930540D01*
X200594166Y-71925556D01*
X200538233Y-71883684D01*
X200513816Y-71818220D01*
X200513500Y-71809374D01*
X200513500Y-66665625D01*
X200533185Y-66598586D01*
X200549819Y-66577944D01*
X204422944Y-62704819D01*
X204484267Y-62671334D01*
X204510625Y-62668500D01*
X207104486Y-62668500D01*
X207291118Y-62638940D01*
X207327034Y-62627270D01*
X207470832Y-62580547D01*
X207639199Y-62494760D01*
X207792073Y-62383690D01*
X207925690Y-62250073D01*
X208036760Y-62097199D01*
X208122547Y-61928832D01*
X208180940Y-61749118D01*
X208195701Y-61655920D01*
X208210500Y-61562486D01*
X208210500Y-61373513D01*
X208180940Y-61186881D01*
X208122545Y-61007163D01*
X208036759Y-60838800D01*
X207925690Y-60685927D01*
X207792073Y-60552310D01*
X207639199Y-60441240D01*
X207607093Y-60424881D01*
X207470836Y-60355454D01*
X207291118Y-60297059D01*
X207104486Y-60267500D01*
X207104481Y-60267500D01*
X204619625Y-60267500D01*
X204552586Y-60247815D01*
X204506831Y-60195011D01*
X204496887Y-60125853D01*
X204525912Y-60062297D01*
X204531944Y-60055819D01*
X205103045Y-59484718D01*
X206934083Y-57653678D01*
X206995404Y-57620195D01*
X207002365Y-57618888D01*
X207031721Y-57614238D01*
X207084118Y-57605940D01*
X207263832Y-57547547D01*
X207432199Y-57461760D01*
X207585074Y-57350690D01*
X207718690Y-57217074D01*
X207829760Y-57064199D01*
X207915547Y-56895832D01*
X207973940Y-56716118D01*
X207977623Y-56692865D01*
X208003500Y-56529486D01*
X208003500Y-56340512D01*
X207983793Y-56216094D01*
X207973940Y-56153882D01*
X207915547Y-55974168D01*
X207829760Y-55805801D01*
X207718690Y-55652926D01*
X207538074Y-55472310D01*
X207385199Y-55361240D01*
X207353093Y-55344881D01*
X207234563Y-55284487D01*
X207183767Y-55236512D01*
X207166972Y-55168691D01*
X207189509Y-55102556D01*
X207190474Y-55101206D01*
X207274760Y-54985199D01*
X207360547Y-54816832D01*
X207418940Y-54637118D01*
X207421579Y-54620457D01*
X207448500Y-54450486D01*
X207448500Y-47538626D01*
X207468185Y-47471587D01*
X207484819Y-47450945D01*
X210010945Y-44924819D01*
X210072268Y-44891334D01*
X210098626Y-44888500D01*
X210423917Y-44888500D01*
X210490956Y-44908185D01*
G37*
%TD.AperFunction*%
%TA.AperFunction,Conductor*%
G36*
X228775275Y-45819596D02*
G01*
X228797413Y-45837177D01*
X228887181Y-45926945D01*
X228920666Y-45988268D01*
X228923500Y-46014626D01*
X228923500Y-50413341D01*
X228903815Y-50480380D01*
X228851011Y-50526135D01*
X228781853Y-50536079D01*
X228718297Y-50507054D01*
X228692113Y-50475342D01*
X228675400Y-50446394D01*
X228621219Y-50352550D01*
X228477538Y-50165301D01*
X228477533Y-50165295D01*
X228310650Y-49998412D01*
X228310643Y-49998406D01*
X228123400Y-49854730D01*
X228123399Y-49854729D01*
X228123396Y-49854727D01*
X228041903Y-49807677D01*
X227919002Y-49736719D01*
X227918991Y-49736714D01*
X227700939Y-49646394D01*
X227593487Y-49617602D01*
X227537900Y-49585508D01*
X227167393Y-49215000D01*
X227173607Y-49215000D01*
X227275340Y-49187741D01*
X227366552Y-49135080D01*
X227441026Y-49060606D01*
X227493687Y-48969394D01*
X227520946Y-48867661D01*
X227520946Y-48861447D01*
X228343604Y-49684105D01*
X228343604Y-49684104D01*
X228403860Y-49601169D01*
X228403864Y-49601163D01*
X228511048Y-49390802D01*
X228584011Y-49166247D01*
X228620946Y-48933052D01*
X228620946Y-48696947D01*
X228584011Y-48463752D01*
X228511048Y-48239197D01*
X228403860Y-48028828D01*
X228343604Y-47945894D01*
X228343604Y-47945893D01*
X227520946Y-48768552D01*
X227520946Y-48762339D01*
X227493687Y-48660606D01*
X227441026Y-48569394D01*
X227366552Y-48494920D01*
X227275340Y-48442259D01*
X227173607Y-48415000D01*
X227167393Y-48415000D01*
X227990050Y-47592340D01*
X227987090Y-47554735D01*
X227987090Y-47535275D01*
X227990050Y-47497657D01*
X227167392Y-46675000D01*
X227173607Y-46675000D01*
X227275340Y-46647741D01*
X227366552Y-46595080D01*
X227441026Y-46520606D01*
X227493687Y-46429394D01*
X227520946Y-46327661D01*
X227520946Y-46321447D01*
X228343604Y-47144105D01*
X228343604Y-47144104D01*
X228403860Y-47061169D01*
X228403864Y-47061163D01*
X228511048Y-46850802D01*
X228584011Y-46626247D01*
X228620946Y-46393052D01*
X228620946Y-46156947D01*
X228587259Y-45944256D01*
X228596214Y-45874962D01*
X228641210Y-45821510D01*
X228707961Y-45800871D01*
X228775275Y-45819596D01*
G37*
%TD.AperFunction*%
%TA.AperFunction,Conductor*%
G36*
X238589820Y-62417674D02*
G01*
X238601026Y-62416470D01*
X238622747Y-62427343D01*
X238646048Y-62434185D01*
X238653426Y-62442699D01*
X238663505Y-62447745D01*
X238675900Y-62468636D01*
X238691803Y-62486989D01*
X238693406Y-62498142D01*
X238699157Y-62507834D01*
X238698290Y-62532105D01*
X238701747Y-62556147D01*
X238697065Y-62566398D01*
X238696663Y-62577659D01*
X238682812Y-62597607D01*
X238672722Y-62619703D01*
X238662207Y-62627284D01*
X238656815Y-62635052D01*
X238626462Y-62653061D01*
X238432954Y-62733214D01*
X238432943Y-62733219D01*
X238228545Y-62851230D01*
X238041302Y-62994906D01*
X238041295Y-62994912D01*
X237874412Y-63161795D01*
X237874406Y-63161802D01*
X237730730Y-63349045D01*
X237612719Y-63553443D01*
X237612714Y-63553454D01*
X237522394Y-63771506D01*
X237461306Y-63999489D01*
X237430501Y-64233479D01*
X237430500Y-64233495D01*
X237430500Y-64469504D01*
X237430501Y-64469520D01*
X237461306Y-64703510D01*
X237522394Y-64931493D01*
X237612714Y-65149545D01*
X237612719Y-65149556D01*
X237669731Y-65248302D01*
X237730727Y-65353950D01*
X237730729Y-65353953D01*
X237730730Y-65353954D01*
X237874406Y-65541197D01*
X237874412Y-65541204D01*
X238041295Y-65708087D01*
X238041302Y-65708093D01*
X238116672Y-65765926D01*
X238228550Y-65851773D01*
X238319100Y-65904052D01*
X238432943Y-65969780D01*
X238432948Y-65969782D01*
X238432951Y-65969784D01*
X238651007Y-66060106D01*
X238758459Y-66088897D01*
X238814044Y-66120990D01*
X239184554Y-66491500D01*
X239178339Y-66491500D01*
X239076606Y-66518759D01*
X238985394Y-66571420D01*
X238910920Y-66645894D01*
X238858259Y-66737106D01*
X238831000Y-66838839D01*
X238831000Y-66845054D01*
X238008340Y-66022394D01*
X237948084Y-66105330D01*
X237840897Y-66315697D01*
X237767934Y-66540252D01*
X237731000Y-66773447D01*
X237731000Y-67009552D01*
X237767934Y-67242747D01*
X237840897Y-67467302D01*
X237948087Y-67677674D01*
X238008338Y-67760604D01*
X238008340Y-67760605D01*
X238831000Y-66937945D01*
X238831000Y-66944161D01*
X238858259Y-67045894D01*
X238910920Y-67137106D01*
X238985394Y-67211580D01*
X239076606Y-67264241D01*
X239178339Y-67291500D01*
X239184554Y-67291500D01*
X238361893Y-68114158D01*
X238444828Y-68174414D01*
X238655197Y-68281602D01*
X238879752Y-68354565D01*
X238879751Y-68354565D01*
X239112948Y-68391500D01*
X239349052Y-68391500D01*
X239582247Y-68354565D01*
X239806802Y-68281602D01*
X240017163Y-68174418D01*
X240017169Y-68174414D01*
X240100104Y-68114158D01*
X240100105Y-68114158D01*
X239277446Y-67291500D01*
X239283661Y-67291500D01*
X239385394Y-67264241D01*
X239476606Y-67211580D01*
X239551080Y-67137106D01*
X239603741Y-67045894D01*
X239631000Y-66944161D01*
X239631000Y-66937946D01*
X240001508Y-67308454D01*
X240033602Y-67364041D01*
X240062394Y-67471493D01*
X240152714Y-67689545D01*
X240152719Y-67689556D01*
X240213887Y-67795500D01*
X240270727Y-67893950D01*
X240270729Y-67893953D01*
X240270730Y-67893954D01*
X240414406Y-68081197D01*
X240414412Y-68081204D01*
X240581295Y-68248087D01*
X240581301Y-68248092D01*
X240768550Y-68391773D01*
X240899918Y-68467618D01*
X240972943Y-68509780D01*
X240972948Y-68509782D01*
X240972951Y-68509784D01*
X241191007Y-68600106D01*
X241418986Y-68661193D01*
X241652989Y-68692000D01*
X241652996Y-68692000D01*
X241889004Y-68692000D01*
X241889011Y-68692000D01*
X242123014Y-68661193D01*
X242350993Y-68600106D01*
X242569049Y-68509784D01*
X242773450Y-68391773D01*
X242960698Y-68248093D01*
X242963920Y-68245621D01*
X242964814Y-68246786D01*
X243022619Y-68219969D01*
X243091835Y-68229498D01*
X243117697Y-68246119D01*
X243118080Y-68245621D01*
X243265325Y-68358605D01*
X243308550Y-68391773D01*
X243439918Y-68467618D01*
X243512943Y-68509780D01*
X243512948Y-68509782D01*
X243512951Y-68509784D01*
X243731007Y-68600106D01*
X243958986Y-68661193D01*
X244192989Y-68692000D01*
X244192996Y-68692000D01*
X244429004Y-68692000D01*
X244429011Y-68692000D01*
X244663014Y-68661193D01*
X244890993Y-68600106D01*
X245109049Y-68509784D01*
X245313450Y-68391773D01*
X245500698Y-68248093D01*
X245503920Y-68245621D01*
X245504814Y-68246786D01*
X245562619Y-68219969D01*
X245631835Y-68229498D01*
X245657697Y-68246119D01*
X245658080Y-68245621D01*
X245805325Y-68358605D01*
X245848550Y-68391773D01*
X245979918Y-68467618D01*
X246052943Y-68509780D01*
X246052948Y-68509782D01*
X246052951Y-68509784D01*
X246271007Y-68600106D01*
X246498986Y-68661193D01*
X246732989Y-68692000D01*
X246732996Y-68692000D01*
X246969004Y-68692000D01*
X246969011Y-68692000D01*
X247203014Y-68661193D01*
X247430993Y-68600106D01*
X247649049Y-68509784D01*
X247665499Y-68500286D01*
X247733397Y-68483813D01*
X247799425Y-68506664D01*
X247842617Y-68561584D01*
X247851500Y-68607673D01*
X247851500Y-69144374D01*
X247831815Y-69211413D01*
X247779011Y-69257168D01*
X247709853Y-69267112D01*
X247646297Y-69238087D01*
X247639819Y-69232055D01*
X247633076Y-69225312D01*
X247633074Y-69225310D01*
X247480199Y-69114240D01*
X247311832Y-69028453D01*
X247132118Y-68970060D01*
X247132116Y-68970059D01*
X247132114Y-68970059D01*
X246945487Y-68940500D01*
X246945482Y-68940500D01*
X246756519Y-68940500D01*
X246756514Y-68940500D01*
X246569881Y-68970059D01*
X246390163Y-69028454D01*
X246221800Y-69114240D01*
X246180325Y-69144374D01*
X246068927Y-69225310D01*
X246068925Y-69225312D01*
X246068924Y-69225312D01*
X245919056Y-69375181D01*
X245857733Y-69408666D01*
X245831375Y-69411500D01*
X233212626Y-69411500D01*
X233145587Y-69391815D01*
X233124945Y-69375181D01*
X231969076Y-68219312D01*
X231969070Y-68219307D01*
X231897389Y-68167228D01*
X231816199Y-68108240D01*
X231763138Y-68081204D01*
X231647836Y-68022454D01*
X231468118Y-67964059D01*
X231281486Y-67934500D01*
X231281481Y-67934500D01*
X231116910Y-67934500D01*
X231049871Y-67914815D01*
X231004116Y-67862011D01*
X230994172Y-67792853D01*
X231023197Y-67729297D01*
X231060615Y-67700015D01*
X231104461Y-67677674D01*
X231214199Y-67621760D01*
X231367074Y-67510690D01*
X233484375Y-65393388D01*
X233545694Y-65359906D01*
X233615386Y-65364890D01*
X233671319Y-65406762D01*
X233695736Y-65472226D01*
X233694525Y-65500469D01*
X233668000Y-65667946D01*
X233668000Y-65904052D01*
X233704934Y-66137247D01*
X233777897Y-66361802D01*
X233885087Y-66572174D01*
X233945338Y-66655104D01*
X233945340Y-66655105D01*
X234768000Y-65832445D01*
X234768000Y-65838661D01*
X234795259Y-65940394D01*
X234847920Y-66031606D01*
X234922394Y-66106080D01*
X235013606Y-66158741D01*
X235115339Y-66186000D01*
X235121554Y-66186000D01*
X234298893Y-67008658D01*
X234381828Y-67068914D01*
X234592197Y-67176102D01*
X234816752Y-67249065D01*
X234816751Y-67249065D01*
X235049948Y-67286000D01*
X235286052Y-67286000D01*
X235519247Y-67249065D01*
X235743802Y-67176102D01*
X235954163Y-67068918D01*
X235954169Y-67068914D01*
X236037104Y-67008658D01*
X236037105Y-67008658D01*
X235214446Y-66186000D01*
X235220661Y-66186000D01*
X235322394Y-66158741D01*
X235413606Y-66106080D01*
X235488080Y-66031606D01*
X235540741Y-65940394D01*
X235568000Y-65838661D01*
X235568000Y-65832447D01*
X236390658Y-66655105D01*
X236450914Y-66572169D01*
X236450918Y-66572163D01*
X236558102Y-66361802D01*
X236631065Y-66137247D01*
X236668000Y-65904052D01*
X236668000Y-65667947D01*
X236631065Y-65434752D01*
X236558102Y-65210197D01*
X236450914Y-64999828D01*
X236390658Y-64916894D01*
X236390658Y-64916893D01*
X235568000Y-65739552D01*
X235568000Y-65733339D01*
X235540741Y-65631606D01*
X235488080Y-65540394D01*
X235413606Y-65465920D01*
X235322394Y-65413259D01*
X235220661Y-65386000D01*
X235214446Y-65386000D01*
X236037105Y-64563340D01*
X236037104Y-64563338D01*
X235954174Y-64503087D01*
X235743802Y-64395897D01*
X235519247Y-64322934D01*
X235519248Y-64322934D01*
X235286052Y-64286000D01*
X235049947Y-64286000D01*
X234882469Y-64312525D01*
X234813176Y-64303570D01*
X234759724Y-64258574D01*
X234739085Y-64191822D01*
X234757810Y-64124508D01*
X234775383Y-64102380D01*
X236426945Y-62450819D01*
X236488268Y-62417334D01*
X236514626Y-62414500D01*
X238579009Y-62414500D01*
X238589820Y-62417674D01*
G37*
%TD.AperFunction*%
%TA.AperFunction,Conductor*%
G36*
X245644413Y-59894185D02*
G01*
X245665055Y-59910819D01*
X249461181Y-63706945D01*
X249494666Y-63768268D01*
X249497500Y-63794626D01*
X249497500Y-64428189D01*
X249477815Y-64495228D01*
X249425011Y-64540983D01*
X249355853Y-64550927D01*
X249292297Y-64521902D01*
X249285819Y-64515870D01*
X248589378Y-63819429D01*
X248561758Y-63775009D01*
X248561160Y-63775258D01*
X248559656Y-63771629D01*
X248559635Y-63771594D01*
X248559607Y-63771512D01*
X248559606Y-63771507D01*
X248469284Y-63553451D01*
X248469282Y-63553448D01*
X248469280Y-63553443D01*
X248423994Y-63475006D01*
X248351273Y-63349050D01*
X248256797Y-63225926D01*
X248207593Y-63161802D01*
X248207587Y-63161795D01*
X248040704Y-62994912D01*
X248040697Y-62994906D01*
X247853454Y-62851230D01*
X247853453Y-62851229D01*
X247853450Y-62851227D01*
X247770578Y-62803381D01*
X247649056Y-62733219D01*
X247649045Y-62733214D01*
X247430993Y-62642894D01*
X247333609Y-62616800D01*
X247203014Y-62581807D01*
X247203013Y-62581806D01*
X247203010Y-62581806D01*
X246969020Y-62551001D01*
X246969017Y-62551000D01*
X246969011Y-62551000D01*
X246732989Y-62551000D01*
X246732983Y-62551000D01*
X246732979Y-62551001D01*
X246498989Y-62581806D01*
X246271006Y-62642894D01*
X246052954Y-62733214D01*
X246052943Y-62733219D01*
X245848545Y-62851230D01*
X245658080Y-62997379D01*
X245657191Y-62996220D01*
X245599338Y-63023037D01*
X245530124Y-63013483D01*
X245504298Y-62996885D01*
X245503920Y-62997379D01*
X245313454Y-62851230D01*
X245313453Y-62851229D01*
X245313450Y-62851227D01*
X245230578Y-62803381D01*
X245109056Y-62733219D01*
X245109045Y-62733214D01*
X244890993Y-62642894D01*
X244793609Y-62616800D01*
X244663014Y-62581807D01*
X244663013Y-62581806D01*
X244663010Y-62581806D01*
X244429020Y-62551001D01*
X244429017Y-62551000D01*
X244429011Y-62551000D01*
X244192989Y-62551000D01*
X244192983Y-62551000D01*
X244192979Y-62551001D01*
X243958987Y-62581806D01*
X243769170Y-62632667D01*
X243769158Y-62632671D01*
X243731007Y-62642894D01*
X243613144Y-62691714D01*
X243613127Y-62691721D01*
X243512954Y-62733214D01*
X243512943Y-62733219D01*
X243308545Y-62851230D01*
X243121302Y-62994906D01*
X243121295Y-62994912D01*
X242954412Y-63161795D01*
X242954406Y-63161802D01*
X242810730Y-63349045D01*
X242692719Y-63553443D01*
X242692714Y-63553454D01*
X242602392Y-63771510D01*
X242602392Y-63771512D01*
X242573601Y-63878958D01*
X242541508Y-63934544D01*
X242171000Y-64305052D01*
X242171000Y-64298839D01*
X242143741Y-64197106D01*
X242091080Y-64105894D01*
X242016606Y-64031420D01*
X241925394Y-63978759D01*
X241823661Y-63951500D01*
X241817447Y-63951500D01*
X242640105Y-63128840D01*
X242640104Y-63128838D01*
X242557174Y-63068587D01*
X242346802Y-62961397D01*
X242122247Y-62888434D01*
X242122248Y-62888434D01*
X241889052Y-62851500D01*
X241652948Y-62851500D01*
X241419752Y-62888434D01*
X241195197Y-62961397D01*
X240984830Y-63068584D01*
X240901894Y-63128840D01*
X241724554Y-63951500D01*
X241718339Y-63951500D01*
X241616606Y-63978759D01*
X241525394Y-64031420D01*
X241450920Y-64105894D01*
X241398259Y-64197106D01*
X241371000Y-64298839D01*
X241371000Y-64305054D01*
X241000490Y-63934544D01*
X240968397Y-63878959D01*
X240939606Y-63771507D01*
X240939601Y-63771496D01*
X240849285Y-63553454D01*
X240849280Y-63553443D01*
X240803994Y-63475006D01*
X240731273Y-63349050D01*
X240710144Y-63321514D01*
X240656486Y-63251585D01*
X240587593Y-63161802D01*
X240587587Y-63161795D01*
X240420704Y-62994912D01*
X240420697Y-62994906D01*
X240233454Y-62851230D01*
X240233453Y-62851229D01*
X240233450Y-62851227D01*
X240150578Y-62803381D01*
X240029056Y-62733219D01*
X240029045Y-62733214D01*
X239835538Y-62653061D01*
X239781135Y-62609220D01*
X239759070Y-62542926D01*
X239776349Y-62475227D01*
X239827486Y-62427616D01*
X239882991Y-62414500D01*
X242667364Y-62414500D01*
X242709538Y-62422886D01*
X242709745Y-62422251D01*
X242714374Y-62423755D01*
X242714378Y-62423757D01*
X242797666Y-62450819D01*
X242894091Y-62482150D01*
X243080724Y-62511710D01*
X243080729Y-62511710D01*
X243269696Y-62511710D01*
X243456328Y-62482150D01*
X243636042Y-62423757D01*
X243804409Y-62337970D01*
X243957283Y-62226900D01*
X244090900Y-62093283D01*
X244201970Y-61940409D01*
X244287757Y-61772042D01*
X244346150Y-61592328D01*
X244348736Y-61576000D01*
X244375710Y-61405696D01*
X244375710Y-61186939D01*
X244372525Y-61166831D01*
X244372525Y-61166829D01*
X244346150Y-61000302D01*
X244346150Y-61000301D01*
X244319056Y-60916917D01*
X244287757Y-60820588D01*
X244287755Y-60820585D01*
X244287755Y-60820583D01*
X244219144Y-60685927D01*
X244201970Y-60652221D01*
X244090900Y-60499346D01*
X243889864Y-60298310D01*
X243736989Y-60187240D01*
X243616510Y-60125853D01*
X243583405Y-60108985D01*
X243532609Y-60061010D01*
X243515814Y-59993189D01*
X243538351Y-59927054D01*
X243593067Y-59883603D01*
X243639700Y-59874500D01*
X245577374Y-59874500D01*
X245644413Y-59894185D01*
G37*
%TD.AperFunction*%
%TA.AperFunction,Conductor*%
G36*
X240900000Y-47804661D02*
G01*
X240927259Y-47906394D01*
X240979920Y-47997606D01*
X241054394Y-48072080D01*
X241145606Y-48124741D01*
X241247339Y-48152000D01*
X241253553Y-48152000D01*
X240502485Y-48903065D01*
X240502485Y-48903067D01*
X240528105Y-48921681D01*
X240570771Y-48977010D01*
X240576750Y-49046624D01*
X240544145Y-49108419D01*
X240528105Y-49122317D01*
X240502485Y-49140930D01*
X240502485Y-49140932D01*
X241253553Y-49892000D01*
X241247339Y-49892000D01*
X241145606Y-49919259D01*
X241054394Y-49971920D01*
X240979920Y-50046394D01*
X240927259Y-50137606D01*
X240900000Y-50239339D01*
X240900000Y-50245553D01*
X240129031Y-49474584D01*
X240095546Y-49413261D01*
X240100530Y-49343569D01*
X240129033Y-49299219D01*
X240134392Y-49293859D01*
X240160000Y-49132181D01*
X240160000Y-48911818D01*
X240154201Y-48875205D01*
X240134392Y-48750138D01*
X240129031Y-48744777D01*
X240095546Y-48683454D01*
X240100530Y-48613762D01*
X240129031Y-48569415D01*
X240900000Y-47798446D01*
X240900000Y-47804661D01*
G37*
%TD.AperFunction*%
%TA.AperFunction,Conductor*%
G36*
X255424539Y-39940185D02*
G01*
X255470294Y-39992989D01*
X255481500Y-40044500D01*
X255481500Y-113879500D01*
X255461815Y-113946539D01*
X255409011Y-113992294D01*
X255357500Y-114003500D01*
X173394500Y-114003500D01*
X173327461Y-113983815D01*
X173281706Y-113931011D01*
X173270500Y-113879500D01*
X173270500Y-104874038D01*
X178399500Y-104874038D01*
X178399500Y-105125962D01*
X178428798Y-105310940D01*
X178438910Y-105374785D01*
X178516760Y-105614383D01*
X178595413Y-105768747D01*
X178609300Y-105796002D01*
X178631132Y-105838848D01*
X178779201Y-106042649D01*
X178779205Y-106042654D01*
X178957345Y-106220794D01*
X178957350Y-106220798D01*
X179088264Y-106315912D01*
X179161155Y-106368870D01*
X179298122Y-106438658D01*
X179385616Y-106483239D01*
X179385618Y-106483239D01*
X179385621Y-106483241D01*
X179625215Y-106561090D01*
X179874038Y-106600500D01*
X179874039Y-106600500D01*
X180125961Y-106600500D01*
X180125962Y-106600500D01*
X180374785Y-106561090D01*
X180614379Y-106483241D01*
X180838845Y-106368870D01*
X181042656Y-106220793D01*
X181220793Y-106042656D01*
X181368870Y-105838845D01*
X181483241Y-105614379D01*
X181561090Y-105374785D01*
X181600500Y-105125962D01*
X181600500Y-104874038D01*
X181561090Y-104625215D01*
X181483241Y-104385621D01*
X181483239Y-104385618D01*
X181483239Y-104385616D01*
X181441747Y-104304184D01*
X181368870Y-104161155D01*
X181246946Y-103993340D01*
X181220798Y-103957350D01*
X181220794Y-103957345D01*
X181042654Y-103779205D01*
X181042649Y-103779201D01*
X180838848Y-103631132D01*
X180838847Y-103631131D01*
X180838845Y-103631130D01*
X180768747Y-103595413D01*
X180614383Y-103516760D01*
X180374785Y-103438910D01*
X180125962Y-103399500D01*
X179874038Y-103399500D01*
X179749626Y-103419205D01*
X179625214Y-103438910D01*
X179385616Y-103516760D01*
X179161151Y-103631132D01*
X178957350Y-103779201D01*
X178957345Y-103779205D01*
X178779205Y-103957345D01*
X178779201Y-103957350D01*
X178631132Y-104161151D01*
X178516760Y-104385616D01*
X178506254Y-104417951D01*
X178438910Y-104625215D01*
X178399500Y-104874038D01*
X173270500Y-104874038D01*
X173270500Y-96655995D01*
X181333500Y-96655995D01*
X181333500Y-96892004D01*
X181333501Y-96892020D01*
X181357002Y-97070533D01*
X181364307Y-97126014D01*
X181409173Y-97293457D01*
X181425394Y-97353993D01*
X181515714Y-97572045D01*
X181515719Y-97572056D01*
X181560624Y-97649832D01*
X181633727Y-97776450D01*
X181633729Y-97776453D01*
X181633730Y-97776454D01*
X181777406Y-97963697D01*
X181777412Y-97963704D01*
X181944295Y-98130587D01*
X181944302Y-98130593D01*
X182008370Y-98179754D01*
X182131550Y-98274273D01*
X182262918Y-98350118D01*
X182335943Y-98392280D01*
X182335948Y-98392282D01*
X182335951Y-98392284D01*
X182554007Y-98482606D01*
X182781986Y-98543693D01*
X183015989Y-98574500D01*
X183015996Y-98574500D01*
X183252004Y-98574500D01*
X183252011Y-98574500D01*
X183486014Y-98543693D01*
X183713993Y-98482606D01*
X183932049Y-98392284D01*
X184136450Y-98274273D01*
X184323699Y-98130592D01*
X184490592Y-97963699D01*
X184634273Y-97776450D01*
X184752284Y-97572049D01*
X184842606Y-97353993D01*
X184903693Y-97126014D01*
X184934500Y-96892011D01*
X184934500Y-96655989D01*
X184903693Y-96421986D01*
X184842606Y-96194007D01*
X184752284Y-95975951D01*
X184752282Y-95975948D01*
X184752280Y-95975943D01*
X184700982Y-95887093D01*
X184634273Y-95771550D01*
X184490592Y-95584301D01*
X184490587Y-95584295D01*
X184323704Y-95417412D01*
X184323697Y-95417406D01*
X184136454Y-95273730D01*
X184136453Y-95273729D01*
X184136450Y-95273727D01*
X184054957Y-95226677D01*
X183932056Y-95155719D01*
X183932045Y-95155714D01*
X183713993Y-95065394D01*
X183486014Y-95004307D01*
X183486013Y-95004306D01*
X183486010Y-95004306D01*
X183252020Y-94973501D01*
X183252017Y-94973500D01*
X183252011Y-94973500D01*
X183015989Y-94973500D01*
X183015983Y-94973500D01*
X183015979Y-94973501D01*
X182781989Y-95004306D01*
X182554006Y-95065394D01*
X182335954Y-95155714D01*
X182335943Y-95155719D01*
X182131545Y-95273730D01*
X181944302Y-95417406D01*
X181944295Y-95417412D01*
X181777412Y-95584295D01*
X181777406Y-95584302D01*
X181633730Y-95771545D01*
X181515719Y-95975943D01*
X181515714Y-95975954D01*
X181425394Y-96194006D01*
X181364306Y-96421989D01*
X181333501Y-96655979D01*
X181333500Y-96655995D01*
X173270500Y-96655995D01*
X173270500Y-92559223D01*
X174229500Y-92559223D01*
X174229500Y-92860776D01*
X174229501Y-92860793D01*
X174268861Y-93159766D01*
X174346913Y-93451060D01*
X174462314Y-93729661D01*
X174462318Y-93729671D01*
X174613099Y-93990831D01*
X174796679Y-94230078D01*
X174796685Y-94230085D01*
X175009914Y-94443314D01*
X175009921Y-94443320D01*
X175249168Y-94626900D01*
X175510328Y-94777681D01*
X175510329Y-94777681D01*
X175510332Y-94777683D01*
X175682357Y-94848938D01*
X175788939Y-94893086D01*
X175788940Y-94893086D01*
X175788942Y-94893087D01*
X176080232Y-94971138D01*
X176379217Y-95010500D01*
X176379224Y-95010500D01*
X176680776Y-95010500D01*
X176680783Y-95010500D01*
X176979768Y-94971138D01*
X177271058Y-94893087D01*
X177549668Y-94777683D01*
X177810832Y-94626900D01*
X178050080Y-94443319D01*
X178263319Y-94230080D01*
X178446900Y-93990832D01*
X178597683Y-93729668D01*
X178713087Y-93451058D01*
X178791138Y-93159768D01*
X178830500Y-92860783D01*
X178830500Y-92559217D01*
X178791138Y-92260232D01*
X178713087Y-91968942D01*
X178597683Y-91690332D01*
X178446900Y-91429168D01*
X178290001Y-91224693D01*
X178263320Y-91189921D01*
X178263314Y-91189914D01*
X178050085Y-90976685D01*
X178050078Y-90976679D01*
X177810831Y-90793099D01*
X177549671Y-90642318D01*
X177549661Y-90642314D01*
X177271060Y-90526913D01*
X176979766Y-90448861D01*
X176680793Y-90409501D01*
X176680788Y-90409500D01*
X176680783Y-90409500D01*
X176379217Y-90409500D01*
X176379211Y-90409500D01*
X176379206Y-90409501D01*
X176080233Y-90448861D01*
X175788939Y-90526913D01*
X175510338Y-90642314D01*
X175510328Y-90642318D01*
X175249168Y-90793099D01*
X175009921Y-90976679D01*
X175009914Y-90976685D01*
X174796685Y-91189914D01*
X174796679Y-91189921D01*
X174613099Y-91429168D01*
X174462318Y-91690328D01*
X174462314Y-91690338D01*
X174346913Y-91968939D01*
X174268861Y-92260233D01*
X174229501Y-92559206D01*
X174229500Y-92559223D01*
X173270500Y-92559223D01*
X173270500Y-74073513D01*
X178885500Y-74073513D01*
X178885500Y-86200486D01*
X178915059Y-86387118D01*
X178973454Y-86566836D01*
X179045375Y-86707987D01*
X179059240Y-86735199D01*
X179170310Y-86888074D01*
X180249244Y-87967008D01*
X181297181Y-89014944D01*
X181330666Y-89076267D01*
X181333500Y-89102625D01*
X181333500Y-89272004D01*
X181333501Y-89272020D01*
X181364306Y-89506010D01*
X181425394Y-89733993D01*
X181515714Y-89952045D01*
X181515719Y-89952056D01*
X181564877Y-90037199D01*
X181633727Y-90156450D01*
X181633729Y-90156453D01*
X181633730Y-90156454D01*
X181777406Y-90343697D01*
X181777412Y-90343704D01*
X181944295Y-90510587D01*
X181944301Y-90510592D01*
X182131550Y-90654273D01*
X182254053Y-90725000D01*
X182335943Y-90772280D01*
X182335948Y-90772282D01*
X182335951Y-90772284D01*
X182554007Y-90862606D01*
X182781986Y-90923693D01*
X183015989Y-90954500D01*
X183015996Y-90954500D01*
X183252004Y-90954500D01*
X183252011Y-90954500D01*
X183486014Y-90923693D01*
X183713993Y-90862606D01*
X183932049Y-90772284D01*
X184136450Y-90654273D01*
X184323699Y-90510592D01*
X184490592Y-90343699D01*
X184634273Y-90156450D01*
X184752284Y-89952049D01*
X184842606Y-89733993D01*
X184903693Y-89506014D01*
X184934500Y-89272011D01*
X184934500Y-89035989D01*
X184903693Y-88801986D01*
X184842606Y-88574007D01*
X184752284Y-88355951D01*
X184752282Y-88355948D01*
X184752280Y-88355943D01*
X184699947Y-88265301D01*
X184634273Y-88151550D01*
X184550092Y-88041843D01*
X184490593Y-87964302D01*
X184490587Y-87964295D01*
X184323704Y-87797412D01*
X184323697Y-87797406D01*
X184136454Y-87653730D01*
X184136453Y-87653729D01*
X184136450Y-87653727D01*
X184016622Y-87584544D01*
X183932056Y-87535719D01*
X183932045Y-87535714D01*
X183713993Y-87445394D01*
X183486010Y-87384306D01*
X183252020Y-87353501D01*
X183252017Y-87353500D01*
X183252011Y-87353500D01*
X183252004Y-87353500D01*
X183082625Y-87353500D01*
X183015586Y-87333815D01*
X182994944Y-87317181D01*
X181322819Y-85645055D01*
X181289334Y-85583732D01*
X181286500Y-85557374D01*
X181286500Y-74716625D01*
X181306185Y-74649586D01*
X181322819Y-74628944D01*
X185002944Y-70948819D01*
X185064267Y-70915334D01*
X185090625Y-70912500D01*
X186182524Y-70912500D01*
X186249563Y-70932185D01*
X186295318Y-70984989D01*
X186305262Y-71054147D01*
X186282842Y-71109385D01*
X186254615Y-71148236D01*
X186154567Y-71344589D01*
X186086473Y-71554164D01*
X186052000Y-71771818D01*
X186052000Y-71992181D01*
X186086473Y-72209835D01*
X186154567Y-72419410D01*
X186254611Y-72615756D01*
X186300932Y-72679513D01*
X187052000Y-71928445D01*
X187052000Y-71934661D01*
X187079259Y-72036394D01*
X187131920Y-72127606D01*
X187206394Y-72202080D01*
X187297606Y-72254741D01*
X187399339Y-72282000D01*
X187405552Y-72282000D01*
X186654485Y-73033065D01*
X186654485Y-73033067D01*
X186680105Y-73051681D01*
X186722771Y-73107010D01*
X186728750Y-73176624D01*
X186696145Y-73238419D01*
X186680105Y-73252317D01*
X186654485Y-73270930D01*
X186654485Y-73270932D01*
X187405553Y-74022000D01*
X187399339Y-74022000D01*
X187297606Y-74049259D01*
X187206394Y-74101920D01*
X187131920Y-74176394D01*
X187079259Y-74267606D01*
X187052000Y-74369339D01*
X187052000Y-74375553D01*
X186300932Y-73624485D01*
X186300931Y-73624485D01*
X186254616Y-73688233D01*
X186154567Y-73884589D01*
X186086473Y-74094164D01*
X186052000Y-74311818D01*
X186052000Y-74532181D01*
X186086473Y-74749835D01*
X186154567Y-74959410D01*
X186254611Y-75155756D01*
X186300932Y-75219513D01*
X187052000Y-74468445D01*
X187052000Y-74474661D01*
X187079259Y-74576394D01*
X187131920Y-74667606D01*
X187206394Y-74742080D01*
X187297606Y-74794741D01*
X187399339Y-74822000D01*
X187405552Y-74822000D01*
X186654485Y-75573065D01*
X186654485Y-75573067D01*
X186680105Y-75591681D01*
X186722771Y-75647010D01*
X186728750Y-75716624D01*
X186696145Y-75778419D01*
X186680105Y-75792317D01*
X186654485Y-75810930D01*
X186654485Y-75810932D01*
X187405553Y-76562000D01*
X187399339Y-76562000D01*
X187297606Y-76589259D01*
X187206394Y-76641920D01*
X187131920Y-76716394D01*
X187079259Y-76807606D01*
X187052000Y-76909339D01*
X187052000Y-76915553D01*
X186300932Y-76164485D01*
X186300931Y-76164485D01*
X186254616Y-76228233D01*
X186154567Y-76424589D01*
X186086473Y-76634164D01*
X186052000Y-76851818D01*
X186052000Y-77072181D01*
X186086473Y-77289835D01*
X186154567Y-77499410D01*
X186254611Y-77695756D01*
X186300932Y-77759513D01*
X187052000Y-77008445D01*
X187052000Y-77014661D01*
X187079259Y-77116394D01*
X187131920Y-77207606D01*
X187206394Y-77282080D01*
X187297606Y-77334741D01*
X187399339Y-77362000D01*
X187405552Y-77362000D01*
X186654485Y-78113065D01*
X186654485Y-78113067D01*
X186680105Y-78131681D01*
X186722771Y-78187010D01*
X186728750Y-78256624D01*
X186696145Y-78318419D01*
X186680105Y-78332317D01*
X186654485Y-78350930D01*
X186654485Y-78350932D01*
X187405554Y-79102000D01*
X187399339Y-79102000D01*
X187297606Y-79129259D01*
X187206394Y-79181920D01*
X187131920Y-79256394D01*
X187079259Y-79347606D01*
X187052000Y-79449339D01*
X187052000Y-79455553D01*
X186300932Y-78704485D01*
X186300931Y-78704485D01*
X186254616Y-78768233D01*
X186154567Y-78964589D01*
X186086473Y-79174164D01*
X186052000Y-79391818D01*
X186052000Y-79612181D01*
X186086473Y-79829835D01*
X186154567Y-80039410D01*
X186254611Y-80235756D01*
X186300932Y-80299513D01*
X187052000Y-79548445D01*
X187052000Y-79554661D01*
X187079259Y-79656394D01*
X187131920Y-79747606D01*
X187206394Y-79822080D01*
X187297606Y-79874741D01*
X187399339Y-79902000D01*
X187405553Y-79902000D01*
X186654485Y-80653065D01*
X186654485Y-80653066D01*
X186718243Y-80699388D01*
X186914589Y-80799432D01*
X187124164Y-80867526D01*
X187341819Y-80902000D01*
X187562181Y-80902000D01*
X187779835Y-80867526D01*
X187989410Y-80799432D01*
X188185760Y-80699386D01*
X188249513Y-80653066D01*
X188249514Y-80653066D01*
X187498447Y-79902000D01*
X187504661Y-79902000D01*
X187606394Y-79874741D01*
X187697606Y-79822080D01*
X187772080Y-79747606D01*
X187824741Y-79656394D01*
X187852000Y-79554661D01*
X187852000Y-79548446D01*
X188603066Y-80299514D01*
X188603066Y-80299513D01*
X188649386Y-80235760D01*
X188749432Y-80039410D01*
X188817527Y-79829834D01*
X188835141Y-79718623D01*
X188865070Y-79655488D01*
X188924381Y-79618556D01*
X188994244Y-79619554D01*
X189033099Y-79639643D01*
X189045217Y-79648941D01*
X189045226Y-79648948D01*
X189238274Y-79760405D01*
X189444219Y-79845710D01*
X189659537Y-79903404D01*
X189880543Y-79932500D01*
X189880550Y-79932500D01*
X190103450Y-79932500D01*
X190103457Y-79932500D01*
X190324463Y-79903404D01*
X190539781Y-79845710D01*
X190745726Y-79760405D01*
X190938774Y-79648948D01*
X191115624Y-79513247D01*
X191160051Y-79468820D01*
X191221374Y-79435334D01*
X191247733Y-79432500D01*
X195685408Y-79432500D01*
X195872040Y-79402940D01*
X196051754Y-79344547D01*
X196220121Y-79258760D01*
X196372996Y-79147690D01*
X197900819Y-77619865D01*
X197962142Y-77586381D01*
X198031834Y-77591365D01*
X198087767Y-77633237D01*
X198112184Y-77698701D01*
X198112500Y-77707547D01*
X198112500Y-80596969D01*
X198092815Y-80664008D01*
X198040011Y-80709763D01*
X197970853Y-80719707D01*
X197907297Y-80690682D01*
X197879326Y-80654940D01*
X197879305Y-80654953D01*
X197879192Y-80654769D01*
X197878016Y-80653266D01*
X197877914Y-80653065D01*
X197876760Y-80650801D01*
X197765690Y-80497927D01*
X197632073Y-80364310D01*
X197479199Y-80253240D01*
X197310836Y-80167454D01*
X197131118Y-80109059D01*
X196944486Y-80079500D01*
X196944481Y-80079500D01*
X196755519Y-80079500D01*
X196755514Y-80079500D01*
X196568881Y-80109059D01*
X196389163Y-80167454D01*
X196220800Y-80253240D01*
X196150077Y-80304624D01*
X196067927Y-80364310D01*
X196067925Y-80364312D01*
X196067924Y-80364312D01*
X196048681Y-80383556D01*
X195987358Y-80417041D01*
X195917666Y-80412057D01*
X195873319Y-80383556D01*
X195854075Y-80364312D01*
X195854073Y-80364310D01*
X195701199Y-80253240D01*
X195532836Y-80167454D01*
X195353118Y-80109059D01*
X195166486Y-80079500D01*
X195166481Y-80079500D01*
X194977519Y-80079500D01*
X194977514Y-80079500D01*
X194790881Y-80109059D01*
X194611163Y-80167454D01*
X194442800Y-80253240D01*
X194372077Y-80304624D01*
X194289927Y-80364310D01*
X194289925Y-80364312D01*
X194289924Y-80364312D01*
X194270681Y-80383556D01*
X194209358Y-80417041D01*
X194139666Y-80412057D01*
X194095319Y-80383556D01*
X194076075Y-80364312D01*
X194076073Y-80364310D01*
X193923199Y-80253240D01*
X193754836Y-80167454D01*
X193575118Y-80109059D01*
X193388486Y-80079500D01*
X193388481Y-80079500D01*
X193199519Y-80079500D01*
X193199514Y-80079500D01*
X193012881Y-80109059D01*
X192833163Y-80167454D01*
X192664800Y-80253240D01*
X192594077Y-80304624D01*
X192511927Y-80364310D01*
X192511925Y-80364312D01*
X192511924Y-80364312D01*
X192378312Y-80497924D01*
X192378312Y-80497925D01*
X192378310Y-80497927D01*
X192353686Y-80531819D01*
X192267240Y-80650800D01*
X192181454Y-80819163D01*
X192123059Y-80998881D01*
X192093500Y-81185513D01*
X192093500Y-82828689D01*
X192073815Y-82895728D01*
X192021011Y-82941483D01*
X191951853Y-82951427D01*
X191931181Y-82946620D01*
X191797118Y-82903059D01*
X191610486Y-82873500D01*
X191610481Y-82873500D01*
X189578482Y-82873500D01*
X189389519Y-82873500D01*
X189389514Y-82873500D01*
X189202881Y-82903059D01*
X189023163Y-82961454D01*
X188854800Y-83047240D01*
X188701923Y-83158312D01*
X188007055Y-83853181D01*
X187945732Y-83886666D01*
X187919374Y-83889500D01*
X184817514Y-83889500D01*
X184630881Y-83919059D01*
X184451163Y-83977454D01*
X184282800Y-84063240D01*
X184195579Y-84126610D01*
X184129927Y-84174310D01*
X184129925Y-84174312D01*
X184129924Y-84174312D01*
X183996312Y-84307924D01*
X183996312Y-84307925D01*
X183996310Y-84307927D01*
X183948610Y-84373579D01*
X183885240Y-84460800D01*
X183799454Y-84629163D01*
X183741059Y-84808881D01*
X183711500Y-84995513D01*
X183711500Y-85184486D01*
X183741059Y-85371118D01*
X183799454Y-85550836D01*
X183856799Y-85663381D01*
X183885240Y-85719199D01*
X183996310Y-85872073D01*
X184129927Y-86005690D01*
X184282801Y-86116760D01*
X184314523Y-86132923D01*
X184451163Y-86202545D01*
X184451165Y-86202545D01*
X184451168Y-86202547D01*
X184547497Y-86233846D01*
X184630881Y-86260940D01*
X184817514Y-86290500D01*
X184817519Y-86290500D01*
X188562486Y-86290500D01*
X188749118Y-86260940D01*
X188770963Y-86253842D01*
X188928832Y-86202547D01*
X189097199Y-86116760D01*
X189250074Y-86005690D01*
X189944945Y-85310819D01*
X190006268Y-85277334D01*
X190032626Y-85274500D01*
X191366374Y-85274500D01*
X191433413Y-85294185D01*
X191479168Y-85346989D01*
X191489112Y-85416147D01*
X191460087Y-85479703D01*
X191454055Y-85486181D01*
X187425308Y-89514927D01*
X187425304Y-89514931D01*
X187360231Y-89604499D01*
X187314242Y-89667797D01*
X187228454Y-89836163D01*
X187170059Y-90015881D01*
X187140500Y-90202513D01*
X187140500Y-95926266D01*
X187120815Y-95993305D01*
X187104181Y-96013947D01*
X187059757Y-96058370D01*
X187059751Y-96058377D01*
X186924058Y-96235217D01*
X186924052Y-96235226D01*
X186812595Y-96428273D01*
X186812593Y-96428277D01*
X186727293Y-96634209D01*
X186727290Y-96634219D01*
X186669597Y-96849534D01*
X186669594Y-96849547D01*
X186640501Y-97070533D01*
X186640500Y-97070549D01*
X186640500Y-97293450D01*
X186640501Y-97293466D01*
X186669594Y-97514452D01*
X186669595Y-97514457D01*
X186669596Y-97514463D01*
X186705868Y-97649832D01*
X186727290Y-97729780D01*
X186727293Y-97729790D01*
X186772867Y-97839815D01*
X186812595Y-97935726D01*
X186924052Y-98128774D01*
X186924054Y-98128776D01*
X186924058Y-98128782D01*
X187059751Y-98305622D01*
X187059757Y-98305629D01*
X187217370Y-98463242D01*
X187217377Y-98463248D01*
X187322216Y-98543693D01*
X187394226Y-98598948D01*
X187587274Y-98710405D01*
X187793219Y-98795710D01*
X187981447Y-98846145D01*
X188041107Y-98882510D01*
X188071636Y-98945357D01*
X188063914Y-99013373D01*
X187997293Y-99174209D01*
X187997290Y-99174219D01*
X187950389Y-99349259D01*
X187939597Y-99389534D01*
X187939594Y-99389547D01*
X187910501Y-99610533D01*
X187910500Y-99610549D01*
X187910500Y-99833450D01*
X187910501Y-99833466D01*
X187939594Y-100054452D01*
X187939595Y-100054457D01*
X187939596Y-100054463D01*
X187997290Y-100269780D01*
X187997293Y-100269790D01*
X188082593Y-100475722D01*
X188082595Y-100475726D01*
X188194052Y-100668774D01*
X188194057Y-100668780D01*
X188194058Y-100668782D01*
X188329751Y-100845622D01*
X188329756Y-100845628D01*
X188374180Y-100890051D01*
X188407666Y-100951374D01*
X188410500Y-100977733D01*
X188410500Y-102583486D01*
X188440059Y-102770118D01*
X188498454Y-102949836D01*
X188575104Y-103100269D01*
X188584240Y-103118199D01*
X188695310Y-103271074D01*
X190346310Y-104922073D01*
X190479927Y-105055690D01*
X190632801Y-105166760D01*
X190712347Y-105207290D01*
X190801163Y-105252545D01*
X190801165Y-105252545D01*
X190801168Y-105252547D01*
X190897497Y-105283846D01*
X190980881Y-105310940D01*
X191167514Y-105340500D01*
X191167519Y-105340500D01*
X200224642Y-105340500D01*
X200411274Y-105310940D01*
X200590988Y-105252547D01*
X200759355Y-105166760D01*
X200854002Y-105097995D01*
X206979500Y-105097995D01*
X206979500Y-105334004D01*
X206979501Y-105334020D01*
X207006102Y-105536080D01*
X207010307Y-105568014D01*
X207071394Y-105795992D01*
X207071394Y-105795993D01*
X207161714Y-106014045D01*
X207161719Y-106014056D01*
X207232677Y-106136957D01*
X207279727Y-106218450D01*
X207279729Y-106218453D01*
X207279730Y-106218454D01*
X207423406Y-106405697D01*
X207423412Y-106405704D01*
X207590295Y-106572587D01*
X207590301Y-106572592D01*
X207777550Y-106716273D01*
X207908918Y-106792118D01*
X207981943Y-106834280D01*
X207981948Y-106834282D01*
X207981951Y-106834284D01*
X208200007Y-106924606D01*
X208427986Y-106985693D01*
X208661989Y-107016500D01*
X208661996Y-107016500D01*
X208898004Y-107016500D01*
X208898011Y-107016500D01*
X209132014Y-106985693D01*
X209359993Y-106924606D01*
X209578049Y-106834284D01*
X209782450Y-106716273D01*
X209969699Y-106572592D01*
X210136592Y-106405699D01*
X210280273Y-106218450D01*
X210398284Y-106014049D01*
X210488606Y-105795993D01*
X210517398Y-105688537D01*
X210549490Y-105632953D01*
X210920000Y-105262443D01*
X210920000Y-105268661D01*
X210947259Y-105370394D01*
X210999920Y-105461606D01*
X211074394Y-105536080D01*
X211165606Y-105588741D01*
X211267339Y-105616000D01*
X211273554Y-105616000D01*
X210450893Y-106438658D01*
X210533828Y-106498914D01*
X210744197Y-106606102D01*
X210968752Y-106679065D01*
X210968751Y-106679065D01*
X211201948Y-106716000D01*
X211438052Y-106716000D01*
X211671247Y-106679065D01*
X211895802Y-106606102D01*
X212106163Y-106498918D01*
X212106169Y-106498914D01*
X212189104Y-106438658D01*
X212189105Y-106438658D01*
X211366446Y-105616000D01*
X211372661Y-105616000D01*
X211474394Y-105588741D01*
X211565606Y-105536080D01*
X211640080Y-105461606D01*
X211692741Y-105370394D01*
X211720000Y-105268661D01*
X211720000Y-105262446D01*
X212090508Y-105632954D01*
X212122602Y-105688541D01*
X212151394Y-105795993D01*
X212241714Y-106014045D01*
X212241719Y-106014056D01*
X212312677Y-106136957D01*
X212359727Y-106218450D01*
X212359729Y-106218453D01*
X212359730Y-106218454D01*
X212503406Y-106405697D01*
X212503412Y-106405704D01*
X212670295Y-106572587D01*
X212670301Y-106572592D01*
X212857550Y-106716273D01*
X212988918Y-106792118D01*
X213061943Y-106834280D01*
X213061948Y-106834282D01*
X213061951Y-106834284D01*
X213280007Y-106924606D01*
X213507986Y-106985693D01*
X213741989Y-107016500D01*
X213741996Y-107016500D01*
X213978004Y-107016500D01*
X213978011Y-107016500D01*
X214212014Y-106985693D01*
X214439993Y-106924606D01*
X214658049Y-106834284D01*
X214862450Y-106716273D01*
X215049698Y-106572593D01*
X215052920Y-106570121D01*
X215053814Y-106571286D01*
X215111619Y-106544469D01*
X215180835Y-106553998D01*
X215206697Y-106570619D01*
X215207080Y-106570121D01*
X215354325Y-106683105D01*
X215397550Y-106716273D01*
X215528918Y-106792118D01*
X215601943Y-106834280D01*
X215601948Y-106834282D01*
X215601951Y-106834284D01*
X215820007Y-106924606D01*
X216047986Y-106985693D01*
X216281989Y-107016500D01*
X216281996Y-107016500D01*
X216518004Y-107016500D01*
X216518011Y-107016500D01*
X216752014Y-106985693D01*
X216979993Y-106924606D01*
X217198049Y-106834284D01*
X217402450Y-106716273D01*
X217589698Y-106572593D01*
X217592920Y-106570121D01*
X217593814Y-106571286D01*
X217651619Y-106544469D01*
X217720835Y-106553998D01*
X217746697Y-106570619D01*
X217747080Y-106570121D01*
X217894325Y-106683105D01*
X217937550Y-106716273D01*
X218068918Y-106792118D01*
X218141943Y-106834280D01*
X218141948Y-106834282D01*
X218141951Y-106834284D01*
X218360007Y-106924606D01*
X218587986Y-106985693D01*
X218821989Y-107016500D01*
X218821996Y-107016500D01*
X219058004Y-107016500D01*
X219058011Y-107016500D01*
X219292014Y-106985693D01*
X219519993Y-106924606D01*
X219738049Y-106834284D01*
X219942450Y-106716273D01*
X220129698Y-106572593D01*
X220132920Y-106570121D01*
X220133814Y-106571286D01*
X220191619Y-106544469D01*
X220260835Y-106553998D01*
X220286697Y-106570619D01*
X220287080Y-106570121D01*
X220434325Y-106683105D01*
X220477550Y-106716273D01*
X220608918Y-106792118D01*
X220681943Y-106834280D01*
X220681948Y-106834282D01*
X220681951Y-106834284D01*
X220900007Y-106924606D01*
X221127986Y-106985693D01*
X221361989Y-107016500D01*
X221361996Y-107016500D01*
X221598004Y-107016500D01*
X221598011Y-107016500D01*
X221832014Y-106985693D01*
X222059993Y-106924606D01*
X222278049Y-106834284D01*
X222482450Y-106716273D01*
X222669698Y-106572593D01*
X222672920Y-106570121D01*
X222673814Y-106571286D01*
X222731619Y-106544469D01*
X222800835Y-106553998D01*
X222826697Y-106570619D01*
X222827080Y-106570121D01*
X222974325Y-106683105D01*
X223017550Y-106716273D01*
X223148918Y-106792118D01*
X223221943Y-106834280D01*
X223221948Y-106834282D01*
X223221951Y-106834284D01*
X223440007Y-106924606D01*
X223667986Y-106985693D01*
X223901989Y-107016500D01*
X223901996Y-107016500D01*
X224138004Y-107016500D01*
X224138011Y-107016500D01*
X224372014Y-106985693D01*
X224599993Y-106924606D01*
X224818049Y-106834284D01*
X225022450Y-106716273D01*
X225209698Y-106572593D01*
X225212920Y-106570121D01*
X225213814Y-106571286D01*
X225271619Y-106544469D01*
X225340835Y-106553998D01*
X225366697Y-106570619D01*
X225367080Y-106570121D01*
X225514325Y-106683105D01*
X225557550Y-106716273D01*
X225688918Y-106792118D01*
X225761943Y-106834280D01*
X225761948Y-106834282D01*
X225761951Y-106834284D01*
X225980007Y-106924606D01*
X226207986Y-106985693D01*
X226441989Y-107016500D01*
X226441996Y-107016500D01*
X226678004Y-107016500D01*
X226678011Y-107016500D01*
X226912014Y-106985693D01*
X227139993Y-106924606D01*
X227358049Y-106834284D01*
X227562450Y-106716273D01*
X227749698Y-106572593D01*
X227752920Y-106570121D01*
X227753814Y-106571286D01*
X227811619Y-106544469D01*
X227880835Y-106553998D01*
X227906697Y-106570619D01*
X227907080Y-106570121D01*
X228054325Y-106683105D01*
X228097550Y-106716273D01*
X228228918Y-106792118D01*
X228301943Y-106834280D01*
X228301948Y-106834282D01*
X228301951Y-106834284D01*
X228520007Y-106924606D01*
X228747986Y-106985693D01*
X228981989Y-107016500D01*
X228981996Y-107016500D01*
X229218004Y-107016500D01*
X229218011Y-107016500D01*
X229452014Y-106985693D01*
X229679993Y-106924606D01*
X229898049Y-106834284D01*
X230102450Y-106716273D01*
X230289698Y-106572593D01*
X230292920Y-106570121D01*
X230293814Y-106571286D01*
X230351619Y-106544469D01*
X230420835Y-106553998D01*
X230446697Y-106570619D01*
X230447080Y-106570121D01*
X230594325Y-106683105D01*
X230637550Y-106716273D01*
X230768918Y-106792118D01*
X230841943Y-106834280D01*
X230841948Y-106834282D01*
X230841951Y-106834284D01*
X231060007Y-106924606D01*
X231287986Y-106985693D01*
X231521989Y-107016500D01*
X231521996Y-107016500D01*
X231758004Y-107016500D01*
X231758011Y-107016500D01*
X231992014Y-106985693D01*
X232219993Y-106924606D01*
X232438049Y-106834284D01*
X232642450Y-106716273D01*
X232829699Y-106572592D01*
X232996592Y-106405699D01*
X233140273Y-106218450D01*
X233258284Y-106014049D01*
X233348606Y-105795993D01*
X233409693Y-105568014D01*
X233440500Y-105334011D01*
X233440500Y-105097989D01*
X233409693Y-104863986D01*
X233348606Y-104636007D01*
X233258284Y-104417951D01*
X233258282Y-104417948D01*
X233258280Y-104417943D01*
X233216118Y-104344918D01*
X233140273Y-104213550D01*
X232996592Y-104026301D01*
X232996587Y-104026295D01*
X232829704Y-103859412D01*
X232829697Y-103859406D01*
X232642454Y-103715730D01*
X232642453Y-103715729D01*
X232642450Y-103715727D01*
X232560957Y-103668677D01*
X232438056Y-103597719D01*
X232438045Y-103597714D01*
X232219993Y-103507394D01*
X231992010Y-103446306D01*
X231758020Y-103415501D01*
X231758017Y-103415500D01*
X231758011Y-103415500D01*
X231521989Y-103415500D01*
X231521983Y-103415500D01*
X231521979Y-103415501D01*
X231287989Y-103446306D01*
X231060006Y-103507394D01*
X230841954Y-103597714D01*
X230841943Y-103597719D01*
X230637545Y-103715730D01*
X230447080Y-103861879D01*
X230446191Y-103860720D01*
X230388338Y-103887537D01*
X230319124Y-103877983D01*
X230293298Y-103861385D01*
X230292920Y-103861879D01*
X230102454Y-103715730D01*
X230102453Y-103715729D01*
X230102450Y-103715727D01*
X230020957Y-103668677D01*
X229898056Y-103597719D01*
X229898045Y-103597714D01*
X229679993Y-103507394D01*
X229452010Y-103446306D01*
X229218020Y-103415501D01*
X229218017Y-103415500D01*
X229218011Y-103415500D01*
X228981989Y-103415500D01*
X228981983Y-103415500D01*
X228981979Y-103415501D01*
X228747989Y-103446306D01*
X228520006Y-103507394D01*
X228301954Y-103597714D01*
X228301943Y-103597719D01*
X228097545Y-103715730D01*
X227907080Y-103861879D01*
X227906191Y-103860720D01*
X227848338Y-103887537D01*
X227779124Y-103877983D01*
X227753298Y-103861385D01*
X227752920Y-103861879D01*
X227562454Y-103715730D01*
X227562453Y-103715729D01*
X227562450Y-103715727D01*
X227480957Y-103668677D01*
X227358056Y-103597719D01*
X227358045Y-103597714D01*
X227139993Y-103507394D01*
X226912010Y-103446306D01*
X226678020Y-103415501D01*
X226678017Y-103415500D01*
X226678011Y-103415500D01*
X226441989Y-103415500D01*
X226441983Y-103415500D01*
X226441979Y-103415501D01*
X226207989Y-103446306D01*
X225980006Y-103507394D01*
X225761954Y-103597714D01*
X225761943Y-103597719D01*
X225557545Y-103715730D01*
X225367080Y-103861879D01*
X225366191Y-103860720D01*
X225308338Y-103887537D01*
X225239124Y-103877983D01*
X225213298Y-103861385D01*
X225212920Y-103861879D01*
X225022454Y-103715730D01*
X225022453Y-103715729D01*
X225022450Y-103715727D01*
X224940957Y-103668677D01*
X224818056Y-103597719D01*
X224818045Y-103597714D01*
X224599993Y-103507394D01*
X224372010Y-103446306D01*
X224138020Y-103415501D01*
X224138017Y-103415500D01*
X224138011Y-103415500D01*
X223901989Y-103415500D01*
X223901983Y-103415500D01*
X223901979Y-103415501D01*
X223667989Y-103446306D01*
X223440006Y-103507394D01*
X223221954Y-103597714D01*
X223221943Y-103597719D01*
X223017545Y-103715730D01*
X222827080Y-103861879D01*
X222826191Y-103860720D01*
X222768338Y-103887537D01*
X222699124Y-103877983D01*
X222673298Y-103861385D01*
X222672920Y-103861879D01*
X222482454Y-103715730D01*
X222482453Y-103715729D01*
X222482450Y-103715727D01*
X222400957Y-103668677D01*
X222278056Y-103597719D01*
X222278045Y-103597714D01*
X222059993Y-103507394D01*
X221832010Y-103446306D01*
X221598020Y-103415501D01*
X221598017Y-103415500D01*
X221598011Y-103415500D01*
X221361989Y-103415500D01*
X221361983Y-103415500D01*
X221361979Y-103415501D01*
X221127989Y-103446306D01*
X220900006Y-103507394D01*
X220681954Y-103597714D01*
X220681943Y-103597719D01*
X220477545Y-103715730D01*
X220287080Y-103861879D01*
X220286191Y-103860720D01*
X220228338Y-103887537D01*
X220159124Y-103877983D01*
X220133298Y-103861385D01*
X220132920Y-103861879D01*
X219942454Y-103715730D01*
X219942453Y-103715729D01*
X219942450Y-103715727D01*
X219860957Y-103668677D01*
X219738056Y-103597719D01*
X219738045Y-103597714D01*
X219519993Y-103507394D01*
X219292010Y-103446306D01*
X219058020Y-103415501D01*
X219058017Y-103415500D01*
X219058011Y-103415500D01*
X218821989Y-103415500D01*
X218821983Y-103415500D01*
X218821979Y-103415501D01*
X218587989Y-103446306D01*
X218360006Y-103507394D01*
X218141954Y-103597714D01*
X218141943Y-103597719D01*
X217937545Y-103715730D01*
X217747080Y-103861879D01*
X217746191Y-103860720D01*
X217688338Y-103887537D01*
X217619124Y-103877983D01*
X217593298Y-103861385D01*
X217592920Y-103861879D01*
X217402454Y-103715730D01*
X217402453Y-103715729D01*
X217402450Y-103715727D01*
X217320957Y-103668677D01*
X217198056Y-103597719D01*
X217198045Y-103597714D01*
X216979993Y-103507394D01*
X216752010Y-103446306D01*
X216518020Y-103415501D01*
X216518017Y-103415500D01*
X216518011Y-103415500D01*
X216281989Y-103415500D01*
X216281983Y-103415500D01*
X216281979Y-103415501D01*
X216047989Y-103446306D01*
X215820006Y-103507394D01*
X215601954Y-103597714D01*
X215601943Y-103597719D01*
X215397545Y-103715730D01*
X215207080Y-103861879D01*
X215206191Y-103860720D01*
X215148338Y-103887537D01*
X215079124Y-103877983D01*
X215053298Y-103861385D01*
X215052920Y-103861879D01*
X214862454Y-103715730D01*
X214862453Y-103715729D01*
X214862450Y-103715727D01*
X214780957Y-103668677D01*
X214658056Y-103597719D01*
X214658045Y-103597714D01*
X214439993Y-103507394D01*
X214212010Y-103446306D01*
X213978020Y-103415501D01*
X213978017Y-103415500D01*
X213978011Y-103415500D01*
X213741989Y-103415500D01*
X213741983Y-103415500D01*
X213741979Y-103415501D01*
X213507989Y-103446306D01*
X213280006Y-103507394D01*
X213061954Y-103597714D01*
X213061943Y-103597719D01*
X212857545Y-103715730D01*
X212670302Y-103859406D01*
X212670295Y-103859412D01*
X212503412Y-104026295D01*
X212503406Y-104026302D01*
X212359730Y-104213545D01*
X212241719Y-104417943D01*
X212241714Y-104417954D01*
X212151392Y-104636010D01*
X212151392Y-104636012D01*
X212122601Y-104743458D01*
X212090508Y-104799044D01*
X211720000Y-105169552D01*
X211720000Y-105163339D01*
X211692741Y-105061606D01*
X211640080Y-104970394D01*
X211565606Y-104895920D01*
X211474394Y-104843259D01*
X211372661Y-104816000D01*
X211366447Y-104816000D01*
X212189105Y-103993340D01*
X212189104Y-103993338D01*
X212106174Y-103933087D01*
X211895802Y-103825897D01*
X211671247Y-103752934D01*
X211671248Y-103752934D01*
X211438052Y-103716000D01*
X211201948Y-103716000D01*
X210968752Y-103752934D01*
X210744197Y-103825897D01*
X210533830Y-103933084D01*
X210450894Y-103993340D01*
X211273554Y-104816000D01*
X211267339Y-104816000D01*
X211165606Y-104843259D01*
X211074394Y-104895920D01*
X210999920Y-104970394D01*
X210947259Y-105061606D01*
X210920000Y-105163339D01*
X210920000Y-105169554D01*
X210549490Y-104799044D01*
X210517397Y-104743459D01*
X210488606Y-104636007D01*
X210484135Y-104625214D01*
X210398285Y-104417954D01*
X210398280Y-104417943D01*
X210356118Y-104344918D01*
X210280273Y-104213550D01*
X210136592Y-104026301D01*
X210136587Y-104026295D01*
X209969704Y-103859412D01*
X209969697Y-103859406D01*
X209782454Y-103715730D01*
X209782453Y-103715729D01*
X209782450Y-103715727D01*
X209700957Y-103668677D01*
X209578056Y-103597719D01*
X209578045Y-103597714D01*
X209359993Y-103507394D01*
X209132010Y-103446306D01*
X208898020Y-103415501D01*
X208898017Y-103415500D01*
X208898011Y-103415500D01*
X208661989Y-103415500D01*
X208661983Y-103415500D01*
X208661979Y-103415501D01*
X208427989Y-103446306D01*
X208200006Y-103507394D01*
X207981954Y-103597714D01*
X207981943Y-103597719D01*
X207777545Y-103715730D01*
X207590302Y-103859406D01*
X207590295Y-103859412D01*
X207423412Y-104026295D01*
X207423406Y-104026302D01*
X207279730Y-104213545D01*
X207161719Y-104417943D01*
X207161714Y-104417954D01*
X207071394Y-104636006D01*
X207010306Y-104863989D01*
X206979501Y-105097979D01*
X206979500Y-105097995D01*
X200854002Y-105097995D01*
X200912230Y-105055690D01*
X202922690Y-103045230D01*
X203033760Y-102892355D01*
X203119547Y-102723988D01*
X203177940Y-102544274D01*
X203191077Y-102461324D01*
X203207500Y-102357643D01*
X203207500Y-97762626D01*
X203227185Y-97695587D01*
X203279989Y-97649832D01*
X203349147Y-97639888D01*
X203412703Y-97668913D01*
X203419181Y-97674945D01*
X205513888Y-99769652D01*
X205547373Y-99830975D01*
X205542389Y-99900667D01*
X205500517Y-99956600D01*
X205473664Y-99971892D01*
X205449961Y-99981710D01*
X205449943Y-99981719D01*
X205245545Y-100099730D01*
X205058302Y-100243406D01*
X205058295Y-100243412D01*
X204891412Y-100410295D01*
X204891406Y-100410302D01*
X204747730Y-100597545D01*
X204629719Y-100801943D01*
X204629714Y-100801954D01*
X204539394Y-101020006D01*
X204478306Y-101247989D01*
X204447501Y-101481979D01*
X204447500Y-101481995D01*
X204447500Y-101718004D01*
X204447501Y-101718020D01*
X204478306Y-101952010D01*
X204539394Y-102179993D01*
X204629714Y-102398045D01*
X204629719Y-102398056D01*
X204697634Y-102515687D01*
X204747727Y-102602450D01*
X204747729Y-102602453D01*
X204747730Y-102602454D01*
X204891406Y-102789697D01*
X204891412Y-102789704D01*
X205058295Y-102956587D01*
X205058302Y-102956593D01*
X205168306Y-103041001D01*
X205245550Y-103100273D01*
X205376918Y-103176118D01*
X205449943Y-103218280D01*
X205449948Y-103218282D01*
X205449951Y-103218284D01*
X205668007Y-103308606D01*
X205895986Y-103369693D01*
X206129989Y-103400500D01*
X206129996Y-103400500D01*
X206366004Y-103400500D01*
X206366011Y-103400500D01*
X206600014Y-103369693D01*
X206827993Y-103308606D01*
X207046049Y-103218284D01*
X207250450Y-103100273D01*
X207437699Y-102956592D01*
X207557473Y-102836817D01*
X207618794Y-102803334D01*
X207645153Y-102800500D01*
X220058486Y-102800500D01*
X220245118Y-102770940D01*
X220247648Y-102770118D01*
X220424832Y-102712547D01*
X220593199Y-102626760D01*
X220746073Y-102515690D01*
X220879690Y-102382073D01*
X220990760Y-102229199D01*
X221076547Y-102060832D01*
X221134940Y-101881118D01*
X221155055Y-101754118D01*
X221164500Y-101694486D01*
X221164500Y-101505513D01*
X221134940Y-101318881D01*
X221080162Y-101150294D01*
X221076547Y-101139168D01*
X221076545Y-101139165D01*
X221076545Y-101139163D01*
X221024745Y-101037500D01*
X220990760Y-100970801D01*
X220879690Y-100817927D01*
X220746073Y-100684310D01*
X220593199Y-100573240D01*
X220439615Y-100494985D01*
X220388819Y-100447010D01*
X220372024Y-100379189D01*
X220394561Y-100313054D01*
X220449277Y-100269603D01*
X220495910Y-100260500D01*
X232482642Y-100260500D01*
X232669274Y-100230940D01*
X232848988Y-100172547D01*
X233017355Y-100086760D01*
X233170230Y-99975690D01*
X234727101Y-98418819D01*
X234788424Y-98385334D01*
X234814782Y-98382500D01*
X239155267Y-98382500D01*
X239222306Y-98402185D01*
X239242949Y-98418820D01*
X239287371Y-98463243D01*
X239287377Y-98463248D01*
X239392216Y-98543693D01*
X239464226Y-98598948D01*
X239657274Y-98710405D01*
X239863219Y-98795710D01*
X240078537Y-98853404D01*
X240299543Y-98882500D01*
X240299550Y-98882500D01*
X240335140Y-98882500D01*
X240402179Y-98902185D01*
X240447934Y-98954989D01*
X240457878Y-99024147D01*
X240445625Y-99062795D01*
X240383567Y-99184589D01*
X240315473Y-99394164D01*
X240281000Y-99611818D01*
X240281000Y-99832181D01*
X240315473Y-100049835D01*
X240383567Y-100259410D01*
X240483611Y-100455756D01*
X240529932Y-100519513D01*
X241281000Y-99768445D01*
X241281000Y-99774661D01*
X241308259Y-99876394D01*
X241360920Y-99967606D01*
X241435394Y-100042080D01*
X241526606Y-100094741D01*
X241628339Y-100122000D01*
X241634553Y-100122000D01*
X240883485Y-100873065D01*
X240883485Y-100873066D01*
X240947243Y-100919388D01*
X241143589Y-101019432D01*
X241353164Y-101087526D01*
X241570819Y-101122000D01*
X241791181Y-101122000D01*
X242008835Y-101087526D01*
X242218410Y-101019432D01*
X242414760Y-100919386D01*
X242478513Y-100873066D01*
X242478514Y-100873066D01*
X241727447Y-100122000D01*
X241733661Y-100122000D01*
X241835394Y-100094741D01*
X241926606Y-100042080D01*
X242001080Y-99967606D01*
X242053741Y-99876394D01*
X242081000Y-99774661D01*
X242081000Y-99768447D01*
X242832065Y-100519513D01*
X242850680Y-100493893D01*
X242906010Y-100451227D01*
X242975623Y-100445248D01*
X243037419Y-100477853D01*
X243051317Y-100493893D01*
X243069931Y-100519513D01*
X243069932Y-100519513D01*
X243821000Y-99768445D01*
X243821000Y-99774661D01*
X243848259Y-99876394D01*
X243900920Y-99967606D01*
X243975394Y-100042080D01*
X244066606Y-100094741D01*
X244168339Y-100122000D01*
X244174553Y-100122000D01*
X243423485Y-100873065D01*
X243423485Y-100873066D01*
X243487243Y-100919388D01*
X243683589Y-101019432D01*
X243893164Y-101087526D01*
X244110819Y-101122000D01*
X244331181Y-101122000D01*
X244548835Y-101087526D01*
X244758410Y-101019432D01*
X244954760Y-100919386D01*
X245018513Y-100873066D01*
X245018514Y-100873066D01*
X244267447Y-100122000D01*
X244273661Y-100122000D01*
X244375394Y-100094741D01*
X244466606Y-100042080D01*
X244541080Y-99967606D01*
X244593741Y-99876394D01*
X244621000Y-99774661D01*
X244621000Y-99768447D01*
X245372065Y-100519513D01*
X245390680Y-100493893D01*
X245446010Y-100451227D01*
X245515623Y-100445248D01*
X245577419Y-100477853D01*
X245591317Y-100493893D01*
X245609931Y-100519513D01*
X245609932Y-100519513D01*
X246361000Y-99768445D01*
X246361000Y-99774661D01*
X246388259Y-99876394D01*
X246440920Y-99967606D01*
X246515394Y-100042080D01*
X246606606Y-100094741D01*
X246708339Y-100122000D01*
X246714553Y-100122000D01*
X245963485Y-100873065D01*
X245963485Y-100873066D01*
X246027243Y-100919388D01*
X246223589Y-101019432D01*
X246433164Y-101087526D01*
X246650819Y-101122000D01*
X246871181Y-101122000D01*
X247088835Y-101087526D01*
X247298410Y-101019432D01*
X247494760Y-100919386D01*
X247558513Y-100873066D01*
X247558514Y-100873066D01*
X246807447Y-100122000D01*
X246813661Y-100122000D01*
X246915394Y-100094741D01*
X247006606Y-100042080D01*
X247081080Y-99967606D01*
X247133741Y-99876394D01*
X247161000Y-99774661D01*
X247161000Y-99768447D01*
X247912065Y-100519513D01*
X247930680Y-100493893D01*
X247986010Y-100451227D01*
X248055623Y-100445248D01*
X248117419Y-100477853D01*
X248131317Y-100493893D01*
X248149931Y-100519513D01*
X248149932Y-100519513D01*
X248901000Y-99768445D01*
X248901000Y-99774661D01*
X248928259Y-99876394D01*
X248980920Y-99967606D01*
X249055394Y-100042080D01*
X249146606Y-100094741D01*
X249248339Y-100122000D01*
X249254553Y-100122000D01*
X248503485Y-100873065D01*
X248503485Y-100873066D01*
X248567243Y-100919388D01*
X248763589Y-101019432D01*
X248973164Y-101087526D01*
X249190819Y-101122000D01*
X249411181Y-101122000D01*
X249628835Y-101087526D01*
X249838410Y-101019432D01*
X250034760Y-100919386D01*
X250098513Y-100873066D01*
X250098514Y-100873066D01*
X249347447Y-100122000D01*
X249353661Y-100122000D01*
X249455394Y-100094741D01*
X249546606Y-100042080D01*
X249621080Y-99967606D01*
X249673741Y-99876394D01*
X249701000Y-99774661D01*
X249701000Y-99768447D01*
X250452066Y-100519514D01*
X250452066Y-100519513D01*
X250498386Y-100455760D01*
X250598432Y-100259410D01*
X250666526Y-100049835D01*
X250701000Y-99832181D01*
X250701000Y-99611818D01*
X250666526Y-99394164D01*
X250598432Y-99184589D01*
X250498388Y-98988243D01*
X250452066Y-98924485D01*
X250452065Y-98924485D01*
X249701000Y-99675551D01*
X249701000Y-99669339D01*
X249673741Y-99567606D01*
X249621080Y-99476394D01*
X249546606Y-99401920D01*
X249455394Y-99349259D01*
X249353661Y-99322000D01*
X249347446Y-99322000D01*
X250098513Y-98570932D01*
X250034756Y-98524611D01*
X249838410Y-98424567D01*
X249628834Y-98356472D01*
X249517622Y-98338858D01*
X249454487Y-98308928D01*
X249417556Y-98249617D01*
X249418554Y-98179754D01*
X249438643Y-98140899D01*
X249447948Y-98128774D01*
X249559405Y-97935726D01*
X249644710Y-97729781D01*
X249702404Y-97514463D01*
X249731500Y-97293457D01*
X249731500Y-97070543D01*
X249702404Y-96849537D01*
X249644710Y-96634219D01*
X249559405Y-96428274D01*
X249447948Y-96235226D01*
X249312247Y-96058376D01*
X249312242Y-96058370D01*
X249267819Y-96013947D01*
X249253994Y-95988629D01*
X249237654Y-95964846D01*
X249236269Y-95956169D01*
X249234334Y-95952624D01*
X249231559Y-95930082D01*
X249231500Y-95928165D01*
X249231500Y-95790519D01*
X249227466Y-95765052D01*
X249201940Y-95603882D01*
X249143547Y-95424168D01*
X249143545Y-95424165D01*
X249143545Y-95424163D01*
X249097118Y-95333045D01*
X249057760Y-95255801D01*
X248946690Y-95102926D01*
X243352074Y-89508310D01*
X243199199Y-89397240D01*
X243030836Y-89311454D01*
X242851118Y-89253059D01*
X242664486Y-89223500D01*
X242664481Y-89223500D01*
X238292626Y-89223500D01*
X238225587Y-89203815D01*
X238204945Y-89187181D01*
X236948819Y-87931055D01*
X236915334Y-87869732D01*
X236912500Y-87843374D01*
X236912500Y-79683357D01*
X236882940Y-79496725D01*
X236848094Y-79389481D01*
X236824547Y-79317012D01*
X236824545Y-79317009D01*
X236824545Y-79317007D01*
X236765191Y-79200519D01*
X236738760Y-79148645D01*
X236735986Y-79144827D01*
X236698377Y-79093061D01*
X236698374Y-79093058D01*
X236640988Y-79014073D01*
X236627693Y-78995773D01*
X233471232Y-75839312D01*
X233471230Y-75839310D01*
X233318355Y-75728240D01*
X233149992Y-75642454D01*
X232970274Y-75584059D01*
X232783642Y-75554500D01*
X232783637Y-75554500D01*
X232303432Y-75554500D01*
X232265115Y-75548431D01*
X232230119Y-75537060D01*
X232230114Y-75537059D01*
X232043486Y-75507500D01*
X232043481Y-75507500D01*
X231854518Y-75507500D01*
X231854513Y-75507500D01*
X231667885Y-75537059D01*
X231488165Y-75595454D01*
X231319800Y-75681240D01*
X231166923Y-75792312D01*
X230986312Y-75972923D01*
X230875240Y-76125800D01*
X230789454Y-76294163D01*
X230731059Y-76473881D01*
X230701500Y-76660513D01*
X230701500Y-76849486D01*
X230731059Y-77036118D01*
X230789454Y-77215836D01*
X230827159Y-77289835D01*
X230875240Y-77384199D01*
X230986310Y-77537074D01*
X231119926Y-77670690D01*
X231158480Y-77698701D01*
X231239341Y-77757450D01*
X231239342Y-77757451D01*
X231272796Y-77781757D01*
X231272798Y-77781758D01*
X231272801Y-77781760D01*
X231348962Y-77820565D01*
X231441163Y-77867545D01*
X231441165Y-77867545D01*
X231441168Y-77867547D01*
X231530734Y-77896649D01*
X231562803Y-77907069D01*
X231620478Y-77946507D01*
X231647676Y-78010866D01*
X231635761Y-78079712D01*
X231588516Y-78131188D01*
X231562803Y-78142931D01*
X231441163Y-78182454D01*
X231272800Y-78268240D01*
X231239348Y-78292545D01*
X231119927Y-78379310D01*
X231119925Y-78379312D01*
X231119924Y-78379312D01*
X230986312Y-78512924D01*
X230986312Y-78512925D01*
X230986310Y-78512927D01*
X230948867Y-78564463D01*
X230875240Y-78665800D01*
X230789454Y-78834163D01*
X230731059Y-79013881D01*
X230701500Y-79200513D01*
X230701500Y-79389486D01*
X230731059Y-79576118D01*
X230789454Y-79755836D01*
X230850040Y-79874741D01*
X230875240Y-79924199D01*
X230986310Y-80077073D01*
X231119927Y-80210690D01*
X231272801Y-80321760D01*
X231352347Y-80362290D01*
X231441163Y-80407545D01*
X231441165Y-80407545D01*
X231441168Y-80407547D01*
X231537497Y-80438846D01*
X231620881Y-80465940D01*
X231807514Y-80495500D01*
X231807519Y-80495500D01*
X232416374Y-80495500D01*
X232483413Y-80515185D01*
X232504055Y-80531819D01*
X232697181Y-80724944D01*
X232730666Y-80786267D01*
X232733500Y-80812625D01*
X232733500Y-89502486D01*
X232763059Y-89689118D01*
X232821454Y-89868836D01*
X232883033Y-89989690D01*
X232907240Y-90037199D01*
X233018310Y-90190074D01*
X233018311Y-90190075D01*
X233018312Y-90190076D01*
X235812310Y-92984073D01*
X235904056Y-93075819D01*
X235937541Y-93137142D01*
X235932557Y-93206834D01*
X235890685Y-93262767D01*
X235825221Y-93287184D01*
X235816375Y-93287500D01*
X234601514Y-93287500D01*
X234414885Y-93317059D01*
X234414884Y-93317059D01*
X234270232Y-93364060D01*
X234261136Y-93367015D01*
X234235168Y-93375452D01*
X234066795Y-93461242D01*
X233913932Y-93572306D01*
X233913923Y-93572313D01*
X231264055Y-96222181D01*
X231202732Y-96255666D01*
X231176374Y-96258500D01*
X228197773Y-96258500D01*
X228130734Y-96238815D01*
X228084979Y-96186011D01*
X228075035Y-96116853D01*
X228104060Y-96053297D01*
X228122287Y-96036124D01*
X228231106Y-95952624D01*
X228310645Y-95891592D01*
X228477538Y-95724699D01*
X228621219Y-95537450D01*
X228739230Y-95333049D01*
X228829552Y-95114993D01*
X228890639Y-94887014D01*
X228921446Y-94653011D01*
X228921446Y-94416989D01*
X228890639Y-94182986D01*
X228829552Y-93955007D01*
X228739230Y-93736951D01*
X228739228Y-93736948D01*
X228739226Y-93736943D01*
X228648614Y-93580000D01*
X228621219Y-93532550D01*
X228558688Y-93451058D01*
X228475067Y-93342080D01*
X228476232Y-93341185D01*
X228449415Y-93283381D01*
X228458944Y-93214165D01*
X228475565Y-93188302D01*
X228475067Y-93187920D01*
X228534171Y-93110893D01*
X228621219Y-92997450D01*
X228739230Y-92793049D01*
X228829552Y-92574993D01*
X228890639Y-92347014D01*
X228921446Y-92113011D01*
X228921446Y-91876989D01*
X228890639Y-91642986D01*
X228829552Y-91415007D01*
X228739230Y-91196951D01*
X228739228Y-91196948D01*
X228739226Y-91196943D01*
X228667831Y-91073285D01*
X228621219Y-90992550D01*
X228568383Y-90923693D01*
X228475067Y-90802080D01*
X228476232Y-90801185D01*
X228449415Y-90743381D01*
X228458944Y-90674165D01*
X228475565Y-90648302D01*
X228475067Y-90647920D01*
X228567918Y-90526913D01*
X228621219Y-90457450D01*
X228739230Y-90253049D01*
X228829552Y-90034993D01*
X228890639Y-89807014D01*
X228921446Y-89573011D01*
X228921446Y-89336989D01*
X228890639Y-89102986D01*
X228829552Y-88875007D01*
X228739230Y-88656951D01*
X228739228Y-88656948D01*
X228739226Y-88656943D01*
X228691342Y-88574006D01*
X228621219Y-88452550D01*
X228588051Y-88409325D01*
X228475067Y-88262080D01*
X228476232Y-88261185D01*
X228449415Y-88203381D01*
X228458944Y-88134165D01*
X228475565Y-88108302D01*
X228475067Y-88107920D01*
X228536740Y-88027545D01*
X228621219Y-87917450D01*
X228739230Y-87713049D01*
X228829552Y-87494993D01*
X228890639Y-87267014D01*
X228921446Y-87033011D01*
X228921446Y-86796989D01*
X228890639Y-86562986D01*
X228829552Y-86335007D01*
X228739230Y-86116951D01*
X228739228Y-86116948D01*
X228739226Y-86116943D01*
X228674993Y-86005690D01*
X228621219Y-85912550D01*
X228588051Y-85869325D01*
X228475067Y-85722080D01*
X228476232Y-85721185D01*
X228449415Y-85663381D01*
X228458944Y-85594165D01*
X228475565Y-85568302D01*
X228475067Y-85567920D01*
X228537787Y-85486181D01*
X228621219Y-85377450D01*
X228739230Y-85173049D01*
X228829552Y-84954993D01*
X228890639Y-84727014D01*
X228921446Y-84493011D01*
X228921446Y-84256989D01*
X228890639Y-84022986D01*
X228829552Y-83795007D01*
X228739230Y-83576951D01*
X228739228Y-83576948D01*
X228739226Y-83576943D01*
X228697064Y-83503918D01*
X228621219Y-83372550D01*
X228566501Y-83301240D01*
X228475067Y-83182080D01*
X228476232Y-83181185D01*
X228449415Y-83123381D01*
X228458944Y-83054165D01*
X228475565Y-83028302D01*
X228475067Y-83027920D01*
X228529760Y-82956641D01*
X228621219Y-82837450D01*
X228739230Y-82633049D01*
X228829552Y-82414993D01*
X228890639Y-82187014D01*
X228921446Y-81953011D01*
X228921446Y-81716989D01*
X228890639Y-81482986D01*
X228829552Y-81255007D01*
X228739230Y-81036951D01*
X228739228Y-81036948D01*
X228739226Y-81036943D01*
X228697064Y-80963918D01*
X228621219Y-80832550D01*
X228534632Y-80719707D01*
X228475067Y-80642080D01*
X228476232Y-80641185D01*
X228449415Y-80583381D01*
X228458944Y-80514165D01*
X228475565Y-80488302D01*
X228475067Y-80487920D01*
X228536740Y-80407545D01*
X228621219Y-80297450D01*
X228739230Y-80093049D01*
X228829552Y-79874993D01*
X228890639Y-79647014D01*
X228921446Y-79413011D01*
X228921446Y-79176989D01*
X228890639Y-78942986D01*
X228829552Y-78715007D01*
X228739230Y-78496951D01*
X228739228Y-78496948D01*
X228739226Y-78496943D01*
X228697064Y-78423918D01*
X228621219Y-78292550D01*
X228588051Y-78249325D01*
X228475067Y-78102080D01*
X228476232Y-78101185D01*
X228449415Y-78043381D01*
X228458944Y-77974165D01*
X228475565Y-77948302D01*
X228475067Y-77947920D01*
X228602565Y-77781760D01*
X228621219Y-77757450D01*
X228739230Y-77553049D01*
X228829552Y-77334993D01*
X228890639Y-77107014D01*
X228921446Y-76873011D01*
X228921446Y-76636989D01*
X228890639Y-76402986D01*
X228829552Y-76175007D01*
X228739230Y-75956951D01*
X228739228Y-75956948D01*
X228739226Y-75956943D01*
X228671310Y-75839310D01*
X228621219Y-75752550D01*
X228551965Y-75662296D01*
X228475067Y-75562080D01*
X228476232Y-75561185D01*
X228449415Y-75503381D01*
X228458944Y-75434165D01*
X228475565Y-75408302D01*
X228475067Y-75407920D01*
X228572803Y-75280547D01*
X228621219Y-75217450D01*
X228739230Y-75013049D01*
X228829552Y-74794993D01*
X228890639Y-74567014D01*
X228921446Y-74333011D01*
X228921446Y-74096989D01*
X228890639Y-73862986D01*
X228829552Y-73635007D01*
X228739230Y-73416951D01*
X228739228Y-73416948D01*
X228739226Y-73416943D01*
X228697064Y-73343918D01*
X228621219Y-73212550D01*
X228588051Y-73169325D01*
X228475067Y-73022080D01*
X228476232Y-73021185D01*
X228449415Y-72963381D01*
X228458944Y-72894165D01*
X228475565Y-72868302D01*
X228475067Y-72867920D01*
X228529760Y-72796641D01*
X228621219Y-72677450D01*
X228739230Y-72473049D01*
X228829552Y-72254993D01*
X228890639Y-72027014D01*
X228921446Y-71793011D01*
X228921446Y-71556989D01*
X228890639Y-71322986D01*
X228829552Y-71095007D01*
X228739230Y-70876951D01*
X228739228Y-70876948D01*
X228739226Y-70876943D01*
X228650615Y-70723466D01*
X228621219Y-70672550D01*
X228566501Y-70601240D01*
X228475067Y-70482080D01*
X228476232Y-70481185D01*
X228449415Y-70423381D01*
X228458944Y-70354165D01*
X228475565Y-70328302D01*
X228475067Y-70327920D01*
X228602565Y-70161760D01*
X228621219Y-70137450D01*
X228739230Y-69933049D01*
X228829552Y-69714993D01*
X228890639Y-69487014D01*
X228921446Y-69253011D01*
X228921446Y-69016989D01*
X228890639Y-68782986D01*
X228829552Y-68555007D01*
X228739230Y-68336951D01*
X228739228Y-68336948D01*
X228739226Y-68336943D01*
X228686788Y-68246119D01*
X228621219Y-68132550D01*
X228538324Y-68024519D01*
X228475067Y-67942080D01*
X228476232Y-67941185D01*
X228449415Y-67883381D01*
X228458944Y-67814165D01*
X228475565Y-67788302D01*
X228475067Y-67787920D01*
X228542518Y-67700015D01*
X228621219Y-67597450D01*
X228739230Y-67393049D01*
X228829552Y-67174993D01*
X228890639Y-66947014D01*
X228921446Y-66713011D01*
X228921446Y-66476989D01*
X228890639Y-66242986D01*
X228829552Y-66015007D01*
X228739230Y-65796951D01*
X228739228Y-65796948D01*
X228739226Y-65796943D01*
X228664749Y-65667947D01*
X228621219Y-65592550D01*
X228550563Y-65500469D01*
X228475067Y-65402080D01*
X228476232Y-65401185D01*
X228449415Y-65343381D01*
X228458944Y-65274165D01*
X228475565Y-65248302D01*
X228475067Y-65247920D01*
X228537135Y-65167031D01*
X228621219Y-65057450D01*
X228739230Y-64853049D01*
X228829552Y-64634993D01*
X228890639Y-64407014D01*
X228921446Y-64173011D01*
X228921446Y-63936989D01*
X228890639Y-63702986D01*
X228829552Y-63475007D01*
X228739230Y-63256951D01*
X228739228Y-63256948D01*
X228739226Y-63256943D01*
X228690984Y-63173386D01*
X228621219Y-63052550D01*
X228495289Y-62888434D01*
X228475067Y-62862080D01*
X228476232Y-62861185D01*
X228449415Y-62803381D01*
X228458944Y-62734165D01*
X228475565Y-62708302D01*
X228475067Y-62707920D01*
X228532810Y-62632667D01*
X228621219Y-62517450D01*
X228739230Y-62313049D01*
X228829552Y-62094993D01*
X228890639Y-61867014D01*
X228921446Y-61633011D01*
X228921446Y-61396989D01*
X228921444Y-61396973D01*
X228919846Y-61384830D01*
X228918356Y-61373513D01*
X229177500Y-61373513D01*
X229177500Y-61562486D01*
X229207059Y-61749118D01*
X229265454Y-61928836D01*
X229295217Y-61987248D01*
X229351240Y-62097199D01*
X229462310Y-62250074D01*
X229595926Y-62383690D01*
X229748801Y-62494760D01*
X229785404Y-62513410D01*
X229891310Y-62567372D01*
X229942106Y-62615347D01*
X229958901Y-62683168D01*
X229936364Y-62749303D01*
X229922696Y-62765538D01*
X229462313Y-63225922D01*
X229462312Y-63225923D01*
X229351240Y-63378800D01*
X229265454Y-63547163D01*
X229207059Y-63726881D01*
X229177500Y-63913513D01*
X229177500Y-64102486D01*
X229207059Y-64289118D01*
X229265454Y-64468836D01*
X229350116Y-64634993D01*
X229351240Y-64637199D01*
X229462310Y-64790074D01*
X229595926Y-64923690D01*
X229748801Y-65034760D01*
X229793333Y-65057450D01*
X229917163Y-65120545D01*
X229917165Y-65120545D01*
X229917168Y-65120547D01*
X230006448Y-65149556D01*
X230060230Y-65167031D01*
X230117905Y-65206469D01*
X230145103Y-65270828D01*
X230133188Y-65339674D01*
X230109592Y-65372643D01*
X229669312Y-65812923D01*
X229558240Y-65965800D01*
X229472454Y-66134163D01*
X229414059Y-66313881D01*
X229384500Y-66500513D01*
X229384500Y-66689486D01*
X229414059Y-66876118D01*
X229472454Y-67055836D01*
X229513864Y-67137106D01*
X229558240Y-67224199D01*
X229669310Y-67377074D01*
X229802926Y-67510690D01*
X229955801Y-67621760D01*
X230124168Y-67707547D01*
X230154758Y-67717486D01*
X230212431Y-67756921D01*
X230239631Y-67821279D01*
X230227717Y-67890126D01*
X230180474Y-67941602D01*
X230135840Y-67957889D01*
X230096878Y-67964060D01*
X229917163Y-68022454D01*
X229748800Y-68108240D01*
X229667611Y-68167228D01*
X229595927Y-68219310D01*
X229595925Y-68219312D01*
X229595924Y-68219312D01*
X229462312Y-68352924D01*
X229462312Y-68352925D01*
X229462310Y-68352927D01*
X229434087Y-68391773D01*
X229351240Y-68505800D01*
X229265454Y-68674163D01*
X229207059Y-68853881D01*
X229177500Y-69040513D01*
X229177500Y-69229486D01*
X229207059Y-69416118D01*
X229265454Y-69595836D01*
X229326168Y-69714993D01*
X229351240Y-69764199D01*
X229462310Y-69917073D01*
X229595927Y-70050690D01*
X229748801Y-70161760D01*
X229828347Y-70202290D01*
X229917163Y-70247545D01*
X229917165Y-70247545D01*
X229917168Y-70247547D01*
X230013497Y-70278846D01*
X230096881Y-70305940D01*
X230283514Y-70335500D01*
X230283519Y-70335500D01*
X230638374Y-70335500D01*
X230705413Y-70355185D01*
X230726055Y-70371819D01*
X231881929Y-71527693D01*
X231929040Y-71561920D01*
X231955070Y-71580832D01*
X232034801Y-71638760D01*
X232114347Y-71679290D01*
X232203163Y-71724545D01*
X232203165Y-71724545D01*
X232203168Y-71724547D01*
X232279039Y-71749199D01*
X232382881Y-71782940D01*
X232569514Y-71812500D01*
X232569519Y-71812500D01*
X245976375Y-71812500D01*
X246043414Y-71832185D01*
X246089169Y-71884989D01*
X246099113Y-71954147D01*
X246070088Y-72017703D01*
X246064056Y-72024181D01*
X239114311Y-78973924D01*
X239114306Y-78973929D01*
X239085142Y-79014072D01*
X239085142Y-79014073D01*
X239003240Y-79126800D01*
X238917454Y-79295163D01*
X238859059Y-79474881D01*
X238829500Y-79661513D01*
X238829500Y-85096374D01*
X238809815Y-85163413D01*
X238793181Y-85184055D01*
X237844312Y-86132923D01*
X237733240Y-86285800D01*
X237647454Y-86454163D01*
X237589059Y-86633881D01*
X237559500Y-86820513D01*
X237559500Y-87009486D01*
X237589059Y-87196118D01*
X237647454Y-87375836D01*
X237675902Y-87431667D01*
X237733240Y-87544199D01*
X237844310Y-87697074D01*
X237977926Y-87830690D01*
X238130801Y-87941760D01*
X238210347Y-87982290D01*
X238299163Y-88027545D01*
X238299165Y-88027545D01*
X238299168Y-88027547D01*
X238395497Y-88058846D01*
X238478881Y-88085940D01*
X238665514Y-88115500D01*
X238665519Y-88115500D01*
X238854486Y-88115500D01*
X239041118Y-88085940D01*
X239220832Y-88027547D01*
X239389199Y-87941760D01*
X239542074Y-87830690D01*
X240945690Y-86427074D01*
X241056760Y-86274199D01*
X241142547Y-86105832D01*
X241200940Y-85926118D01*
X241214077Y-85843168D01*
X241230500Y-85739487D01*
X241230500Y-80304624D01*
X241250185Y-80237585D01*
X241266814Y-80216948D01*
X241609724Y-79874038D01*
X248399500Y-79874038D01*
X248399500Y-80125962D01*
X248419659Y-80253240D01*
X248438910Y-80374785D01*
X248516760Y-80614383D01*
X248591600Y-80761263D01*
X248617770Y-80812625D01*
X248631132Y-80838848D01*
X248779201Y-81042649D01*
X248779205Y-81042654D01*
X248957345Y-81220794D01*
X248957350Y-81220798D01*
X249135117Y-81349952D01*
X249161155Y-81368870D01*
X249304184Y-81441747D01*
X249385616Y-81483239D01*
X249385618Y-81483239D01*
X249385621Y-81483241D01*
X249625215Y-81561090D01*
X249874038Y-81600500D01*
X249874039Y-81600500D01*
X250125961Y-81600500D01*
X250125962Y-81600500D01*
X250374785Y-81561090D01*
X250614379Y-81483241D01*
X250614880Y-81482986D01*
X250620048Y-81480352D01*
X250838845Y-81368870D01*
X251042656Y-81220793D01*
X251220793Y-81042656D01*
X251368870Y-80838845D01*
X251483241Y-80614379D01*
X251561090Y-80374785D01*
X251600500Y-80125962D01*
X251600500Y-79874038D01*
X251561090Y-79625215D01*
X251483241Y-79385621D01*
X251483239Y-79385618D01*
X251483239Y-79385616D01*
X251418602Y-79258760D01*
X251368870Y-79161155D01*
X251343910Y-79126800D01*
X251220798Y-78957350D01*
X251220794Y-78957345D01*
X251042654Y-78779205D01*
X251042649Y-78779201D01*
X250838848Y-78631132D01*
X250838847Y-78631131D01*
X250838845Y-78631130D01*
X250768747Y-78595413D01*
X250614383Y-78516760D01*
X250374785Y-78438910D01*
X250125962Y-78399500D01*
X249874038Y-78399500D01*
X249749626Y-78419205D01*
X249625214Y-78438910D01*
X249385616Y-78516760D01*
X249161151Y-78631132D01*
X248957350Y-78779201D01*
X248957345Y-78779205D01*
X248779205Y-78957345D01*
X248779201Y-78957350D01*
X248631132Y-79161151D01*
X248516760Y-79385616D01*
X248438910Y-79625214D01*
X248417498Y-79760404D01*
X248399500Y-79874038D01*
X241609724Y-79874038D01*
X249595227Y-71888534D01*
X249656548Y-71855051D01*
X249726240Y-71860035D01*
X249778351Y-71899046D01*
X249779146Y-71898368D01*
X249782160Y-71901897D01*
X249782173Y-71901907D01*
X249782200Y-71901944D01*
X249782308Y-71902070D01*
X249782310Y-71902073D01*
X249915927Y-72035690D01*
X250068801Y-72146760D01*
X250148347Y-72187290D01*
X250237163Y-72232545D01*
X250237165Y-72232545D01*
X250237168Y-72232547D01*
X250333497Y-72263846D01*
X250416881Y-72290940D01*
X250603514Y-72320500D01*
X250603519Y-72320500D01*
X250792486Y-72320500D01*
X250979118Y-72290940D01*
X251006632Y-72282000D01*
X251158832Y-72232547D01*
X251327199Y-72146760D01*
X251480073Y-72035690D01*
X251613690Y-71902073D01*
X251724760Y-71749199D01*
X251810547Y-71580832D01*
X251868940Y-71401118D01*
X251898500Y-71214486D01*
X251898500Y-63151513D01*
X251868940Y-62964881D01*
X251827023Y-62835876D01*
X251810547Y-62785168D01*
X251810545Y-62785165D01*
X251810545Y-62785163D01*
X251765290Y-62696347D01*
X251724760Y-62616801D01*
X251689667Y-62568500D01*
X251689667Y-62568499D01*
X251689665Y-62568498D01*
X251645591Y-62507834D01*
X251613693Y-62463929D01*
X246908076Y-57758312D01*
X246908074Y-57758310D01*
X246755199Y-57647240D01*
X246718031Y-57628302D01*
X246586836Y-57561454D01*
X246407118Y-57503059D01*
X246220486Y-57473500D01*
X246220481Y-57473500D01*
X241340626Y-57473500D01*
X241273587Y-57453815D01*
X241252945Y-57437181D01*
X240716903Y-56901139D01*
X240683418Y-56839816D01*
X240688402Y-56770124D01*
X240730274Y-56714191D01*
X240795738Y-56689774D01*
X240842902Y-56695527D01*
X240972164Y-56737526D01*
X241189819Y-56772000D01*
X241410181Y-56772000D01*
X241627835Y-56737526D01*
X241837410Y-56669432D01*
X242033760Y-56569386D01*
X242097513Y-56523066D01*
X242097514Y-56523066D01*
X241346447Y-55772000D01*
X241352661Y-55772000D01*
X241454394Y-55744741D01*
X241545606Y-55692080D01*
X241620080Y-55617606D01*
X241672741Y-55526394D01*
X241700000Y-55424661D01*
X241700000Y-55418448D01*
X242451066Y-56169514D01*
X242451066Y-56169513D01*
X242497386Y-56105760D01*
X242597432Y-55909410D01*
X242665526Y-55699835D01*
X242700000Y-55482181D01*
X242700000Y-55261818D01*
X242665526Y-55044164D01*
X242597432Y-54834589D01*
X242497388Y-54638243D01*
X242451066Y-54574485D01*
X242451065Y-54574485D01*
X241700000Y-55325551D01*
X241700000Y-55319339D01*
X241672741Y-55217606D01*
X241620080Y-55126394D01*
X241545606Y-55051920D01*
X241454394Y-54999259D01*
X241352661Y-54972000D01*
X241346446Y-54972000D01*
X242097513Y-54220932D01*
X242097513Y-54220931D01*
X242071893Y-54202317D01*
X242029227Y-54146987D01*
X242023248Y-54077374D01*
X242055854Y-54015579D01*
X242071893Y-54001680D01*
X242097513Y-53983065D01*
X241346447Y-53232000D01*
X241352661Y-53232000D01*
X241454394Y-53204741D01*
X241545606Y-53152080D01*
X241620080Y-53077606D01*
X241672741Y-52986394D01*
X241700000Y-52884661D01*
X241700000Y-52878448D01*
X242451066Y-53629514D01*
X242451066Y-53629513D01*
X242497386Y-53565760D01*
X242597432Y-53369410D01*
X242665526Y-53159835D01*
X242700000Y-52942181D01*
X242700000Y-52721818D01*
X242665526Y-52504164D01*
X242597432Y-52294589D01*
X242497388Y-52098243D01*
X242451066Y-52034485D01*
X242451065Y-52034485D01*
X241700000Y-52785551D01*
X241700000Y-52779339D01*
X241672741Y-52677606D01*
X241620080Y-52586394D01*
X241545606Y-52511920D01*
X241454394Y-52459259D01*
X241352661Y-52432000D01*
X241346446Y-52432000D01*
X242097513Y-51680932D01*
X242097513Y-51680931D01*
X242071893Y-51662317D01*
X242029227Y-51606987D01*
X242023248Y-51537374D01*
X242055854Y-51475579D01*
X242071893Y-51461680D01*
X242097513Y-51443065D01*
X241346446Y-50692000D01*
X241352661Y-50692000D01*
X241454394Y-50664741D01*
X241545606Y-50612080D01*
X241620080Y-50537606D01*
X241672741Y-50446394D01*
X241700000Y-50344661D01*
X241700000Y-50338448D01*
X242451066Y-51089514D01*
X242451066Y-51089513D01*
X242497386Y-51025760D01*
X242597432Y-50829410D01*
X242665526Y-50619835D01*
X242700000Y-50402181D01*
X242700000Y-50181818D01*
X242665526Y-49964164D01*
X242597432Y-49754589D01*
X242497388Y-49558243D01*
X242451066Y-49494485D01*
X242451065Y-49494485D01*
X241700000Y-50245551D01*
X241700000Y-50239339D01*
X241672741Y-50137606D01*
X241620080Y-50046394D01*
X241545606Y-49971920D01*
X241454394Y-49919259D01*
X241352661Y-49892000D01*
X241346445Y-49892000D01*
X242097513Y-49140932D01*
X242097513Y-49140931D01*
X242071893Y-49122317D01*
X242029227Y-49066987D01*
X242023248Y-48997374D01*
X242055854Y-48935579D01*
X242071893Y-48921680D01*
X242097513Y-48903065D01*
X241346447Y-48152000D01*
X241352661Y-48152000D01*
X241454394Y-48124741D01*
X241545606Y-48072080D01*
X241620080Y-47997606D01*
X241672741Y-47906394D01*
X241700000Y-47804661D01*
X241700000Y-47798448D01*
X242451066Y-48549514D01*
X242451066Y-48549513D01*
X242497386Y-48485760D01*
X242597432Y-48289410D01*
X242665526Y-48079835D01*
X242700000Y-47862181D01*
X242700000Y-47641818D01*
X242665526Y-47424164D01*
X242597432Y-47214589D01*
X242497388Y-47018243D01*
X242451066Y-46954485D01*
X242451065Y-46954485D01*
X241700000Y-47705551D01*
X241700000Y-47699339D01*
X241672741Y-47597606D01*
X241620080Y-47506394D01*
X241545606Y-47431920D01*
X241454394Y-47379259D01*
X241352661Y-47352000D01*
X241346445Y-47352000D01*
X242097513Y-46600932D01*
X242033756Y-46554611D01*
X241837410Y-46454567D01*
X241627835Y-46386473D01*
X241410181Y-46352000D01*
X241189819Y-46352000D01*
X240972164Y-46386473D01*
X240762589Y-46454567D01*
X240566233Y-46554616D01*
X240502485Y-46600931D01*
X240502485Y-46600932D01*
X241253553Y-47352000D01*
X241247339Y-47352000D01*
X241145606Y-47379259D01*
X241054394Y-47431920D01*
X240979920Y-47506394D01*
X240927259Y-47597606D01*
X240900000Y-47699339D01*
X240900000Y-47705553D01*
X240148932Y-46954485D01*
X240148931Y-46954485D01*
X240102616Y-47018233D01*
X240002567Y-47214589D01*
X239934473Y-47424164D01*
X239900000Y-47641818D01*
X239900000Y-47862187D01*
X239925606Y-48023859D01*
X239925607Y-48023861D01*
X239930967Y-48029221D01*
X239964452Y-48090544D01*
X239959468Y-48160236D01*
X239930967Y-48204583D01*
X239160000Y-48975553D01*
X239160000Y-48969339D01*
X239132741Y-48867606D01*
X239080080Y-48776394D01*
X239005606Y-48701920D01*
X238914394Y-48649259D01*
X238812661Y-48622000D01*
X238806445Y-48622000D01*
X239557513Y-47870932D01*
X239493756Y-47824611D01*
X239297410Y-47724567D01*
X239087835Y-47656473D01*
X238870181Y-47622000D01*
X238649819Y-47622000D01*
X238432164Y-47656473D01*
X238222589Y-47724567D01*
X238026233Y-47824616D01*
X237962485Y-47870931D01*
X237962485Y-47870932D01*
X238713553Y-48622000D01*
X238707339Y-48622000D01*
X238605606Y-48649259D01*
X238514394Y-48701920D01*
X238439920Y-48776394D01*
X238387259Y-48867606D01*
X238360000Y-48969339D01*
X238360000Y-48975553D01*
X237608932Y-48224485D01*
X237608931Y-48224485D01*
X237562616Y-48288233D01*
X237462567Y-48484589D01*
X237394473Y-48694164D01*
X237360000Y-48911818D01*
X237360000Y-49132181D01*
X237394473Y-49349835D01*
X237462567Y-49559410D01*
X237562611Y-49755756D01*
X237608932Y-49819513D01*
X238360000Y-49068445D01*
X238360000Y-49074661D01*
X238387259Y-49176394D01*
X238439920Y-49267606D01*
X238514394Y-49342080D01*
X238605606Y-49394741D01*
X238707339Y-49422000D01*
X238713553Y-49422000D01*
X238187058Y-49948494D01*
X238146830Y-49975374D01*
X238006278Y-50033593D01*
X238006273Y-50033595D01*
X237813226Y-50145052D01*
X237813217Y-50145058D01*
X237636377Y-50280751D01*
X237636371Y-50280756D01*
X237591949Y-50325180D01*
X237530626Y-50358666D01*
X237504267Y-50361500D01*
X237392721Y-50361500D01*
X237206093Y-50391059D01*
X237206088Y-50391060D01*
X237130817Y-50415517D01*
X237060976Y-50417512D01*
X237001143Y-50381431D01*
X236970316Y-50318730D01*
X236968500Y-50297586D01*
X236968500Y-49501043D01*
X236968499Y-49501039D01*
X236953369Y-49366750D01*
X236953368Y-49366745D01*
X236893788Y-49196476D01*
X236853388Y-49132181D01*
X236797816Y-49043738D01*
X236670262Y-48916184D01*
X236663314Y-48911818D01*
X236517523Y-48820211D01*
X236347254Y-48760631D01*
X236347249Y-48760630D01*
X236212960Y-48745500D01*
X236212954Y-48745500D01*
X234123046Y-48745500D01*
X234123039Y-48745500D01*
X233988750Y-48760630D01*
X233988745Y-48760631D01*
X233818476Y-48820211D01*
X233665737Y-48916184D01*
X233538184Y-49043737D01*
X233442211Y-49196476D01*
X233382631Y-49366745D01*
X233382630Y-49366750D01*
X233367500Y-49501039D01*
X233367500Y-51590960D01*
X233382630Y-51725249D01*
X233382631Y-51725254D01*
X233442211Y-51895523D01*
X233491178Y-51973453D01*
X233538184Y-52048262D01*
X233665738Y-52175816D01*
X233818478Y-52271789D01*
X233944043Y-52315726D01*
X233988745Y-52331368D01*
X233988750Y-52331369D01*
X234079246Y-52341565D01*
X234123040Y-52346499D01*
X234123043Y-52346500D01*
X234123046Y-52346500D01*
X234705582Y-52346500D01*
X234772621Y-52366185D01*
X234818376Y-52418989D01*
X234828320Y-52488147D01*
X234799295Y-52551703D01*
X234793263Y-52558181D01*
X233780310Y-53571133D01*
X233713721Y-53662787D01*
X233713720Y-53662788D01*
X233669240Y-53724008D01*
X233583454Y-53892371D01*
X233525059Y-54072089D01*
X233495500Y-54258721D01*
X233495500Y-56601374D01*
X233475815Y-56668413D01*
X233459181Y-56689055D01*
X229462312Y-60685923D01*
X229351240Y-60838800D01*
X229265454Y-61007163D01*
X229207059Y-61186881D01*
X229177500Y-61373513D01*
X228918356Y-61373513D01*
X228890639Y-61162988D01*
X228890639Y-61162986D01*
X228829552Y-60935007D01*
X228739230Y-60716951D01*
X228739228Y-60716948D01*
X228739226Y-60716943D01*
X228674988Y-60605681D01*
X228621219Y-60512550D01*
X228514551Y-60373537D01*
X228475067Y-60322080D01*
X228476232Y-60321185D01*
X228449415Y-60263381D01*
X228458944Y-60194165D01*
X228475565Y-60168302D01*
X228475067Y-60167920D01*
X228544985Y-60076800D01*
X228621219Y-59977450D01*
X228739230Y-59773049D01*
X228829552Y-59554993D01*
X228890639Y-59327014D01*
X228921446Y-59093011D01*
X228921446Y-58856989D01*
X228890639Y-58622986D01*
X228829552Y-58395007D01*
X228739230Y-58176951D01*
X228739228Y-58176948D01*
X228739226Y-58176943D01*
X228672624Y-58061586D01*
X228621219Y-57972550D01*
X228502260Y-57817519D01*
X228475067Y-57782080D01*
X228476232Y-57781185D01*
X228449415Y-57723381D01*
X228458944Y-57654165D01*
X228475565Y-57628302D01*
X228475067Y-57627920D01*
X228544985Y-57536800D01*
X228621219Y-57437450D01*
X228739230Y-57233049D01*
X228829552Y-57014993D01*
X228890639Y-56787014D01*
X228921446Y-56553011D01*
X228921446Y-56316989D01*
X228890639Y-56082986D01*
X228829552Y-55855007D01*
X228739230Y-55636951D01*
X228739228Y-55636948D01*
X228739226Y-55636943D01*
X228674993Y-55525690D01*
X228621219Y-55432550D01*
X228553948Y-55344881D01*
X228475067Y-55242080D01*
X228476232Y-55241185D01*
X228449415Y-55183381D01*
X228458944Y-55114165D01*
X228475565Y-55088302D01*
X228475067Y-55087920D01*
X228564015Y-54972000D01*
X228621219Y-54897450D01*
X228707329Y-54748303D01*
X228757894Y-54700089D01*
X228826501Y-54686866D01*
X228891366Y-54712834D01*
X228931894Y-54769748D01*
X228937187Y-54790906D01*
X228953060Y-54891119D01*
X229011454Y-55070836D01*
X229059519Y-55165168D01*
X229097240Y-55239199D01*
X229208310Y-55392073D01*
X229341927Y-55525690D01*
X229494801Y-55636760D01*
X229522011Y-55650624D01*
X229663163Y-55722545D01*
X229663165Y-55722545D01*
X229663168Y-55722547D01*
X229759497Y-55753846D01*
X229842881Y-55780940D01*
X230029514Y-55810500D01*
X230029519Y-55810500D01*
X230218486Y-55810500D01*
X230405118Y-55780940D01*
X230432632Y-55772000D01*
X230584832Y-55722547D01*
X230753199Y-55636760D01*
X230906073Y-55525690D01*
X231039690Y-55392073D01*
X231150760Y-55239199D01*
X231236547Y-55070832D01*
X231294940Y-54891118D01*
X231297925Y-54872274D01*
X231324500Y-54704486D01*
X231324500Y-45371513D01*
X231294940Y-45184881D01*
X231244663Y-45030147D01*
X231236547Y-45005168D01*
X231236545Y-45005165D01*
X231236545Y-45005163D01*
X231154708Y-44844550D01*
X231150760Y-44836801D01*
X231150758Y-44836798D01*
X231150757Y-44836796D01*
X231124421Y-44800548D01*
X231124420Y-44800547D01*
X231039692Y-44683929D01*
X231039687Y-44683923D01*
X229514076Y-43158312D01*
X229514074Y-43158310D01*
X229361199Y-43047240D01*
X229192836Y-42961454D01*
X229013118Y-42903059D01*
X228826486Y-42873500D01*
X228826481Y-42873500D01*
X223736481Y-42873500D01*
X223547518Y-42873500D01*
X223547513Y-42873500D01*
X223360885Y-42903059D01*
X223181165Y-42961454D01*
X223012800Y-43047240D01*
X222859923Y-43158312D01*
X218582181Y-47436055D01*
X218520858Y-47469540D01*
X218451166Y-47464556D01*
X218395233Y-47422684D01*
X218370816Y-47357220D01*
X218370500Y-47348374D01*
X218370500Y-46641513D01*
X218340940Y-46454881D01*
X218282545Y-46275163D01*
X218237065Y-46185904D01*
X218196760Y-46106801D01*
X218085690Y-45953927D01*
X217952073Y-45820310D01*
X214904074Y-42772310D01*
X214751199Y-42661240D01*
X214582836Y-42575454D01*
X214403118Y-42517059D01*
X214216486Y-42487500D01*
X214216481Y-42487500D01*
X209644481Y-42487500D01*
X209455518Y-42487500D01*
X209455513Y-42487500D01*
X209268885Y-42517059D01*
X209089165Y-42575454D01*
X208920800Y-42661240D01*
X208767923Y-42772312D01*
X205332312Y-46207922D01*
X205332311Y-46207923D01*
X205322961Y-46220794D01*
X205322960Y-46220796D01*
X205221240Y-46360800D01*
X205135454Y-46529163D01*
X205077059Y-46708881D01*
X205047500Y-46895513D01*
X205047500Y-53807374D01*
X205027815Y-53874413D01*
X205011181Y-53895055D01*
X193140310Y-65765925D01*
X193068519Y-65864739D01*
X193068518Y-65864740D01*
X193029240Y-65918800D01*
X192943454Y-66087163D01*
X192885059Y-66266881D01*
X192855500Y-66453513D01*
X192855500Y-71079374D01*
X192835815Y-71146413D01*
X192819181Y-71167055D01*
X192071055Y-71915181D01*
X192009732Y-71948666D01*
X191983374Y-71951500D01*
X191356734Y-71951500D01*
X191289695Y-71931815D01*
X191243940Y-71879011D01*
X191233996Y-71809853D01*
X191263021Y-71746297D01*
X191269053Y-71739819D01*
X191273242Y-71735629D01*
X191273247Y-71735624D01*
X191408948Y-71558774D01*
X191520405Y-71365726D01*
X191605710Y-71159781D01*
X191663404Y-70944463D01*
X191692500Y-70723457D01*
X191692500Y-70500543D01*
X191663404Y-70279537D01*
X191605710Y-70064219D01*
X191520405Y-69858274D01*
X191408948Y-69665226D01*
X191369867Y-69614294D01*
X191273248Y-69488377D01*
X191273242Y-69488370D01*
X191115629Y-69330757D01*
X191115622Y-69330751D01*
X190938782Y-69195058D01*
X190938780Y-69195057D01*
X190938774Y-69195052D01*
X190745726Y-69083595D01*
X190745722Y-69083593D01*
X190539790Y-68998293D01*
X190539783Y-68998291D01*
X190539781Y-68998290D01*
X190324463Y-68940596D01*
X190324457Y-68940595D01*
X190324452Y-68940594D01*
X190103466Y-68911501D01*
X190103463Y-68911500D01*
X190103457Y-68911500D01*
X190103450Y-68911500D01*
X190040626Y-68911500D01*
X189973587Y-68891815D01*
X189952945Y-68875181D01*
X189874076Y-68796312D01*
X189874074Y-68796310D01*
X189721199Y-68685240D01*
X189699459Y-68674163D01*
X189552836Y-68599454D01*
X189373118Y-68541059D01*
X189186486Y-68511500D01*
X189186481Y-68511500D01*
X184636482Y-68511500D01*
X184447519Y-68511500D01*
X184447514Y-68511500D01*
X184260881Y-68541059D01*
X184081163Y-68599454D01*
X183912800Y-68685240D01*
X183825579Y-68748610D01*
X183759927Y-68796310D01*
X183759925Y-68796312D01*
X183759924Y-68796312D01*
X179170308Y-73385927D01*
X179170306Y-73385929D01*
X179129160Y-73442563D01*
X179122979Y-73451072D01*
X179098719Y-73484463D01*
X179059240Y-73538800D01*
X178973454Y-73707163D01*
X178915059Y-73886881D01*
X178885500Y-74073513D01*
X173270500Y-74073513D01*
X173270500Y-54245818D01*
X186052000Y-54245818D01*
X186052000Y-54466181D01*
X186086473Y-54683835D01*
X186154567Y-54893410D01*
X186254611Y-55089756D01*
X186300932Y-55153513D01*
X187052000Y-54402445D01*
X187052000Y-54408661D01*
X187079259Y-54510394D01*
X187131920Y-54601606D01*
X187206394Y-54676080D01*
X187297606Y-54728741D01*
X187399339Y-54756000D01*
X187405552Y-54756000D01*
X186654485Y-55507065D01*
X186654485Y-55507067D01*
X186680105Y-55525681D01*
X186722771Y-55581010D01*
X186728750Y-55650624D01*
X186696145Y-55712419D01*
X186680105Y-55726317D01*
X186654485Y-55744930D01*
X186654485Y-55744932D01*
X187405553Y-56496000D01*
X187399339Y-56496000D01*
X187297606Y-56523259D01*
X187206394Y-56575920D01*
X187131920Y-56650394D01*
X187079259Y-56741606D01*
X187052000Y-56843339D01*
X187052000Y-56849553D01*
X186300932Y-56098485D01*
X186300931Y-56098485D01*
X186254616Y-56162233D01*
X186154567Y-56358589D01*
X186086473Y-56568164D01*
X186052000Y-56785818D01*
X186052000Y-57006181D01*
X186086473Y-57223835D01*
X186154567Y-57433410D01*
X186254611Y-57629756D01*
X186300932Y-57693513D01*
X187052000Y-56942445D01*
X187052000Y-56948661D01*
X187079259Y-57050394D01*
X187131920Y-57141606D01*
X187206394Y-57216080D01*
X187297606Y-57268741D01*
X187399339Y-57296000D01*
X187405552Y-57296000D01*
X186654485Y-58047065D01*
X186654485Y-58047067D01*
X186680105Y-58065681D01*
X186722771Y-58121010D01*
X186728750Y-58190624D01*
X186696145Y-58252419D01*
X186680105Y-58266317D01*
X186654485Y-58284930D01*
X186654485Y-58284932D01*
X187405553Y-59036000D01*
X187399339Y-59036000D01*
X187297606Y-59063259D01*
X187206394Y-59115920D01*
X187131920Y-59190394D01*
X187079259Y-59281606D01*
X187052000Y-59383339D01*
X187052000Y-59389553D01*
X186300932Y-58638485D01*
X186300931Y-58638485D01*
X186254616Y-58702233D01*
X186154567Y-58898589D01*
X186086473Y-59108164D01*
X186052000Y-59325818D01*
X186052000Y-59546181D01*
X186086473Y-59763835D01*
X186154567Y-59973410D01*
X186254611Y-60169756D01*
X186300932Y-60233513D01*
X187052000Y-59482445D01*
X187052000Y-59488661D01*
X187079259Y-59590394D01*
X187131920Y-59681606D01*
X187206394Y-59756080D01*
X187297606Y-59808741D01*
X187399339Y-59836000D01*
X187405552Y-59836000D01*
X186654485Y-60587065D01*
X186654485Y-60587067D01*
X186680105Y-60605681D01*
X186722771Y-60661010D01*
X186728750Y-60730624D01*
X186696145Y-60792419D01*
X186680105Y-60806317D01*
X186654485Y-60824930D01*
X186654485Y-60824932D01*
X187405554Y-61576000D01*
X187399339Y-61576000D01*
X187297606Y-61603259D01*
X187206394Y-61655920D01*
X187131920Y-61730394D01*
X187079259Y-61821606D01*
X187052000Y-61923339D01*
X187052000Y-61929553D01*
X186300932Y-61178485D01*
X186300931Y-61178485D01*
X186254616Y-61242233D01*
X186154567Y-61438589D01*
X186086473Y-61648164D01*
X186052000Y-61865818D01*
X186052000Y-62086181D01*
X186086473Y-62303835D01*
X186154567Y-62513410D01*
X186254611Y-62709756D01*
X186300932Y-62773513D01*
X187052000Y-62022445D01*
X187052000Y-62028661D01*
X187079259Y-62130394D01*
X187131920Y-62221606D01*
X187206394Y-62296080D01*
X187297606Y-62348741D01*
X187399339Y-62376000D01*
X187405553Y-62376000D01*
X186654485Y-63127065D01*
X186654485Y-63127066D01*
X186718243Y-63173388D01*
X186914589Y-63273432D01*
X187124164Y-63341526D01*
X187341819Y-63376000D01*
X187562181Y-63376000D01*
X187779835Y-63341526D01*
X187989410Y-63273432D01*
X188185760Y-63173386D01*
X188249513Y-63127066D01*
X188249514Y-63127066D01*
X187498447Y-62376000D01*
X187504661Y-62376000D01*
X187606394Y-62348741D01*
X187697606Y-62296080D01*
X187772080Y-62221606D01*
X187824741Y-62130394D01*
X187852000Y-62028661D01*
X187852000Y-62022446D01*
X188603066Y-62773514D01*
X188603066Y-62773513D01*
X188649386Y-62709760D01*
X188749432Y-62513410D01*
X188817527Y-62303834D01*
X188835141Y-62192623D01*
X188865070Y-62129488D01*
X188924381Y-62092556D01*
X188994244Y-62093554D01*
X189033100Y-62113643D01*
X189045226Y-62122948D01*
X189238274Y-62234405D01*
X189444219Y-62319710D01*
X189659537Y-62377404D01*
X189880543Y-62406500D01*
X189880550Y-62406500D01*
X190103450Y-62406500D01*
X190103457Y-62406500D01*
X190324463Y-62377404D01*
X190539781Y-62319710D01*
X190745726Y-62234405D01*
X190938774Y-62122948D01*
X191115624Y-61987247D01*
X191160051Y-61942820D01*
X191221374Y-61909334D01*
X191247733Y-61906500D01*
X194912486Y-61906500D01*
X195099118Y-61876940D01*
X195129679Y-61867010D01*
X195278832Y-61818547D01*
X195447199Y-61732760D01*
X195600073Y-61621690D01*
X195733690Y-61488073D01*
X195844760Y-61335199D01*
X195930547Y-61166832D01*
X195988940Y-60987118D01*
X196018500Y-60800486D01*
X196018500Y-60611513D01*
X195988940Y-60424881D01*
X195955247Y-60321185D01*
X195930547Y-60245168D01*
X195930545Y-60245165D01*
X195930545Y-60245163D01*
X195869753Y-60125853D01*
X195844760Y-60076801D01*
X195733690Y-59923927D01*
X195600073Y-59790310D01*
X195447199Y-59679240D01*
X195401804Y-59656110D01*
X195278835Y-59593454D01*
X195263641Y-59588517D01*
X195205967Y-59549077D01*
X195178771Y-59484718D01*
X195190688Y-59415872D01*
X195237933Y-59364397D01*
X195282560Y-59348115D01*
X195353118Y-59336940D01*
X195532832Y-59278547D01*
X195701199Y-59192760D01*
X195854073Y-59081690D01*
X195987690Y-58948073D01*
X196098760Y-58795199D01*
X196184547Y-58626832D01*
X196242940Y-58447118D01*
X196272500Y-58260486D01*
X196272500Y-58071513D01*
X196242940Y-57884881D01*
X196209247Y-57781185D01*
X196184547Y-57705168D01*
X196184545Y-57705165D01*
X196184545Y-57705163D01*
X196111321Y-57561454D01*
X196098760Y-57536801D01*
X195987690Y-57383927D01*
X195854073Y-57250310D01*
X195701199Y-57139240D01*
X195655804Y-57116110D01*
X195532836Y-57053454D01*
X195414465Y-57014993D01*
X195411195Y-57013930D01*
X195353521Y-56974493D01*
X195326323Y-56910134D01*
X195338238Y-56841288D01*
X195385482Y-56789812D01*
X195411194Y-56778069D01*
X195532832Y-56738547D01*
X195701199Y-56652760D01*
X195854073Y-56541690D01*
X195987690Y-56408073D01*
X196098760Y-56255199D01*
X196184547Y-56086832D01*
X196242940Y-55907118D01*
X196245925Y-55888274D01*
X196272500Y-55720486D01*
X196272500Y-55531513D01*
X196242940Y-55344881D01*
X196201023Y-55215876D01*
X196184547Y-55165168D01*
X196184545Y-55165165D01*
X196184545Y-55165163D01*
X196125241Y-55048774D01*
X196098760Y-54996801D01*
X195987690Y-54843927D01*
X195854073Y-54710310D01*
X195701199Y-54599240D01*
X195655804Y-54576110D01*
X195532836Y-54513454D01*
X195414465Y-54474993D01*
X195411195Y-54473930D01*
X195353521Y-54434493D01*
X195326323Y-54370134D01*
X195338238Y-54301288D01*
X195385482Y-54249812D01*
X195411194Y-54238069D01*
X195532832Y-54198547D01*
X195701199Y-54112760D01*
X195854073Y-54001690D01*
X195987690Y-53868073D01*
X196098760Y-53715199D01*
X196184547Y-53546832D01*
X196242940Y-53367118D01*
X196245925Y-53348274D01*
X196272500Y-53180486D01*
X196272500Y-52991513D01*
X196242940Y-52804881D01*
X196201023Y-52675876D01*
X196184547Y-52625168D01*
X196184545Y-52625165D01*
X196184545Y-52625163D01*
X196125241Y-52508774D01*
X196098760Y-52456801D01*
X195987690Y-52303927D01*
X195854073Y-52170310D01*
X195701199Y-52059240D01*
X195532836Y-51973454D01*
X195353118Y-51915059D01*
X195166486Y-51885500D01*
X195166481Y-51885500D01*
X191247733Y-51885500D01*
X191180694Y-51865815D01*
X191160051Y-51849180D01*
X191115628Y-51804756D01*
X191115622Y-51804751D01*
X190938782Y-51669058D01*
X190938780Y-51669057D01*
X190938774Y-51669052D01*
X190745726Y-51557595D01*
X190745722Y-51557593D01*
X190539790Y-51472293D01*
X190539783Y-51472291D01*
X190539781Y-51472290D01*
X190324463Y-51414596D01*
X190324457Y-51414595D01*
X190324452Y-51414594D01*
X190103466Y-51385501D01*
X190103463Y-51385500D01*
X190103457Y-51385500D01*
X189880543Y-51385500D01*
X189880537Y-51385500D01*
X189880533Y-51385501D01*
X189659547Y-51414594D01*
X189659540Y-51414595D01*
X189659537Y-51414596D01*
X189483816Y-51461680D01*
X189444219Y-51472290D01*
X189444209Y-51472293D01*
X189238277Y-51557593D01*
X189238273Y-51557595D01*
X189045226Y-51669052D01*
X189045217Y-51669058D01*
X188868377Y-51804751D01*
X188868370Y-51804757D01*
X188710757Y-51962370D01*
X188710751Y-51962377D01*
X188575058Y-52139217D01*
X188575052Y-52139226D01*
X188463595Y-52332273D01*
X188463593Y-52332277D01*
X188378293Y-52538209D01*
X188378290Y-52538219D01*
X188339877Y-52681581D01*
X188320597Y-52753534D01*
X188320594Y-52753547D01*
X188291501Y-52974533D01*
X188291500Y-52974549D01*
X188291500Y-53010140D01*
X188271815Y-53077179D01*
X188219011Y-53122934D01*
X188149853Y-53132878D01*
X188111205Y-53120625D01*
X187989410Y-53058567D01*
X187779835Y-52990473D01*
X187562181Y-52956000D01*
X187341819Y-52956000D01*
X187124164Y-52990473D01*
X186914589Y-53058567D01*
X186718233Y-53158616D01*
X186654485Y-53204931D01*
X186654485Y-53204932D01*
X187405553Y-53956000D01*
X187399339Y-53956000D01*
X187297606Y-53983259D01*
X187206394Y-54035920D01*
X187131920Y-54110394D01*
X187079259Y-54201606D01*
X187052000Y-54303339D01*
X187052000Y-54309553D01*
X186300932Y-53558485D01*
X186300931Y-53558485D01*
X186254616Y-53622233D01*
X186154567Y-53818589D01*
X186086473Y-54028164D01*
X186052000Y-54245818D01*
X173270500Y-54245818D01*
X173270500Y-44874038D01*
X178399500Y-44874038D01*
X178399500Y-45125962D01*
X178423026Y-45274500D01*
X178438910Y-45374785D01*
X178516760Y-45614383D01*
X178595413Y-45768747D01*
X178630280Y-45837177D01*
X178631132Y-45838848D01*
X178779201Y-46042649D01*
X178779205Y-46042654D01*
X178957347Y-46220796D01*
X179137935Y-46352000D01*
X179161155Y-46368870D01*
X179304184Y-46441747D01*
X179385616Y-46483239D01*
X179385618Y-46483239D01*
X179385621Y-46483241D01*
X179625215Y-46561090D01*
X179874038Y-46600500D01*
X179874039Y-46600500D01*
X180125961Y-46600500D01*
X180125962Y-46600500D01*
X180374785Y-46561090D01*
X180614379Y-46483241D01*
X180838845Y-46368870D01*
X180968048Y-46274999D01*
X181042653Y-46220796D01*
X181042653Y-46220794D01*
X181042656Y-46220793D01*
X181220793Y-46042656D01*
X181368870Y-45838845D01*
X181424841Y-45728995D01*
X187937500Y-45728995D01*
X187937500Y-45965004D01*
X187937501Y-45965020D01*
X187964102Y-46167080D01*
X187968307Y-46199014D01*
X188002778Y-46327661D01*
X188029394Y-46426993D01*
X188119714Y-46645045D01*
X188119719Y-46645056D01*
X188160740Y-46716105D01*
X188237727Y-46849450D01*
X188237729Y-46849453D01*
X188237730Y-46849454D01*
X188381406Y-47036697D01*
X188381412Y-47036704D01*
X188548295Y-47203587D01*
X188548302Y-47203593D01*
X188586969Y-47233263D01*
X188735550Y-47347273D01*
X188866166Y-47422684D01*
X188939943Y-47465280D01*
X188939948Y-47465282D01*
X188939951Y-47465284D01*
X189158007Y-47555606D01*
X189385986Y-47616693D01*
X189619989Y-47647500D01*
X189619996Y-47647500D01*
X189856004Y-47647500D01*
X189856011Y-47647500D01*
X190090014Y-47616693D01*
X190317993Y-47555606D01*
X190536049Y-47465284D01*
X190740450Y-47347273D01*
X190889031Y-47233263D01*
X190930920Y-47201121D01*
X190931814Y-47202286D01*
X190989619Y-47175469D01*
X191058835Y-47184998D01*
X191084697Y-47201619D01*
X191085080Y-47201121D01*
X191232325Y-47314105D01*
X191275550Y-47347273D01*
X191406166Y-47422684D01*
X191479943Y-47465280D01*
X191479948Y-47465282D01*
X191479951Y-47465284D01*
X191698007Y-47555606D01*
X191925986Y-47616693D01*
X192159989Y-47647500D01*
X192159996Y-47647500D01*
X192396004Y-47647500D01*
X192396011Y-47647500D01*
X192630014Y-47616693D01*
X192857993Y-47555606D01*
X193076049Y-47465284D01*
X193280450Y-47347273D01*
X193429031Y-47233263D01*
X193470920Y-47201121D01*
X193471814Y-47202286D01*
X193529619Y-47175469D01*
X193598835Y-47184998D01*
X193624697Y-47201619D01*
X193625080Y-47201121D01*
X193772325Y-47314105D01*
X193815550Y-47347273D01*
X193946166Y-47422684D01*
X194019943Y-47465280D01*
X194019948Y-47465282D01*
X194019951Y-47465284D01*
X194238007Y-47555606D01*
X194465986Y-47616693D01*
X194699989Y-47647500D01*
X194699996Y-47647500D01*
X194936004Y-47647500D01*
X194936011Y-47647500D01*
X195170014Y-47616693D01*
X195397993Y-47555606D01*
X195616049Y-47465284D01*
X195820450Y-47347273D01*
X196007699Y-47203592D01*
X196174592Y-47036699D01*
X196318273Y-46849450D01*
X196436284Y-46645049D01*
X196526606Y-46426993D01*
X196555398Y-46319537D01*
X196587490Y-46263953D01*
X196958000Y-45893443D01*
X196958000Y-45899661D01*
X196985259Y-46001394D01*
X197037920Y-46092606D01*
X197112394Y-46167080D01*
X197203606Y-46219741D01*
X197305339Y-46247000D01*
X197311554Y-46247000D01*
X196488893Y-47069658D01*
X196571828Y-47129914D01*
X196782197Y-47237102D01*
X197006752Y-47310065D01*
X197006751Y-47310065D01*
X197239948Y-47347000D01*
X197476052Y-47347000D01*
X197709247Y-47310065D01*
X197933802Y-47237102D01*
X198144163Y-47129918D01*
X198144169Y-47129914D01*
X198227104Y-47069658D01*
X198227105Y-47069658D01*
X197404446Y-46247000D01*
X197410661Y-46247000D01*
X197512394Y-46219741D01*
X197603606Y-46167080D01*
X197678080Y-46092606D01*
X197730741Y-46001394D01*
X197758000Y-45899661D01*
X197758000Y-45893447D01*
X198580658Y-46716105D01*
X198580658Y-46716104D01*
X198640914Y-46633169D01*
X198640918Y-46633163D01*
X198748102Y-46422802D01*
X198821065Y-46198247D01*
X198858000Y-45965052D01*
X198858000Y-45728947D01*
X198821065Y-45495752D01*
X198748102Y-45271197D01*
X198640914Y-45060828D01*
X198580658Y-44977894D01*
X198580658Y-44977893D01*
X197758000Y-45800552D01*
X197758000Y-45794339D01*
X197730741Y-45692606D01*
X197678080Y-45601394D01*
X197603606Y-45526920D01*
X197512394Y-45474259D01*
X197410661Y-45447000D01*
X197404447Y-45447000D01*
X198227105Y-44624340D01*
X198227104Y-44624338D01*
X198144174Y-44564087D01*
X197933802Y-44456897D01*
X197709247Y-44383934D01*
X197709248Y-44383934D01*
X197476052Y-44347000D01*
X197239948Y-44347000D01*
X197006752Y-44383934D01*
X196782197Y-44456897D01*
X196571830Y-44564084D01*
X196488894Y-44624340D01*
X197311554Y-45447000D01*
X197305339Y-45447000D01*
X197203606Y-45474259D01*
X197112394Y-45526920D01*
X197037920Y-45601394D01*
X196985259Y-45692606D01*
X196958000Y-45794339D01*
X196958000Y-45800554D01*
X196587490Y-45430044D01*
X196555397Y-45374459D01*
X196526606Y-45267007D01*
X196436284Y-45048951D01*
X196436282Y-45048948D01*
X196436280Y-45048943D01*
X196361667Y-44919711D01*
X196318273Y-44844550D01*
X196195024Y-44683929D01*
X196174593Y-44657302D01*
X196174587Y-44657295D01*
X196007704Y-44490412D01*
X196007697Y-44490406D01*
X195820454Y-44346730D01*
X195820453Y-44346729D01*
X195820450Y-44346727D01*
X195738957Y-44299677D01*
X195616056Y-44228719D01*
X195616045Y-44228714D01*
X195397993Y-44138394D01*
X195170010Y-44077306D01*
X194936020Y-44046501D01*
X194936017Y-44046500D01*
X194936011Y-44046500D01*
X194699989Y-44046500D01*
X194699983Y-44046500D01*
X194699979Y-44046501D01*
X194465989Y-44077306D01*
X194238006Y-44138394D01*
X194019954Y-44228714D01*
X194019943Y-44228719D01*
X193815545Y-44346730D01*
X193625080Y-44492879D01*
X193624191Y-44491720D01*
X193566338Y-44518537D01*
X193497124Y-44508983D01*
X193471298Y-44492385D01*
X193470920Y-44492879D01*
X193280454Y-44346730D01*
X193280453Y-44346729D01*
X193280450Y-44346727D01*
X193198957Y-44299677D01*
X193076056Y-44228719D01*
X193076045Y-44228714D01*
X192857993Y-44138394D01*
X192630010Y-44077306D01*
X192396020Y-44046501D01*
X192396017Y-44046500D01*
X192396011Y-44046500D01*
X192159989Y-44046500D01*
X192159983Y-44046500D01*
X192159979Y-44046501D01*
X191925989Y-44077306D01*
X191698006Y-44138394D01*
X191479954Y-44228714D01*
X191479943Y-44228719D01*
X191275545Y-44346730D01*
X191085080Y-44492879D01*
X191084191Y-44491720D01*
X191026338Y-44518537D01*
X190957124Y-44508983D01*
X190931298Y-44492385D01*
X190930920Y-44492879D01*
X190740454Y-44346730D01*
X190740453Y-44346729D01*
X190740450Y-44346727D01*
X190658957Y-44299677D01*
X190536056Y-44228719D01*
X190536045Y-44228714D01*
X190317993Y-44138394D01*
X190090010Y-44077306D01*
X189856020Y-44046501D01*
X189856017Y-44046500D01*
X189856011Y-44046500D01*
X189619989Y-44046500D01*
X189619983Y-44046500D01*
X189619979Y-44046501D01*
X189385989Y-44077306D01*
X189158006Y-44138394D01*
X188939954Y-44228714D01*
X188939943Y-44228719D01*
X188735545Y-44346730D01*
X188548302Y-44490406D01*
X188548295Y-44490412D01*
X188381412Y-44657295D01*
X188381406Y-44657302D01*
X188237730Y-44844545D01*
X188119719Y-45048943D01*
X188119714Y-45048954D01*
X188029394Y-45267006D01*
X187968306Y-45494989D01*
X187937501Y-45728979D01*
X187937500Y-45728995D01*
X181424841Y-45728995D01*
X181483241Y-45614379D01*
X181561090Y-45374785D01*
X181600500Y-45125962D01*
X181600500Y-44874038D01*
X181561090Y-44625215D01*
X181483241Y-44385621D01*
X181483239Y-44385618D01*
X181483239Y-44385616D01*
X181441747Y-44304184D01*
X181368870Y-44161155D01*
X181307950Y-44077306D01*
X181220798Y-43957350D01*
X181220794Y-43957345D01*
X181042654Y-43779205D01*
X181042649Y-43779201D01*
X180838848Y-43631132D01*
X180838847Y-43631131D01*
X180838845Y-43631130D01*
X180768747Y-43595413D01*
X180614383Y-43516760D01*
X180374785Y-43438910D01*
X180125962Y-43399500D01*
X179874038Y-43399500D01*
X179749626Y-43419205D01*
X179625214Y-43438910D01*
X179385616Y-43516760D01*
X179161151Y-43631132D01*
X178957350Y-43779201D01*
X178957345Y-43779205D01*
X178779205Y-43957345D01*
X178779201Y-43957350D01*
X178631132Y-44161151D01*
X178516760Y-44385616D01*
X178438910Y-44625214D01*
X178411140Y-44800547D01*
X178399500Y-44874038D01*
X173270500Y-44874038D01*
X173270500Y-40044500D01*
X173290185Y-39977461D01*
X173342989Y-39931706D01*
X173394500Y-39920500D01*
X255357500Y-39920500D01*
X255424539Y-39940185D01*
G37*
%TD.AperFunction*%
%TD*%
M02*
